<svg width="54" height="37" viewBox="0 0 54 37" fill="none" xmlns="http://www.w3.org/2000/svg">
<path d="M14.95 36.5C12.55 36.5 10.4667 36.1667 8.7 35.5C6.93333 34.8 5.46667 33.85 4.3 32.65C3.16667 31.45 2.3 30.05 1.7 28.45C1.1 26.85 0.75 25.1333 0.65 23.3C0.616667 22.4 0.583333 21.3833 0.55 20.25C0.55 19.0833 0.55 17.9167 0.55 16.75C0.583333 15.55 0.616667 14.4833 0.65 13.55C0.75 11.7167 1.1 10.0167 1.7 8.45C2.33333 6.85 3.23333 5.46667 4.4 4.3C5.6 3.1 7.06667 2.16667 8.8 1.5C10.5667 0.833331 12.6167 0.499998 14.95 0.499998C17.3167 0.499998 19.3667 0.833331 21.1 1.5C22.8333 2.16667 24.2833 3.1 25.45 4.3C26.65 5.46667 27.5667 6.85 28.2 8.45C28.8333 10.0167 29.1833 11.7167 29.25 13.55C29.3167 14.4833 29.35 15.55 29.35 16.75C29.3833 17.9167 29.3833 19.0833 29.35 20.25C29.35 21.3833 29.3167 22.4 29.25 23.3C29.1833 25.1333 28.8333 26.85 28.2 28.45C27.6 30.05 26.7167 31.45 25.55 32.65C24.4167 33.85 22.9667 34.8 21.2 35.5C19.4667 36.1667 17.3833 36.5 14.95 36.5ZM14.95 29.25C16.6833 29.25 17.9333 28.7 18.7 27.6C19.5 26.4667 19.9167 24.95 19.95 23.05C20.0167 22.0833 20.05 21.0667 20.05 20C20.0833 18.9333 20.0833 17.8667 20.05 16.8C20.05 15.7333 20.0167 14.75 19.95 13.85C19.9167 12.0167 19.5 10.5333 18.7 9.4C17.9333 8.26667 16.6833 7.68333 14.95 7.65C13.2167 7.68333 11.9667 8.26667 11.2 9.4C10.4333 10.5333 10.0167 12.0167 9.95 13.85C9.91667 14.75 9.88333 15.7333 9.85 16.8C9.85 17.8667 9.85 18.9333 9.85 20C9.88333 21.0667 9.91667 22.0833 9.95 23.05C10.0167 24.95 10.45 26.4667 11.25 27.6C12.05 28.7 13.2833 29.25 14.95 29.25ZM45.8344 36C45.501 36 45.201 35.8833 44.9344 35.65C44.701 35.4167 44.5844 35.1167 44.5844 34.75V10.95L37.7344 16.2C37.4344 16.4333 37.1177 16.5167 36.7844 16.45C36.4844 16.3833 36.2177 16.2 35.9844 15.9L33.0344 12.05C32.8344 11.75 32.751 11.4333 32.7844 11.1C32.851 10.7333 33.051 10.45 33.3844 10.25L44.8844 1.35C45.0844 1.21667 45.2677 1.13333 45.4344 1.1C45.6344 1.03333 45.851 0.999998 46.0844 0.999998H52.3344C52.6677 0.999998 52.951 1.11666 53.1844 1.35C53.451 1.58333 53.5844 1.88333 53.5844 2.25V34.75C53.5844 35.1167 53.451 35.4167 53.1844 35.65C52.951 35.8833 52.6677 36 52.3344 36H45.8344Z" fill="#6E76C1"/>
</svg>
