<svg width="63" height="37" viewBox="0 0 63 37" fill="none" xmlns="http://www.w3.org/2000/svg">
<path d="M14.95 36.5C12.55 36.5 10.4667 36.1667 8.7 35.5C6.93333 34.8 5.46667 33.85 4.3 32.65C3.16667 31.45 2.3 30.05 1.7 28.45C1.1 26.85 0.75 25.1333 0.65 23.3C0.616667 22.4 0.583333 21.3833 0.55 20.25C0.55 19.0833 0.55 17.9167 0.55 16.75C0.583333 15.55 0.616667 14.4833 0.65 13.55C0.75 11.7167 1.1 10.0167 1.7 8.45C2.33333 6.85 3.23333 5.46667 4.4 4.3C5.6 3.1 7.06667 2.16667 8.8 1.5C10.5667 0.833331 12.6167 0.499998 14.95 0.499998C17.3167 0.499998 19.3667 0.833331 21.1 1.5C22.8333 2.16667 24.2833 3.1 25.45 4.3C26.65 5.46667 27.5667 6.85 28.2 8.45C28.8333 10.0167 29.1833 11.7167 29.25 13.55C29.3167 14.4833 29.35 15.55 29.35 16.75C29.3833 17.9167 29.3833 19.0833 29.35 20.25C29.35 21.3833 29.3167 22.4 29.25 23.3C29.1833 25.1333 28.8333 26.85 28.2 28.45C27.6 30.05 26.7167 31.45 25.55 32.65C24.4167 33.85 22.9667 34.8 21.2 35.5C19.4667 36.1667 17.3833 36.5 14.95 36.5ZM14.95 29.25C16.6833 29.25 17.9333 28.7 18.7 27.6C19.5 26.4667 19.9167 24.95 19.95 23.05C20.0167 22.0833 20.05 21.0667 20.05 20C20.0833 18.9333 20.0833 17.8667 20.05 16.8C20.05 15.7333 20.0167 14.75 19.95 13.85C19.9167 12.0167 19.5 10.5333 18.7 9.4C17.9333 8.26667 16.6833 7.68333 14.95 7.65C13.2167 7.68333 11.9667 8.26667 11.2 9.4C10.4333 10.5333 10.0167 12.0167 9.95 13.85C9.91667 14.75 9.88333 15.7333 9.85 16.8C9.85 17.8667 9.85 18.9333 9.85 20C9.88333 21.0667 9.91667 22.0833 9.95 23.05C10.0167 24.95 10.45 26.4667 11.25 27.6C12.05 28.7 13.2833 29.25 14.95 29.25ZM35.3344 36C34.9677 36 34.651 35.8833 34.3844 35.65C34.151 35.4167 34.0344 35.1167 34.0344 34.75V31.2C34.0344 30.9667 34.101 30.6167 34.2344 30.15C34.3677 29.65 34.7177 29.1833 35.2844 28.75L40.4844 23.65C43.151 21.6167 45.3344 19.9 47.0344 18.5C48.7677 17.0667 50.051 15.8 50.8844 14.7C51.7177 13.6 52.1344 12.5667 52.1344 11.6C52.1344 10.4667 51.8344 9.53333 51.2344 8.8C50.6677 8.03333 49.6677 7.65 48.2344 7.65C47.2677 7.65 46.451 7.86667 45.7844 8.3C45.151 8.7 44.6677 9.23333 44.3344 9.9C44.001 10.5667 43.7677 11.25 43.6344 11.95C43.501 12.3833 43.2677 12.6833 42.9344 12.85C42.6344 13.0167 42.301 13.1 41.9344 13.1H35.6844C35.3844 13.1 35.1344 13 34.9344 12.8C34.7344 12.6 34.6344 12.35 34.6344 12.05C34.6677 10.45 35.001 8.95 35.6344 7.55C36.301 6.15 37.2177 4.91667 38.3844 3.85C39.5844 2.75 41.001 1.9 42.6344 1.3C44.301 0.699999 46.1677 0.399999 48.2344 0.399999C51.0677 0.399999 53.4677 0.849999 55.4344 1.75C57.4344 2.65 58.951 3.91666 59.9844 5.55C61.0177 7.15 61.5344 9.03333 61.5344 11.2C61.5344 12.8333 61.1677 14.3667 60.4344 15.8C59.7344 17.2 58.7177 18.55 57.3844 19.85C56.0844 21.1167 54.5344 22.4333 52.7344 23.8L48.1344 28.45H60.9844C61.351 28.45 61.651 28.5667 61.8844 28.8C62.151 29.0333 62.2844 29.3333 62.2844 29.7V34.75C62.2844 35.1167 62.151 35.4167 61.8844 35.65C61.651 35.8833 61.351 36 60.9844 36H35.3344Z" fill="#6E76C1"/>
</svg>
