<svg width="63" height="37" viewBox="0 0 63 37" fill="none" xmlns="http://www.w3.org/2000/svg">
<path d="M14.95 36.5C12.55 36.5 10.4667 36.1667 8.7 35.5C6.93333 34.8 5.46667 33.85 4.3 32.65C3.16667 31.45 2.3 30.05 1.7 28.45C1.1 26.85 0.75 25.1333 0.65 23.3C0.616667 22.4 0.583333 21.3833 0.55 20.25C0.55 19.0833 0.55 17.9167 0.55 16.75C0.583333 15.55 0.616667 14.4833 0.65 13.55C0.75 11.7167 1.1 10.0167 1.7 8.45C2.33333 6.85 3.23333 5.46667 4.4 4.3C5.6 3.1 7.06667 2.16667 8.8 1.5C10.5667 0.833331 12.6167 0.499998 14.95 0.499998C17.3167 0.499998 19.3667 0.833331 21.1 1.5C22.8333 2.16667 24.2833 3.1 25.45 4.3C26.65 5.46667 27.5667 6.85 28.2 8.45C28.8333 10.0167 29.1833 11.7167 29.25 13.55C29.3167 14.4833 29.35 15.55 29.35 16.75C29.3833 17.9167 29.3833 19.0833 29.35 20.25C29.35 21.3833 29.3167 22.4 29.25 23.3C29.1833 25.1333 28.8333 26.85 28.2 28.45C27.6 30.05 26.7167 31.45 25.55 32.65C24.4167 33.85 22.9667 34.8 21.2 35.5C19.4667 36.1667 17.3833 36.5 14.95 36.5ZM14.95 29.25C16.6833 29.25 17.9333 28.7 18.7 27.6C19.5 26.4667 19.9167 24.95 19.95 23.05C20.0167 22.0833 20.05 21.0667 20.05 20C20.0833 18.9333 20.0833 17.8667 20.05 16.8C20.05 15.7333 20.0167 14.75 19.95 13.85C19.9167 12.0167 19.5 10.5333 18.7 9.4C17.9333 8.26667 16.6833 7.68333 14.95 7.65C13.2167 7.68333 11.9667 8.26667 11.2 9.4C10.4333 10.5333 10.0167 12.0167 9.95 13.85C9.91667 14.75 9.88333 15.7333 9.85 16.8C9.85 17.8667 9.85 18.9333 9.85 20C9.88333 21.0667 9.91667 22.0833 9.95 23.05C10.0167 24.95 10.45 26.4667 11.25 27.6C12.05 28.7 13.2833 29.25 14.95 29.25ZM48.2344 36.5C45.6344 36.5 43.4177 36.2 41.5844 35.6C39.751 34.9667 38.251 34.1667 37.0844 33.2C35.9177 32.2 35.051 31.15 34.4844 30.05C33.9177 28.9167 33.6177 27.8333 33.5844 26.8C33.5844 26.5 33.6844 26.25 33.8844 26.05C34.1177 25.85 34.3844 25.75 34.6844 25.75H41.1844C41.5844 25.75 41.901 25.8333 42.1344 26C42.3677 26.1333 42.5844 26.3667 42.7844 26.7C43.051 27.3333 43.4344 27.85 43.9344 28.25C44.4677 28.65 45.101 28.9333 45.8344 29.1C46.5677 29.2333 47.3677 29.3 48.2344 29.3C49.9344 29.3 51.251 28.9167 52.1844 28.15C53.151 27.35 53.6344 26.2667 53.6344 24.9C53.6344 23.4667 53.1844 22.45 52.2844 21.85C51.3844 21.2167 50.101 20.9 48.4344 20.9H42.8844C42.5177 20.9 42.2177 20.7833 41.9844 20.55C41.751 20.3167 41.6344 20.0167 41.6344 19.65V16.85C41.6344 16.45 41.7177 16.1 41.8844 15.8C42.051 15.5 42.2344 15.2833 42.4344 15.15L50.6344 8.2H36.7344C36.401 8.2 36.101 8.08333 35.8344 7.85C35.601 7.61666 35.4844 7.31666 35.4844 6.95V2.25C35.4844 1.88333 35.601 1.58333 35.8344 1.35C36.101 1.11666 36.401 0.999998 36.7344 0.999998H59.7344C60.101 0.999998 60.401 1.11666 60.6344 1.35C60.901 1.58333 61.0344 1.88333 61.0344 2.25V6.5C61.0344 6.86666 60.951 7.2 60.7844 7.5C60.6177 7.76666 60.4344 7.98333 60.2344 8.15L52.6344 15.2L52.9844 15.3C54.8844 15.5333 56.5844 16.05 58.0844 16.85C59.5844 17.6167 60.7677 18.7 61.6344 20.1C62.501 21.5 62.9344 23.2833 62.9344 25.45C62.9344 27.7167 62.2844 29.6833 60.9844 31.35C59.7177 32.9833 57.9844 34.25 55.7844 35.15C53.5844 36.05 51.0677 36.5 48.2344 36.5Z" fill="#6E76C1"/>
</svg>
