<svg width="365" height="368" viewBox="0 0 365 368" fill="none" xmlns="http://www.w3.org/2000/svg">
<rect y="7" width="365" height="360" rx="180" fill="#F3F4FC"/>
<path d="M207.203 73.3953C207.203 73.3953 286.272 85.5975 280.276 196.723C280.255 197.135 289.419 203.136 290.136 203.777C296.526 209.477 301.888 216.777 304.232 225.317C312.58 255.726 282.734 287.059 258.597 295.376C249.582 298.482 240.053 299.99 230.505 300.264C168.435 302.047 86.259 263.137 82.0384 187.148C81.8872 184.422 81.8499 181.693 81.9211 178.97C82.2952 164.541 85.8259 150.49 91.147 137.442C91.1447 137.443 125.689 52.9331 207.203 73.3953Z" fill="#FFE4C0"/>
<g style="mix-blend-mode:multiply" opacity="0.5">
<path d="M282.259 197.855C281.412 199.924 280.568 202.568 280.334 204.081C279.337 210.57 281.599 217.28 285.509 222.111C289.221 226.698 294.513 229.68 299.632 230.814C301.36 231.197 303.451 231.397 305.281 231.462C303.303 212.656 287.816 201.331 282.259 197.855Z" fill="#FFE7E2"/>
</g>
<g style="mix-blend-mode:multiply" opacity="0.5">
<path d="M170.893 247.336C185.541 244.256 194.595 228.993 191.117 213.246C187.639 197.498 172.945 187.229 158.298 190.309C143.65 193.389 134.595 208.652 138.073 224.4C141.552 240.147 156.245 250.416 170.893 247.336Z" fill="#FFE7E2"/>
</g>
<path opacity="0.3" d="M242.725 203.325C242.725 203.325 255.267 191.554 264.978 202.621Z" fill="#CBA284"/>
<path d="M125.769 262.102C84.2189 282.659 46.2677 230.76 58.2684 201.668C65.9235 183.112 88.4231 181.723 101.521 198.723C109.251 208.756 115.522 221.571 119.099 233.825" fill="#FFE4C0"/>
<path opacity="0.3" d="M91.3434 215.797C96.7184 221.207 101.052 229.223 106.359 233.702C105.356 226.227 103.767 218.244 100.079 211.502C96.3349 204.654 89.5484 199.003 82.6594 199.451C74.1219 200.006 67.1243 209.837 66.2507 218.765C66.7729 213.422 77.6153 209.833 81.7602 210.349C88.2892 222.474 90.8824 246.347 90.8824 246.347C96.2411 232.849 94.0167 222.217 91.3434 215.797Z" fill="#CBA284"/>
<path d="M223.814 184.636C223.8 191.679 220.07 197.395 212.326 196.224C206.751 194.751 203.04 190.874 203.054 183.488C203.07 175.749 207.639 170.727 212.376 170.718C218.708 170.706 223.828 177.592 223.814 184.636Z" fill="#2A1200"/>
<path d="M276.612 184.509C276.603 189.23 274.436 194.3 268.893 193.717C264.241 193.228 263.053 187.203 263.059 184.237C263.069 179.05 265.704 174.149 269.547 174.142C273.681 174.134 276.621 179.788 276.612 184.509Z" fill="#2A1200"/>
<path d="M227.282 151.26C219.814 147.611 210.486 147.951 202.998 152.111C200.584 153.452 199.025 156.658 200.262 159.377C201.405 161.891 204.417 163.469 207.002 162.03C207.777 161.599 208.568 161.207 209.383 160.869C209.636 160.764 210.288 160.638 210.541 160.446C210.659 160.411 210.774 160.377 210.894 160.345C211.631 160.149 212.376 159.991 213.125 159.87C213.555 159.801 213.983 159.747 214.414 159.702C214.55 159.689 214.685 159.678 214.822 159.667C215.174 159.711 215.613 159.649 215.944 159.66C216.375 159.673 216.803 159.7 217.232 159.74C217.981 159.809 218.726 159.916 219.462 160.062C219.566 160.083 219.666 160.105 219.769 160.128C220.154 160.247 220.54 160.356 220.922 160.489C221.732 160.772 222.521 161.11 223.295 161.486C225.708 162.666 229.112 160.999 230.033 158.313C231.043 155.354 229.866 152.524 227.282 151.26Z" fill="#451E00"/>
<path d="M279.326 153.824C274.861 151.433 269.739 150.895 265.129 152.209C263.885 152.564 262.749 153.633 262.217 154.816C261.691 155.981 261.585 157.649 262.102 158.916C262.64 160.231 263.558 161.482 264.852 162.106C266.165 162.739 267.506 162.902 268.858 162.518C269.079 162.455 269.306 162.418 269.531 162.366C270.233 162.287 270.937 162.267 271.649 162.297C272.504 162.424 273.346 162.629 274.177 162.911C274.466 163.043 274.762 163.159 275.046 163.31C276.269 163.964 277.799 164.12 279.051 163.723C280.25 163.343 281.479 162.325 281.962 161.114C282.463 159.86 282.63 158.369 282.077 157.014C281.525 155.663 280.62 154.517 279.326 153.824Z" fill="#451E00"/>
<path d="M288.581 104.149C288.052 93.7861 284.214 78.1809 272.002 81.7932C269.861 82.4257 267.98 83.8161 266.537 85.6209C265.978 83.5489 265.162 81.4824 264.142 79.4432C261.315 73.7861 253.601 71.5397 248.556 75.043C247.392 75.8527 246.43 76.8423 245.617 77.9219C233.542 68.7071 220.586 60.7682 206.469 56.1363C185.875 49.3778 163.467 49.9585 142.765 56.3217C140.545 57.0032 138.342 57.7529 136.158 58.5627C115.529 66.2126 94.6675 79.1242 81.0737 97.6846C67.7356 115.893 60.8298 138.461 58.5414 161.324C57.8807 167.916 57.5389 174.549 57.549 181.179C57.549 181.82 57.549 178.052 57.7516 185.686C63.6141 172.458 86.6623 175.164 86.6623 175.164L100.006 190.196C103.228 194.26 106.72 219.338 110.834 216.35L112.653 215.448C115.486 213.39 113.942 197.172 113.858 193.494C113.317 169.309 123.349 144.061 139.623 129.334C156.166 114.364 180.177 108.601 202.137 107.246C220.571 106.109 238.522 110.705 254.454 120.803C259.565 124.042 264.428 127.769 268.896 131.97C269.218 132.273 273.612 137.128 273.802 137.03C284.596 131.523 288.778 118.271 288.644 106.169C288.636 105.523 288.616 104.847 288.581 104.149Z" fill="#795E3C"/>
<path d="M206.469 56.1392C220.586 60.7711 233.542 68.71 245.617 77.9248C246.242 77.0906 246.992 76.3436 247.822 75.6675C246.172 77.5295 244.873 79.945 243.779 82.246C238.906 78.162 232.77 75.9156 226.614 77.7858C220.723 79.5769 216.564 84.5197 214.063 90.3157C200.013 81.9433 184.977 78.7509 167.72 81.9733C147.058 85.831 129.001 100.057 117.01 118.309C100.864 142.886 100.682 189.41 112.84 215.187C112.547 215.462 112.84 215.187 110.843 216.741C106.729 219.729 101.432 198.313 89.6049 192.3C84.3484 189.394 71.0454 186.828 59.8851 198.613C57.549 188.091 57.549 183.281 57.549 177.87C57.5391 171.326 57.8718 168.006 58.5157 161.583L58.5414 161.327C60.8298 138.464 67.7356 115.896 81.0737 97.6875C94.6675 79.1271 115.529 66.2155 136.158 58.5656C138.342 57.7559 140.545 57.0062 142.765 56.3246C163.467 49.9615 185.875 49.3808 206.469 56.1392Z" fill="#725837"/>
<path d="M256.542 225.578C262.164 225.731 267.556 224.145 272.199 219.383C274.629 216.895 277.093 215.524 280.579 217.654C288.925 222.753 290.89 235.491 288.646 244.033C286.183 253.405 278.763 260.961 270.212 265.889C247.203 279.15 229.554 276.166 206.008 267.688C187.475 261.018 162.418 247.571 168.77 224.429C176.635 195.775 210.532 209.533 229.658 217.262C237.779 220.547 247.462 225.329 256.542 225.578Z" fill="white"/>
<mask id="mask0_328_4898" style="mask-type:alpha" maskUnits="userSpaceOnUse" x="167" y="207" width="123" height="68">
<path d="M256.542 225.578C262.164 225.731 267.556 224.145 272.199 219.383C274.629 216.895 277.093 215.524 280.579 217.654C288.925 222.753 290.89 235.491 288.646 244.033C286.183 253.405 278.763 260.961 270.212 265.889C247.203 279.15 229.554 276.166 206.008 267.688C187.475 261.018 162.418 247.571 168.77 224.429C176.635 195.775 210.532 209.533 229.658 217.262C237.779 220.547 247.462 225.329 256.542 225.578Z" fill="white"/>
</mask>
<g mask="url(#mask0_328_4898)">
<path fill-rule="evenodd" clip-rule="evenodd" d="M179.776 257.405L203.864 197.428L207.217 198.739L183.129 258.716L179.776 257.405ZM229.271 276.784L245.909 213.85L249.398 214.748L232.761 277.682L229.271 276.784ZM278.789 261.589L269.609 215.449L273.148 214.763L282.328 260.903L278.789 261.589Z" fill="#D1D3D4"/>
</g>
</svg>
