<svg width="366" height="376" viewBox="0 0 366 376" fill="none" xmlns="http://www.w3.org/2000/svg">
<rect y="17" width="366" height="359" rx="179.5" fill="#F3F4FC"/>
<path d="M207.963 70.3829C207.963 70.3829 287.249 82.5512 281.237 193.368C281.215 193.779 290.404 199.763 291.124 200.402C297.531 206.087 302.907 213.367 305.258 221.882C313.629 252.207 283.701 283.453 259.498 291.747C250.458 294.844 240.903 296.348 231.329 296.621C169.089 298.399 86.6877 259.598 82.4556 183.82C82.304 181.101 82.2666 178.38 82.3379 175.664C82.7131 161.276 86.2535 147.263 91.5892 134.252C91.5868 134.253 126.226 49.9775 207.963 70.3829Z" fill="#FFE4C0"/>
<g style="mix-blend-mode:multiply" opacity="0.5">
<path d="M283.218 194.482C282.372 196.545 281.529 199.182 281.297 200.691C280.306 207.163 282.578 213.859 286.499 218.681C290.221 223.26 295.524 226.24 300.652 227.376C302.383 227.76 304.478 227.962 306.31 228.029C304.309 209.267 288.787 197.955 283.218 194.482Z" fill="#FFE7E2"/>
</g>
<g style="mix-blend-mode:multiply" opacity="0.5">
<path d="M171.579 243.864C186.253 240.805 195.309 225.585 191.807 209.868C188.306 194.152 173.572 183.89 158.898 186.949C144.225 190.007 135.168 205.228 138.67 220.944C142.172 236.661 156.906 246.922 171.579 243.864Z" fill="#FFE7E2"/>
</g>
<path opacity="0.3" d="M243.582 199.951C243.582 199.951 256.159 188.214 265.896 199.249Z" fill="#CBA284"/>
<path d="M126.305 258.611C84.7131 279.081 46.6378 227.275 58.6221 198.265C66.2668 179.76 88.8006 178.394 101.941 195.364C109.695 205.379 115.992 218.169 119.59 230.396" fill="#FFE4C0"/>
<path opacity="0.3" d="M91.7713 212.39C97.1621 217.793 101.512 225.793 106.835 230.266C105.82 222.808 104.219 214.843 100.517 208.113C96.7577 201.278 89.9527 195.636 83.0526 196.076C74.5012 196.622 67.5037 206.424 66.6396 215.33C67.1561 210 78.0125 206.429 82.1651 206.947C88.7201 219.05 91.3469 242.868 91.3469 242.868C96.6982 229.407 94.457 218.798 91.7713 212.39Z" fill="#CBA284"/>
<path d="M224.62 181.314C224.606 188.338 220.866 194.038 213.1 192.87C207.51 191.401 203.789 187.535 203.803 180.17C203.819 172.452 208.4 167.444 213.15 167.435C219.5 167.423 224.634 174.29 224.62 181.314Z" fill="#2A1200"/>
<path d="M277.562 181.187C277.553 185.895 275.38 190.951 269.822 190.37C265.157 189.882 263.966 183.874 263.972 180.917C263.982 175.744 266.624 170.856 270.478 170.849C274.623 170.842 277.571 176.479 277.562 181.187Z" fill="#2A1200"/>
<path d="M228.097 148.031C220.609 144.393 211.256 144.731 203.747 148.88C201.326 150.217 199.763 153.414 201.004 156.125C202.149 158.632 205.17 160.206 207.762 158.771C208.539 158.341 209.332 157.951 210.149 157.614C210.403 157.509 211.056 157.383 211.31 157.191C211.428 157.157 211.544 157.123 211.664 157.091C212.404 156.896 213.15 156.738 213.902 156.617C214.332 156.549 214.762 156.494 215.194 156.45C215.33 156.436 215.466 156.425 215.603 156.415C215.956 156.459 216.397 156.397 216.728 156.408C217.16 156.421 217.589 156.448 218.02 156.488C218.771 156.557 219.518 156.663 220.256 156.809C220.36 156.829 220.461 156.852 220.564 156.874C220.949 156.993 221.337 157.102 221.719 157.234C222.532 157.517 223.323 157.854 224.099 158.229C226.518 159.406 229.932 157.743 230.855 155.064C231.868 152.114 230.689 149.291 228.097 148.031Z" fill="#451E00"/>
<path d="M280.284 150.588C275.807 148.204 270.671 147.668 266.048 148.978C264.8 149.331 263.661 150.398 263.127 151.577C262.601 152.739 262.494 154.402 263.013 155.666C263.552 156.977 264.473 158.224 265.771 158.847C267.086 159.478 268.432 159.64 269.787 159.258C270.009 159.195 270.236 159.158 270.462 159.106C271.166 159.028 271.872 159.007 272.586 159.037C273.443 159.164 274.287 159.369 275.12 159.65C275.411 159.781 275.708 159.898 275.992 160.048C277.218 160.7 278.752 160.856 280.008 160.46C281.21 160.08 282.443 159.066 282.927 157.858C283.429 156.607 283.597 155.121 283.042 153.769C282.489 152.422 281.581 151.279 280.284 150.588Z" fill="#451E00"/>
<path d="M237.202 100.531C217.518 127.512 173.003 182.974 111.832 202.761C107.693 195.766 100.324 188.431 87 188.671C70.3445 188.97 64.288 200.962 64.288 200.962C64.288 200.962 44.9072 233.04 89.7254 253.426C102.141 255.825 106.078 255.825 116.071 251.628C122.834 256.824 144.294 274.532 151.805 277.41C149.887 287.503 146.501 312.666 151.103 324.178C142.322 324.978 120.917 329.395 103.958 320.281C102.251 310.014 100.749 296.57 103.422 291.443C100.231 296.606 94.475 308.39 94.475 315.184C84.7846 311.887 63.2235 302.713 54.5021 292.4C40.9759 229.443 36.1251 76.8469 173.003 63.9556C185.015 62.5566 215.64 63.7758 235.99 77.4464C261.428 94.5348 274.146 117.319 278.992 140.104C268.595 135.307 245.681 120.677 237.202 100.531Z" fill="#725837"/>
<path d="M287.168 315.184C283.049 309.428 285.452 283.306 287.168 274.412C270.209 288.502 260.216 295.398 225.391 296.297C231.448 305.291 255.068 308.589 257.794 309.788L262.639 306.49V311.287C269.18 313.445 281.717 314.785 287.168 315.184Z" fill="#725837"/>
<mask id="mask0_328_4858" style="mask-type:alpha" maskUnits="userSpaceOnUse" x="173" y="63" width="106" height="78">
<path d="M234.477 76.847C214.127 63.1763 185.015 62.5567 173.003 63.9558C176.32 81.7436 186.552 119.598 214.793 128.712C223.073 118.088 232.957 108.2 237.202 100.531C245.681 120.677 268.595 135.307 278.992 140.104C274.147 117.319 259.914 93.9353 234.477 76.847Z" fill="#E2BA87"/>
</mask>
<g mask="url(#mask0_328_4858)">
<path d="M229.893 97.4212C229.893 97.4212 224.88 91.54 213.946 92.5224C213.946 92.5224 221.692 88.3584 226.702 88.8483C226.702 88.8483 213.035 78.803 192.989 85.1741C192.989 85.1741 207.111 75.3738 218.276 76.5985C218.276 76.5985 206.431 71.4548 198.913 72.6795C198.913 72.6795 204.836 65.3286 212.58 65.5735C212.58 65.5735 206.428 54.7934 196.861 51.3643C196.861 51.3643 215.996 56.7556 221.006 60.6747C232.168 65.3286 242.419 79.0506 242.419 79.0506C239.002 77.091 233.534 77.5809 233.534 77.5809C242.419 82.9723 249.253 93.0149 249.253 93.0149C244.926 90.0756 239.686 91.0554 239.686 91.0554C248.115 99.386 250.847 110.166 250.847 110.166C249.709 106.737 241.508 102.57 241.508 102.57C244.696 108.207 245.379 117.269 245.379 117.269L238.545 108.449C238.545 108.449 224.65 119.964 221.004 121.433C221.004 121.433 231.482 110.653 232.165 105.755C232.165 105.755 216.446 109.919 203.918 111.636C203.923 111.63 221.464 98.401 229.893 97.4212Z" fill="#795E3C"/>
</g>
<path d="M194.806 126.913C186.327 137.505 158.709 163.248 116.071 181.475C129.597 173.081 164.281 150.416 194.806 126.913Z" fill="#795E3C"/>
<path d="M82.1547 181.475C106.865 129.671 157.054 100.331 179.059 92.1362C122.37 101.73 84.5773 157.092 72.7671 183.574C74.9474 182.615 79.934 181.775 82.1547 181.475Z" fill="#795E3C"/>
<path d="M69.436 244.133C70.6473 245.632 74.1601 247.97 76.0982 248.929C75.3171 262.075 74.133 287.588 74.7403 298.904C74.9007 300.502 75.0527 301.947 75.1897 303.192C74.9859 302.217 74.8393 300.749 74.7403 298.904C73.6006 287.549 72.0395 268.435 72.4643 257.923C70.2435 265.918 66.4683 268.596 69.1332 301.693C66.3068 280.308 61.926 257.084 69.436 244.133Z" fill="#795E3C"/>
<path d="M272.026 286.104C273.722 285.384 276.569 283.406 277.78 282.506C275.6 286.104 276.468 304.192 277.175 312.786C275.721 311.587 274.752 307.09 274.449 304.991C273.48 308.109 271.623 308.289 272.026 312.786C269.362 306.79 271.724 295.697 272.026 286.104Z" fill="#795E3C"/>
<path d="M135.755 281.307C132.848 307.449 134.241 314.584 136.663 325.677H130.607H124.55C120.19 304.571 131.313 294.498 135.755 281.307Z" fill="#795E3C"/>
<path d="M261.9 227.791C263.717 228.815 276.425 213.158 284.886 217.921C287.742 219.529 289.921 222.271 291.557 225.235C295.153 231.754 296.383 239.674 294.935 246.981C292.885 257.312 285.78 265.769 277.424 271.375C254.936 286.457 237.097 283.606 213.095 274.876C194.203 268.005 168.463 253.862 173.796 228.345C183.182 183.427 261.876 227.778 261.9 227.791Z" fill="#873C41"/>
<path d="M196.796 224.92C202.907 228.642 210.349 229.026 217.022 227.541C218.299 227.256 219.324 228.308 219.643 229.516C222.901 241.938 241.377 248.422 250.642 240.457C251.361 239.838 252.637 239.692 253.39 240.393C258.391 245.048 266.403 246.31 272.287 243.161C280.595 238.714 280.555 226.219 278.292 217.518C270.969 219.712 263.281 228.569 261.9 227.788C261.882 227.777 213.573 200.559 188.14 210.378C188.679 216.411 191.502 221.695 196.796 224.92Z" fill="white"/>
<path d="M266.087 273.238C252.872 261.341 236.625 254.695 220.151 249.98C206.06 245.946 190.195 243.332 175.933 247.335C182.542 261.253 199.548 269.945 213.096 274.873C234.091 282.509 250.372 285.646 269.17 276.219C268.146 275.222 267.148 274.194 266.087 273.238Z" fill="#EE7E8B"/>
</svg>
