<svg width="360" height="362" viewBox="0 0 360 362" fill="none" xmlns="http://www.w3.org/2000/svg">
<rect width="360" height="360" rx="180" transform="matrix(-1 0 0 1 360 1)" fill="#F3F4FC"/>
<path d="M155.635 67.3953C155.635 67.3953 77.6494 79.5975 83.5631 190.723C83.5846 191.135 74.5461 197.136 73.8382 197.777C67.5356 203.477 62.2477 210.777 59.9354 219.317C51.7016 249.726 81.1395 281.059 104.945 289.376C113.837 292.482 123.236 293.99 132.653 294.264C193.872 296.047 274.923 257.137 279.085 181.148C279.235 178.422 279.271 175.693 279.201 172.97C278.832 158.541 275.35 144.49 270.102 131.442C270.104 131.443 236.033 46.9331 155.635 67.3953Z" fill="#FFE4C0"/>
<g style="mix-blend-mode:multiply" opacity="0.5">
<path d="M81.5912 191.892C82.4348 193.961 83.2769 196.605 83.5121 198.118C84.5152 204.605 82.2947 211.305 78.4392 216.122C74.7786 220.696 69.5511 223.663 64.4897 224.782C62.7809 225.161 60.712 225.355 58.9025 225.416C60.8099 206.628 76.1028 195.351 81.5912 191.892Z" fill="#FFE7E2"/>
</g>
<g style="mix-blend-mode:multiply" opacity="0.5">
<path d="M191.511 241.277C177.029 238.165 168.042 222.902 171.438 207.187C174.834 191.472 189.326 181.256 203.808 184.368C218.29 187.481 227.277 202.743 223.881 218.458C220.485 234.173 205.993 244.39 191.511 241.277Z" fill="#FFE7E2"/>
</g>
<path opacity="0.3" d="M120.601 197.325C120.601 197.325 108.23 185.554 98.6525 196.621L120.601 197.325Z" fill="#CBA284"/>
<path d="M235.95 255.99C277.109 276.62 314.491 224.849 302.534 195.756C294.907 177.199 272.649 175.762 259.744 192.718C252.128 202.726 245.964 215.516 242.463 227.752" fill="#FFE4C0"/>
<path opacity="0.3" d="M269.873 209.792C264.574 215.185 260.313 223.183 255.078 227.646C256.048 220.181 257.595 212.21 261.221 205.482C264.903 198.649 271.597 193.019 278.411 193.481C286.855 194.054 293.804 203.891 294.694 212.812C294.162 207.473 283.43 203.864 279.333 204.371C272.913 216.469 270.42 240.313 270.42 240.313C265.081 226.817 267.248 216.2 269.873 209.792Z" fill="#CBA284"/>
<path d="M139.251 178.636C139.265 185.679 142.944 191.396 150.582 190.224C156.081 188.752 159.741 184.875 159.726 177.489C159.711 169.749 155.205 164.727 150.533 164.718C144.287 164.707 139.238 171.593 139.251 178.636Z" fill="#2A1200"/>
<path d="M87.1771 178.509C87.1863 183.23 89.3229 188.3 94.7904 187.717C99.3789 187.228 100.55 181.203 100.545 178.237C100.534 173.05 97.9356 168.149 94.1447 168.142C90.0676 168.134 87.1679 173.788 87.1771 178.509Z" fill="#2A1200"/>
<path d="M135.831 145.26C143.197 141.611 152.397 141.951 159.782 146.111C162.164 147.452 163.701 150.658 162.481 153.377C161.354 155.891 158.383 157.469 155.833 156.03C155.069 155.599 154.289 155.207 153.485 154.869C153.235 154.764 152.593 154.638 152.343 154.446C152.227 154.411 152.113 154.377 151.995 154.345C151.267 154.149 150.533 153.991 149.794 153.87C149.37 153.801 148.948 153.747 148.523 153.702C148.389 153.689 148.256 153.678 148.12 153.667C147.773 153.711 147.34 153.649 147.014 153.66C146.589 153.673 146.167 153.7 145.743 153.74C145.004 153.809 144.27 153.916 143.544 154.062C143.442 154.083 143.343 154.105 143.241 154.128C142.862 154.247 142.481 154.356 142.104 154.489C141.305 154.772 140.527 155.11 139.764 155.486C137.384 156.666 134.027 154.999 133.118 152.313C132.122 149.354 133.282 146.524 135.831 145.26Z" fill="#451E00"/>
<path d="M84.5 147.824C88.9037 145.433 93.9557 144.895 98.5028 146.209C99.73 146.564 100.85 147.633 101.375 148.816C101.893 149.981 101.999 151.649 101.488 152.916C100.958 154.231 100.052 155.482 98.7754 156.106C97.4812 156.739 96.1581 156.902 94.825 156.518C94.6067 156.455 94.383 156.418 94.1607 156.366C93.4689 156.287 92.7738 156.267 92.0721 156.297C91.2291 156.424 90.3987 156.629 89.579 156.911C89.2935 157.043 89.0014 157.159 88.7219 157.31C87.5156 157.964 86.0066 158.12 84.7715 157.723C83.5891 157.343 82.3763 156.325 81.9002 155.114C81.4063 153.86 81.2411 152.369 81.7872 151.014C82.3308 149.663 83.224 148.517 84.5 147.824Z" fill="#451E00"/>
<path d="M75.3721 98.1486C75.894 87.7861 79.679 72.1809 91.7234 75.7932C93.8357 76.4257 95.6908 77.8161 97.114 79.6209C97.6657 77.5489 98.4697 75.4824 99.4759 73.4432C102.265 67.7861 109.872 65.5397 114.848 69.043C115.997 69.8527 116.946 70.8423 117.747 71.9219C129.657 62.7071 142.435 54.7682 156.36 50.1363C176.671 43.3778 198.772 43.9585 219.191 50.3217C221.38 51.0032 223.552 51.7529 225.707 52.5627C246.053 60.2126 266.629 73.1242 280.037 91.6846C293.192 109.893 300.003 132.461 302.26 155.324C302.912 161.916 303.249 168.549 303.239 175.179C303.239 175.82 303.239 172.052 303.039 179.686C297.257 166.458 274.525 169.164 274.525 169.164L261.364 184.196C258.185 188.26 254.742 213.338 250.684 210.35L248.89 209.448C246.096 207.39 247.619 191.172 247.701 187.494C248.235 163.309 238.341 138.061 222.289 123.334C205.973 108.364 182.291 102.601 160.632 101.246C142.45 100.109 124.746 104.705 109.031 114.803C103.99 118.042 99.1938 121.769 94.787 125.97C94.4699 126.273 90.1355 131.128 89.9482 131.03C79.302 125.523 75.1774 112.271 75.3097 100.169C75.3172 99.5226 75.3372 98.8465 75.3721 98.1486Z" fill="#DBB079"/>
<path d="M156.36 50.1392C142.435 54.7711 129.657 62.71 117.747 71.9248C117.131 71.0906 116.391 70.3436 115.573 69.6675C117.2 71.5295 118.481 73.945 119.56 76.246C124.366 72.162 130.418 69.9156 136.49 71.7858C142.3 73.5769 146.403 78.5197 148.869 84.3157C162.726 75.9433 177.557 72.7509 194.577 75.9733C214.956 79.831 232.765 94.0567 244.593 112.309C260.517 136.886 260.697 183.41 248.705 209.187C248.995 209.462 248.705 209.187 250.675 210.741C254.732 213.729 259.957 192.313 271.622 186.3C276.807 183.394 289.928 180.828 300.935 192.613C303.239 182.091 303.239 177.281 303.239 171.87C303.249 165.326 302.921 162.006 302.286 155.583L302.26 155.327C300.003 132.464 293.192 109.896 280.037 91.6875C266.629 73.1271 246.053 60.2155 225.707 52.5656C223.552 51.7559 221.38 51.0062 219.191 50.3246C198.772 43.9615 176.671 43.3808 156.36 50.1392Z" fill="#E2BA87"/>
<path d="M102.393 217.865C100.605 218.891 88.1062 203.19 79.7841 207.967C76.9748 209.579 74.8313 212.329 73.2218 215.301C69.685 221.839 68.4748 229.781 69.8995 237.108C71.9159 247.467 78.904 255.948 87.1238 261.57C109.243 276.693 126.79 273.834 150.397 265.08C168.98 258.191 194.298 244.008 189.053 218.42C179.82 173.376 102.416 217.852 102.393 217.865Z" fill="#873C41"/>
<path d="M166.43 214.984C160.419 218.717 153.099 219.102 146.535 217.613C145.28 217.327 144.271 218.382 143.958 219.594C140.753 232.05 122.58 238.552 113.466 230.565C112.759 229.944 111.504 229.798 110.763 230.501C105.845 235.169 97.9642 236.435 92.1764 233.277C84.0042 228.817 84.0441 216.288 86.2702 207.562C93.4731 209.763 101.035 218.644 102.393 217.861C102.411 217.85 149.928 190.556 174.944 200.403C174.413 206.452 171.637 211.751 166.43 214.984Z" fill="white"/>
<path d="M98.2753 263.437C111.273 251.507 127.254 244.843 143.457 240.115C157.317 236.07 172.923 233.448 186.951 237.462C180.45 251.419 163.723 260.136 150.398 265.077C129.747 272.735 113.733 275.88 95.2423 266.427C96.2497 265.427 97.2317 264.396 98.2753 263.437Z" fill="#EE7E8B"/>
</svg>
