<svg width="360" height="361" viewBox="0 0 360 361" fill="none" xmlns="http://www.w3.org/2000/svg">
<rect width="360" height="359" rx="179.5" transform="matrix(-1 0 0 1 360 1)" fill="#F3F4FC"/>
<path d="M155.736 54.5716C155.736 54.5716 77.5414 66.7399 83.471 177.557C83.4925 177.967 74.4298 183.952 73.7199 184.591C67.4005 190.275 62.0985 197.555 59.7799 206.071C51.524 236.396 81.0409 267.642 104.91 275.936C113.826 279.033 123.25 280.537 132.692 280.81C194.075 282.588 275.343 243.786 279.517 168.009C279.667 165.29 279.704 162.568 279.633 159.853C279.263 145.464 275.772 131.452 270.509 118.441C270.512 118.441 236.349 34.1663 155.736 54.5716Z" fill="#E2BA87"/>
<g style="mix-blend-mode:multiply" opacity="0.5">
<path d="M81.5002 178.707C82.3429 180.771 83.1835 183.407 83.4174 184.916C84.4154 191.386 82.1847 198.071 78.3186 202.88C74.648 207.446 69.4098 210.411 64.3398 211.533C62.6282 211.913 60.5561 212.109 58.7439 212.171C60.6735 193.428 76.0002 182.163 81.5002 178.707Z" fill="#FCC3B8"/>
</g>
<g style="mix-blend-mode:multiply" opacity="0.5">
<path d="M191.683 227.994C177.176 224.903 168.188 209.682 171.606 193.998C175.025 178.314 189.556 168.105 204.063 171.196C218.57 174.287 227.558 189.508 224.14 205.192C220.721 220.876 206.19 231.085 191.683 227.994Z" fill="#FCC3B8"/>
</g>
<path opacity="0.3" d="M120.608 184.14C120.608 184.14 108.204 172.402 98.6007 183.438L120.608 184.14Z" fill="#8B5E3C"/>
<path d="M236.248 242.026C278.456 263 315.678 212.075 303.052 183.057C294.998 164.547 272.325 162.851 259.462 179.522C251.87 189.361 245.799 201.98 242.429 214.08" fill="#E2BA87"/>
<path opacity="0.3" d="M270.092 196.546C264.792 201.83 260.589 209.71 255.339 214.072C256.207 206.681 257.653 198.794 261.232 192.167C264.867 185.435 271.58 179.933 278.511 180.474C287.101 181.145 294.317 190.985 295.363 199.842C294.738 194.542 283.775 190.832 279.62 191.284C273.286 203.205 271.129 226.82 271.129 226.82C265.491 213.371 267.526 202.869 270.092 196.546Z" fill="#8B5E3C"/>
<path d="M139.251 178.142C139.265 185.166 142.944 190.867 150.582 189.698C156.081 188.23 159.741 184.364 159.726 176.998C159.711 169.28 155.205 164.272 150.533 164.263C144.287 164.252 139.238 171.119 139.251 178.142Z" fill="#2A1200"/>
<path d="M87.1771 178.015C87.1863 182.723 89.3229 187.779 94.7904 187.198C99.3789 186.711 100.55 180.703 100.545 177.745C100.534 172.572 97.9356 167.685 94.1447 167.677C90.0676 167.67 87.1679 173.308 87.1771 178.015Z" fill="#2A1200"/>
<path d="M135.831 144.859C143.196 141.221 152.396 141.559 159.782 145.708C162.163 147.046 163.701 150.243 162.48 152.954C161.354 155.461 158.382 157.034 155.832 155.6C155.068 155.17 154.288 154.779 153.485 154.442C153.235 154.337 152.592 154.211 152.343 154.02C152.226 153.986 152.112 153.951 151.994 153.92C151.267 153.724 150.533 153.566 149.794 153.446C149.37 153.377 148.947 153.322 148.522 153.278C148.389 153.265 148.255 153.254 148.12 153.243C147.773 153.287 147.339 153.225 147.013 153.236C146.588 153.249 146.166 153.276 145.743 153.316C145.004 153.385 144.269 153.492 143.543 153.637C143.441 153.658 143.342 153.68 143.241 153.703C142.861 153.821 142.48 153.93 142.104 154.063C141.304 154.345 140.526 154.683 139.763 155.058C137.384 156.234 134.026 154.572 133.118 151.893C132.122 148.942 133.282 146.12 135.831 144.859Z" fill="#451E00"/>
<path d="M84.4995 147.417C88.9032 145.032 93.9552 144.496 98.5023 145.806C99.7295 146.16 100.85 147.226 101.375 148.406C101.893 149.567 101.998 151.231 101.488 152.494C100.957 153.806 100.052 155.053 98.7749 155.675C97.4807 156.306 96.1576 156.469 94.8245 156.087C94.6062 156.023 94.3825 155.987 94.1602 155.935C93.4684 155.856 92.7733 155.836 92.0716 155.865C91.2286 155.993 90.3982 156.197 89.5785 156.479C89.293 156.61 89.0009 156.726 88.7214 156.877C87.5151 157.529 86.0061 157.684 84.771 157.288C83.5886 156.909 82.3759 155.894 81.8997 154.686C81.4058 153.436 81.2406 151.949 81.7867 150.598C82.3304 149.251 83.2235 148.107 84.4995 147.417Z" fill="#451E00"/>
<mask id="mask0_328_4928" style="mask-type:alpha" maskUnits="userSpaceOnUse" x="60" y="110" width="40" height="68">
<path d="M83.7163 177.802C84.0282 148.342 90.568 126.625 99.6152 110.647C88.74 110.647 65.7932 116.104 61.0074 137.929C56.2216 159.754 74.1526 173.605 83.7163 177.802Z" fill="#C4C4C4"/>
</mask>
<g mask="url(#mask0_328_4928)">
<ellipse cx="26.6208" cy="26.6818" rx="26.6208" ry="26.6818" transform="matrix(-1 0 0 1 121.469 119.391)" fill="#2B1200"/>
</g>
<path d="M158.02 27.0044C145.325 27.0044 134.455 35.0461 129.945 46.4526C126.072 44.6008 121.755 43.5659 117.203 43.5659C100.468 43.5661 86.9006 57.5395 86.9004 74.7769C86.9004 76.0158 86.974 77.2378 87.1104 78.439C74.3222 80.8805 64.6377 92.4283 64.6377 106.307C64.6377 121.962 76.9586 134.652 92.1572 134.652C99.6355 134.652 106.416 131.578 111.376 126.592C116.392 131.578 123.247 134.652 130.809 134.652C140.335 134.652 148.742 129.775 153.759 122.34C159.351 129.822 168.18 134.652 178.118 134.652C182.496 134.652 186.658 133.713 190.424 132.025C193.912 141.099 201.447 148.1 210.765 150.724C209.845 153.693 209.349 156.853 209.349 160.131C209.349 168.992 212.971 176.988 218.786 182.669C219.294 205.829 229.999 217.842 236.626 221.322C238.214 222.615 244.939 222.225 245.001 222.221C247.034 212.838 254.32 195.348 268.764 186.697C269.865 186.819 270.985 186.883 272.118 186.883C289.024 186.883 302.729 172.91 302.729 155.672C302.729 146.761 299.065 138.722 293.19 133.035C297.971 127.528 300.874 120.289 300.874 112.358C300.874 95.8603 288.32 82.3532 272.421 81.2241C272.131 64.2448 258.678 50.5728 242.124 50.5728C237.681 50.5728 233.462 51.5574 229.66 53.3267C224.925 42.3296 214.152 34.648 201.618 34.6479C194.719 34.6479 188.354 36.9765 183.234 40.9028C177.801 32.524 168.536 27.0045 158.02 27.0044Z" fill="#2B1200"/>
<path d="M102.393 217.263C100.606 218.286 88.1067 202.629 79.7846 207.392C76.9752 209 74.8318 211.742 73.2223 214.707C69.6855 221.225 68.4753 229.146 69.9 236.452C71.9164 246.783 78.9045 255.241 87.1243 260.847C109.243 275.928 126.79 273.077 150.398 264.347C168.98 257.477 194.299 243.333 189.053 217.816C179.821 172.898 102.417 217.25 102.393 217.263Z" fill="#873C41"/>
<path d="M166.43 214.391C160.419 218.113 153.1 218.497 146.536 217.012C145.28 216.727 144.271 217.779 143.958 218.987C140.753 231.409 122.581 237.893 113.467 229.928C112.76 229.309 111.505 229.163 110.764 229.864C105.845 234.519 97.9647 235.781 92.1769 232.632C84.0047 228.185 84.0446 215.69 86.2707 206.989C93.4736 209.183 101.035 218.04 102.394 217.259C102.412 217.248 149.928 190.03 174.945 199.849C174.414 205.882 171.637 211.166 166.43 214.391Z" fill="white"/>
<path d="M98.2758 262.709C111.273 250.811 127.254 244.166 143.458 239.451C157.318 235.417 172.923 232.803 186.952 236.806C180.451 250.724 163.723 259.416 150.398 264.344C129.747 271.98 113.733 275.117 95.2428 265.69C96.2501 264.693 97.2322 263.665 98.2758 262.709Z" fill="#EE7E8B"/>
</svg>
