<svg width="360" height="368" viewBox="0 0 360 368" fill="none" xmlns="http://www.w3.org/2000/svg">
<rect y="7" width="360" height="360" rx="180" fill="#F3F4FC"/>
<path d="M204.264 60.7205C204.264 60.7205 282.459 72.9227 276.529 184.048C276.507 184.46 285.57 190.461 286.28 191.102C292.599 196.802 297.902 204.102 300.22 212.642C308.476 243.051 278.959 274.384 255.09 282.701C246.174 285.807 236.75 287.315 227.308 287.589C165.925 289.372 84.6566 250.462 80.4827 174.474C80.3332 171.747 80.2963 169.018 80.3667 166.295C80.7367 151.867 84.2283 137.815 89.4907 124.768C89.4883 124.768 123.651 40.2583 204.264 60.7205Z" fill="#E2BA87"/>
<g style="mix-blend-mode:multiply" opacity="0.5">
<path d="M278.503 185.21C277.659 187.279 276.816 189.923 276.581 191.436C275.579 197.923 277.808 204.625 281.674 209.445C285.344 214.021 290.584 216.991 295.657 218.114C297.369 218.493 299.443 218.688 301.256 218.75C299.335 199.959 284.005 188.672 278.503 185.21Z" fill="#FCC3B8"/>
</g>
<g style="mix-blend-mode:multiply" opacity="0.5">
<path d="M168.304 234.614C182.818 231.508 191.818 216.245 188.406 200.524C184.995 184.802 170.464 174.576 155.95 177.682C141.436 180.788 132.436 196.051 135.848 211.772C139.259 227.493 153.79 237.72 168.304 234.614Z" fill="#FCC3B8"/>
</g>
<path opacity="0.3" d="M239.392 190.65C239.392 190.65 251.796 178.879 261.399 189.946Z" fill="#8B5E3C"/>
<path d="M123.752 248.672C81.5102 269.721 44.2973 218.682 56.9466 189.584C65.0154 171.022 87.7006 169.31 100.562 186.018C108.152 195.879 114.218 208.528 117.583 220.657" fill="#E2BA87"/>
<path opacity="0.3" d="M89.9148 203.09C95.214 208.385 99.4152 216.283 104.665 220.653C103.8 213.244 102.358 205.338 98.7809 198.695C95.1488 191.948 88.4353 186.436 81.5007 186.981C72.9066 187.658 65.6813 197.527 64.6302 206.407C65.2586 201.093 76.2286 197.368 80.3857 197.82C86.715 209.768 88.8601 233.442 88.8601 233.442C94.5087 219.956 92.4783 209.428 89.9148 203.09Z" fill="#8B5E3C"/>
<path d="M220.749 184.636C220.735 191.679 217.056 197.396 209.418 196.224C203.919 194.752 200.259 190.875 200.274 183.489C200.289 175.749 204.795 170.727 209.467 170.718C215.713 170.707 220.762 177.593 220.749 184.636Z" fill="#2A1200"/>
<path d="M272.823 184.509C272.814 189.23 270.677 194.3 265.21 193.717C260.621 193.228 259.45 187.203 259.455 184.237C259.466 179.05 262.064 174.149 265.855 174.142C269.932 174.134 272.832 179.788 272.823 184.509Z" fill="#2A1200"/>
<path d="M224.169 151.26C216.803 147.611 207.603 147.951 200.218 152.111C197.836 153.452 196.299 156.658 197.519 159.377C198.646 161.891 201.617 163.469 204.167 162.03C204.931 161.599 205.711 161.207 206.515 160.869C206.765 160.764 207.407 160.638 207.657 160.446C207.773 160.411 207.887 160.377 208.005 160.345C208.733 160.149 209.467 159.991 210.206 159.87C210.63 159.801 211.052 159.747 211.477 159.702C211.611 159.689 211.744 159.678 211.88 159.667C212.227 159.711 212.66 159.649 212.986 159.66C213.411 159.673 213.833 159.7 214.257 159.74C214.996 159.809 215.73 159.916 216.456 160.062C216.558 160.083 216.657 160.105 216.759 160.128C217.138 160.247 217.519 160.356 217.896 160.489C218.695 160.772 219.473 161.11 220.236 161.486C222.616 162.666 225.973 160.999 226.882 158.313C227.878 155.354 226.718 152.524 224.169 151.26Z" fill="#451E00"/>
<path d="M275.5 153.824C271.096 151.433 266.044 150.895 261.497 152.209C260.27 152.564 259.15 153.633 258.625 154.816C258.107 155.981 258.001 157.649 258.512 158.916C259.042 160.231 259.948 161.482 261.225 162.106C262.519 162.739 263.842 162.902 265.175 162.518C265.393 162.455 265.617 162.418 265.839 162.366C266.531 162.287 267.226 162.267 267.928 162.297C268.771 162.424 269.601 162.629 270.421 162.911C270.707 163.043 270.999 163.159 271.278 163.31C272.484 163.964 273.993 164.12 275.229 163.723C276.411 163.343 277.624 162.325 278.1 161.114C278.594 159.86 278.759 158.369 278.213 157.014C277.669 155.663 276.776 154.517 275.5 153.824Z" fill="#451E00"/>
<path d="M284.628 104.149C284.106 93.7861 280.321 78.1809 268.277 81.7932C266.164 82.4257 264.309 83.8161 262.886 85.6209C262.334 83.5489 261.53 81.4824 260.524 79.4432C257.735 73.7861 250.128 71.5397 245.152 75.043C244.003 75.8527 243.054 76.8423 242.253 77.9219C230.343 68.7071 217.565 60.7682 203.64 56.1363C183.329 49.3778 161.228 49.9585 140.809 56.3217C138.62 57.0032 136.448 57.7529 134.293 58.5627C113.947 66.2126 93.371 79.1242 79.9634 97.6846C66.8079 115.893 59.9968 138.461 57.7397 161.324C57.088 167.916 56.751 174.549 56.761 181.179C56.761 181.82 56.761 178.052 56.9607 185.686C62.743 172.458 85.4754 175.164 85.4754 175.164L98.6362 190.196C101.815 194.26 105.258 219.338 109.316 216.35L111.11 215.448C113.904 213.39 112.381 197.172 112.299 193.494C111.765 169.309 121.659 144.061 137.711 129.334C154.027 114.364 177.709 108.601 199.368 107.246C217.55 106.109 235.254 110.705 250.969 120.803C256.01 124.042 260.806 127.769 265.213 131.97C265.53 132.273 269.864 137.128 270.052 137.03C280.698 131.523 284.823 118.271 284.69 106.169C284.683 105.523 284.663 104.847 284.628 104.149Z" fill="#795E3C"/>
<path d="M203.64 56.1392C217.565 60.7711 230.343 68.71 242.253 77.9248C242.869 77.0906 243.609 76.3436 244.427 75.6675C242.8 77.5295 241.519 79.945 240.44 82.246C235.634 78.162 229.582 75.9156 223.51 77.7858C217.7 79.5769 213.597 84.5197 211.131 90.3157C197.274 81.9433 182.443 78.7509 165.423 81.9733C145.044 85.831 127.235 100.057 115.407 118.309C99.483 142.886 99.3028 189.41 111.295 215.187C111.005 215.462 111.295 215.187 109.325 216.741C105.268 219.729 100.043 198.313 88.3776 192.3C83.1932 189.394 70.0724 186.828 59.065 198.613C56.761 188.091 56.761 183.281 56.761 177.87C56.7511 171.326 57.0793 168.006 57.7144 161.583L57.7397 161.327C59.9968 138.464 66.8079 115.896 79.9634 97.6875C93.371 79.1271 113.947 66.2155 134.293 58.5656C136.448 57.7559 138.62 57.0062 140.809 56.3246C161.228 49.9615 183.329 49.3808 203.64 56.1392Z" fill="#725837"/>
<path d="M253.027 225.578C258.573 225.731 263.891 224.145 268.471 219.383C270.867 216.895 273.297 215.524 276.735 217.654C284.967 222.753 286.905 235.491 284.693 244.033C282.263 253.405 274.945 260.961 266.511 265.889C243.817 279.15 226.409 276.166 203.186 267.688C184.907 261.018 160.193 247.571 166.458 224.429C174.215 195.775 207.649 209.533 226.513 217.262C234.522 220.547 244.072 225.329 253.027 225.578Z" fill="white"/>
<mask id="mask0_328_4918" style="mask-type:alpha" maskUnits="userSpaceOnUse" x="165" y="207" width="121" height="68">
<path d="M253.027 225.577C258.573 225.731 263.891 224.144 268.47 219.383C270.866 216.894 273.297 215.524 276.735 217.653C284.967 222.752 286.905 235.491 284.692 244.032C282.263 253.405 274.944 260.96 266.511 265.889C243.816 279.149 226.409 276.165 203.186 267.688C184.906 261.018 160.193 247.571 166.457 224.428C174.215 195.775 207.648 209.532 226.512 217.262C234.522 220.547 244.072 225.328 253.027 225.577Z" fill="white"/>
</mask>
<g mask="url(#mask0_328_4918)">
<path fill-rule="evenodd" clip-rule="evenodd" d="M177.314 257.405L201.071 197.428L204.378 198.738L180.621 258.716L177.314 257.405ZM226.13 276.784L242.54 213.85L245.982 214.748L229.572 277.682L226.13 276.784ZM274.97 261.588L265.916 215.448L269.406 214.763L278.461 260.903L274.97 261.588Z" fill="#D1D3D4"/>
</g>
</svg>
