<svg width="359" height="376" viewBox="0 0 359 376" fill="none" xmlns="http://www.w3.org/2000/svg">
<rect y="16" width="359" height="360" rx="179.5" fill="#F3F4FC"/>
<path d="M203.696 69.7205C203.696 69.7205 281.674 81.9227 275.761 193.048C275.739 193.46 284.777 199.461 285.485 200.102C291.787 205.802 297.074 213.102 299.386 221.642C307.619 252.051 278.184 283.384 254.381 291.701C245.49 294.807 236.092 296.315 226.676 296.589C165.464 298.372 84.4215 259.462 80.2592 183.474C80.1101 180.747 80.0733 178.018 80.1435 175.295C80.5125 160.867 83.9944 146.815 89.2421 133.768C89.2398 133.768 123.307 49.2583 203.696 69.7205Z" fill="#E2BA87"/>
<g style="mix-blend-mode:multiply" opacity="0.5">
<path d="M277.733 194.217C276.889 196.286 276.047 198.93 275.812 200.443C274.809 206.93 277.029 213.63 280.884 218.447C284.544 223.021 289.771 225.987 294.832 227.107C296.541 227.485 298.61 227.68 300.419 227.741C298.512 208.953 283.221 197.676 277.733 194.217Z" fill="#FCC3B8"/>
</g>
<g style="mix-blend-mode:multiply" opacity="0.5">
<path d="M167.824 243.602C182.304 240.489 191.291 225.226 187.896 209.512C184.5 193.797 170.01 183.581 155.529 186.694C141.049 189.807 132.062 205.069 135.457 220.784C138.853 236.499 153.343 246.715 167.824 243.602Z" fill="#FCC3B8"/>
</g>
<path opacity="0.3" d="M238.727 199.65C238.727 199.65 251.097 187.879 260.673 198.946Z" fill="#8B5E3C"/>
<path d="M123.409 257.647C81.2508 278.712 44.1506 227.702 56.7874 198.603C64.8484 180.042 87.4832 178.319 100.306 195.017C107.873 204.872 113.919 217.515 117.27 229.641" fill="#E2BA87"/>
<path opacity="0.3" d="M89.6718 212.089C94.9558 217.38 99.1429 225.274 104.378 229.641C103.52 222.234 102.085 214.33 98.5198 207.691C94.8999 200.947 88.2049 195.439 81.2861 195.988C72.7115 196.669 65.4974 206.539 64.4438 215.417C65.0737 210.104 76.0204 206.375 80.1677 206.824C86.4757 218.766 88.6026 242.434 88.6026 242.434C94.2457 228.948 92.2258 218.424 89.6718 212.089Z" fill="#8B5E3C"/>
<path d="M220.323 180.772C220.31 187.815 216.641 193.532 209.024 192.36C203.541 190.887 199.891 187.011 199.905 179.624C199.92 171.885 204.414 166.863 209.073 166.854C215.302 166.842 220.337 173.729 220.323 180.772Z" fill="#2A1200"/>
<path d="M272.253 180.644C272.244 185.365 270.114 190.435 264.661 189.853C260.085 189.364 258.917 183.339 258.923 180.373C258.933 175.186 261.525 170.285 265.305 170.277C269.371 170.27 272.263 175.923 272.253 180.644Z" fill="#2A1200"/>
<path d="M223.734 147.396C216.39 143.747 207.215 144.087 199.85 148.247C197.475 149.588 195.942 152.794 197.159 155.512C198.283 158.026 201.246 159.604 203.789 158.166C204.551 157.735 205.328 157.343 206.13 157.005C206.379 156.9 207.02 156.774 207.268 156.581C207.385 156.547 207.498 156.513 207.616 156.481C208.341 156.285 209.073 156.127 209.811 156.006C210.233 155.937 210.655 155.882 211.078 155.838C211.212 155.824 211.345 155.813 211.48 155.803C211.826 155.847 212.258 155.785 212.583 155.795C213.007 155.809 213.428 155.836 213.85 155.876C214.587 155.945 215.32 156.052 216.043 156.198C216.145 156.218 216.244 156.241 216.345 156.263C216.723 156.382 217.104 156.492 217.479 156.625C218.276 156.908 219.052 157.246 219.813 157.622C222.186 158.802 225.534 157.135 226.44 154.448C227.434 151.49 226.277 148.66 223.734 147.396Z" fill="#C25563"/>
<path d="M274.923 149.96C270.532 147.569 265.494 147.032 260.959 148.345C259.736 148.7 258.619 149.769 258.095 150.952C257.578 152.117 257.473 153.785 257.982 155.052C258.511 156.367 259.414 157.618 260.688 158.242C261.978 158.875 263.298 159.038 264.627 158.655C264.845 158.591 265.068 158.554 265.289 158.502C265.979 158.424 266.672 158.403 267.372 158.433C268.213 158.56 269.041 158.766 269.858 159.048C270.143 159.179 270.434 159.296 270.713 159.447C271.916 160.101 273.421 160.257 274.653 159.859C275.832 159.479 277.041 158.462 277.516 157.25C278.008 155.996 278.173 154.505 277.629 153.15C277.086 151.799 276.196 150.653 274.923 149.96Z" fill="#C25563"/>
<path d="M79.9973 178.476C79.9271 181.239 79.9639 184.008 80.1131 186.775C102.741 190.666 113.458 215.216 115.988 227.005C115.988 227.005 122.72 227.406 124.305 226.103C132.622 221.694 147.414 203.616 140.047 166.578C136.483 149.743 138.859 136.339 167.969 115.471C197.078 94.6034 243.415 107.655 252.92 115.471C260.524 121.724 264.169 124.089 265.041 124.49C244.744 77.8666 203.669 71.351 203.669 71.351C123.203 50.5883 89.1023 136.339 89.1047 136.339C83.8519 149.577 80.3666 163.836 79.9973 178.476Z" fill="#DF6E7C"/>
<path d="M226.327 106.452C217.218 95.2285 194.485 79.5156 176.425 106.452C153.85 140.123 170.484 154.553 163.355 183.413C156.227 212.274 140.781 221.894 144.345 241.135C147.91 260.375 175.237 292.843 163.355 313.286C163.355 313.286 143.913 310.582 120.879 305.401C112.414 303.497 112.434 294.957 111.437 291.538L110.483 290.137C108.317 289.616 109.402 302.679 107.215 302.116C85.154 296.44 62.6444 288.679 52.2642 279.014C54.4425 274.204 56.7791 260.615 48.6998 244.742C38.6006 224.901 43.3532 208.065 52.2642 196.641C61.1752 185.217 59.393 170.787 55.8285 153.35C52.2641 135.914 55.8285 110.06 73.0565 99.8382C90.2845 89.6167 98.6015 72.7815 112.265 64.3638C125.929 55.9461 176.425 36.7057 209.098 64.3638C212.266 62.1592 224.188 59.0727 239.396 64.3638C258.406 70.9777 275.086 101.469 277.416 121.784C281.277 155.455 290.782 167.179 293.159 178.904C294.748 186.746 296.128 194.236 289.297 207.464C283.357 201.752 279.198 199.347 275.634 196.641C276.228 189.827 276.822 172.471 274.446 157.559C271.476 138.92 258.703 92.3224 234.346 99.8382C231.772 100.74 230.604 102.604 226.327 106.452Z" fill="#DF6E7C"/>
<path d="M285.436 289.837C287.099 285.748 286.129 277.711 285.436 274.204C278.307 282.141 269 288.734 265.238 291.039C270.703 292.001 280.98 290.638 285.436 289.837Z" fill="#DF6E7C"/>
<path d="M151.473 108.256C165.256 84.2054 194.444 80.197 207.316 81.1991C137.81 73.9839 131.275 122.085 131.275 140.724C131.275 155.635 133.057 164.173 128.305 172.591C111.077 193.334 117.414 212.675 120.582 220.09C117.612 204.458 123.552 193.034 136.622 178.002C149.691 162.971 134.245 138.319 151.473 108.256Z" fill="#CF5968"/>
<path d="M131.275 271.799C122.72 263.141 120.582 254.964 120.582 251.957C148.147 266.388 142.76 288.835 136.622 298.254C138.404 293.043 139.83 280.457 131.275 271.799Z" fill="#CF5968"/>
<path d="M89.6904 172.591C94.9182 160.566 93.8489 146.336 92.6607 140.724C92.6607 158.762 81.3734 178.002 68.898 200.85C58.9177 219.128 73.0565 240.533 81.3734 248.951C83.1556 239.331 75.4328 232.116 74.8387 214.679C74.2446 197.243 83.1557 187.622 89.6904 172.591Z" fill="#CF5968"/>
<path d="M286.327 205.059C289.416 195.198 287.218 181.309 285.733 175.597C285.733 185.458 283.951 197.343 283.06 202.053L286.327 205.059Z" fill="#CF5968"/>
<path d="M252.324 225.687C257.855 225.84 263.158 224.254 267.725 219.492C270.114 217.004 272.538 215.633 275.966 217.763C284.175 222.862 286.108 235.6 283.902 244.141C281.479 253.514 274.181 261.07 265.771 265.998C243.139 279.259 225.78 276.274 202.622 267.797C184.393 261.127 159.748 247.68 165.995 224.537C173.731 195.884 207.072 209.641 225.883 217.371C233.871 220.656 243.394 225.438 252.324 225.687Z" fill="white"/>
<mask id="mask0_328_4888" style="mask-type:alpha" maskUnits="userSpaceOnUse" x="165" y="207" width="120" height="69">
<path d="M252.324 225.687C257.855 225.84 263.158 224.254 267.725 219.492C270.114 217.004 272.538 215.633 275.966 217.763C284.175 222.862 286.108 235.6 283.902 244.141C281.479 253.514 274.181 261.07 265.771 265.998C243.139 279.259 225.78 276.274 202.622 267.797C184.393 261.127 159.748 247.68 165.995 224.537C173.731 195.884 207.072 209.641 225.883 217.371C233.871 220.656 243.394 225.438 252.324 225.687Z" fill="white"/>
</mask>
<g mask="url(#mask0_328_4888)">
<path fill-rule="evenodd" clip-rule="evenodd" d="M176.821 257.514L200.513 197.537L203.81 198.848L180.119 258.825L176.821 257.514ZM225.502 276.893L241.866 213.959L245.299 214.857L228.935 277.791L225.502 276.893ZM274.206 261.698L265.177 215.558L268.658 214.872L277.687 261.012L274.206 261.698Z" fill="#D1D3D4"/>
</g>
</svg>
