<svg width="360" height="368" viewBox="0 0 360 368" fill="none" xmlns="http://www.w3.org/2000/svg">
<rect y="7" width="360" height="360" rx="180" fill="#F3F4FC"/>
<path d="M204.365 73.3953C204.365 73.3953 282.351 85.5975 276.437 196.723C276.416 197.135 285.454 203.136 286.162 203.777C292.465 209.477 297.753 216.777 300.065 225.317C308.299 255.726 278.861 287.059 255.055 295.376C246.163 298.482 236.764 299.99 227.347 300.264C166.128 302.047 85.0775 263.137 80.9148 187.148C80.7657 184.422 80.7289 181.693 80.799 178.97C81.1681 164.541 84.6504 150.49 89.8986 137.442C89.8963 137.443 123.967 52.9331 204.365 73.3953Z" fill="#FFE4C0"/>
<g style="mix-blend-mode:multiply" opacity="0.5">
<path d="M278.409 197.892C277.566 199.961 276.724 202.605 276.488 204.118C275.485 210.605 277.706 217.305 281.561 222.122C285.222 226.696 290.449 229.663 295.511 230.782C297.22 231.161 299.289 231.355 301.098 231.416C299.191 212.628 283.898 201.351 278.409 197.892Z" fill="#FFE7E2"/>
</g>
<g style="mix-blend-mode:multiply" opacity="0.5">
<path d="M168.489 247.277C182.971 244.165 191.958 228.902 188.562 213.187C185.166 197.472 170.674 187.256 156.192 190.368C141.711 193.481 132.724 208.743 136.119 224.458C139.515 240.173 154.008 250.39 168.489 247.277Z" fill="#FFE7E2"/>
</g>
<path opacity="0.3" d="M239.399 203.325C239.399 203.325 251.77 191.554 261.348 202.621Z" fill="#CBA284"/>
<path d="M124.05 261.99C82.8907 282.62 45.5087 230.849 57.4657 201.756C65.093 183.199 87.3514 181.762 100.256 198.718C107.872 208.726 114.036 221.516 117.537 233.752" fill="#FFE4C0"/>
<path opacity="0.3" d="M90.1276 215.792C95.4265 221.185 99.6873 229.183 104.923 233.646C103.952 226.181 102.406 218.21 98.7791 211.482C95.0969 204.649 88.403 199.019 81.5895 199.481C73.1456 200.054 66.1967 209.891 65.3061 218.812C65.8384 213.473 76.5706 209.864 80.6677 210.371C87.0875 222.469 89.5803 246.313 89.5803 246.313C94.9196 232.817 92.7519 222.2 90.1276 215.792Z" fill="#CBA284"/>
<path d="M220.748 184.636C220.734 191.679 217.056 197.396 209.417 196.224C203.919 194.752 200.259 190.875 200.273 183.489C200.288 175.749 204.794 170.727 209.467 170.718C215.712 170.707 220.762 177.593 220.748 184.636Z" fill="#2A1200"/>
<path d="M272.823 184.509C272.813 189.23 270.677 194.3 265.209 193.717C260.621 193.228 259.449 187.203 259.455 184.237C259.465 179.05 262.064 174.149 265.855 174.142C269.932 174.134 272.832 179.788 272.823 184.509Z" fill="#2A1200"/>
<path d="M224.168 151.26C216.803 147.611 207.603 147.951 200.217 152.111C197.836 153.452 196.298 156.658 197.519 159.377C198.646 161.891 201.617 163.469 204.167 162.03C204.931 161.599 205.711 161.207 206.515 160.869C206.764 160.764 207.407 160.638 207.657 160.446C207.773 160.411 207.887 160.377 208.005 160.345C208.732 160.149 209.467 159.991 210.206 159.87C210.629 159.801 211.052 159.747 211.477 159.702C211.611 159.689 211.744 159.678 211.88 159.667C212.227 159.711 212.66 159.649 212.986 159.66C213.411 159.673 213.833 159.7 214.257 159.74C214.995 159.809 215.73 159.916 216.456 160.062C216.558 160.083 216.657 160.105 216.759 160.128C217.138 160.247 217.519 160.356 217.895 160.489C218.695 160.772 219.473 161.11 220.236 161.486C222.616 162.666 225.973 160.999 226.882 158.313C227.878 155.354 226.718 152.524 224.168 151.26Z" fill="#451E00"/>
<path d="M275.5 153.824C271.096 151.433 266.044 150.895 261.497 152.209C260.27 152.564 259.15 153.633 258.625 154.816C258.107 155.981 258.001 157.649 258.512 158.916C259.042 160.231 259.948 161.482 261.225 162.106C262.519 162.739 263.842 162.902 265.175 162.518C265.393 162.455 265.617 162.418 265.839 162.366C266.531 162.287 267.226 162.267 267.928 162.297C268.771 162.424 269.601 162.629 270.421 162.911C270.707 163.043 270.999 163.159 271.278 163.31C272.484 163.964 273.993 164.12 275.229 163.723C276.411 163.343 277.624 162.325 278.1 161.114C278.594 159.86 278.759 158.369 278.213 157.014C277.669 155.663 276.776 154.517 275.5 153.824Z" fill="#451E00"/>
<path d="M284.628 104.149C284.106 93.7861 280.321 78.1809 268.276 81.7932C266.164 82.4257 264.309 83.8161 262.886 85.6209C262.334 83.5489 261.53 81.4824 260.524 79.4432C257.735 73.7861 250.127 71.5397 245.151 75.043C244.003 75.8527 243.054 76.8423 242.253 77.9219C230.343 68.7071 217.565 60.7682 203.64 56.1363C183.329 49.3778 161.228 49.9585 140.809 56.3217C138.62 57.0032 136.447 57.7529 134.293 58.5627C113.947 66.2126 93.3707 79.1242 79.9631 97.6846C66.8077 115.893 59.9965 138.461 57.7394 161.324C57.0878 167.916 56.7507 174.549 56.7607 181.179C56.7607 181.82 56.7607 178.052 56.9605 185.686C62.7427 172.458 85.4751 175.164 85.4751 175.164L98.636 190.196C101.814 194.26 105.258 219.338 109.315 216.35L111.11 215.448C113.904 213.39 112.381 197.172 112.299 193.494C111.764 169.309 121.659 144.061 137.711 129.334C154.027 114.364 177.709 108.601 199.368 107.246C217.55 106.109 235.254 110.705 250.969 120.803C256.01 124.042 260.806 127.769 265.213 131.97C265.53 132.273 269.864 137.128 270.052 137.03C280.698 131.523 284.822 118.271 284.69 106.169C284.683 105.523 284.663 104.847 284.628 104.149Z" fill="#272523"/>
<path d="M203.64 56.1392C217.565 60.7711 230.343 68.71 242.253 77.9248C242.869 77.0906 243.608 76.3436 244.427 75.6675C242.799 77.5295 241.518 79.945 240.44 82.246C235.634 78.162 229.581 75.9156 223.509 77.7858C217.699 79.5769 213.597 84.5197 211.13 90.3157C197.273 81.9433 182.443 78.7509 165.422 81.9733C145.044 85.831 127.234 100.057 115.407 118.309C99.4828 142.886 99.3025 189.41 111.294 215.187C111.005 215.462 111.294 215.187 109.325 216.741C105.267 219.729 100.043 198.313 88.3774 192.3C83.1929 189.394 70.0722 186.828 59.0647 198.613C56.7607 188.091 56.7607 183.281 56.7607 177.87C56.7509 171.326 57.0791 168.006 57.7142 161.583L57.7395 161.327C59.9965 138.464 66.8077 115.896 79.9631 97.6875C93.3707 79.1271 113.947 66.2155 134.293 58.5656C136.447 57.7559 138.62 57.0062 140.809 56.3246C161.228 49.9615 183.329 49.3808 203.64 56.1392Z" fill="#181818"/>
<path d="M253.027 225.578C258.573 225.731 263.891 224.145 268.471 219.383C270.867 216.895 273.297 215.524 276.735 217.654C284.967 222.753 286.905 235.491 284.692 244.033C282.263 253.405 274.945 260.961 266.511 265.889C243.816 279.15 226.409 276.166 203.186 267.688C184.906 261.018 160.193 247.571 166.458 224.429C174.215 195.775 207.648 209.533 226.512 217.262C234.522 220.547 244.072 225.329 253.027 225.578Z" fill="white"/>
<mask id="mask0_328_4893" style="mask-type:alpha" maskUnits="userSpaceOnUse" x="165" y="207" width="121" height="68">
<path d="M253.027 225.577C258.573 225.731 263.891 224.144 268.47 219.383C270.867 216.894 273.297 215.524 276.735 217.653C284.967 222.752 286.905 235.491 284.692 244.032C282.263 253.405 274.945 260.96 266.511 265.889C243.816 279.149 226.409 276.165 203.186 267.688C184.906 261.018 160.193 247.571 166.458 224.428C174.215 195.775 207.648 209.532 226.512 217.262C234.522 220.547 244.072 225.328 253.027 225.577Z" fill="white"/>
</mask>
<g mask="url(#mask0_328_4893)">
<path fill-rule="evenodd" clip-rule="evenodd" d="M177.314 257.405L201.071 197.428L204.378 198.738L180.621 258.716L177.314 257.405ZM226.13 276.784L242.54 213.85L245.982 214.748L229.572 277.682L226.13 276.784ZM274.97 261.588L265.916 215.448L269.406 214.763L278.461 260.903L274.97 261.588Z" fill="#D1D3D4"/>
</g>
</svg>
