<svg width="359" height="368" viewBox="0 0 359 368" fill="none" xmlns="http://www.w3.org/2000/svg">
<rect y="7" width="359" height="360" rx="179.5" fill="#F3F4FC"/>
<path d="M203.697 60.7205C203.697 60.7205 281.674 72.9227 275.761 184.048C275.74 184.46 284.777 190.461 285.485 191.102C291.787 196.802 297.074 204.102 299.386 212.642C307.619 243.051 278.185 274.384 254.381 282.701C245.491 285.807 236.093 287.315 226.677 287.589C165.464 289.372 84.4218 250.462 80.2595 174.474C80.1104 171.747 80.0736 169.018 80.1437 166.295C80.5127 151.867 83.9946 137.815 89.2424 124.768C89.24 124.768 123.307 40.2583 203.697 60.7205Z" fill="#E2BA87"/>
<g style="mix-blend-mode:multiply" opacity="0.5">
<path d="M277.733 185.217C276.89 187.286 276.047 189.93 275.812 191.443C274.809 197.93 277.029 204.63 280.884 209.447C284.545 214.021 289.772 216.987 294.833 218.107C296.541 218.485 298.61 218.68 300.419 218.741C298.512 199.953 283.221 188.676 277.733 185.217Z" fill="#FCC3B8"/>
</g>
<g style="mix-blend-mode:multiply" opacity="0.5">
<path d="M167.824 234.602C182.305 231.489 191.291 216.226 187.896 200.512C184.501 184.797 170.01 174.581 155.53 177.694C141.049 180.807 132.063 196.069 135.458 211.784C138.853 227.499 153.344 237.715 167.824 234.602Z" fill="#FCC3B8"/>
</g>
<path opacity="0.3" d="M238.727 190.65C238.727 190.65 251.097 178.879 260.673 189.946Z" fill="#8B5E3C"/>
<path d="M123.409 248.647C81.2513 269.712 44.1511 218.702 56.7879 189.603C64.8488 171.042 87.4837 169.319 100.306 186.017C107.874 195.872 113.92 208.515 117.27 220.641" fill="#E2BA87"/>
<path opacity="0.3" d="M89.6723 203.088C94.9562 208.379 99.1434 216.274 104.379 220.641C103.52 213.233 102.085 205.33 98.5203 198.69C94.9004 191.947 88.2054 186.439 81.2866 186.988C72.712 187.668 65.4978 197.538 64.4443 206.417C65.0742 201.104 76.0209 197.374 80.1681 197.824C86.4762 209.766 88.6031 233.434 88.6031 233.434C94.2462 219.948 92.2263 209.423 89.6723 203.088Z" fill="#8B5E3C"/>
<path d="M220.135 184.636C220.121 191.679 216.453 197.396 208.836 196.224C203.352 194.752 199.703 190.875 199.717 183.489C199.732 175.749 204.226 170.727 208.885 170.718C215.113 170.707 220.149 177.593 220.135 184.636Z" fill="#2A1200"/>
<path d="M272.065 184.509C272.055 189.23 269.925 194.3 264.472 193.717C259.897 193.228 258.729 187.203 258.734 184.237C258.744 179.05 261.336 174.149 265.116 174.142C269.182 174.134 272.074 179.788 272.065 184.509Z" fill="#2A1200"/>
<path d="M223.546 151.26C216.201 147.611 207.027 147.951 199.662 152.111C197.287 153.452 195.754 156.658 196.971 159.377C198.094 161.891 201.057 163.469 203.6 162.03C204.362 161.599 205.14 161.207 205.941 160.869C206.19 160.764 206.831 160.638 207.08 160.446C207.196 160.411 207.31 160.377 207.428 160.345C208.153 160.149 208.885 159.991 209.622 159.87C210.045 159.801 210.466 159.747 210.89 159.702C211.023 159.689 211.156 159.678 211.291 159.667C211.638 159.711 212.069 159.649 212.395 159.66C212.818 159.673 213.239 159.7 213.662 159.74C214.398 159.809 215.131 159.916 215.855 160.062C215.957 160.083 216.056 160.105 216.157 160.128C216.535 160.247 216.915 160.356 217.29 160.489C218.088 160.772 218.864 161.11 219.625 161.486C221.998 162.666 225.346 160.999 226.252 158.313C227.245 155.354 226.088 152.524 223.546 151.26Z" fill="#451E00"/>
<path d="M274.735 153.825C270.344 151.434 265.306 150.896 260.771 152.21C259.547 152.564 258.43 153.634 257.907 154.816C257.39 155.981 257.285 157.649 257.794 158.916C258.323 160.231 259.226 161.482 260.499 162.106C261.79 162.739 263.109 162.902 264.439 162.519C264.656 162.455 264.88 162.419 265.101 162.367C265.791 162.288 266.484 162.267 267.184 162.297C268.025 162.424 268.853 162.63 269.67 162.912C269.955 163.043 270.246 163.16 270.525 163.311C271.728 163.965 273.233 164.121 274.464 163.724C275.643 163.343 276.853 162.326 277.328 161.115C277.82 159.86 277.985 158.37 277.44 157.015C276.898 155.664 276.007 154.517 274.735 153.825Z" fill="#451E00"/>
<path d="M283.837 104.149C283.317 93.7861 279.542 78.1809 267.531 81.7932C265.425 82.4257 263.575 83.8161 262.156 85.6209C261.606 83.5489 260.804 81.4824 259.8 79.4432C257.019 73.7861 249.433 71.5397 244.471 75.043C243.325 75.8527 242.379 76.8423 241.58 77.9219C229.703 68.7071 216.96 60.7682 203.075 56.1363C182.82 49.3778 160.78 49.9585 140.418 56.3217C138.235 57.0032 136.069 57.7529 133.92 58.5627C113.63 66.2126 93.1116 79.1242 79.7412 97.6846C66.6223 115.893 59.8301 138.461 57.5793 161.324C56.9294 167.916 56.5933 174.549 56.6032 181.179C56.6032 181.82 56.6032 178.052 56.8024 185.686C62.5686 172.458 85.2379 175.164 85.2379 175.164L98.3622 190.196C101.532 194.26 104.966 219.338 109.012 216.35L110.802 215.448C113.588 213.39 112.069 197.172 111.987 193.494C111.454 169.309 121.321 144.061 137.328 129.334C153.599 114.364 177.215 108.601 198.815 107.246C216.946 106.109 234.601 110.705 250.272 120.803C255.299 124.042 260.082 127.769 264.476 131.97C264.793 132.273 269.115 137.128 269.302 137.03C279.918 131.523 284.031 118.271 283.899 106.169C283.892 105.523 283.872 104.847 283.837 104.149Z" fill="#272523"/>
<path d="M203.075 56.1392C216.96 60.7711 229.703 68.71 241.58 77.9248C242.195 77.0906 242.932 76.3436 243.748 75.6675C242.125 77.5295 240.848 79.945 239.772 82.246C234.979 78.162 228.944 75.9156 222.889 77.7858C217.095 79.5769 213.004 84.5197 210.544 90.3157C196.726 81.9433 181.936 78.7509 164.963 81.9733C144.641 85.831 126.881 100.057 115.087 118.309C99.2067 142.886 99.0269 189.41 110.986 215.187C110.697 215.462 110.986 215.187 109.021 216.741C104.975 219.729 99.765 198.313 88.1321 192.3C82.9621 189.394 69.8777 186.828 58.9009 198.613C56.6032 188.091 56.6032 183.281 56.6032 177.87C56.5934 171.326 56.9207 168.006 57.554 161.583L57.5793 161.327C59.8301 138.464 66.6223 115.896 79.7412 97.6875C93.1116 79.1271 113.63 66.2155 133.92 58.5656C136.069 57.7559 138.235 57.0062 140.418 56.3246C160.78 49.9615 182.82 49.3808 203.075 56.1392Z" fill="#181818"/>
<path d="M252.324 225.578C257.854 225.731 263.158 224.145 267.725 219.383C270.114 216.895 272.537 215.524 275.966 217.654C284.175 222.753 286.108 235.491 283.901 244.033C281.479 253.405 274.181 260.961 265.77 265.889C243.139 279.15 225.78 276.166 202.621 267.688C184.393 261.018 159.748 247.571 165.995 224.429C173.731 195.775 207.071 209.533 225.883 217.262C233.87 220.547 243.394 225.329 252.324 225.578Z" fill="white"/>
<mask id="mask0_328_4913" style="mask-type:alpha" maskUnits="userSpaceOnUse" x="165" y="207" width="120" height="68">
<path d="M252.325 225.578C257.855 225.731 263.158 224.145 267.725 219.383C270.115 216.895 272.538 215.524 275.967 217.654C284.176 222.753 286.108 235.491 283.902 244.033C281.479 253.405 274.181 260.961 265.771 265.889C243.139 279.15 225.781 276.166 202.622 267.688C184.393 261.018 159.748 247.571 165.995 224.429C173.731 195.775 207.072 209.533 225.883 217.262C233.871 220.547 243.394 225.329 252.325 225.578Z" fill="white"/>
</mask>
<g mask="url(#mask0_328_4913)">
<path fill-rule="evenodd" clip-rule="evenodd" d="M176.821 257.405L200.513 197.428L203.811 198.739L180.119 258.716L176.821 257.405ZM225.502 276.784L241.866 213.85L245.299 214.748L228.935 277.682L225.502 276.784ZM274.207 261.589L265.177 215.449L268.658 214.763L277.688 260.903L274.207 261.589Z" fill="#D1D3D4"/>
</g>
</svg>
