<svg width="359" height="376" viewBox="0 0 359 376" fill="none" xmlns="http://www.w3.org/2000/svg">
<rect y="17" width="359" height="359" rx="179.5" fill="#F3F4FC"/>
<path d="M203.986 70.3829C203.986 70.3829 281.755 82.5512 275.858 193.368C275.836 193.779 284.85 199.763 285.556 200.402C291.841 206.087 297.114 213.367 299.42 221.882C307.631 252.207 278.275 283.453 254.535 291.747C245.668 294.844 236.295 296.348 226.904 296.621C165.855 298.399 85.0299 259.598 80.8787 183.82C80.73 181.101 80.6933 178.38 80.7632 175.664C81.1313 161.276 84.6039 147.263 89.8376 134.252C89.8352 134.253 123.812 49.9776 203.986 70.3829Z" fill="#FFE4C0"/>
<g style="mix-blend-mode:multiply" opacity="0.5">
<path d="M277.824 194.533C276.983 196.597 276.143 199.234 275.909 200.742C274.908 207.211 277.123 213.892 280.968 218.696C284.618 223.257 289.831 226.216 294.878 227.332C296.582 227.71 298.646 227.904 300.45 227.965C298.548 209.229 283.297 197.983 277.824 194.533Z" fill="#FFE7E2"/>
</g>
<g style="mix-blend-mode:multiply" opacity="0.5">
<path d="M168.21 243.782C182.651 240.678 191.613 225.458 188.227 209.786C184.84 194.115 170.388 183.927 155.947 187.031C141.505 190.135 132.543 205.355 135.93 221.026C139.316 236.698 153.768 246.886 168.21 243.782Z" fill="#FFE7E2"/>
</g>
<path opacity="0.3" d="M238.923 199.951C238.923 199.951 251.26 188.214 260.81 199.249Z" fill="#CBA284"/>
<path d="M123.894 258.454C82.8492 279.026 45.571 227.399 57.4949 198.387C65.101 179.881 87.2976 178.449 100.166 195.358C107.761 205.337 113.908 218.092 117.4 230.294" fill="#FFE4C0"/>
<path opacity="0.3" d="M90.0659 212.384C95.35 217.762 99.599 225.738 104.82 230.188C103.852 222.744 102.31 214.795 98.6933 208.086C95.0213 201.272 88.3461 195.658 81.5515 196.119C73.131 196.69 66.2014 206.5 65.3133 215.395C65.8442 210.072 76.5465 206.472 80.6322 206.978C87.0342 219.043 89.5201 242.82 89.5201 242.82C94.8445 229.361 92.6829 218.774 90.0659 212.384Z" fill="#CBA284"/>
<path d="M220.324 181.314C220.31 188.338 216.641 194.039 209.024 192.87C203.541 191.402 199.891 187.536 199.905 180.17C199.92 172.452 204.414 167.444 209.074 167.435C215.302 167.423 220.337 174.291 220.324 181.314Z" fill="#2A1200"/>
<path d="M272.253 181.187C272.244 185.895 270.114 190.951 264.661 190.37C260.085 189.882 258.917 183.874 258.923 180.917C258.933 175.744 261.525 170.856 265.305 170.849C269.371 170.842 272.263 176.479 272.253 181.187Z" fill="#2A1200"/>
<path d="M223.734 148.031C216.389 144.393 207.215 144.731 199.85 148.88C197.475 150.217 195.942 153.414 197.159 156.125C198.282 158.632 201.246 160.206 203.788 158.771C204.551 158.341 205.328 157.951 206.129 157.614C206.379 157.509 207.02 157.383 207.268 157.191C207.384 157.157 207.498 157.123 207.616 157.091C208.341 156.896 209.073 156.738 209.81 156.617C210.233 156.549 210.654 156.494 211.078 156.45C211.211 156.436 211.344 156.425 211.479 156.415C211.826 156.459 212.258 156.397 212.583 156.408C213.007 156.421 213.428 156.448 213.85 156.488C214.587 156.557 215.319 156.663 216.043 156.809C216.145 156.829 216.244 156.852 216.345 156.874C216.723 156.993 217.103 157.102 217.479 157.234C218.276 157.517 219.052 157.854 219.813 158.229C222.186 159.406 225.534 157.743 226.44 155.064C227.433 152.114 226.276 149.291 223.734 148.031Z" fill="#2D2C2C"/>
<path d="M274.923 150.588C270.532 148.204 265.494 147.668 260.959 148.978C259.735 149.331 258.618 150.398 258.095 151.577C257.578 152.739 257.473 154.402 257.982 155.666C258.511 156.977 259.414 158.224 260.687 158.847C261.978 159.478 263.297 159.64 264.627 159.258C264.844 159.195 265.068 159.158 265.289 159.106C265.979 159.028 266.672 159.007 267.372 159.037C268.213 159.164 269.041 159.369 269.858 159.65C270.143 159.781 270.434 159.898 270.713 160.048C271.916 160.7 273.421 160.856 274.652 160.46C275.831 160.08 277.041 159.066 277.516 157.858C278.008 156.607 278.173 155.121 277.628 153.769C277.086 152.422 276.196 151.279 274.923 150.588Z" fill="#2D2C2C"/>
<path d="M232.665 100.531C213.358 127.512 169.694 182.974 109.693 202.761C105.634 195.766 98.4058 188.431 85.3363 188.671C68.9994 188.97 63.0588 200.962 63.0588 200.962C63.0588 200.962 44.0486 233.04 88.0096 253.426C100.188 255.825 104.049 255.825 113.852 251.628C120.485 256.824 141.535 274.532 148.901 277.41C147.02 287.503 143.699 312.666 148.214 324.178C139.6 324.978 118.604 329.395 101.97 320.281C100.295 310.014 98.8225 296.57 101.444 291.443C98.314 296.606 92.6684 308.39 92.6684 315.184C83.1633 311.887 62.0146 302.713 53.46 292.4C40.1925 229.443 35.4345 76.8469 169.694 63.9556C181.476 62.5566 211.516 63.7758 231.477 77.4464C256.428 94.5348 268.903 117.319 273.656 140.104C263.458 135.307 240.982 120.677 232.665 100.531Z" fill="#272523"/>
<path d="M281.676 315.184C277.636 309.428 279.993 283.306 281.676 274.412C265.042 288.502 255.24 295.398 221.081 296.297C227.021 305.291 250.19 308.589 252.864 309.788L257.616 306.49V311.287C264.032 313.445 276.329 314.785 281.676 315.184Z" fill="#272523"/>
<mask id="mask0_328_4853" style="mask-type:alpha" maskUnits="userSpaceOnUse" x="169" y="63" width="105" height="78">
<path d="M229.992 76.847C210.031 63.1763 181.476 62.5567 169.694 63.9558C172.948 81.7436 182.984 119.598 210.684 128.712C218.806 118.088 228.502 108.2 232.665 100.531C240.982 120.677 263.458 135.307 273.656 140.104C268.903 117.319 254.943 93.9353 229.992 76.847Z" fill="#E2BA87"/>
</mask>
<g mask="url(#mask0_328_4853)">
<path d="M225.496 97.4212C225.496 97.4212 220.579 91.54 209.854 92.5224C209.854 92.5224 217.452 88.3584 222.366 88.8483C222.366 88.8483 208.961 78.803 189.298 85.1741C189.298 85.1741 203.15 75.3738 214.101 76.5985C214.101 76.5985 202.483 71.4548 195.108 72.6795C195.108 72.6795 200.919 65.3286 208.514 65.5735C208.514 65.5735 202.48 54.7934 193.096 51.3643C193.096 51.3643 211.865 56.7556 216.779 60.6747C227.727 65.3286 237.782 79.0506 237.782 79.0506C234.431 77.091 229.068 77.5809 229.068 77.5809C237.782 82.9723 244.486 93.0149 244.486 93.0149C240.242 90.0756 235.102 91.0554 235.102 91.0554C243.369 99.386 246.05 110.166 246.05 110.166C244.933 106.737 236.889 102.57 236.889 102.57C240.016 108.207 240.686 117.269 240.686 117.269L233.982 108.449C233.982 108.449 220.353 119.964 216.777 121.433C216.777 121.433 227.055 110.653 227.725 105.755C227.725 105.755 212.307 109.919 200.018 111.636C200.023 111.63 217.228 98.401 225.496 97.4212Z" fill="#181818"/>
</g>
<path d="M191.08 126.913C182.763 137.505 155.674 163.248 113.851 181.475C127.119 173.081 161.139 150.416 191.08 126.913Z" fill="#181818"/>
<path d="M80.5837 181.475C104.822 129.671 154.05 100.331 175.635 92.1362C120.03 101.73 82.96 157.092 71.3756 183.574C73.5143 182.615 78.4054 181.775 80.5837 181.475Z" fill="#181818"/>
<path d="M68.1083 244.133C69.2964 245.632 72.742 247.97 74.643 248.929C73.8769 262.075 72.7154 287.588 73.3111 298.904C73.4684 300.502 73.6175 301.947 73.7519 303.192C73.552 302.217 73.4082 300.749 73.3111 298.904C72.1932 287.549 70.662 268.435 71.0786 257.923C68.9004 265.918 65.1973 268.596 67.8112 301.693C65.0389 280.308 60.7419 257.084 68.1083 244.133Z" fill="#181818"/>
<path d="M266.824 286.104C268.487 285.384 271.28 283.406 272.468 282.506C270.329 286.104 271.181 304.192 271.874 312.786C270.448 311.587 269.497 307.09 269.2 304.991C268.25 308.109 266.428 308.289 266.824 312.786C264.21 306.79 266.527 295.697 266.824 286.104Z" fill="#181818"/>
<path d="M133.159 281.307C130.307 307.449 131.674 314.584 134.05 325.677H128.109H122.168C117.891 304.571 128.802 294.498 133.159 281.307Z" fill="#181818"/>
<path d="M256.891 227.791C258.674 228.815 271.138 213.158 279.437 217.921C282.239 219.529 284.376 222.271 285.981 225.235C289.508 231.754 290.715 239.674 289.294 246.981C287.283 257.312 280.315 265.769 272.118 271.375C250.06 286.457 232.562 283.606 209.02 274.876C190.489 268.005 165.241 253.862 170.472 228.345C179.679 183.427 256.868 227.778 256.891 227.791Z" fill="#873C41"/>
<path d="M193.032 224.92C199.027 228.642 206.325 229.026 212.872 227.541C214.123 227.256 215.13 228.308 215.442 229.516C218.638 241.938 236.76 248.422 245.849 240.457C246.554 239.838 247.805 239.692 248.544 240.393C253.449 245.048 261.308 246.31 267.079 243.161C275.229 238.714 275.189 226.219 272.969 217.518C265.786 219.712 258.246 228.569 256.891 227.788C256.873 227.777 209.488 200.559 184.542 210.378C185.071 216.411 187.84 221.695 193.032 224.92Z" fill="white"/>
<path d="M260.997 273.238C248.036 261.341 232.099 254.695 215.941 249.98C202.119 245.946 186.557 243.332 172.568 247.335C179.051 261.253 195.732 269.945 209.02 274.873C229.613 282.509 245.583 285.646 264.022 276.219C263.017 275.222 262.038 274.194 260.997 273.238Z" fill="#EE7E8B"/>
</svg>
