<svg width="359" height="375" viewBox="0 0 359 375" fill="none" xmlns="http://www.w3.org/2000/svg">
<rect y="16" width="359" height="359" rx="179.5" fill="#F3F4FC"/>
<path d="M203.986 69.3829C203.986 69.3829 281.755 81.5512 275.858 192.368C275.836 192.779 284.85 198.763 285.556 199.402C291.841 205.087 297.114 212.367 299.42 220.882C307.631 251.207 278.275 282.453 254.535 290.747C245.668 293.844 236.295 295.348 226.904 295.621C165.855 297.399 85.0296 258.598 80.8784 182.82C80.7297 180.101 80.6931 177.38 80.763 174.664C81.131 160.276 84.6036 146.263 89.8373 133.252C89.835 133.253 123.811 48.9776 203.986 69.3829Z" fill="#FFE4C0"/>
<g style="mix-blend-mode:multiply" opacity="0.5">
<path d="M277.825 193.533C276.983 195.597 276.143 198.234 275.909 199.742C274.909 206.211 277.123 212.892 280.968 217.696C284.618 222.257 289.831 225.216 294.879 226.332C296.583 226.71 298.646 226.904 300.45 226.965C298.548 208.229 283.298 196.983 277.825 193.533Z" fill="#FFE7E2"/>
</g>
<g style="mix-blend-mode:multiply" opacity="0.5">
<path d="M168.21 242.782C182.651 239.678 191.613 224.458 188.227 208.786C184.84 193.115 170.388 182.927 155.947 186.031C141.505 189.135 132.543 204.355 135.93 220.026C139.316 235.698 153.768 245.886 168.21 242.782Z" fill="#FFE7E2"/>
</g>
<path opacity="0.3" d="M238.923 198.951C238.923 198.951 251.26 187.214 260.81 198.249Z" fill="#CBA284"/>
<path d="M123.894 257.454C82.8492 278.026 45.571 226.399 57.4949 197.387C65.101 178.881 87.2976 177.449 100.166 194.358C107.761 204.337 113.908 217.092 117.4 229.294" fill="#FFE4C0"/>
<path opacity="0.3" d="M90.0659 211.384C95.35 216.762 99.599 224.738 104.82 229.188C103.852 221.744 102.31 213.795 98.6933 207.086C95.0213 200.272 88.3461 194.658 81.5515 195.119C73.131 195.69 66.2014 205.5 65.3133 214.395C65.8442 209.072 76.5465 205.472 80.6322 205.978C87.0342 218.043 89.5201 241.82 89.5201 241.82C94.8445 228.361 92.6829 217.774 90.0659 211.384Z" fill="#CBA284"/>
<path d="M220.324 180.314C220.31 187.338 216.641 193.039 209.024 191.87C203.541 190.402 199.891 186.536 199.905 179.17C199.92 171.452 204.414 166.444 209.074 166.435C215.302 166.423 220.337 173.291 220.324 180.314Z" fill="#2A1200"/>
<path d="M272.254 180.187C272.244 184.895 270.114 189.951 264.661 189.37C260.086 188.882 258.918 182.874 258.923 179.917C258.933 174.744 261.525 169.856 265.305 169.849C269.371 169.842 272.263 175.479 272.254 180.187Z" fill="#2A1200"/>
<path d="M223.734 147.031C216.39 143.393 207.215 143.731 199.85 147.88C197.475 149.217 195.942 152.414 197.159 155.125C198.283 157.632 201.246 159.206 203.789 157.771C204.551 157.341 205.328 156.951 206.13 156.614C206.379 156.509 207.02 156.383 207.268 156.191C207.385 156.157 207.498 156.123 207.616 156.091C208.341 155.896 209.073 155.738 209.811 155.617C210.233 155.549 210.655 155.494 211.078 155.45C211.212 155.436 211.345 155.425 211.48 155.415C211.826 155.459 212.258 155.397 212.583 155.408C213.007 155.421 213.428 155.448 213.85 155.488C214.587 155.557 215.32 155.663 216.043 155.809C216.145 155.829 216.244 155.852 216.345 155.874C216.723 155.993 217.104 156.102 217.479 156.234C218.276 156.517 219.052 156.854 219.813 157.229C222.186 158.406 225.534 156.743 226.44 154.064C227.434 151.114 226.277 148.291 223.734 147.031Z" fill="#451E00"/>
<path d="M274.924 149.588C270.532 147.204 265.494 146.668 260.96 147.978C259.736 148.331 258.619 149.398 258.095 150.577C257.579 151.739 257.474 153.402 257.982 154.666C258.512 155.977 259.415 157.224 260.688 157.847C261.978 158.478 263.298 158.64 264.627 158.258C264.845 158.195 265.068 158.158 265.29 158.106C265.98 158.028 266.673 158.007 267.372 158.037C268.213 158.164 269.041 158.369 269.859 158.65C270.143 158.781 270.435 158.898 270.713 159.048C271.916 159.7 273.421 159.856 274.653 159.46C275.832 159.08 277.041 158.066 277.516 156.858C278.009 155.607 278.173 154.121 277.629 152.769C277.087 151.422 276.196 150.279 274.924 149.588Z" fill="#451E00"/>
<path d="M79.9973 178.024C79.9271 180.779 79.9639 183.541 80.1131 186.3C102.741 190.181 113.458 214.663 115.988 226.418C115.988 226.418 122.72 226.818 124.305 225.519C132.622 221.122 147.414 203.094 140.047 166.16C136.483 149.371 138.859 136.004 167.969 115.194C197.078 94.3846 243.415 107.4 252.92 115.194C260.524 121.43 264.169 123.788 265.041 124.188C244.744 77.6944 203.669 71.1968 203.669 71.1968C123.203 50.4918 89.1023 136.004 89.1047 136.004C83.8519 149.206 80.3666 163.424 79.9973 178.024Z" fill="#E2BA87"/>
<path d="M226.327 106.2C217.218 95.0081 194.485 79.3388 176.425 106.2C153.85 139.778 170.484 154.168 163.355 182.948C156.227 211.728 140.781 221.322 144.345 240.509C147.91 259.696 175.237 292.074 163.355 312.46C163.355 312.46 143.913 309.763 120.879 304.597C112.414 302.698 112.434 294.182 111.437 290.773L110.483 289.375C108.317 288.855 109.402 301.882 107.215 301.321C85.154 295.661 62.6444 287.922 52.2642 278.283C54.4425 273.486 56.7791 259.936 48.6998 244.106C38.6006 224.32 43.3532 207.531 52.2642 196.139C61.1752 184.747 59.393 170.357 55.8285 152.969C52.2641 135.58 55.8285 109.798 73.0565 99.6049C90.2845 89.4119 98.6015 72.6234 112.265 64.2291C125.929 55.8348 176.425 36.6478 209.098 64.2291C212.266 62.0306 224.188 58.9527 239.396 64.2291C258.406 70.8246 275.086 101.231 277.416 121.49C281.277 155.067 290.782 166.759 293.159 178.451C294.748 186.272 296.128 193.741 289.297 206.932C283.357 201.236 279.198 198.837 275.634 196.139C276.228 189.344 276.822 172.036 274.446 157.166C271.476 138.578 258.703 92.1101 234.346 99.605C231.772 100.504 230.604 102.363 226.327 106.2Z" fill="#E2BA87"/>
<path d="M285.436 289.076C287.099 284.998 286.129 276.984 285.436 273.486C278.307 281.401 269 287.976 265.238 290.275C270.703 291.234 280.98 289.875 285.436 289.076Z" fill="#E2BA87"/>
<path d="M151.473 107.999C165.256 84.0156 194.444 80.0183 207.316 81.0176C137.81 73.8225 131.275 121.79 131.275 140.377C131.275 155.247 133.057 163.761 128.305 172.155C111.077 192.841 117.414 212.128 120.582 219.523C117.612 203.934 123.552 192.542 136.622 177.552C149.691 162.562 134.245 137.979 151.473 107.999Z" fill="#D9AC74"/>
<path d="M131.275 271.088C122.72 262.454 120.582 254.299 120.582 251.301C148.147 265.692 142.76 288.076 136.622 297.47C138.404 292.273 139.83 279.722 131.275 271.088Z" fill="#D9AC74"/>
<path d="M89.6904 172.155C94.9182 160.164 93.8489 145.973 92.6607 140.377C92.6607 158.365 81.3734 177.552 68.898 200.336C58.9177 218.564 73.0565 239.909 81.3734 248.303C83.1556 238.71 75.4328 231.515 74.8387 214.127C74.2446 196.739 83.1557 187.145 89.6904 172.155Z" fill="#D9AC74"/>
<path d="M286.327 204.533C289.416 194.7 287.218 180.85 285.733 175.153C285.733 184.987 283.951 196.839 283.06 201.535L286.327 204.533Z" fill="#D9AC74"/>
<path d="M252.324 225.104C257.855 225.257 263.158 223.675 267.725 218.927C270.114 216.445 272.537 215.079 275.966 217.202C284.175 222.287 286.108 234.99 283.901 243.508C281.479 252.854 274.181 260.389 265.77 265.303C243.139 278.527 225.78 275.551 202.621 267.098C184.393 260.446 159.748 247.036 165.995 223.958C173.731 195.384 207.071 209.104 225.883 216.812C233.87 220.088 243.394 224.856 252.324 225.104Z" fill="white"/>
<mask id="mask0_328_4863" style="mask-type:alpha" maskUnits="userSpaceOnUse" x="165" y="206" width="120" height="69">
<path d="M252.324 225.104C257.855 225.257 263.158 223.675 267.725 218.927C270.114 216.445 272.537 215.079 275.966 217.202C284.175 222.287 286.108 234.99 283.901 243.508C281.479 252.854 274.181 260.389 265.77 265.303C243.139 278.527 225.78 275.551 202.621 267.098C184.393 260.446 159.748 247.036 165.995 223.958C173.731 195.384 207.071 209.104 225.883 216.812C233.87 220.088 243.394 224.856 252.324 225.104Z" fill="white"/>
</mask>
<g mask="url(#mask0_328_4863)">
<path fill-rule="evenodd" clip-rule="evenodd" d="M176.821 256.843L200.512 197.033L203.81 198.34L180.119 258.15L176.821 256.843ZM225.502 276.168L241.866 213.409L245.298 214.305L228.934 277.064L225.502 276.168ZM274.206 261.015L265.177 215.003L268.658 214.32L277.687 260.332L274.206 261.015Z" fill="#D1D3D4"/>
</g>
</svg>
