<svg width="359" height="376" viewBox="0 0 359 376" fill="none" xmlns="http://www.w3.org/2000/svg">
<rect y="17" width="359" height="359" rx="179.5" fill="#F3F4FC"/>
<path d="M203.697 70.5714C203.697 70.5714 281.674 82.7397 275.761 193.556C275.74 193.967 284.777 199.951 285.485 200.591C291.787 206.275 297.074 213.555 299.386 222.071C307.619 252.396 278.185 283.642 254.381 291.935C245.491 295.033 236.093 296.537 226.677 296.81C165.464 298.588 84.4218 259.786 80.2595 184.009C80.1104 181.29 80.0736 178.568 80.1437 175.853C80.5127 161.464 83.9946 147.451 89.2424 134.441C89.24 134.441 123.307 50.166 203.697 70.5714Z" fill="#E2BA87"/>
<g style="mix-blend-mode:multiply" opacity="0.5">
<path d="M277.73 194.714C276.888 196.778 276.048 199.415 275.813 200.923C274.814 207.393 277.037 214.076 280.892 218.882C284.552 223.446 289.777 226.407 294.836 227.527C296.544 227.905 298.611 228.1 300.42 228.162C298.504 209.422 283.216 198.167 277.73 194.714Z" fill="#FCC3B8"/>
</g>
<g style="mix-blend-mode:multiply" opacity="0.5">
<path d="M167.837 243.982C182.31 240.884 191.286 225.664 187.883 209.986C184.481 194.308 169.99 184.11 155.517 187.208C141.044 190.305 132.068 205.526 135.471 221.203C138.873 236.881 153.364 247.079 167.837 243.982Z" fill="#FCC3B8"/>
</g>
<path opacity="0.3" d="M238.727 200.14C238.727 200.14 251.097 188.402 260.673 199.438Z" fill="#8B5E3C"/>
<path d="M123.409 258.001C81.2841 278.991 44.1746 228.095 56.7888 199.076C64.8352 180.567 87.4573 178.86 100.283 195.521C107.852 205.354 113.901 217.968 117.257 230.064" fill="#E2BA87"/>
<path opacity="0.3" d="M89.6651 212.545C94.9495 217.825 99.1391 225.702 104.374 230.06C103.512 222.671 102.074 214.787 98.5065 208.163C94.8846 201.434 88.1896 195.937 81.2743 196.481C72.7041 197.156 65.4989 206.997 64.4507 215.853C65.0774 210.553 76.0169 206.839 80.1625 207.289C86.4742 219.204 88.6133 242.813 88.6133 242.813C94.2463 229.364 92.2214 218.865 89.6651 212.545Z" fill="#8B5E3C"/>
<path d="M220.324 181.314C220.31 188.338 216.641 194.039 209.024 192.87C203.541 191.402 199.891 187.536 199.905 180.17C199.92 172.452 204.414 167.444 209.074 167.435C215.302 167.423 220.337 174.291 220.324 181.314Z" fill="#2A1200"/>
<path d="M272.254 181.187C272.244 185.895 270.114 190.951 264.661 190.37C260.086 189.882 258.918 183.874 258.923 180.917C258.933 175.744 261.525 170.856 265.305 170.849C269.371 170.842 272.263 176.479 272.254 181.187Z" fill="#2A1200"/>
<path d="M223.734 148.031C216.39 144.393 207.215 144.731 199.85 148.88C197.475 150.217 195.942 153.414 197.159 156.125C198.283 158.632 201.246 160.206 203.789 158.771C204.551 158.341 205.328 157.951 206.13 157.614C206.379 157.509 207.02 157.383 207.268 157.191C207.385 157.157 207.498 157.123 207.616 157.091C208.341 156.896 209.073 156.738 209.811 156.617C210.233 156.549 210.655 156.494 211.078 156.45C211.212 156.436 211.345 156.425 211.48 156.415C211.826 156.459 212.258 156.397 212.583 156.408C213.007 156.421 213.428 156.448 213.85 156.488C214.587 156.557 215.32 156.663 216.043 156.809C216.145 156.829 216.244 156.852 216.345 156.874C216.723 156.993 217.104 157.102 217.479 157.234C218.276 157.517 219.052 157.854 219.813 158.229C222.186 159.406 225.534 157.743 226.44 155.064C227.434 152.114 226.277 149.291 223.734 148.031Z" fill="#451E00"/>
<path d="M274.924 150.588C270.532 148.204 265.494 147.668 260.96 148.978C259.736 149.331 258.619 150.398 258.095 151.577C257.579 152.739 257.474 154.402 257.982 155.666C258.512 156.977 259.415 158.224 260.688 158.847C261.978 159.478 263.298 159.64 264.627 159.258C264.845 159.195 265.068 159.158 265.29 159.106C265.98 159.028 266.673 159.007 267.372 159.037C268.213 159.164 269.041 159.369 269.859 159.65C270.143 159.781 270.435 159.898 270.713 160.048C271.916 160.7 273.421 160.856 274.653 160.46C275.832 160.08 277.041 159.066 277.516 157.858C278.009 156.607 278.173 155.121 277.629 153.769C277.087 152.422 276.196 151.279 274.924 150.588Z" fill="#451E00"/>
<path d="M232.665 100.531C213.357 127.512 169.694 182.974 109.693 202.761C105.633 195.766 98.4053 188.431 85.3358 188.671C68.999 188.97 63.0583 200.962 63.0583 200.962C63.0583 200.962 44.0481 233.04 88.0091 253.426C100.188 255.825 104.049 255.825 113.851 251.628C120.485 256.824 141.535 274.532 148.901 277.41C147.02 287.503 143.698 312.666 148.213 324.178C139.599 324.978 118.604 329.395 101.97 320.281C100.295 310.014 98.822 296.57 101.444 291.443C98.3135 296.606 92.6679 308.39 92.6679 315.184C83.1628 311.887 62.0141 302.713 53.4595 292.4C40.192 229.443 35.434 76.8469 169.694 63.9556C181.476 62.5566 211.516 63.7758 231.477 77.4464C256.427 94.5348 268.903 117.319 273.656 140.104C263.457 135.307 240.982 120.677 232.665 100.531Z" fill="#725837"/>
<path d="M281.675 315.184C277.636 309.428 279.992 283.306 281.675 274.412C265.041 288.502 255.239 295.398 221.08 296.297C227.021 305.291 250.19 308.589 252.863 309.788L257.616 306.49V311.287C264.032 313.445 276.329 314.785 281.675 315.184Z" fill="#725837"/>
<mask id="mask0_328_4878" style="mask-type:alpha" maskUnits="userSpaceOnUse" x="169" y="63" width="105" height="78">
<path d="M229.992 76.847C210.031 63.1763 181.476 62.5567 169.694 63.9558C172.947 81.7436 182.984 119.598 210.684 128.712C218.806 118.088 228.501 108.2 232.665 100.531C240.982 120.677 263.458 135.307 273.656 140.104C268.903 117.319 254.943 93.9353 229.992 76.847Z" fill="#E2BA87"/>
</mask>
<g mask="url(#mask0_328_4878)">
<path d="M225.496 97.4212C225.496 97.4212 220.579 91.54 209.854 92.5224C209.854 92.5224 217.452 88.3584 222.366 88.8483C222.366 88.8483 208.961 78.803 189.298 85.1741C189.298 85.1741 203.15 75.3738 214.101 76.5985C214.101 76.5985 202.483 71.4548 195.108 72.6795C195.108 72.6795 200.919 65.3286 208.514 65.5735C208.514 65.5735 202.48 54.7934 193.096 51.3643C193.096 51.3643 211.865 56.7556 216.779 60.6747C227.727 65.3286 237.782 79.0506 237.782 79.0506C234.431 77.091 229.068 77.5809 229.068 77.5809C237.782 82.9723 244.486 93.0149 244.486 93.0149C240.242 90.0756 235.102 91.0554 235.102 91.0554C243.369 99.386 246.05 110.166 246.05 110.166C244.933 106.737 236.889 102.57 236.889 102.57C240.016 108.207 240.686 117.269 240.686 117.269L233.982 108.449C233.982 108.449 220.353 119.964 216.777 121.433C216.777 121.433 227.055 110.653 227.725 105.755C227.725 105.755 212.307 109.919 200.018 111.636C200.023 111.63 217.228 98.401 225.496 97.4212Z" fill="#795E3C"/>
</g>
<path d="M191.08 126.913C182.763 137.505 155.673 163.248 113.851 181.475C127.119 173.081 161.139 150.416 191.08 126.913Z" fill="#795E3C"/>
<path d="M80.5832 181.475C104.821 129.671 154.05 100.331 175.634 92.1362C120.029 101.73 82.9595 157.092 71.3751 183.574C73.5138 182.615 78.405 181.775 80.5832 181.475Z" fill="#795E3C"/>
<path d="M68.1078 244.133C69.2959 245.632 72.7415 247.97 74.6425 248.929C73.8764 262.075 72.7149 287.588 73.3106 298.904C73.4679 300.502 73.617 301.947 73.7514 303.192C73.5515 302.217 73.4077 300.749 73.3106 298.904C72.1927 287.549 70.6615 268.435 71.0781 257.923C68.8999 265.918 65.1968 268.596 67.8107 301.693C65.0385 280.308 60.7414 257.084 68.1078 244.133Z" fill="#795E3C"/>
<path d="M266.824 286.104C268.487 285.384 271.279 283.406 272.467 282.506C270.329 286.104 271.18 304.192 271.873 312.786C270.447 311.587 269.497 307.09 269.2 304.991C268.249 308.109 266.428 308.289 266.824 312.786C264.21 306.79 266.527 295.697 266.824 286.104Z" fill="#795E3C"/>
<path d="M133.158 281.307C130.307 307.449 131.673 314.584 134.049 325.677H128.109H122.168C117.891 304.571 128.802 294.498 133.158 281.307Z" fill="#795E3C"/>
<path d="M256.891 227.791C258.674 228.815 271.138 213.158 279.437 217.921C282.239 219.529 284.376 222.271 285.981 225.235C289.508 231.754 290.715 239.674 289.294 246.981C287.283 257.312 280.315 265.769 272.118 271.375C250.06 286.457 232.562 283.606 209.02 274.876C190.489 268.005 165.241 253.862 170.472 228.345C179.679 183.427 256.868 227.778 256.891 227.791Z" fill="#873C41"/>
<path d="M193.032 224.92C199.027 228.642 206.325 229.026 212.872 227.541C214.123 227.256 215.13 228.308 215.442 229.516C218.638 241.938 236.76 248.422 245.849 240.457C246.554 239.838 247.805 239.692 248.544 240.393C253.449 245.048 261.308 246.31 267.079 243.161C275.229 238.714 275.189 226.219 272.969 217.518C265.786 219.712 258.246 228.569 256.891 227.788C256.873 227.777 209.488 200.559 184.542 210.378C185.071 216.411 187.84 221.695 193.032 224.92Z" fill="white"/>
<path d="M260.998 273.238C248.036 261.341 232.099 254.695 215.941 249.98C202.119 245.946 186.558 243.332 172.568 247.335C179.051 261.253 195.732 269.945 209.02 274.873C229.614 282.509 245.583 285.646 264.022 276.219C263.018 275.222 262.038 274.194 260.998 273.238Z" fill="#EE7E8B"/>
</svg>
