<svg width="360" height="361" viewBox="0 0 360 361" fill="none" xmlns="http://www.w3.org/2000/svg">
<rect y="1" width="360" height="359" rx="179.5" fill="#F3F4FC"/>
<path d="M204.264 54.5716C204.264 54.5716 282.459 66.7399 276.529 177.557C276.507 177.967 285.57 183.952 286.28 184.591C292.599 190.275 297.902 197.555 300.22 206.071C308.476 236.396 278.959 267.642 255.09 275.936C246.174 279.033 236.75 280.537 227.308 280.81C165.925 282.588 84.6566 243.786 80.4827 168.009C80.3332 165.29 80.2963 162.568 80.3667 159.853C80.7367 145.464 84.2283 131.452 89.4907 118.441C89.4883 118.441 123.651 34.1663 204.264 54.5716Z" fill="#E2BA87"/>
<g style="mix-blend-mode:multiply" opacity="0.5">
<path d="M278.5 178.707C277.657 180.771 276.817 183.407 276.583 184.916C275.585 191.386 277.816 198.071 281.682 202.88C285.352 207.446 290.59 210.411 295.66 211.533C297.372 211.913 299.444 212.109 301.256 212.171C299.327 193.428 284 182.163 278.5 178.707Z" fill="#FCC3B8"/>
</g>
<g style="mix-blend-mode:multiply" opacity="0.5">
<path d="M168.317 227.994C182.824 224.903 191.812 209.682 188.394 193.998C184.975 178.314 170.444 168.105 155.937 171.196C141.43 174.287 132.442 189.508 135.86 205.192C139.279 220.876 153.81 231.085 168.317 227.994Z" fill="#FCC3B8"/>
</g>
<path opacity="0.3" d="M239.392 184.14C239.392 184.14 251.796 172.402 261.399 183.438Z" fill="#8B5E3C"/>
<path d="M123.752 242.026C81.5432 263 44.321 212.075 56.9474 183.057C65.0017 164.547 87.6742 162.851 100.538 179.522C108.13 189.361 114.2 201.98 117.57 214.08" fill="#E2BA87"/>
<path opacity="0.3" d="M89.9081 196.546C95.2077 201.83 99.4115 209.71 104.661 214.072C103.793 206.681 102.347 198.794 98.7675 192.167C95.1334 185.435 88.4199 179.933 81.4889 180.474C72.8992 181.145 65.6828 190.985 64.6372 199.842C65.2623 194.542 76.225 190.832 80.3805 191.284C86.7135 203.205 88.8709 226.82 88.8709 226.82C94.5093 213.371 92.4739 202.869 89.9081 196.546Z" fill="#8B5E3C"/>
<path d="M220.748 178.142C220.735 185.166 217.056 190.867 209.417 189.698C203.919 188.23 200.259 184.364 200.273 176.998C200.288 169.28 204.795 164.272 209.467 164.263C215.713 164.252 220.762 171.119 220.748 178.142Z" fill="#2A1200"/>
<path d="M272.823 178.015C272.813 182.723 270.677 187.779 265.209 187.198C260.621 186.711 259.449 180.703 259.455 177.745C259.465 172.572 262.064 167.685 265.855 167.677C269.932 167.67 272.832 173.308 272.823 178.015Z" fill="#2A1200"/>
<path d="M224.168 144.859C216.803 141.221 207.603 141.559 200.217 145.708C197.836 147.046 196.298 150.243 197.519 152.954C198.646 155.461 201.617 157.034 204.167 155.6C204.931 155.17 205.711 154.779 206.515 154.442C206.764 154.337 207.407 154.211 207.657 154.02C207.773 153.986 207.887 153.951 208.005 153.92C208.732 153.724 209.467 153.566 210.206 153.446C210.629 153.377 211.052 153.322 211.477 153.278C211.611 153.265 211.744 153.254 211.88 153.243C212.227 153.287 212.66 153.225 212.986 153.236C213.411 153.249 213.833 153.276 214.257 153.316C214.995 153.385 215.73 153.492 216.456 153.637C216.558 153.658 216.657 153.68 216.759 153.703C217.138 153.821 217.519 153.93 217.895 154.063C218.695 154.345 219.473 154.683 220.236 155.058C222.616 156.234 225.973 154.572 226.882 151.893C227.878 148.942 226.718 146.12 224.168 144.859Z" fill="#451E00"/>
<path d="M275.5 147.417C271.096 145.032 266.044 144.496 261.497 145.806C260.27 146.16 259.15 147.226 258.625 148.406C258.107 149.567 258.001 151.231 258.511 152.494C259.042 153.806 259.948 155.053 261.224 155.675C262.519 156.306 263.842 156.469 265.175 156.087C265.393 156.023 265.617 155.987 265.839 155.935C266.531 155.856 267.226 155.836 267.928 155.865C268.771 155.993 269.601 156.197 270.421 156.479C270.706 156.61 270.998 156.726 271.278 156.877C272.484 157.529 273.993 157.684 275.228 157.288C276.411 156.909 277.623 155.894 278.1 154.686C278.593 153.436 278.759 151.949 278.213 150.598C277.669 149.251 276.776 148.107 275.5 147.417Z" fill="#451E00"/>
<mask id="mask0_328_4928" style="mask-type:alpha" maskUnits="userSpaceOnUse" x="260" y="110" width="40" height="68">
<path d="M276.284 177.802C275.972 148.342 269.432 126.625 260.385 110.647C271.26 110.647 294.207 116.104 298.993 137.929C303.778 159.754 285.847 173.605 276.284 177.802Z" fill="#C4C4C4"/>
</mask>
<g mask="url(#mask0_328_4928)">
<ellipse cx="265.152" cy="146.073" rx="26.6208" ry="26.6818" fill="#2B1200"/>
</g>
<path d="M201.98 27.0044C214.675 27.0044 225.545 35.0461 230.054 46.4526C233.928 44.6008 238.245 43.5659 242.797 43.5659C259.532 43.5661 273.099 57.5395 273.099 74.7769C273.099 76.0158 273.026 77.2378 272.889 78.439C285.678 80.8805 295.362 92.4283 295.362 106.307C295.362 121.962 283.041 134.652 267.843 134.652C260.364 134.652 253.584 131.578 248.624 126.592C243.608 131.578 236.753 134.652 229.191 134.652C219.665 134.652 211.257 129.775 206.241 122.34C200.649 129.822 191.819 134.652 181.882 134.652C177.504 134.652 173.342 133.713 169.576 132.025C166.087 141.099 158.553 148.1 149.235 150.724C150.154 153.693 150.651 156.853 150.651 160.131C150.651 168.992 147.029 176.988 141.214 182.669C140.706 205.829 130.001 217.842 123.374 221.322C121.786 222.615 115.061 222.225 114.999 222.221C112.965 212.838 105.68 195.348 91.2361 186.697C90.1344 186.819 89.0153 186.883 87.8816 186.883C70.9753 186.883 57.2704 172.91 57.2703 155.672C57.2703 146.761 60.9343 138.722 66.8093 133.035C62.0292 127.528 59.1257 120.289 59.1257 112.358C59.1259 95.8603 71.6796 82.3532 87.5789 81.2241C87.8688 64.2448 101.322 50.5728 117.876 50.5728C122.319 50.5728 126.538 51.5574 130.34 53.3267C135.074 42.3296 145.847 34.648 158.382 34.6479C165.281 34.6479 171.646 36.9765 176.765 40.9028C182.199 32.524 191.463 27.0045 201.98 27.0044Z" fill="#2B1200"/>
<path d="M257.607 217.263C259.394 218.286 271.893 202.629 280.215 207.392C283.025 209 285.168 211.742 286.778 214.707C290.314 221.225 291.525 229.146 290.1 236.452C288.084 246.783 281.096 255.241 272.876 260.847C250.757 275.928 233.21 273.077 209.602 264.347C191.02 257.477 165.701 243.333 170.947 217.816C180.179 172.898 257.583 217.25 257.607 217.263Z" fill="#873C41"/>
<path d="M193.57 214.391C199.581 218.113 206.9 218.497 213.464 217.012C214.72 216.727 215.729 217.779 216.042 218.987C219.247 231.409 237.419 237.893 246.533 229.928C247.24 229.309 248.495 229.163 249.236 229.864C254.155 234.519 262.035 235.781 267.823 232.632C275.995 228.185 275.955 215.69 273.729 206.989C266.526 209.183 258.965 218.04 257.606 217.259C257.588 217.248 210.072 190.03 185.055 199.849C185.586 205.882 188.363 211.166 193.57 214.391Z" fill="white"/>
<path d="M261.724 262.709C248.727 250.811 232.746 244.166 216.542 239.451C202.682 235.417 187.077 232.803 173.049 236.806C179.549 250.724 196.277 259.416 209.602 264.344C230.253 271.98 246.267 275.117 264.757 265.69C263.75 264.693 262.768 263.665 261.724 262.709Z" fill="#EE7E8B"/>
</svg>
