<svg width="359" height="368" viewBox="0 0 359 368" fill="none" xmlns="http://www.w3.org/2000/svg">
<rect width="359" height="360" rx="179.5" transform="matrix(-1 0 0 1 359 7)" fill="#F3F4FC"/>
<path d="M155.304 60.7205C155.304 60.7205 77.3259 72.9227 83.239 184.048C83.2606 184.46 74.223 190.461 73.5151 191.102C67.2132 196.802 61.9259 204.102 59.6138 212.642C51.3809 243.051 80.8157 274.384 104.619 282.701C113.51 285.807 122.908 287.315 132.324 287.589C193.536 289.372 274.578 250.462 278.741 174.474C278.89 171.747 278.927 169.018 278.857 166.295C278.488 151.867 275.006 137.815 269.758 124.768C269.76 124.768 235.693 40.2583 155.304 60.7205Z" fill="#E2BA87"/>
<g style="mix-blend-mode:multiply" opacity="0.5">
<path d="M81.2671 185.217C82.1107 187.286 82.9528 189.93 83.1879 191.443C84.1911 197.93 81.9709 204.63 78.1158 209.447C74.4556 214.021 69.2286 216.987 64.1676 218.107C62.459 218.485 60.3902 218.68 58.5809 218.741C60.4878 199.953 75.7792 188.676 81.2671 185.217Z" fill="#FCC3B8"/>
</g>
<g style="mix-blend-mode:multiply" opacity="0.5">
<path d="M191.176 234.602C176.696 231.489 167.709 216.226 171.104 200.512C174.5 184.797 188.99 174.581 203.471 177.694C217.951 180.807 226.938 196.069 223.543 211.784C220.147 227.499 205.657 237.715 191.176 234.602Z" fill="#FCC3B8"/>
</g>
<path opacity="0.3" d="M120.273 190.65C120.273 190.65 107.903 178.879 98.327 189.946L120.273 190.65Z" fill="#8B5E3C"/>
<path d="M235.591 248.647C277.749 269.712 314.849 218.702 302.213 189.603C294.152 171.042 271.517 169.319 258.694 186.017C251.127 195.872 245.081 208.515 241.73 220.641" fill="#E2BA87"/>
<path opacity="0.3" d="M269.328 203.088C264.044 208.379 259.857 216.274 254.622 220.641C255.48 213.233 256.915 205.33 260.48 198.69C264.1 191.947 270.795 186.439 277.714 186.988C286.289 187.668 293.503 197.538 294.556 206.417C293.926 201.104 282.98 197.374 278.832 197.824C272.524 209.766 270.397 233.434 270.397 233.434C264.754 219.948 266.774 209.423 269.328 203.088Z" fill="#8B5E3C"/>
<path d="M138.865 184.636C138.879 191.679 142.547 197.396 150.165 196.224C155.648 194.752 159.298 190.875 159.283 183.489C159.268 175.749 154.775 170.727 150.115 170.718C143.887 170.707 138.851 177.593 138.865 184.636Z" fill="#2A1200"/>
<path d="M86.9351 184.509C86.9443 189.23 89.0749 194.3 94.5273 193.717C99.103 193.228 100.271 187.203 100.265 184.237C100.255 179.05 97.6638 174.149 93.8834 174.142C89.8176 174.134 86.926 179.788 86.9351 184.509Z" fill="#2A1200"/>
<path d="M135.454 151.26C142.799 147.611 151.973 147.951 159.339 152.111C161.714 153.452 163.247 156.658 162.03 159.377C160.906 161.891 157.943 163.469 155.4 162.03C154.638 161.599 153.86 161.207 153.059 160.869C152.81 160.764 152.169 160.638 151.92 160.446C151.804 160.411 151.69 160.377 151.573 160.345C150.847 160.149 150.115 159.991 149.378 159.87C148.956 159.801 148.534 159.747 148.111 159.702C147.977 159.689 147.844 159.678 147.709 159.667C147.363 159.711 146.931 159.649 146.606 159.66C146.182 159.673 145.761 159.7 145.338 159.74C144.602 159.809 143.869 159.916 143.145 160.062C143.044 160.083 142.945 160.105 142.844 160.128C142.465 160.247 142.085 160.356 141.71 160.489C140.913 160.772 140.137 161.11 139.376 161.486C137.003 162.666 133.655 160.999 132.749 158.313C131.755 155.354 132.912 152.524 135.454 151.26Z" fill="#451E00"/>
<path d="M84.2654 153.825C88.6569 151.434 93.6948 150.896 98.2293 152.21C99.4531 152.564 100.57 153.634 101.094 154.816C101.61 155.981 101.715 157.649 101.207 158.916C100.677 160.231 99.7743 161.482 98.5012 162.106C97.2106 162.739 95.8912 162.902 94.5617 162.519C94.344 162.455 94.121 162.419 93.8993 162.367C93.2094 162.288 92.5163 162.267 91.8165 162.297C90.9758 162.424 90.1477 162.63 89.3303 162.912C89.0456 163.043 88.7543 163.16 88.4756 163.311C87.2727 163.965 85.7678 164.121 84.5361 163.724C83.3571 163.343 82.1477 162.326 81.6728 161.115C81.1803 159.86 81.0156 158.37 81.5601 157.015C82.1023 155.664 82.993 154.517 84.2654 153.825Z" fill="#451E00"/>
<path d="M75.163 104.149C75.6834 93.7861 79.458 78.1809 91.4689 81.7932C93.5753 82.4257 95.4253 83.8161 96.8445 85.6209C97.3947 83.5489 98.1964 81.4824 99.1998 79.4432C101.981 73.7861 109.567 71.5397 114.53 75.043C115.675 75.8527 116.621 76.8423 117.42 77.9219C129.297 68.7071 142.04 60.7682 155.926 56.1363C176.18 49.3778 198.22 49.9585 218.582 56.3217C220.766 57.0032 222.932 57.7529 225.08 58.5627C245.37 66.2126 265.889 79.1242 279.259 97.6846C292.378 115.893 299.17 138.461 301.421 161.324C302.071 167.916 302.407 174.549 302.397 181.179C302.397 181.82 302.397 178.052 302.198 185.686C296.432 172.458 273.762 175.164 273.762 175.164L260.638 190.196C257.468 194.26 254.034 219.338 249.988 216.35L248.199 215.448C245.413 213.39 246.931 197.172 247.013 193.494C247.546 169.309 237.679 144.061 221.672 129.334C205.401 114.364 181.785 108.601 160.186 107.246C142.055 106.109 124.399 110.705 108.728 120.803C103.701 124.042 98.9185 127.769 94.5239 131.97C94.2077 132.273 89.8854 137.128 89.6987 137.03C79.082 131.523 74.9688 118.271 75.1008 106.169C75.1083 105.523 75.1282 104.847 75.163 104.149Z" fill="#272523"/>
<path d="M155.926 56.1392C142.04 60.7711 129.297 68.71 117.42 77.9248C116.805 77.0906 116.068 76.3436 115.252 75.6675C116.875 77.5295 118.152 79.945 119.228 82.246C124.021 78.162 130.056 75.9156 136.112 77.7858C141.905 79.5769 145.996 84.5197 148.456 90.3157C162.275 81.9433 177.064 78.7509 194.037 81.9733C214.359 85.831 232.119 100.057 243.913 118.309C259.794 142.886 259.973 189.41 248.015 215.187C248.304 215.462 248.015 215.187 249.979 216.741C254.025 219.729 259.235 198.313 270.868 192.3C276.038 189.394 289.123 186.828 300.099 198.613C302.397 188.091 302.397 183.281 302.397 177.87C302.407 171.326 302.08 168.006 301.446 161.583L301.421 161.327C299.17 138.464 292.378 115.896 279.259 97.6875C265.889 79.1271 245.37 66.2155 225.08 58.5656C222.932 57.7559 220.766 57.0062 218.582 56.3246C198.22 49.9615 176.18 49.3808 155.926 56.1392Z" fill="#181818"/>
<path d="M106.676 225.578C101.145 225.731 95.8422 224.145 91.2752 219.383C88.8856 216.895 86.4623 215.524 83.0335 217.654C74.8245 222.753 72.8918 235.491 75.0985 244.033C77.521 253.405 84.819 260.961 93.2294 265.889C115.861 279.15 133.22 276.166 156.378 267.688C174.607 261.018 199.252 247.571 193.005 224.429C185.269 195.775 151.928 209.533 133.117 217.262C125.129 220.547 115.606 225.329 106.676 225.578Z" fill="white"/>
<mask id="mask0_328_4913" style="mask-type:alpha" maskUnits="userSpaceOnUse" x="74" y="207" width="120" height="68">
<path d="M106.676 225.578C101.146 225.731 95.8425 224.145 91.2755 219.383C88.8859 216.895 86.4626 215.524 83.0338 217.654C74.8248 222.753 72.8921 235.491 75.0987 244.033C77.5212 253.405 84.8192 260.961 93.2297 265.889C115.861 279.15 133.22 276.166 156.379 267.688C174.607 261.018 199.252 247.571 193.005 224.429C185.269 195.775 151.929 209.533 133.117 217.262C125.13 220.547 115.606 225.329 106.676 225.578Z" fill="white"/>
</mask>
<g mask="url(#mask0_328_4913)">
<path fill-rule="evenodd" clip-rule="evenodd" d="M182.179 257.405L158.487 197.428L155.19 198.739L178.881 258.716L182.179 257.405ZM133.498 276.784L117.134 213.85L113.701 214.748L130.065 277.682L133.498 276.784ZM84.7935 261.589L93.823 215.449L90.3421 214.763L81.3126 260.903L84.7935 261.589Z" fill="#D1D3D4"/>
</g>
</svg>
