<svg width="359" height="376" viewBox="0 0 359 376" fill="none" xmlns="http://www.w3.org/2000/svg">
<rect width="359" height="359" rx="179.5" transform="matrix(-1 0 0 1 359 17)" fill="#F3F4FC"/>
<path d="M155.304 70.5714C155.304 70.5714 77.3259 82.7397 83.239 193.556C83.2606 193.967 74.223 199.951 73.5151 200.591C67.2132 206.275 61.9259 213.555 59.6138 222.071C51.3809 252.396 80.8157 283.642 104.619 291.935C113.51 295.033 122.907 296.537 132.324 296.81C193.536 298.588 274.578 259.786 278.741 184.009C278.89 181.29 278.927 178.568 278.857 175.853C278.488 161.464 275.006 147.451 269.758 134.441C269.76 134.441 235.693 50.166 155.304 70.5714Z" fill="#E2BA87"/>
<g style="mix-blend-mode:multiply" opacity="0.5">
<path d="M81.2704 194.714C82.1124 196.778 82.9526 199.415 83.1868 200.923C84.186 207.393 81.9636 214.076 78.1084 218.882C74.448 223.446 69.2228 226.407 64.1643 227.527C62.4566 227.905 60.389 228.1 58.5807 228.162C60.4963 209.422 75.7841 198.167 81.2704 194.714Z" fill="#FCC3B8"/>
</g>
<g style="mix-blend-mode:multiply" opacity="0.5">
<path d="M191.163 243.982C176.69 240.884 167.715 225.664 171.117 209.986C174.519 194.308 189.01 184.11 203.483 187.208C217.957 190.305 226.932 205.526 223.53 221.203C220.128 236.881 205.637 247.079 191.163 243.982Z" fill="#FCC3B8"/>
</g>
<path opacity="0.3" d="M120.273 200.14C120.273 200.14 107.903 188.402 98.327 199.438L120.273 200.14Z" fill="#8B5E3C"/>
<path d="M235.591 258.001C277.716 278.991 314.826 228.095 302.211 199.076C294.165 180.567 271.543 178.86 258.718 195.521C251.149 205.354 245.099 217.968 241.743 230.064" fill="#E2BA87"/>
<path opacity="0.3" d="M269.335 212.545C264.05 217.825 259.861 225.702 254.626 230.06C255.488 222.671 256.926 214.787 260.493 208.163C264.115 201.434 270.81 195.937 277.726 196.481C286.296 197.156 293.501 206.997 294.549 215.853C293.923 210.553 282.983 206.839 278.838 207.289C272.526 219.204 270.387 242.813 270.387 242.813C264.754 229.364 266.779 218.865 269.335 212.545Z" fill="#8B5E3C"/>
<path d="M138.676 181.314C138.69 188.338 142.359 194.039 149.976 192.87C155.459 191.402 159.109 187.536 159.095 180.17C159.08 172.452 154.586 167.444 149.926 167.435C143.698 167.423 138.663 174.291 138.676 181.314Z" fill="#2A1200"/>
<path d="M86.7466 181.187C86.7558 185.895 88.8864 190.951 94.3388 190.37C98.9145 189.882 100.083 183.874 100.077 180.917C100.067 175.744 97.4753 170.856 93.6949 170.849C89.6291 170.842 86.7375 176.479 86.7466 181.187Z" fill="#2A1200"/>
<path d="M135.266 148.031C142.61 144.393 151.785 144.731 159.15 148.88C161.525 150.217 163.058 153.414 161.841 156.125C160.717 158.632 157.754 160.206 155.211 158.771C154.449 158.341 153.672 157.951 152.87 157.614C152.621 157.509 151.98 157.383 151.732 157.191C151.615 157.157 151.502 157.123 151.384 157.091C150.659 156.896 149.927 156.738 149.189 156.617C148.767 156.549 148.345 156.494 147.922 156.45C147.788 156.436 147.655 156.425 147.52 156.415C147.174 156.459 146.742 156.397 146.417 156.408C145.993 156.421 145.572 156.448 145.15 156.488C144.413 156.557 143.68 156.663 142.957 156.809C142.855 156.829 142.756 156.852 142.655 156.874C142.277 156.993 141.896 157.102 141.521 157.234C140.724 157.517 139.948 157.854 139.187 158.229C136.814 159.406 133.466 157.743 132.56 155.064C131.566 152.114 132.723 149.291 135.266 148.031Z" fill="#451E00"/>
<path d="M84.0767 150.588C88.4682 148.204 93.5061 147.668 98.0406 148.978C99.2644 149.331 100.381 150.398 100.905 151.577C101.422 152.739 101.527 154.402 101.018 155.666C100.489 156.977 99.5856 158.224 98.3125 158.847C97.0219 159.478 95.7024 159.64 94.373 159.258C94.1553 159.195 93.9322 159.158 93.7106 159.106C93.0207 159.028 92.3275 159.007 91.6277 159.037C90.7871 159.164 89.959 159.369 89.1416 159.65C88.8568 159.781 88.5656 159.898 88.2869 160.048C87.084 160.7 85.5791 160.856 84.3474 160.46C83.1683 160.08 81.9589 159.066 81.4841 157.858C80.9915 156.607 80.8269 155.121 81.3714 153.769C81.9136 152.422 82.8043 151.279 84.0767 150.588Z" fill="#451E00"/>
<path d="M126.335 100.531C145.642 127.512 189.306 182.974 249.307 202.761C253.366 195.766 260.594 188.431 273.664 188.671C290.001 188.97 295.941 200.962 295.941 200.962C295.941 200.962 314.951 233.04 270.99 253.426C258.812 255.825 254.951 255.825 245.148 251.628C238.515 256.824 217.465 274.532 210.099 277.41C211.98 287.503 215.301 312.666 210.786 324.178C219.4 324.978 240.396 329.395 257.03 320.281C258.705 310.014 260.178 296.57 257.556 291.443C260.686 296.606 266.332 308.39 266.332 315.184C275.837 311.887 296.985 302.713 305.54 292.4C318.808 229.443 323.566 76.8469 189.306 63.9556C177.524 62.5566 147.484 63.7758 127.523 77.4464C102.572 94.5348 90.0966 117.319 85.344 140.104C95.5422 135.307 118.018 120.677 126.335 100.531Z" fill="#725837"/>
<path d="M77.3242 315.184C81.3638 309.428 79.0073 283.306 77.3241 274.412C93.9583 288.502 103.76 295.398 137.919 296.297C131.979 305.291 108.81 308.589 106.136 309.788L101.384 306.49V311.287C94.968 313.445 82.6708 314.785 77.3242 315.184Z" fill="#725837"/>
<mask id="mask0_328_4878" style="mask-type:alpha" maskUnits="userSpaceOnUse" x="85" y="63" width="105" height="78">
<path d="M129.008 76.847C148.969 63.1763 177.524 62.5567 189.306 63.9558C186.052 81.7436 176.016 119.598 148.316 128.712C140.194 118.088 130.498 108.2 126.335 100.531C118.018 120.677 95.5422 135.307 85.344 140.104C90.0965 117.319 104.057 93.9353 129.008 76.847Z" fill="#E2BA87"/>
</mask>
<g mask="url(#mask0_328_4878)">
<path d="M133.504 97.4212C133.504 97.4212 138.421 91.54 149.146 92.5224C149.146 92.5224 141.548 88.3584 136.634 88.8483C136.634 88.8483 150.039 78.803 169.702 85.1741C169.702 85.1741 155.85 75.3738 144.899 76.5985C144.899 76.5985 156.517 71.4548 163.892 72.6795C163.892 72.6795 158.081 65.3286 150.486 65.5735C150.486 65.5735 156.52 54.7934 165.904 51.3643C165.904 51.3643 147.135 56.7556 142.221 60.6747C131.273 65.3286 121.218 79.0506 121.218 79.0506C124.569 77.091 129.932 77.5809 129.932 77.5809C121.218 82.9723 114.514 93.0149 114.514 93.0149C118.758 90.0756 123.898 91.0554 123.898 91.0554C115.631 99.386 112.95 110.166 112.95 110.166C114.067 106.737 122.111 102.57 122.111 102.57C118.984 108.207 118.314 117.269 118.314 117.269L125.018 108.449C125.018 108.449 138.647 119.964 142.223 121.433C142.223 121.433 131.945 110.653 131.275 105.755C131.275 105.755 146.693 109.919 158.982 111.636C158.977 111.63 141.772 98.401 133.504 97.4212Z" fill="#795E3C"/>
</g>
<path d="M167.92 126.913C176.237 137.505 203.326 163.248 245.149 181.475C231.881 173.081 197.861 150.416 167.92 126.913Z" fill="#795E3C"/>
<path d="M278.416 181.475C254.178 129.671 204.95 100.331 183.365 92.1362C238.97 101.73 276.04 157.092 287.624 183.574C285.486 182.615 280.595 181.775 278.416 181.475Z" fill="#795E3C"/>
<path d="M290.892 244.133C289.704 245.632 286.258 247.97 284.357 248.929C285.123 262.075 286.285 287.588 285.689 298.904C285.532 300.502 285.382 301.947 285.248 303.192C285.448 302.217 285.592 300.749 285.689 298.904C286.807 287.549 288.338 268.435 287.921 257.923C290.1 265.918 293.803 268.596 291.189 301.693C293.961 280.308 298.258 257.084 290.892 244.133Z" fill="#795E3C"/>
<path d="M92.1759 286.104C90.5126 285.384 87.7204 283.406 86.5323 282.506C88.6709 286.104 87.8194 304.192 87.1264 312.786C88.5521 311.587 89.5026 307.09 89.7997 304.991C90.7502 308.109 92.572 308.289 92.1759 312.786C94.7898 306.79 92.473 295.697 92.1759 286.104Z" fill="#795E3C"/>
<path d="M225.841 281.307C228.693 307.449 227.326 314.584 224.95 325.677H230.891H236.832C241.109 304.571 230.198 294.498 225.841 281.307Z" fill="#795E3C"/>
<path d="M102.109 227.791C100.326 228.815 87.8619 213.158 79.5629 217.921C76.7613 219.529 74.6238 222.271 73.0188 225.235C69.4919 231.754 68.285 239.674 69.7057 246.981C71.7166 257.312 78.6852 265.769 86.8822 271.375C108.94 286.457 126.438 283.606 149.98 274.876C168.511 268.005 193.759 253.862 188.528 228.345C179.321 183.427 102.132 227.778 102.109 227.791Z" fill="#873C41"/>
<path d="M165.968 224.92C159.973 228.642 152.675 229.026 146.128 227.541C144.877 227.256 143.87 228.308 143.558 229.516C140.362 241.938 122.24 248.422 113.151 240.457C112.446 239.838 111.195 239.692 110.456 240.393C105.551 245.048 97.6925 246.31 91.9208 243.161C83.7712 238.714 83.8111 226.219 86.031 217.518C93.2139 219.712 100.754 228.569 102.109 227.788C102.127 227.777 149.512 200.559 174.458 210.378C173.929 216.411 171.16 221.695 165.968 224.92Z" fill="white"/>
<path d="M98.0027 273.238C110.964 261.341 126.901 254.695 143.059 249.98C156.881 245.946 172.443 243.332 186.432 247.335C179.949 261.253 163.268 269.945 149.98 274.873C129.387 282.509 113.417 285.646 94.9781 276.219C95.9827 275.222 96.962 274.194 98.0027 273.238Z" fill="#EE7E8B"/>
</svg>
