<svg width="366" height="376" viewBox="0 0 366 376" fill="none" xmlns="http://www.w3.org/2000/svg">
<rect width="366" height="359" rx="179.5" transform="matrix(-1 0 0 1 366 17)" fill="#F3F4FC"/>
<path d="M158.037 70.3829C158.037 70.3829 78.7507 82.5512 84.7631 193.368C84.785 193.779 75.5958 199.763 74.876 200.402C68.4685 206.087 63.0924 213.367 60.7416 221.882C52.3705 252.207 82.2991 283.453 106.501 291.747C115.542 294.844 125.097 296.348 134.671 296.621C196.91 298.399 279.312 259.598 283.544 183.82C283.696 181.101 283.733 178.38 283.662 175.664C283.287 161.276 279.746 147.263 274.411 134.252C274.413 134.253 239.774 49.9776 158.037 70.3829Z" fill="#FFE4C0"/>
<g style="mix-blend-mode:multiply" opacity="0.5">
<path d="M82.7814 194.482C83.6277 196.545 84.4703 199.182 84.7027 200.691C85.6942 207.163 83.4215 213.859 79.5009 218.681C75.7784 223.26 70.4758 226.24 65.3481 227.376C63.617 227.76 61.5219 227.962 59.69 228.029C61.6905 209.267 77.2128 197.955 82.7814 194.482Z" fill="#FFE7E2"/>
</g>
<g style="mix-blend-mode:multiply" opacity="0.5">
<path d="M194.421 243.864C179.747 240.805 170.69 225.585 174.192 209.868C177.694 194.152 192.428 183.89 207.102 186.949C221.775 190.007 230.832 205.228 227.33 220.944C223.828 236.661 209.094 246.922 194.421 243.864Z" fill="#FFE7E2"/>
</g>
<path opacity="0.3" d="M122.418 199.951C122.418 199.951 109.841 188.214 100.104 199.249L122.418 199.951Z" fill="#CBA284"/>
<path d="M239.695 258.611C281.286 279.081 319.362 227.275 307.377 198.265C299.733 179.76 277.199 178.394 264.059 195.364C256.304 205.379 250.008 218.169 246.41 230.396" fill="#FFE4C0"/>
<path opacity="0.3" d="M274.228 212.39C268.838 217.793 264.487 225.793 259.165 230.266C260.18 222.808 261.78 214.843 265.483 208.113C269.242 201.278 276.047 195.636 282.947 196.076C291.499 196.622 298.496 206.424 299.36 215.33C298.844 210 287.987 206.429 283.835 206.947C277.28 219.05 274.653 242.868 274.653 242.868C269.302 229.407 271.543 218.798 274.228 212.39Z" fill="#CBA284"/>
<path d="M141.381 181.314C141.395 188.338 145.135 194.038 152.901 192.87C158.491 191.401 162.212 187.535 162.197 180.17C162.182 172.452 157.6 167.444 152.85 167.435C146.501 167.423 141.367 174.29 141.381 181.314Z" fill="#2A1200"/>
<path d="M88.438 181.187C88.4474 185.895 90.6196 190.951 96.1783 190.37C100.843 189.882 102.034 183.874 102.028 180.917C102.018 175.744 99.3759 170.856 95.5218 170.849C91.3767 170.842 88.4287 176.479 88.438 181.187Z" fill="#2A1200"/>
<path d="M137.903 148.031C145.391 144.393 154.745 144.731 162.253 148.88C164.675 150.217 166.238 153.414 164.997 156.125C163.851 158.632 160.83 160.206 158.238 158.771C157.461 158.341 156.668 157.951 155.851 157.614C155.597 157.509 154.944 157.383 154.69 157.191C154.572 157.157 154.456 157.123 154.336 157.091C153.597 156.896 152.85 156.738 152.099 156.617C151.668 156.549 151.238 156.494 150.806 156.45C150.67 156.436 150.535 156.425 150.397 156.415C150.044 156.459 149.603 156.397 149.272 156.408C148.84 156.421 148.411 156.448 147.98 156.488C147.229 156.557 146.482 156.663 145.744 156.809C145.641 156.829 145.54 156.852 145.437 156.874C145.051 156.993 144.663 157.102 144.281 157.234C143.468 157.517 142.677 157.854 141.901 158.229C139.482 159.406 136.068 157.743 135.145 155.064C134.132 152.114 135.311 149.291 137.903 148.031Z" fill="#451E00"/>
<path d="M85.7165 150.588C90.1936 148.204 95.3298 147.668 99.9527 148.978C101.2 149.331 102.339 150.398 102.873 151.577C103.4 152.739 103.507 154.402 102.988 155.666C102.449 156.977 101.528 158.224 100.23 158.847C98.9141 159.478 97.5689 159.64 96.2136 159.258C95.9916 159.195 95.7642 159.158 95.5382 159.106C94.8349 159.028 94.1282 159.007 93.4148 159.037C92.5578 159.164 91.7135 159.369 90.8802 159.65C90.5899 159.781 90.2929 159.898 90.0088 160.048C88.7824 160.7 87.2482 160.856 85.9925 160.46C84.7904 160.08 83.5575 159.066 83.0734 157.858C82.5712 156.607 82.4033 155.121 82.9585 153.769C83.5112 152.422 84.4193 151.279 85.7165 150.588Z" fill="#451E00"/>
<path d="M128.798 100.531C148.482 127.512 192.997 182.974 254.168 202.761C258.307 195.766 265.675 188.431 279 188.671C295.655 188.97 301.712 200.962 301.712 200.962C301.712 200.962 321.093 233.04 276.274 253.426C263.859 255.825 259.922 255.825 249.929 251.628C243.165 256.824 221.705 274.532 214.195 277.41C216.113 287.503 219.499 312.666 214.896 324.178C223.678 324.978 245.083 329.395 262.041 320.281C263.749 310.014 265.251 296.57 262.578 291.443C265.769 296.606 271.525 308.39 271.525 315.184C281.215 311.887 302.776 302.713 311.498 292.4C325.024 229.443 329.875 76.8469 192.997 63.9556C180.985 62.5566 150.359 63.7758 130.01 77.4464C104.572 94.5348 91.8534 117.319 87.0082 140.104C97.4052 135.307 120.319 120.677 128.798 100.531Z" fill="#725837"/>
<path d="M78.8319 315.184C82.9504 309.428 80.5479 283.306 78.8319 274.412C95.7904 288.502 105.784 295.398 140.609 296.297C134.552 305.291 110.931 308.589 108.206 309.788L103.361 306.49V311.287C96.8198 313.445 84.2828 314.785 78.8319 315.184Z" fill="#725837"/>
<mask id="mask0_328_4858" style="mask-type:alpha" maskUnits="userSpaceOnUse" x="87" y="63" width="106" height="78">
<path d="M131.523 76.847C151.873 63.1763 180.985 62.5567 192.997 63.9558C189.68 81.7436 179.448 119.598 151.207 128.712C142.927 118.088 133.043 108.2 128.798 100.531C120.319 120.677 97.4051 135.307 87.0081 140.104C91.8533 117.319 106.086 93.9353 131.523 76.847Z" fill="#E2BA87"/>
</mask>
<g mask="url(#mask0_328_4858)">
<path d="M136.107 97.4212C136.107 97.4212 141.12 91.54 152.054 92.5224C152.054 92.5224 144.309 88.3584 139.298 88.8483C139.298 88.8483 152.965 78.803 173.011 85.1741C173.011 85.1741 158.889 75.3738 147.725 76.5985C147.725 76.5985 159.57 71.4548 167.087 72.6795C167.087 72.6795 161.164 65.3286 153.421 65.5735C153.421 65.5735 159.572 54.7934 169.14 51.3643C169.14 51.3643 150.004 56.7556 144.994 60.6747C133.832 65.3286 123.582 79.0506 123.582 79.0506C126.998 77.091 132.466 77.5809 132.466 77.5809C123.582 82.9723 116.747 93.0149 116.747 93.0149C121.074 90.0756 126.315 91.0554 126.315 91.0554C117.886 99.386 115.153 110.166 115.153 110.166C116.292 106.737 124.493 102.57 124.493 102.57C121.304 108.207 120.621 117.269 120.621 117.269L127.456 108.449C127.456 108.449 141.35 119.964 144.997 121.433C144.997 121.433 134.518 110.653 133.835 105.755C133.835 105.755 149.554 109.919 162.082 111.636C162.077 111.63 144.536 98.401 136.107 97.4212Z" fill="#795E3C"/>
</g>
<path d="M171.194 126.913C179.673 137.505 207.29 163.248 249.928 181.475C236.402 173.081 201.718 150.416 171.194 126.913Z" fill="#795E3C"/>
<path d="M283.845 181.475C259.134 129.671 208.946 100.331 186.941 92.1362C243.63 101.73 281.422 157.092 293.232 183.574C291.052 182.615 286.066 181.775 283.845 181.475Z" fill="#795E3C"/>
<path d="M296.563 244.133C295.352 245.632 291.839 247.97 289.901 248.929C290.682 262.075 291.867 287.588 291.259 298.904C291.099 300.502 290.947 301.947 290.81 303.192C291.014 302.217 291.16 300.749 291.259 298.904C292.399 287.549 293.96 268.435 293.535 257.923C295.756 265.918 299.531 268.596 296.866 301.693C299.693 280.308 304.073 257.084 296.563 244.133Z" fill="#795E3C"/>
<path d="M93.973 286.104C92.2772 285.384 89.4306 283.406 88.2193 282.506C90.3997 286.104 89.5316 304.192 88.825 312.786C90.2785 311.587 91.2476 307.09 91.5504 304.991C92.5195 308.109 94.3768 308.289 93.973 312.786C96.6379 306.79 94.2758 295.697 93.973 286.104Z" fill="#795E3C"/>
<path d="M230.245 281.307C233.152 307.449 231.759 314.584 229.336 325.677H235.393H241.449C245.81 304.571 234.686 294.498 230.245 281.307Z" fill="#795E3C"/>
<path d="M104.101 227.791C102.283 228.815 89.5756 213.158 81.1149 217.921C78.2587 219.529 76.0795 222.271 74.4432 225.235C70.8475 231.754 69.6171 239.674 71.0655 246.981C73.1155 257.312 80.2201 265.769 88.5769 271.375C111.065 286.457 128.904 283.606 152.905 274.876C171.797 268.005 197.537 253.862 192.205 228.345C182.818 183.427 104.124 227.778 104.101 227.791Z" fill="#873C41"/>
<path d="M169.205 224.92C163.093 228.642 155.652 229.026 148.978 227.541C147.702 227.256 146.676 228.308 146.358 229.516C143.1 241.938 124.624 248.422 115.358 240.457C114.639 239.838 113.364 239.692 112.61 240.393C107.61 245.048 99.5979 246.31 93.7137 243.161C85.4053 238.714 85.4459 226.219 87.7091 217.518C95.032 219.712 102.72 228.569 104.101 227.788C104.119 227.777 152.428 200.559 177.861 210.378C177.321 216.411 174.498 221.695 169.205 224.92Z" fill="white"/>
<path d="M99.9139 273.238C113.128 261.341 129.375 254.695 145.849 249.98C159.94 245.946 175.805 243.332 190.068 247.335C183.458 261.253 166.452 269.945 152.905 274.873C131.91 282.509 115.629 285.646 96.8303 276.219C97.8545 275.222 98.8529 274.194 99.9139 273.238Z" fill="#EE7E8B"/>
</svg>
