<svg width="360" height="362" viewBox="0 0 360 362" fill="none" xmlns="http://www.w3.org/2000/svg">
<rect y="1" width="360" height="360" rx="180" fill="#F3F4FC"/>
<path d="M204.365 67.3953C204.365 67.3953 282.351 79.5975 276.437 190.723C276.415 191.135 285.454 197.136 286.162 197.777C292.464 203.477 297.752 210.777 300.065 219.317C308.298 249.726 278.86 281.059 255.055 289.376C246.163 292.482 236.764 293.99 227.347 294.264C166.128 296.047 85.0773 257.137 80.9145 181.148C80.7654 178.422 80.7287 175.693 80.7988 172.97C81.1678 158.541 84.6501 144.49 89.8984 131.442C89.896 131.443 123.967 46.9331 204.365 67.3953Z" fill="#FFE4C0"/>
<g style="mix-blend-mode:multiply" opacity="0.5">
<path d="M278.409 191.892C277.565 193.961 276.723 196.605 276.488 198.118C275.485 204.605 277.705 211.305 281.561 216.122C285.221 220.696 290.449 223.663 295.51 224.782C297.219 225.161 299.288 225.355 301.097 225.416C299.19 206.628 283.897 195.351 278.409 191.892Z" fill="#FFE7E2"/>
</g>
<g style="mix-blend-mode:multiply" opacity="0.5">
<path d="M168.489 241.277C182.971 238.165 191.958 222.902 188.562 207.187C185.166 191.472 170.674 181.256 156.192 184.368C141.71 187.481 132.723 202.743 136.119 218.458C139.515 234.173 154.007 244.39 168.489 241.277Z" fill="#FFE7E2"/>
</g>
<path opacity="0.3" d="M239.399 197.325C239.399 197.325 251.77 185.554 261.348 196.621Z" fill="#CBA284"/>
<path d="M124.05 255.99C82.8907 276.62 45.5087 224.849 57.4657 195.756C65.093 177.199 87.3514 175.762 100.256 192.718C107.872 202.726 114.036 215.516 117.537 227.752" fill="#FFE4C0"/>
<path opacity="0.3" d="M90.1274 209.792C95.4262 215.185 99.687 223.183 104.922 227.646C103.952 220.181 102.405 212.21 98.7788 205.482C95.0966 198.649 88.4027 193.019 81.5893 193.481C73.1453 194.054 66.1964 203.891 65.3058 212.812C65.8382 207.473 76.5703 203.864 80.6674 204.371C87.0872 216.469 89.58 240.313 89.58 240.313C94.9193 226.817 92.7516 216.2 90.1274 209.792Z" fill="#CBA284"/>
<path d="M220.749 178.636C220.735 185.679 217.056 191.396 209.418 190.224C203.919 188.752 200.259 184.875 200.274 177.489C200.289 169.749 204.795 164.727 209.467 164.718C215.713 164.707 220.762 171.593 220.749 178.636Z" fill="#2A1200"/>
<path d="M272.823 178.509C272.814 183.23 270.677 188.3 265.21 187.717C260.621 187.228 259.45 181.203 259.455 178.237C259.466 173.05 262.064 168.149 265.855 168.142C269.932 168.134 272.832 173.788 272.823 178.509Z" fill="#2A1200"/>
<path d="M224.169 145.26C216.803 141.611 207.603 141.951 200.218 146.111C197.836 147.452 196.299 150.658 197.519 153.377C198.646 155.891 201.617 157.469 204.167 156.03C204.931 155.599 205.711 155.207 206.515 154.869C206.765 154.764 207.407 154.638 207.657 154.446C207.773 154.411 207.887 154.377 208.005 154.345C208.733 154.149 209.467 153.991 210.206 153.87C210.63 153.801 211.052 153.747 211.477 153.702C211.611 153.689 211.744 153.678 211.88 153.667C212.227 153.711 212.66 153.649 212.986 153.66C213.411 153.673 213.833 153.7 214.257 153.74C214.996 153.809 215.73 153.916 216.456 154.062C216.558 154.083 216.657 154.105 216.759 154.128C217.138 154.247 217.519 154.356 217.896 154.489C218.695 154.772 219.473 155.11 220.236 155.486C222.616 156.666 225.973 154.999 226.882 152.313C227.878 149.354 226.718 146.524 224.169 145.26Z" fill="#451E00"/>
<path d="M275.5 147.824C271.096 145.433 266.044 144.895 261.497 146.209C260.27 146.564 259.15 147.633 258.625 148.816C258.107 149.981 258.001 151.649 258.512 152.916C259.042 154.231 259.948 155.482 261.225 156.106C262.519 156.739 263.842 156.902 265.175 156.518C265.393 156.455 265.617 156.418 265.839 156.366C266.531 156.287 267.226 156.267 267.928 156.297C268.771 156.424 269.601 156.629 270.421 156.911C270.707 157.043 270.999 157.159 271.278 157.31C272.484 157.964 273.993 158.12 275.229 157.723C276.411 157.343 277.624 156.325 278.1 155.114C278.594 153.86 278.759 152.369 278.213 151.014C277.669 149.663 276.776 148.517 275.5 147.824Z" fill="#451E00"/>
<path d="M284.628 98.1486C284.106 87.7861 280.321 72.1809 268.277 75.7932C266.164 76.4257 264.309 77.8161 262.886 79.6209C262.334 77.5489 261.53 75.4824 260.524 73.4432C257.735 67.7861 250.128 65.5397 245.152 69.043C244.003 69.8527 243.054 70.8423 242.253 71.9219C230.343 62.7071 217.565 54.7682 203.64 50.1363C183.329 43.3778 161.228 43.9585 140.809 50.3217C138.62 51.0032 136.448 51.7529 134.293 52.5627C113.947 60.2126 93.371 73.1242 79.9634 91.6846C66.8079 109.893 59.9968 132.461 57.7397 155.324C57.088 161.916 56.751 168.549 56.761 175.179C56.761 175.82 56.761 172.052 56.9607 179.686C62.743 166.458 85.4754 169.164 85.4754 169.164L98.6362 184.196C101.815 188.26 105.258 213.338 109.316 210.35L111.11 209.448C113.904 207.39 112.381 191.172 112.299 187.494C111.765 163.309 121.659 138.061 137.711 123.334C154.027 108.364 177.709 102.601 199.368 101.246C217.55 100.109 235.254 104.705 250.969 114.803C256.01 118.042 260.806 121.769 265.213 125.97C265.53 126.273 269.864 131.128 270.052 131.03C280.698 125.523 284.823 112.271 284.69 100.169C284.683 99.5226 284.663 98.8465 284.628 98.1486Z" fill="#DBB079"/>
<path d="M203.64 50.1392C217.565 54.7711 230.343 62.71 242.253 71.9248C242.869 71.0906 243.609 70.3436 244.427 69.6675C242.8 71.5295 241.519 73.945 240.44 76.246C235.634 72.162 229.582 69.9156 223.51 71.7858C217.7 73.5769 213.597 78.5197 211.131 84.3157C197.274 75.9433 182.443 72.7509 165.423 75.9733C145.044 79.831 127.235 94.0567 115.407 112.309C99.483 136.886 99.3028 183.41 111.295 209.187C111.005 209.462 111.295 209.187 109.325 210.741C105.268 213.729 100.043 192.313 88.3776 186.3C83.1932 183.394 70.0724 180.828 59.065 192.613C56.761 182.091 56.761 177.281 56.761 171.87C56.7511 165.326 57.0793 162.006 57.7144 155.583L57.7397 155.327C59.9968 132.464 66.8079 109.896 79.9634 91.6875C93.371 73.1271 113.947 60.2155 134.293 52.5656C136.448 51.7559 138.62 51.0062 140.809 50.3246C161.228 43.9615 183.329 43.3808 203.64 50.1392Z" fill="#E2BA87"/>
<path d="M257.607 217.865C259.395 218.891 271.894 203.19 280.216 207.967C283.025 209.579 285.169 212.329 286.778 215.301C290.315 221.839 291.525 229.781 290.1 237.108C288.084 247.467 281.096 255.948 272.876 261.57C250.757 276.693 233.21 273.834 209.603 265.08C191.02 258.191 165.702 244.008 170.947 218.42C180.18 173.376 257.584 217.852 257.607 217.865Z" fill="#873C41"/>
<path d="M193.57 214.984C199.581 218.717 206.901 219.102 213.465 217.613C214.72 217.327 215.729 218.382 216.042 219.594C219.247 232.05 237.42 238.552 246.534 230.565C247.241 229.944 248.496 229.798 249.237 230.501C254.155 235.169 262.036 236.435 267.824 233.277C275.996 228.817 275.956 216.288 273.73 207.562C266.527 209.763 258.965 218.644 257.607 217.861C257.589 217.85 210.072 190.556 185.056 200.403C185.587 206.452 188.363 211.751 193.57 214.984Z" fill="white"/>
<path d="M261.725 263.437C248.727 251.507 232.746 244.843 216.543 240.115C202.683 236.07 187.077 233.448 173.049 237.462C179.55 251.419 196.277 260.136 209.602 265.077C230.253 272.735 246.267 275.88 264.758 266.427C263.75 265.427 262.768 264.396 261.725 263.437Z" fill="#EE7E8B"/>
</svg>
