<svg width="360" height="368" viewBox="0 0 360 368" fill="none" xmlns="http://www.w3.org/2000/svg">
<rect width="360" height="360" rx="180" transform="matrix(-1 0 0 1 360 7)" fill="#F3F4FC"/>
<path d="M155.635 73.3953C155.635 73.3953 77.6494 85.5975 83.5631 196.723C83.5846 197.135 74.5461 203.136 73.8382 203.777C67.5356 209.477 62.2477 216.777 59.9354 225.317C51.7016 255.726 81.1395 287.059 104.945 295.376C113.837 298.482 123.236 299.99 132.653 300.264C193.872 302.047 274.923 263.137 279.085 187.148C279.235 184.422 279.271 181.693 279.201 178.97C278.832 164.541 275.35 150.49 270.102 137.442C270.104 137.443 236.033 52.9331 155.635 73.3953Z" fill="#FFE4C0"/>
<g style="mix-blend-mode:multiply" opacity="0.5">
<path d="M81.5912 197.892C82.4348 199.961 83.2769 202.605 83.5121 204.118C84.5152 210.605 82.2947 217.305 78.4392 222.122C74.7786 226.696 69.5511 229.663 64.4897 230.782C62.7809 231.161 60.712 231.355 58.9025 231.416C60.8099 212.628 76.1028 201.351 81.5912 197.892Z" fill="#FFE7E2"/>
</g>
<g style="mix-blend-mode:multiply" opacity="0.5">
<path d="M191.511 247.277C177.029 244.165 168.042 228.902 171.438 213.187C174.834 197.472 189.326 187.256 203.808 190.368C218.29 193.481 227.277 208.743 223.881 224.458C220.485 240.173 205.993 250.39 191.511 247.277Z" fill="#FFE7E2"/>
</g>
<path opacity="0.3" d="M120.601 203.325C120.601 203.325 108.23 191.554 98.6525 202.621L120.601 203.325Z" fill="#CBA284"/>
<path d="M235.951 261.99C277.11 282.62 314.492 230.849 302.535 201.756C294.908 183.199 272.649 181.762 259.745 198.718C252.129 208.726 245.965 221.516 242.463 233.752" fill="#FFE4C0"/>
<path opacity="0.3" d="M269.873 215.792C264.574 221.185 260.313 229.183 255.078 233.646C256.048 226.181 257.595 218.21 261.222 211.482C264.904 204.649 271.598 199.019 278.411 199.481C286.855 200.054 293.804 209.891 294.695 218.812C294.162 213.473 283.43 209.864 279.333 210.371C272.913 222.469 270.42 246.313 270.42 246.313C265.081 232.817 267.249 222.2 269.873 215.792Z" fill="#CBA284"/>
<path d="M139.252 184.636C139.266 191.679 142.944 197.396 150.583 196.224C156.081 194.752 159.741 190.875 159.727 183.489C159.712 175.749 155.206 170.727 150.533 170.718C144.288 170.707 139.238 177.593 139.252 184.636Z" fill="#2A1200"/>
<path d="M87.1771 184.509C87.1863 189.23 89.3229 194.3 94.7904 193.717C99.3789 193.228 100.55 187.203 100.545 184.237C100.534 179.05 97.9356 174.149 94.1447 174.142C90.0676 174.134 87.1679 179.788 87.1771 184.509Z" fill="#2A1200"/>
<path d="M135.831 151.26C143.197 147.611 152.397 147.951 159.782 152.111C162.164 153.452 163.701 156.658 162.481 159.377C161.354 161.891 158.383 163.469 155.833 162.03C155.069 161.599 154.289 161.207 153.485 160.869C153.235 160.764 152.593 160.638 152.343 160.446C152.227 160.411 152.113 160.377 151.995 160.345C151.267 160.149 150.533 159.991 149.794 159.87C149.37 159.801 148.948 159.747 148.523 159.702C148.389 159.689 148.256 159.678 148.12 159.667C147.773 159.711 147.34 159.649 147.014 159.66C146.589 159.673 146.167 159.7 145.743 159.74C145.004 159.809 144.27 159.916 143.544 160.062C143.442 160.083 143.343 160.105 143.241 160.128C142.862 160.247 142.481 160.356 142.104 160.489C141.305 160.772 140.527 161.11 139.764 161.486C137.384 162.666 134.027 160.999 133.118 158.313C132.122 155.354 133.282 152.524 135.831 151.26Z" fill="#451E00"/>
<path d="M84.5 153.824C88.9037 151.433 93.9557 150.895 98.5028 152.209C99.73 152.564 100.85 153.633 101.375 154.816C101.893 155.981 101.999 157.649 101.488 158.916C100.958 160.231 100.052 161.482 98.7754 162.106C97.4812 162.739 96.1581 162.902 94.825 162.518C94.6067 162.455 94.383 162.418 94.1607 162.366C93.4689 162.287 92.7738 162.267 92.0721 162.297C91.2291 162.424 90.3987 162.629 89.579 162.911C89.2935 163.043 89.0014 163.159 88.7219 163.31C87.5156 163.964 86.0066 164.12 84.7715 163.723C83.5891 163.343 82.3763 162.325 81.9002 161.114C81.4063 159.86 81.2411 158.369 81.7872 157.014C82.3308 155.663 83.224 154.517 84.5 153.824Z" fill="#451E00"/>
<path d="M75.3721 104.149C75.894 93.7861 79.679 78.1809 91.7234 81.7932C93.8357 82.4257 95.6908 83.8161 97.114 85.6209C97.6657 83.5489 98.4697 81.4824 99.4759 79.4432C102.265 73.7861 109.872 71.5397 114.848 75.043C115.997 75.8527 116.946 76.8423 117.747 77.9219C129.657 68.7071 142.435 60.7682 156.36 56.1363C176.671 49.3778 198.772 49.9585 219.191 56.3217C221.38 57.0032 223.552 57.7529 225.707 58.5627C246.053 66.2126 266.629 79.1242 280.037 97.6846C293.192 115.893 300.003 138.461 302.26 161.324C302.912 167.916 303.249 174.549 303.239 181.179C303.239 181.82 303.239 178.052 303.039 185.686C297.257 172.458 274.525 175.164 274.525 175.164L261.364 190.196C258.185 194.26 254.742 219.338 250.684 216.35L248.89 215.448C246.096 213.39 247.619 197.172 247.701 193.494C248.235 169.309 238.341 144.061 222.289 129.334C205.973 114.364 182.291 108.601 160.632 107.246C142.45 106.109 124.746 110.705 109.031 120.803C103.99 124.042 99.1938 127.769 94.787 131.97C94.4699 132.273 90.1355 137.128 89.9482 137.03C79.302 131.523 75.1774 118.271 75.3097 106.169C75.3172 105.523 75.3372 104.847 75.3721 104.149Z" fill="#272523"/>
<path d="M156.36 56.1392C142.435 60.7711 129.657 68.71 117.747 77.9248C117.131 77.0906 116.391 76.3436 115.573 75.6675C117.2 77.5295 118.481 79.945 119.56 82.246C124.366 78.162 130.418 75.9156 136.49 77.7858C142.3 79.5769 146.403 84.5197 148.869 90.3157C162.726 81.9433 177.557 78.7509 194.577 81.9733C214.956 85.831 232.765 100.057 244.593 118.309C260.517 142.886 260.697 189.41 248.705 215.187C248.995 215.462 248.705 215.187 250.675 216.741C254.732 219.729 259.957 198.313 271.622 192.3C276.807 189.394 289.928 186.828 300.935 198.613C303.239 188.091 303.239 183.281 303.239 177.87C303.249 171.326 302.921 168.006 302.286 161.583L302.26 161.327C300.003 138.464 293.192 115.896 280.037 97.6875C266.629 79.1271 246.053 66.2155 225.707 58.5656C223.552 57.7559 221.38 57.0062 219.191 56.3246C198.772 49.9615 176.671 49.3808 156.36 56.1392Z" fill="#181818"/>
<path d="M106.973 225.578C101.427 225.731 96.109 224.145 91.5293 219.383C89.133 216.895 86.703 215.524 83.2646 217.654C75.0328 222.753 73.0947 235.491 75.3075 244.033C77.7367 253.405 85.055 260.961 93.4889 265.889C116.183 279.15 133.591 276.166 156.814 267.688C175.093 261.018 199.807 247.571 193.542 224.429C185.785 195.775 152.351 209.533 133.487 217.262C125.478 220.547 115.928 225.329 106.973 225.578Z" fill="white"/>
<mask id="mask0_328_4893" style="mask-type:alpha" maskUnits="userSpaceOnUse" x="74" y="207" width="121" height="68">
<path d="M106.973 225.577C101.427 225.731 96.109 224.144 91.5293 219.383C89.133 216.894 86.703 215.524 83.2646 217.653C75.0328 222.752 73.0947 235.491 75.3075 244.032C77.7367 253.405 85.0551 260.96 93.4889 265.889C116.183 279.149 133.591 276.165 156.814 267.688C175.093 261.018 199.807 247.571 193.542 224.428C185.785 195.775 152.351 209.532 133.487 217.262C125.478 220.547 115.928 225.328 106.973 225.577Z" fill="white"/>
</mask>
<g mask="url(#mask0_328_4893)">
<path fill-rule="evenodd" clip-rule="evenodd" d="M182.686 257.405L158.929 197.428L155.622 198.738L179.379 258.716L182.686 257.405ZM133.87 276.784L117.46 213.85L114.018 214.748L130.428 277.682L133.87 276.784ZM85.0296 261.588L94.0842 215.448L90.5936 214.763L81.539 260.903L85.0296 261.588Z" fill="#D1D3D4"/>
</g>
</svg>
