<svg width="359" height="361" viewBox="0 0 359 361" fill="none" xmlns="http://www.w3.org/2000/svg">
<rect width="359" height="359" rx="179.5" transform="matrix(-1 0 0 1 359 1)" fill="#F3F4FC"/>
<path d="M155.303 54.5716C155.303 54.5716 77.3257 66.7399 83.2388 177.557C83.2603 177.967 74.2228 183.952 73.5149 184.591C67.213 190.275 61.9257 197.555 59.6136 206.071C51.3806 236.396 80.8155 267.642 104.619 275.936C113.509 279.033 122.907 280.537 132.323 280.81C193.536 282.588 274.578 243.786 278.741 168.009C278.89 165.29 278.926 162.568 278.856 159.853C278.487 145.464 275.005 131.452 269.758 118.441C269.76 118.441 235.693 34.1663 155.303 54.5716Z" fill="#E2BA87"/>
<g style="mix-blend-mode:multiply" opacity="0.5">
<path d="M81.2702 178.715C82.1121 180.778 82.9523 183.415 83.1865 184.924C84.1857 191.393 81.9633 198.076 78.1081 202.883C74.4478 207.446 69.2225 210.408 64.164 211.527C62.4563 211.906 60.3887 212.1 58.5805 212.162C60.4961 193.423 75.7838 182.168 81.2702 178.715Z" fill="#FCC3B8"/>
</g>
<g style="mix-blend-mode:multiply" opacity="0.5">
<path d="M191.163 227.982C176.69 224.884 167.714 209.664 171.117 193.986C174.519 178.309 189.01 168.111 203.483 171.208C217.956 174.306 226.932 189.526 223.529 205.204C220.127 220.881 205.636 231.08 191.163 227.982Z" fill="#FCC3B8"/>
</g>
<path opacity="0.3" d="M120.273 184.14C120.273 184.14 107.903 172.402 98.3267 183.438L120.273 184.14Z" fill="#8B5E3C"/>
<path d="M235.591 242.001C277.716 262.992 314.825 212.095 302.211 183.077C294.165 164.567 271.543 162.86 258.717 179.521C251.148 189.355 245.099 201.968 241.743 214.064" fill="#E2BA87"/>
<path opacity="0.3" d="M269.335 196.545C264.05 201.826 259.861 209.702 254.626 214.06C255.488 206.671 256.926 198.787 260.493 192.163C264.115 185.434 270.81 179.937 277.726 180.481C286.296 181.156 293.501 190.998 294.549 199.853C293.923 194.554 282.983 190.839 278.838 191.29C272.526 203.204 270.387 226.813 270.387 226.813C264.754 213.364 266.779 202.865 269.335 196.545Z" fill="#8B5E3C"/>
<path d="M138.865 178.142C138.879 185.166 142.547 190.867 150.164 189.698C155.648 188.23 159.297 184.364 159.283 176.998C159.268 169.28 154.774 164.272 150.115 164.263C143.887 164.252 138.851 171.119 138.865 178.142Z" fill="#2A1200"/>
<path d="M86.9349 178.015C86.944 182.723 89.0747 187.779 94.5271 187.198C99.1028 186.711 100.271 180.703 100.265 177.745C100.255 172.572 97.6635 167.685 93.8831 167.677C89.8173 167.67 86.9257 173.308 86.9349 178.015Z" fill="#2A1200"/>
<path d="M135.454 144.859C142.799 141.221 151.973 141.559 159.338 145.708C161.713 147.045 163.246 150.242 162.029 152.953C160.906 155.46 157.943 157.034 155.4 155.599C154.638 155.169 153.86 154.779 153.059 154.442C152.81 154.336 152.169 154.211 151.92 154.019C151.804 153.985 151.69 153.951 151.572 153.919C150.847 153.724 150.115 153.566 149.378 153.445C148.955 153.377 148.534 153.322 148.11 153.278C147.977 153.264 147.844 153.253 147.709 153.243C147.362 153.287 146.931 153.225 146.605 153.235C146.182 153.249 145.761 153.276 145.338 153.315C144.602 153.385 143.869 153.491 143.145 153.637C143.043 153.657 142.944 153.679 142.843 153.702C142.465 153.821 142.085 153.93 141.71 154.062C140.912 154.344 140.136 154.682 139.375 155.057C137.002 156.234 133.654 154.571 132.748 151.892C131.755 148.942 132.912 146.119 135.454 144.859Z" fill="#451E00"/>
<path d="M84.2654 147.416C88.6569 145.032 93.6948 144.496 98.2293 145.805C99.4531 146.159 100.57 147.226 101.094 148.405C101.61 149.567 101.715 151.23 101.207 152.494C100.677 153.805 99.7743 155.052 98.5012 155.675C97.2106 156.306 95.8912 156.468 94.5617 156.086C94.344 156.023 94.121 155.986 93.8993 155.934C93.2094 155.856 92.5163 155.835 91.8165 155.865C90.9758 155.992 90.1477 156.197 89.3303 156.478C89.0456 156.609 88.7543 156.725 88.4756 156.876C87.2727 157.528 85.7678 157.684 84.5361 157.288C83.3571 156.908 82.1477 155.894 81.6728 154.686C81.1803 153.435 81.0156 151.948 81.5601 150.597C82.1023 149.25 82.993 148.107 84.2654 147.416Z" fill="#451E00"/>
<path d="M75.1628 97.8788C75.6832 87.545 79.4577 71.9832 91.4687 75.5855C93.5751 76.2162 95.425 77.6027 96.8442 79.4025C97.3945 77.3363 98.1962 75.2755 99.1996 73.2419C101.981 67.6006 109.567 65.3604 114.529 68.854C115.675 69.6614 116.621 70.6483 117.42 71.7249C129.297 62.5357 142.04 54.6189 155.925 49.9998C176.18 43.2602 198.22 43.8392 218.582 50.1847C220.765 50.8643 222.931 51.612 225.08 52.4194C245.37 60.0481 265.888 72.9239 279.259 91.4327C292.378 109.591 299.17 132.096 301.421 154.895C302.071 161.469 302.407 168.084 302.397 174.696C302.397 175.334 302.397 171.577 302.198 179.19C296.431 165.999 273.762 168.697 273.762 168.697L260.638 183.687C257.468 187.74 254.034 212.749 249.988 209.769L248.198 208.869C245.412 206.817 246.931 190.643 247.013 186.976C247.546 162.858 237.679 137.68 221.672 122.994C205.401 108.066 181.785 102.318 160.185 100.967C142.054 99.8335 124.399 104.417 108.728 114.487C103.701 117.717 98.9182 121.434 94.5237 125.623C94.2075 125.925 89.8851 130.767 89.6984 130.669C79.0818 125.177 74.9686 111.962 75.1006 99.8933C75.108 99.249 75.1279 98.5748 75.1628 97.8788Z" fill="#EDCDA6"/>
<path d="M155.925 50.0027C142.04 54.6218 129.297 62.5386 117.42 71.7278C116.805 70.8959 116.068 70.151 115.252 69.4768C116.875 71.3336 118.152 73.7424 119.228 76.037C124.021 71.9644 130.056 69.7242 136.111 71.5892C141.905 73.3754 145.996 78.3044 148.456 84.0843C162.274 75.7352 177.064 72.5516 194.037 75.7651C214.359 79.6121 232.119 93.7982 243.913 112C259.793 136.509 259.973 182.903 248.014 208.609C248.303 208.883 248.014 208.609 249.979 210.158C254.025 213.138 259.235 191.781 270.868 185.785C276.038 182.887 289.122 180.329 300.099 192.081C302.397 181.588 302.397 176.791 302.397 171.395C302.407 164.869 302.079 161.559 301.446 155.153L301.421 154.898C299.17 132.099 292.378 109.594 279.259 91.4357C265.888 72.9268 245.37 60.051 225.08 52.4224C222.931 51.6149 220.765 50.8673 218.582 50.1876C198.22 43.8422 176.18 43.2631 155.925 50.0027Z" fill="#E0BA89"/>
<path d="M102.109 217.263C100.326 218.286 87.8619 202.629 79.5629 207.392C76.7613 209 74.6238 211.742 73.0188 214.707C69.4919 221.225 68.285 229.146 69.7057 236.452C71.7166 246.783 78.6852 255.241 86.8822 260.847C108.94 275.928 126.438 273.077 149.98 264.347C168.511 257.477 193.759 243.333 188.528 217.816C179.321 172.898 102.132 217.25 102.109 217.263Z" fill="#873C41"/>
<path d="M165.968 214.391C159.973 218.113 152.675 218.497 146.128 217.012C144.877 216.727 143.87 217.779 143.558 218.987C140.362 231.409 122.24 237.893 113.151 229.928C112.446 229.309 111.195 229.163 110.456 229.864C105.551 234.519 97.6925 235.781 91.9208 232.632C83.7712 228.185 83.8111 215.69 86.031 206.989C93.2139 209.183 100.754 218.04 102.109 217.259C102.127 217.248 149.512 190.03 174.458 199.849C173.929 205.882 171.16 211.166 165.968 214.391Z" fill="white"/>
<path d="M98.003 262.709C110.965 250.811 126.901 244.166 143.06 239.451C156.881 235.417 172.443 232.803 186.433 236.806C179.95 250.724 163.269 259.416 149.981 264.344C129.387 271.98 113.417 275.117 94.9784 265.69C95.9829 264.693 96.9623 263.665 98.003 262.709Z" fill="#EE7E8B"/>
</svg>
