<svg width="359" height="362" viewBox="0 0 359 362" fill="none" xmlns="http://www.w3.org/2000/svg">
<rect width="359" height="360" rx="179.5" transform="matrix(-1 0 0 1 359 1)" fill="#F3F4FC"/>
<path d="M155.203 67.3953C155.203 67.3953 77.4335 79.5975 83.3308 190.723C83.3523 191.135 74.3389 197.136 73.6329 197.777C67.3478 203.477 62.0746 210.777 59.7687 219.317C51.5578 249.726 80.9139 281.059 104.653 289.376C113.521 292.482 122.893 293.99 132.284 294.264C193.333 296.047 274.159 257.137 278.31 181.148C278.459 178.422 278.495 175.693 278.425 172.97C278.057 158.541 274.585 144.49 269.351 131.442C269.353 131.443 235.377 46.9331 155.203 67.3953Z" fill="#FFE4C0"/>
<g style="mix-blend-mode:multiply" opacity="0.5">
<path d="M81.3612 191.899C82.204 193.968 83.0457 196.613 83.2811 198.125C84.2855 204.612 82.0732 211.309 78.2286 216.124C74.5783 220.695 69.3636 223.659 64.3137 224.776C62.6089 225.153 60.5445 225.346 58.7389 225.407C60.6324 206.622 75.8864 195.355 81.3612 191.899Z" fill="#FFE7E2"/>
</g>
<g style="mix-blend-mode:multiply" opacity="0.5">
<path d="M190.991 241.265C176.543 238.146 167.57 222.883 170.949 207.175C174.328 191.467 188.781 181.261 203.229 184.38C217.677 187.499 226.651 202.762 223.271 218.47C219.892 234.179 205.44 244.384 190.991 241.265Z" fill="#FFE7E2"/>
</g>
<path opacity="0.3" d="M120.265 197.325C120.265 197.325 107.929 185.554 98.3783 196.621L120.265 197.325Z" fill="#CBA284"/>
<path d="M235.294 255.967C276.375 276.612 313.643 224.866 301.695 195.774C294.073 177.216 271.863 175.77 258.998 192.717C251.405 202.719 245.262 215.505 241.775 227.736" fill="#FFE4C0"/>
<path opacity="0.3" d="M269.116 209.791C263.832 215.18 259.586 223.175 254.365 227.634C255.329 220.172 256.867 212.202 260.481 205.478C264.151 198.648 270.827 193.022 277.625 193.487C286.05 194.064 292.989 203.902 293.883 212.821C293.349 207.484 282.639 203.87 278.551 204.375C272.153 216.468 269.68 240.306 269.68 240.306C264.345 226.81 266.501 216.196 269.116 209.791Z" fill="#CBA284"/>
<path d="M138.865 178.636C138.879 185.679 142.547 191.396 150.164 190.224C155.648 188.752 159.297 184.875 159.283 177.489C159.268 169.749 154.774 164.727 150.115 164.718C143.887 164.707 138.851 171.593 138.865 178.636Z" fill="#2A1200"/>
<path d="M86.9354 178.509C86.9445 183.23 89.0752 188.3 94.5276 187.717C99.1032 187.228 100.271 181.203 100.266 178.237C100.256 173.05 97.664 168.149 93.8836 168.142C89.8178 168.134 86.9262 173.788 86.9354 178.509Z" fill="#2A1200"/>
<path d="M135.454 145.26C142.799 141.611 151.973 141.951 159.338 146.111C161.713 147.452 163.246 150.658 162.029 153.377C160.906 155.891 157.943 157.469 155.4 156.03C154.638 155.599 153.86 155.207 153.059 154.869C152.81 154.764 152.169 154.638 151.92 154.446C151.804 154.411 151.69 154.377 151.572 154.345C150.847 154.149 150.115 153.991 149.378 153.87C148.955 153.801 148.534 153.747 148.11 153.702C147.977 153.689 147.844 153.678 147.709 153.667C147.362 153.711 146.931 153.649 146.605 153.66C146.182 153.673 145.761 153.7 145.338 153.74C144.602 153.809 143.869 153.916 143.145 154.062C143.043 154.083 142.944 154.105 142.843 154.128C142.465 154.247 142.085 154.356 141.71 154.489C140.912 154.772 140.136 155.11 139.375 155.486C137.002 156.666 133.654 154.999 132.748 152.313C131.755 149.354 132.912 146.524 135.454 145.26Z" fill="#451E00"/>
<path d="M84.2649 147.825C88.6564 145.434 93.6943 144.896 98.2289 146.21C99.4526 146.564 100.57 147.634 101.093 148.816C101.61 149.981 101.715 151.649 101.206 152.916C100.677 154.231 99.7738 155.482 98.5007 156.106C97.2101 156.739 95.8907 156.902 94.5612 156.519C94.3435 156.455 94.1205 156.419 93.8988 156.367C93.209 156.288 92.5158 156.267 91.816 156.297C90.9753 156.424 90.1472 156.63 89.3298 156.912C89.0451 157.043 88.7538 157.16 88.4751 157.311C87.2722 157.965 85.7673 158.121 84.5356 157.724C83.3566 157.343 82.1472 156.326 81.6724 155.115C81.1798 153.86 81.0151 152.37 81.5596 151.015C82.1018 149.664 82.9925 148.517 84.2649 147.825Z" fill="#451E00"/>
<mask id="mask0_328_4908" style="mask-type:alpha" maskUnits="userSpaceOnUse" x="60" y="110" width="40" height="69">
<path d="M83.4836 178.294C83.7946 148.753 90.3163 126.975 99.3384 110.953C88.4934 110.953 65.6103 116.425 60.8378 138.311C56.0653 160.196 73.9465 174.086 83.4836 178.294Z" fill="#C4C4C4"/>
</mask>
<g mask="url(#mask0_328_4908)">
<ellipse cx="26.5469" cy="26.7561" rx="26.5469" ry="26.7561" transform="matrix(-1 0 0 1 121.131 119.721)" fill="#2B1200"/>
</g>
<path d="M157.58 27.0767C144.921 27.0768 134.082 35.1408 129.585 46.5786C125.722 44.7216 121.417 43.6841 116.878 43.6841C100.189 43.6842 86.6592 57.6973 86.6592 74.9829C86.6592 76.2252 86.7323 77.4503 86.8682 78.6548C74.1159 81.1033 64.4582 92.683 64.458 106.6C64.458 122.298 76.745 135.025 91.9014 135.025C99.3586 135.025 106.12 131.943 111.066 126.943C116.068 131.942 122.905 135.025 130.445 135.025C139.945 135.025 148.33 130.135 153.332 122.679C158.909 130.181 167.713 135.025 177.623 135.025C181.988 135.025 186.139 134.083 189.895 132.39C193.373 141.489 200.888 148.51 210.18 151.141C209.263 154.118 208.767 157.286 208.767 160.574C208.767 169.459 212.379 177.478 218.179 183.175C218.685 206.4 229.36 218.447 235.969 221.936C237.56 223.239 244.321 222.837 244.321 222.837C246.349 213.428 253.614 195.89 268.018 187.214C269.116 187.337 270.232 187.402 271.362 187.402C288.222 187.402 301.889 173.389 301.889 156.103C301.889 147.166 298.236 139.105 292.377 133.402C297.143 127.88 300.039 120.622 300.039 112.668C300.039 96.125 287.52 82.5804 271.665 81.4478C271.376 64.4211 257.96 50.7105 241.452 50.7104C237.022 50.7104 232.814 51.698 229.022 53.4722C224.301 42.4445 213.557 34.7417 201.058 34.7417C194.178 34.7418 187.83 37.077 182.726 41.0142C177.307 32.6118 168.068 27.0767 157.58 27.0767Z" fill="#2B1200"/>
<path d="M102.109 217.865C100.326 218.891 87.8619 203.19 79.5629 207.967C76.7613 209.579 74.6238 212.329 73.0188 215.301C69.4919 221.839 68.285 229.781 69.7058 237.108C71.7166 247.467 78.6852 255.948 86.8822 261.57C108.94 276.693 126.438 273.834 149.98 265.08C168.511 258.191 193.759 244.008 188.528 218.42C179.321 173.376 102.132 217.852 102.109 217.865Z" fill="#873C41"/>
<path d="M165.968 214.984C159.973 218.717 152.675 219.102 146.128 217.613C144.877 217.327 143.87 218.382 143.558 219.594C140.362 232.05 122.24 238.552 113.151 230.565C112.446 229.944 111.195 229.798 110.456 230.501C105.551 235.169 97.6925 236.435 91.9208 233.277C83.7712 228.817 83.8111 216.288 86.031 207.562C93.2139 209.763 100.754 218.644 102.109 217.861C102.127 217.85 149.512 190.556 174.458 200.403C173.929 206.452 171.16 211.751 165.968 214.984Z" fill="white"/>
<path d="M98.003 263.437C110.965 251.507 126.901 244.843 143.06 240.115C156.881 236.07 172.443 233.448 186.433 237.462C179.95 251.419 163.269 260.136 149.981 265.077C129.387 272.735 113.417 275.88 94.9784 266.427C95.9829 265.427 96.9623 264.396 98.003 263.437Z" fill="#EE7E8B"/>
</svg>
