<svg width="359" height="376" viewBox="0 0 359 376" fill="none" xmlns="http://www.w3.org/2000/svg">
<rect width="359" height="359" rx="179.5" transform="matrix(-1 0 0 1 359 17)" fill="#F3F4FC"/>
<path d="M155.303 70.5714C155.303 70.5714 77.3257 82.7397 83.2388 193.556C83.2603 193.967 74.2228 199.951 73.5149 200.591C67.213 206.275 61.9257 213.555 59.6136 222.071C51.3806 252.396 80.8155 283.642 104.619 291.935C113.509 295.033 122.907 296.537 132.323 296.81C193.536 298.588 274.578 259.786 278.741 184.009C278.89 181.29 278.926 178.568 278.856 175.853C278.487 161.464 275.005 147.451 269.758 134.441C269.76 134.441 235.693 50.166 155.303 70.5714Z" fill="#E2BA87"/>
<g style="mix-blend-mode:multiply" opacity="0.5">
<path d="M81.2702 194.714C82.1121 196.778 82.9523 199.415 83.1865 200.923C84.1857 207.393 81.9633 214.076 78.1081 218.882C74.4478 223.446 69.2225 226.407 64.164 227.527C62.4563 227.905 60.3887 228.1 58.5805 228.162C60.4961 209.422 75.7838 198.167 81.2702 194.714Z" fill="#FCC3B8"/>
</g>
<g style="mix-blend-mode:multiply" opacity="0.5">
<path d="M191.163 243.982C176.69 240.884 167.714 225.664 171.117 209.986C174.519 194.308 189.01 184.11 203.483 187.208C217.956 190.305 226.932 205.526 223.529 221.203C220.127 236.881 205.636 247.079 191.163 243.982Z" fill="#FCC3B8"/>
</g>
<path opacity="0.3" d="M120.273 200.14C120.273 200.14 107.903 188.402 98.3267 199.438L120.273 200.14Z" fill="#8B5E3C"/>
<path d="M235.591 258.001C277.716 278.991 314.825 228.095 302.211 199.076C294.165 180.567 271.543 178.86 258.717 195.521C251.148 205.354 245.099 217.968 241.743 230.064" fill="#E2BA87"/>
<path opacity="0.3" d="M269.335 212.545C264.05 217.825 259.861 225.702 254.626 230.06C255.488 222.671 256.926 214.787 260.493 208.163C264.115 201.434 270.81 195.937 277.726 196.481C286.296 197.156 293.501 206.997 294.549 215.853C293.923 210.553 282.983 206.839 278.838 207.289C272.526 219.204 270.387 242.813 270.387 242.813C264.754 229.364 266.779 218.865 269.335 212.545Z" fill="#8B5E3C"/>
<path d="M138.676 181.314C138.69 188.338 142.359 194.039 149.976 192.87C155.459 191.402 159.109 187.536 159.095 180.17C159.08 172.452 154.586 167.444 149.926 167.435C143.698 167.423 138.663 174.291 138.676 181.314Z" fill="#2A1200"/>
<path d="M86.7464 181.187C86.7556 185.895 88.8862 190.951 94.3386 190.37C98.9143 189.882 100.082 183.874 100.077 180.917C100.067 175.744 97.4751 170.856 93.6947 170.849C89.6288 170.842 86.7372 176.479 86.7464 181.187Z" fill="#2A1200"/>
<path d="M135.266 148.031C142.61 144.393 151.785 144.731 159.15 148.88C161.525 150.217 163.058 153.414 161.841 156.125C160.717 158.632 157.754 160.206 155.211 158.771C154.449 158.341 153.672 157.951 152.87 157.614C152.621 157.509 151.98 157.383 151.732 157.191C151.615 157.157 151.502 157.123 151.384 157.091C150.659 156.896 149.927 156.738 149.189 156.617C148.767 156.549 148.345 156.494 147.922 156.45C147.788 156.436 147.655 156.425 147.52 156.415C147.174 156.459 146.742 156.397 146.417 156.408C145.993 156.421 145.572 156.448 145.15 156.488C144.413 156.557 143.68 156.663 142.957 156.809C142.855 156.829 142.756 156.852 142.655 156.874C142.277 156.993 141.896 157.102 141.521 157.234C140.724 157.517 139.948 157.854 139.187 158.229C136.814 159.406 133.466 157.743 132.56 155.064C131.566 152.114 132.723 149.291 135.266 148.031Z" fill="#2D2C2C"/>
<path d="M84.0764 150.588C88.468 148.204 93.5058 147.668 98.0404 148.978C99.2641 149.331 100.381 150.398 100.905 151.577C101.421 152.739 101.526 154.402 101.018 155.666C100.488 156.977 99.5853 158.224 98.3122 158.847C97.0216 159.478 95.7022 159.64 94.3727 159.258C94.1551 159.195 93.932 159.158 93.7103 159.106C93.0205 159.028 92.3273 159.007 91.6275 159.037C90.7868 159.164 89.9588 159.369 89.1413 159.65C88.8566 159.781 88.5653 159.898 88.2866 160.048C87.0837 160.7 85.5788 160.856 84.3471 160.46C83.1681 160.08 81.9587 159.066 81.4839 157.858C80.9913 156.607 80.8266 155.121 81.3711 153.769C81.9133 152.422 82.804 151.279 84.0764 150.588Z" fill="#2D2C2C"/>
<path d="M126.335 100.531C145.643 127.512 189.306 182.974 249.307 202.761C253.367 195.766 260.595 188.431 273.664 188.671C290.001 188.97 295.942 200.962 295.942 200.962C295.942 200.962 314.952 233.04 270.991 253.426C258.812 255.825 254.951 255.825 245.149 251.628C238.515 256.824 217.465 274.532 210.099 277.41C211.98 287.503 215.302 312.666 210.787 324.178C219.401 324.978 240.396 329.395 257.03 320.281C258.705 310.014 260.178 296.57 257.556 291.443C260.686 296.606 266.332 308.39 266.332 315.184C275.837 311.887 296.986 302.713 305.54 292.4C318.808 229.443 323.566 76.8469 189.306 63.9556C177.524 62.5566 147.484 63.7758 127.523 77.4464C102.573 94.5348 90.097 117.319 85.3445 140.104C95.5427 135.307 118.018 120.677 126.335 100.531Z" fill="#272523"/>
<path d="M77.3246 315.184C81.3643 309.428 79.0078 283.306 77.3246 274.412C93.9587 288.502 103.761 295.398 137.92 296.297C131.979 305.291 108.81 308.589 106.137 309.788L101.384 306.49V311.287C94.9685 313.445 82.6713 314.785 77.3246 315.184Z" fill="#272523"/>
<mask id="mask0_328_4873" style="mask-type:alpha" maskUnits="userSpaceOnUse" x="85" y="63" width="105" height="78">
<path d="M129.008 76.847C148.969 63.1763 177.524 62.5567 189.306 63.9558C186.053 81.7436 176.016 119.598 148.316 128.712C140.194 118.088 130.499 108.2 126.335 100.531C118.018 120.677 95.5425 135.307 85.3443 140.104C90.0968 117.319 104.057 93.9353 129.008 76.847Z" fill="#E2BA87"/>
</mask>
<g mask="url(#mask0_328_4873)">
<path d="M133.504 97.4212C133.504 97.4212 138.421 91.54 149.146 92.5224C149.146 92.5224 141.548 88.3584 136.634 88.8483C136.634 88.8483 150.039 78.803 169.702 85.1741C169.702 85.1741 155.85 75.3738 144.899 76.5985C144.899 76.5985 156.517 71.4548 163.892 72.6795C163.892 72.6795 158.081 65.3286 150.486 65.5735C150.486 65.5735 156.52 54.7934 165.904 51.3643C165.904 51.3643 147.135 56.7556 142.221 60.6747C131.273 65.3286 121.218 79.0506 121.218 79.0506C124.569 77.091 129.932 77.5809 129.932 77.5809C121.218 82.9723 114.514 93.0149 114.514 93.0149C118.758 90.0756 123.898 91.0554 123.898 91.0554C115.631 99.386 112.95 110.166 112.95 110.166C114.067 106.737 122.111 102.57 122.111 102.57C118.984 108.207 118.314 117.269 118.314 117.269L125.018 108.449C125.018 108.449 138.647 119.964 142.223 121.433C142.223 121.433 131.945 110.653 131.275 105.755C131.275 105.755 146.693 109.919 158.982 111.636C158.977 111.63 141.772 98.401 133.504 97.4212Z" fill="#181818"/>
</g>
<path d="M167.92 126.913C176.237 137.505 203.327 163.248 245.149 181.475C231.881 173.081 197.861 150.416 167.92 126.913Z" fill="#181818"/>
<path d="M278.417 181.475C254.179 129.671 204.95 100.331 183.366 92.1362C238.971 101.73 276.041 157.092 287.625 183.574C285.486 182.615 280.595 181.775 278.417 181.475Z" fill="#181818"/>
<path d="M290.892 244.133C289.704 245.632 286.258 247.97 284.357 248.929C285.124 262.075 286.285 287.588 285.689 298.904C285.532 300.502 285.383 301.947 285.249 303.192C285.448 302.217 285.592 300.749 285.689 298.904C286.807 287.549 288.339 268.435 287.922 257.923C290.1 265.918 293.803 268.596 291.189 301.693C293.962 280.308 298.259 257.084 290.892 244.133Z" fill="#181818"/>
<path d="M92.1764 286.104C90.513 285.384 87.7209 283.406 86.5328 282.506C88.6714 286.104 87.8199 304.192 87.1268 312.786C88.5526 311.587 89.5031 307.09 89.8002 304.991C90.7507 308.109 92.5725 308.289 92.1764 312.786C94.7903 306.79 92.4735 295.697 92.1764 286.104Z" fill="#181818"/>
<path d="M225.842 281.307C228.693 307.449 227.327 314.584 224.951 325.677H230.891H236.832C241.109 304.571 230.198 294.498 225.842 281.307Z" fill="#181818"/>
<path d="M102.298 238.167C100.515 239.191 88.0508 223.534 79.7519 228.297C76.9503 229.905 74.8128 232.647 73.2078 235.611C69.6808 242.13 68.474 250.05 69.8947 257.357C71.9055 267.688 78.8742 276.145 87.0712 281.751C109.129 296.832 126.627 293.982 150.169 285.252C168.7 278.381 193.948 264.238 188.717 238.721C179.51 193.802 102.321 238.154 102.298 238.167Z" fill="#873C41"/>
<path d="M166.157 235.295C160.162 239.017 152.864 239.401 146.317 237.917C145.065 237.632 144.059 238.683 143.747 239.892C140.551 252.313 122.429 258.797 113.34 250.832C112.635 250.214 111.384 250.068 110.645 250.768C105.74 255.424 97.8814 256.686 92.1097 253.537C83.9602 249.09 84 236.595 86.22 227.894C93.4028 230.088 100.943 238.944 102.298 238.164C102.316 238.153 149.701 210.935 174.647 220.754C174.118 226.787 171.349 232.071 166.157 235.295Z" fill="white"/>
<path d="M98.1914 283.613C111.153 271.716 127.089 265.071 143.248 260.356C157.07 256.322 172.631 253.708 186.621 257.71C180.138 271.628 163.457 280.321 150.169 285.249C129.575 292.885 113.606 296.022 95.1668 286.595C96.1714 285.598 97.1508 284.569 98.1914 283.613Z" fill="#EE7E8B"/>
</svg>
