<svg width="360" height="368" viewBox="0 0 360 368" fill="none" xmlns="http://www.w3.org/2000/svg">
<rect width="360" height="360" rx="180" transform="matrix(-1 0 0 1 360 7)" fill="#F3F4FC"/>
<path d="M155.736 60.7205C155.736 60.7205 77.5414 72.9227 83.4709 184.048C83.4925 184.46 74.4298 190.461 73.7199 191.102C67.4005 196.802 62.0985 204.102 59.7799 212.642C51.5241 243.051 81.0409 274.384 104.91 282.701C113.826 285.807 123.25 287.315 132.692 287.589C194.075 289.372 275.343 250.462 279.517 174.474C279.667 171.747 279.704 169.018 279.633 166.295C279.263 151.867 275.772 137.815 270.509 124.768C270.512 124.768 236.349 40.2583 155.736 60.7205Z" fill="#E2BA87"/>
<g style="mix-blend-mode:multiply" opacity="0.5">
<path d="M81.4967 185.21C82.341 187.279 83.1835 189.923 83.4184 191.436C84.4203 197.923 82.1918 204.625 78.3259 209.445C74.6553 214.021 69.4155 216.991 64.3429 218.114C62.6304 218.493 60.5571 218.688 58.7438 218.75C60.6647 199.959 75.995 188.672 81.4967 185.21Z" fill="#FCC3B8"/>
</g>
<g style="mix-blend-mode:multiply" opacity="0.5">
<path d="M191.696 234.614C177.182 231.508 168.182 216.245 171.594 200.524C175.005 184.802 189.536 174.576 204.05 177.682C218.564 180.788 227.564 196.051 224.152 211.772C220.741 227.493 206.21 237.72 191.696 234.614Z" fill="#FCC3B8"/>
</g>
<path opacity="0.3" d="M120.608 190.65C120.608 190.65 108.204 178.879 98.6007 189.946L120.608 190.65Z" fill="#8B5E3C"/>
<path d="M236.248 248.672C278.49 269.721 315.702 218.682 303.053 189.584C294.984 171.022 272.299 169.31 259.438 186.018C251.848 195.879 245.781 208.528 242.416 220.657" fill="#E2BA87"/>
<path opacity="0.3" d="M270.085 203.09C264.786 208.385 260.585 216.283 255.335 220.653C256.199 213.244 257.642 205.338 261.219 198.695C264.851 191.948 271.565 186.436 278.499 186.981C287.093 187.658 294.318 197.527 295.37 206.407C294.741 201.093 283.771 197.368 279.614 197.82C273.285 209.768 271.14 233.442 271.14 233.442C265.491 219.956 267.522 209.428 270.085 203.09Z" fill="#8B5E3C"/>
<path d="M139.252 184.636C139.266 191.679 142.944 197.396 150.583 196.224C156.081 194.752 159.741 190.875 159.727 183.489C159.712 175.749 155.206 170.727 150.533 170.718C144.288 170.707 139.238 177.593 139.252 184.636Z" fill="#2A1200"/>
<path d="M87.1773 184.509C87.1865 189.23 89.3231 194.3 94.7907 193.717C99.3791 193.228 100.551 187.203 100.545 184.237C100.535 179.05 97.9359 174.149 94.145 174.142C90.0678 174.134 87.1682 179.788 87.1773 184.509Z" fill="#2A1200"/>
<path d="M135.832 151.26C143.197 147.611 152.397 147.951 159.783 152.111C162.164 153.452 163.702 156.658 162.481 159.377C161.354 161.891 158.383 163.469 155.833 162.03C155.069 161.599 154.289 161.207 153.485 160.869C153.236 160.764 152.593 160.638 152.343 160.446C152.227 160.411 152.113 160.377 151.995 160.345C151.268 160.149 150.533 159.991 149.794 159.87C149.371 159.801 148.948 159.747 148.523 159.702C148.389 159.689 148.256 159.678 148.12 159.667C147.773 159.711 147.34 159.649 147.014 159.66C146.589 159.673 146.167 159.7 145.743 159.74C145.005 159.809 144.27 159.916 143.544 160.062C143.442 160.083 143.343 160.105 143.241 160.128C142.862 160.247 142.481 160.356 142.105 160.489C141.305 160.772 140.527 161.11 139.764 161.486C137.384 162.666 134.027 160.999 133.118 158.313C132.122 155.354 133.282 152.524 135.832 151.26Z" fill="#451E00"/>
<path d="M84.5 153.824C88.9037 151.433 93.9557 150.895 98.5028 152.209C99.73 152.564 100.85 153.633 101.375 154.816C101.893 155.981 101.999 157.649 101.488 158.916C100.958 160.231 100.052 161.482 98.7754 162.106C97.4812 162.739 96.1581 162.902 94.825 162.518C94.6067 162.455 94.383 162.418 94.1607 162.366C93.4689 162.287 92.7738 162.267 92.0721 162.297C91.2291 162.424 90.3987 162.629 89.579 162.911C89.2935 163.043 89.0014 163.159 88.7219 163.31C87.5156 163.964 86.0066 164.12 84.7715 163.723C83.5891 163.343 82.3763 162.325 81.9002 161.114C81.4063 159.86 81.2411 158.369 81.7872 157.014C82.3308 155.663 83.224 154.517 84.5 153.824Z" fill="#451E00"/>
<path d="M75.3724 104.149C75.8942 93.7861 79.6793 78.1809 91.7237 81.7932C93.8359 82.4257 95.691 83.8161 97.1142 85.6209C97.666 83.5489 98.4699 81.4824 99.4761 79.4432C102.265 73.7861 109.873 71.5397 114.849 75.043C115.997 75.8527 116.946 76.8423 117.747 77.9219C129.657 68.7071 142.435 60.7682 156.36 56.1363C176.671 49.3778 198.772 49.9585 219.191 56.3217C221.38 57.0032 223.553 57.7529 225.707 58.5627C246.053 66.2126 266.629 79.1242 280.037 97.6846C293.192 115.893 300.003 138.461 302.261 161.324C302.912 167.916 303.249 174.549 303.239 181.179C303.239 181.82 303.239 178.052 303.04 185.686C297.257 172.458 274.525 175.164 274.525 175.164L261.364 190.196C258.186 194.26 254.742 219.338 250.685 216.35L248.89 215.448C246.096 213.39 247.619 197.172 247.701 193.494C248.236 169.309 238.341 144.061 222.289 129.334C205.973 114.364 182.291 108.601 160.632 107.246C142.45 106.109 124.746 110.705 109.031 120.803C103.99 124.042 99.194 127.769 94.7872 131.97C94.4701 132.273 90.1357 137.128 89.9485 137.03C79.3023 131.523 75.1776 118.271 75.31 106.169C75.3175 105.523 75.3374 104.847 75.3724 104.149Z" fill="#795E3C"/>
<path d="M156.36 56.1392C142.435 60.7711 129.657 68.71 117.747 77.9248C117.131 77.0906 116.392 76.3436 115.573 75.6675C117.201 77.5295 118.482 79.945 119.56 82.246C124.366 78.162 130.419 75.9156 136.491 77.7858C142.301 79.5769 146.403 84.5197 148.87 90.3157C162.727 81.9433 177.557 78.7509 194.578 81.9733C214.956 85.831 232.766 100.057 244.593 118.309C260.517 142.886 260.697 189.41 248.706 215.187C248.995 215.462 248.706 215.187 250.675 216.741C254.733 219.729 259.957 198.313 271.623 192.3C276.807 189.394 289.928 186.828 300.935 198.613C303.239 188.091 303.239 183.281 303.239 177.87C303.249 171.326 302.921 168.006 302.286 161.583L302.261 161.327C300.003 138.464 293.192 115.896 280.037 97.6875C266.629 79.1271 246.053 66.2155 225.707 58.5656C223.553 57.7559 221.38 57.0062 219.191 56.3246C198.772 49.9615 176.671 49.3808 156.36 56.1392Z" fill="#725837"/>
<path d="M106.973 225.578C101.427 225.731 96.1092 224.145 91.5295 219.383C89.1333 216.895 86.7032 215.524 83.2648 217.654C75.033 222.753 73.0949 235.491 75.3077 244.033C77.7369 253.405 85.0553 260.961 93.4892 265.889C116.184 279.15 133.591 276.166 156.814 267.688C175.094 261.018 199.807 247.571 193.542 224.429C185.785 195.775 152.352 209.533 133.488 217.262C125.478 220.547 115.928 225.329 106.973 225.578Z" fill="white"/>
<mask id="mask0_328_4918" style="mask-type:alpha" maskUnits="userSpaceOnUse" x="74" y="207" width="121" height="68">
<path d="M106.973 225.577C101.427 225.731 96.1092 224.144 91.5295 219.383C89.1333 216.894 86.7032 215.524 83.2649 217.653C75.033 222.752 73.0949 235.491 75.3077 244.032C77.7369 253.405 85.0553 260.96 93.4892 265.889C116.184 279.149 133.591 276.165 156.814 267.688C175.094 261.018 199.807 247.571 193.542 224.428C185.785 195.775 152.352 209.532 133.488 217.262C125.478 220.547 115.928 225.328 106.973 225.577Z" fill="white"/>
</mask>
<g mask="url(#mask0_328_4918)">
<path fill-rule="evenodd" clip-rule="evenodd" d="M182.686 257.405L158.929 197.428L155.622 198.738L179.379 258.716L182.686 257.405ZM133.87 276.784L117.46 213.85L114.018 214.748L130.428 277.682L133.87 276.784ZM85.0296 261.588L94.0842 215.448L90.5936 214.763L81.539 260.903L85.0296 261.588Z" fill="#D1D3D4"/>
</g>
</svg>
