<svg width="360" height="375" viewBox="0 0 360 375" fill="none" xmlns="http://www.w3.org/2000/svg">
<rect width="360" height="359" rx="179.5" transform="matrix(-1 0 0 1 360 16)" fill="#F3F4FC"/>
<path d="M155.446 69.3829C155.446 69.3829 77.4599 81.5512 83.3737 192.368C83.3952 192.779 74.3567 198.763 73.6487 199.402C67.3462 205.087 62.0583 212.367 59.746 220.882C51.5121 251.207 80.9501 282.453 104.756 290.747C113.648 293.844 123.046 295.348 132.464 295.621C193.683 297.399 274.733 258.598 278.896 182.82C279.045 180.101 279.082 177.38 279.012 174.664C278.643 160.276 275.16 146.263 269.912 133.252C269.915 133.253 235.843 48.9776 155.446 69.3829Z" fill="#FFE4C0"/>
<g style="mix-blend-mode:multiply" opacity="0.5">
<path d="M81.4051 193.526C82.2471 195.589 83.0873 198.226 83.3215 199.735C84.3206 206.204 82.0979 212.887 78.2423 217.694C74.5816 222.257 69.3558 225.219 64.2969 226.339C62.589 226.717 60.5213 226.912 58.7129 226.974C60.629 208.234 75.9182 196.979 81.4051 193.526Z" fill="#FFE7E2"/>
</g>
<g style="mix-blend-mode:multiply" opacity="0.5">
<path d="M191.309 242.794C176.834 239.696 167.859 224.476 171.261 208.798C174.664 193.12 189.156 182.922 203.631 186.019C218.106 189.116 227.081 204.337 223.679 220.015C220.276 235.692 205.784 245.891 191.309 242.794Z" fill="#FFE7E2"/>
</g>
<path opacity="0.3" d="M120.411 198.951C120.411 198.951 108.04 187.214 98.463 198.249L120.411 198.951Z" fill="#CBA284"/>
<path d="M235.761 257.476C276.885 278.034 314.277 226.381 302.344 197.369C294.732 178.864 272.487 177.441 259.58 194.359C251.963 204.343 245.794 217.103 242.287 229.308" fill="#FFE4C0"/>
<path opacity="0.3" d="M269.69 211.385C264.391 216.767 260.128 224.746 254.892 229.199C255.866 221.754 257.417 213.802 261.046 207.09C264.73 200.273 271.424 194.655 278.234 195.112C286.673 195.68 293.613 205.489 294.497 214.386C293.968 209.062 283.244 205.466 279.149 205.973C272.725 218.044 270.219 241.827 270.219 241.827C264.891 228.368 267.064 217.777 269.69 211.385Z" fill="#CBA284"/>
<path d="M139.063 180.314C139.077 187.338 142.755 193.039 150.394 191.87C155.892 190.402 159.552 186.536 159.538 179.17C159.523 171.452 155.017 166.444 150.344 166.435C144.099 166.423 139.049 173.291 139.063 180.314Z" fill="#2A1200"/>
<path d="M86.9881 180.187C86.9973 184.895 89.1339 189.951 94.6015 189.37C99.1899 188.882 100.361 182.874 100.356 179.917C100.345 174.744 97.7467 169.856 93.9558 169.849C89.8786 169.842 86.9789 175.479 86.9881 180.187Z" fill="#2A1200"/>
<path d="M135.642 147.031C143.008 143.393 152.208 143.731 159.593 147.88C161.975 149.217 163.512 152.414 162.292 155.125C161.165 157.632 158.194 159.206 155.644 157.771C154.88 157.341 154.1 156.951 153.296 156.614C153.046 156.509 152.404 156.383 152.154 156.191C152.038 156.157 151.924 156.123 151.806 156.091C151.078 155.896 150.344 155.738 149.605 155.617C149.181 155.549 148.759 155.494 148.334 155.45C148.2 155.436 148.067 155.425 147.931 155.415C147.584 155.459 147.151 155.397 146.825 155.408C146.4 155.421 145.978 155.448 145.554 155.488C144.815 155.557 144.081 155.663 143.355 155.809C143.253 155.829 143.154 155.852 143.052 155.874C142.673 155.993 142.292 156.102 141.915 156.234C141.116 156.517 140.338 156.854 139.575 157.229C137.195 158.406 133.838 156.743 132.929 154.064C131.933 151.114 133.093 148.291 135.642 147.031Z" fill="#C25563"/>
<path d="M84.311 149.588C88.7148 147.204 93.7667 146.668 98.3138 147.978C99.541 148.331 100.661 149.398 101.186 150.577C101.704 151.739 101.81 153.402 101.299 154.666C100.769 155.977 99.8631 157.224 98.5865 157.847C97.2922 158.478 95.9691 158.64 94.636 158.258C94.4177 158.195 94.194 158.158 93.9717 158.106C93.28 158.028 92.5848 158.007 91.8831 158.037C91.0401 158.164 90.2097 158.369 89.39 158.65C89.1045 158.781 88.8124 158.898 88.5329 159.048C87.3267 159.7 85.8176 159.856 84.5825 159.46C83.4001 159.08 82.1874 158.066 81.7112 156.858C81.2173 155.607 81.0521 154.121 81.5982 152.769C82.1419 151.422 83.035 150.279 84.311 149.588Z" fill="#C25563"/>
<path d="M279.78 178.024C279.85 180.779 279.813 183.541 279.664 186.3C256.973 190.181 246.226 214.663 243.689 226.418C243.689 226.418 236.938 226.818 235.349 225.519C227.009 221.122 212.176 203.094 219.563 166.16C223.137 149.371 220.754 136.004 191.564 115.194C162.373 94.3846 115.907 107.4 106.375 115.194C98.7499 121.43 95.0951 123.788 94.2209 124.188C114.574 77.6944 155.763 71.1968 155.763 71.1968C236.454 50.4918 270.65 136.004 270.647 136.004C275.915 149.206 279.41 163.424 279.78 178.024Z" fill="#DF6E7C"/>
<path d="M133.043 106.2C142.178 95.0081 164.974 79.3388 183.084 106.2C205.721 139.778 189.041 154.168 196.19 182.948C203.338 211.728 218.827 221.322 215.253 240.509C211.679 259.696 184.275 292.074 196.19 312.46C196.19 312.46 215.687 309.763 238.785 304.597C247.273 302.698 247.253 294.182 248.253 290.773L249.21 289.375C251.381 288.855 250.293 301.882 252.486 301.321C274.609 295.661 297.181 287.922 307.59 278.283C305.406 273.486 303.063 259.936 311.165 244.106C321.292 224.32 316.526 207.531 307.59 196.139C298.655 184.747 300.442 170.357 304.016 152.969C307.59 135.58 304.016 109.798 286.74 99.6049C269.464 89.4119 261.124 72.6234 247.423 64.2291C233.721 55.8348 183.084 36.6478 150.32 64.2291C147.143 62.0306 135.188 58.9527 119.937 64.2291C100.874 70.8246 84.1479 101.231 81.8116 121.49C77.9394 155.067 68.4078 166.759 66.0249 178.451C64.4311 186.272 63.0469 193.741 69.8972 206.932C75.8544 201.236 80.0244 198.837 83.5982 196.139C83.0025 189.344 82.4067 172.036 84.7896 157.166C87.7682 138.578 100.577 92.1101 125.001 99.605C127.583 100.504 128.754 102.363 133.043 106.2Z" fill="#DF6E7C"/>
<path d="M73.7693 289.076C72.1013 284.998 73.0743 276.984 73.7693 273.486C80.918 281.401 90.251 287.976 94.0239 290.275C88.5433 291.234 78.2373 289.875 73.7693 289.076Z" fill="#DF6E7C"/>
<path d="M208.105 107.999C194.284 84.0156 165.014 80.0183 152.107 81.0176C221.806 73.8225 228.359 121.79 228.359 140.377C228.359 155.247 226.572 163.761 231.338 172.155C248.614 192.841 242.26 212.128 239.082 219.523C242.061 203.934 236.104 192.542 222.998 177.552C209.892 162.562 225.381 137.979 208.105 107.999Z" fill="#CF5968"/>
<path d="M228.359 271.088C236.938 262.454 239.082 254.299 239.082 251.301C211.441 265.692 216.842 288.076 222.998 297.47C221.211 292.273 219.781 279.722 228.359 271.088Z" fill="#CF5968"/>
<path d="M270.06 172.155C264.818 160.164 265.89 145.973 267.081 140.377C267.081 158.365 278.4 177.552 290.91 200.336C300.918 218.564 286.74 239.909 278.4 248.303C276.613 238.71 284.357 231.515 284.953 214.127C285.549 196.739 276.613 187.145 270.06 172.155Z" fill="#CF5968"/>
<path d="M72.8758 204.533C69.778 194.7 71.9822 180.85 73.4715 175.153C73.4715 184.987 75.2587 196.839 76.1522 201.535L72.8758 204.533Z" fill="#CF5968"/>
<path d="M106.973 225.104C101.427 225.257 96.109 223.675 91.5293 218.927C89.133 216.445 86.703 215.079 83.2646 217.202C75.0328 222.287 73.0947 234.99 75.3075 243.508C77.7367 252.854 85.0551 260.389 93.489 265.303C116.183 278.527 133.591 275.551 156.814 267.098C175.093 260.446 199.807 247.036 193.542 223.958C185.785 195.384 152.351 209.104 133.487 216.812C125.478 220.088 115.928 224.856 106.973 225.104Z" fill="white"/>
<mask id="mask0_328_4868" style="mask-type:alpha" maskUnits="userSpaceOnUse" x="74" y="206" width="121" height="69">
<path d="M106.973 225.104C101.427 225.257 96.109 223.675 91.5293 218.927C89.133 216.445 86.703 215.079 83.2646 217.202C75.0328 222.287 73.0947 234.99 75.3075 243.508C77.7367 252.854 85.0551 260.389 93.4889 265.303C116.183 278.527 133.591 275.551 156.814 267.098C175.093 260.446 199.807 247.036 193.542 223.958C185.785 195.384 152.351 209.104 133.487 216.812C125.478 220.088 115.928 224.856 106.973 225.104Z" fill="white"/>
</mask>
<g mask="url(#mask0_328_4868)">
<path fill-rule="evenodd" clip-rule="evenodd" d="M182.686 256.843L158.929 197.033L155.622 198.34L179.379 258.15L182.686 256.843ZM133.87 276.168L117.46 213.409L114.018 214.305L130.428 277.064L133.87 276.168ZM85.0296 261.015L94.0842 215.003L90.5936 214.32L81.539 260.332L85.0296 261.015Z" fill="#D1D3D4"/>
</g>
</svg>
