<svg width="359" height="376" viewBox="0 0 359 376" fill="none" xmlns="http://www.w3.org/2000/svg">
<rect width="359" height="360" rx="179.5" transform="matrix(-1 0 0 1 359 16)" fill="#F3F4FC"/>
<path d="M155.303 69.7205C155.303 69.7205 77.3257 81.9227 83.2388 193.048C83.2603 193.46 74.2228 199.461 73.5149 200.102C67.213 205.802 61.9257 213.102 59.6136 221.642C51.3806 252.051 80.8155 283.384 104.619 291.701C113.51 294.807 122.907 296.315 132.323 296.589C193.536 298.372 274.578 259.462 278.741 183.474C278.89 180.747 278.926 178.018 278.856 175.295C278.487 160.867 275.005 146.815 269.758 133.768C269.76 133.768 235.693 49.2583 155.303 69.7205Z" fill="#E2BA87"/>
<g style="mix-blend-mode:multiply" opacity="0.5">
<path d="M81.2669 194.217C82.1105 196.286 82.9525 198.93 83.1877 200.443C84.1909 206.93 81.9706 213.63 78.1156 218.447C74.4554 223.021 69.2284 225.987 64.1673 227.107C62.4588 227.485 60.39 227.68 58.5807 227.741C60.4876 208.953 75.7789 197.676 81.2669 194.217Z" fill="#FCC3B8"/>
</g>
<g style="mix-blend-mode:multiply" opacity="0.5">
<path d="M191.176 243.602C176.695 240.489 167.709 225.226 171.104 209.512C174.499 193.797 188.99 183.581 203.47 186.694C217.951 189.807 226.937 205.069 223.542 220.784C220.147 236.499 205.656 246.715 191.176 243.602Z" fill="#FCC3B8"/>
</g>
<path opacity="0.3" d="M120.273 199.65C120.273 199.65 107.903 187.879 98.3267 198.946L120.273 199.65Z" fill="#8B5E3C"/>
<path d="M235.591 257.647C277.749 278.712 314.849 227.702 302.212 198.603C294.151 180.042 271.516 178.319 258.694 195.017C251.126 204.872 245.08 217.515 241.73 229.641" fill="#E2BA87"/>
<path opacity="0.3" d="M269.328 212.089C264.044 217.38 259.857 225.274 254.621 229.641C255.48 222.234 256.915 214.33 260.48 207.691C264.1 200.947 270.795 195.439 277.713 195.988C286.288 196.669 293.502 206.539 294.556 215.417C293.926 210.104 282.979 206.375 278.832 206.824C272.524 218.766 270.397 242.434 270.397 242.434C264.754 228.948 266.774 218.424 269.328 212.089Z" fill="#8B5E3C"/>
<path d="M138.676 180.772C138.69 187.815 142.359 193.532 149.976 192.36C155.459 190.887 159.109 187.011 159.095 179.624C159.08 171.885 154.586 166.863 149.926 166.854C143.698 166.842 138.663 173.729 138.676 180.772Z" fill="#2A1200"/>
<path d="M86.7469 180.644C86.756 185.365 88.8867 190.435 94.3391 189.853C98.9148 189.364 100.083 183.339 100.077 180.373C100.067 175.186 97.4756 170.285 93.6952 170.277C89.6293 170.27 86.7377 175.923 86.7469 180.644Z" fill="#2A1200"/>
<path d="M135.266 147.396C142.61 143.747 151.785 144.087 159.15 148.247C161.525 149.588 163.058 152.794 161.841 155.512C160.717 158.026 157.754 159.604 155.211 158.166C154.449 157.735 153.672 157.343 152.87 157.005C152.621 156.9 151.98 156.774 151.732 156.581C151.615 156.547 151.502 156.513 151.384 156.481C150.659 156.285 149.927 156.127 149.189 156.006C148.767 155.937 148.345 155.882 147.922 155.838C147.788 155.824 147.655 155.813 147.52 155.803C147.174 155.847 146.742 155.785 146.417 155.795C145.993 155.809 145.572 155.836 145.15 155.876C144.413 155.945 143.68 156.052 142.957 156.198C142.855 156.218 142.756 156.241 142.655 156.263C142.277 156.382 141.896 156.492 141.521 156.625C140.724 156.908 139.948 157.246 139.187 157.622C136.814 158.802 133.466 157.135 132.56 154.448C131.566 151.49 132.723 148.66 135.266 147.396Z" fill="#C25563"/>
<path d="M84.0769 149.96C88.4684 147.569 93.5063 147.032 98.0409 148.345C99.2646 148.7 100.382 149.769 100.905 150.952C101.422 152.117 101.527 153.785 101.018 155.052C100.489 156.367 99.5858 157.618 98.3127 158.242C97.0221 158.875 95.7027 159.038 94.3732 158.655C94.1555 158.591 93.9325 158.554 93.7108 158.502C93.021 158.424 92.3278 158.403 91.628 158.433C90.7873 158.56 89.9592 158.766 89.1418 159.048C88.8571 159.179 88.5658 159.296 88.2871 159.447C87.0842 160.101 85.5793 160.257 84.3476 159.859C83.1686 159.479 81.9592 158.462 81.4844 157.25C80.9918 155.996 80.8271 154.505 81.3716 153.15C81.9138 151.799 82.8045 150.653 84.0769 149.96Z" fill="#C25563"/>
<path d="M279.003 178.476C279.073 181.239 279.036 184.008 278.887 186.775C256.259 190.666 245.542 215.216 243.012 227.005C243.012 227.005 236.28 227.406 234.695 226.103C226.378 221.694 211.586 203.616 218.953 166.578C222.517 149.743 220.141 136.339 191.031 115.471C161.922 94.6034 115.585 107.655 106.08 115.471C98.4756 121.724 94.8309 124.089 93.9591 124.49C114.256 77.8666 155.331 71.351 155.331 71.351C235.797 50.5883 269.898 136.339 269.895 136.339C275.148 149.577 278.633 163.836 279.003 178.476Z" fill="#DF6E7C"/>
<path d="M132.673 106.452C141.782 95.2285 164.515 79.5156 182.575 106.452C205.15 140.123 188.516 154.553 195.645 183.413C202.773 212.274 218.219 221.894 214.655 241.135C211.09 260.375 183.763 292.843 195.645 313.286C195.645 313.286 215.087 310.582 238.121 305.401C246.586 303.497 246.566 294.957 247.563 291.538L248.517 290.137C250.683 289.616 249.598 302.679 251.785 302.116C273.846 296.44 296.356 288.679 306.736 279.014C304.558 274.204 302.221 260.615 310.3 244.742C320.399 224.901 315.647 208.065 306.736 196.641C297.825 185.217 299.607 170.787 303.171 153.35C306.736 135.914 303.171 110.06 285.943 99.8382C268.716 89.6167 260.399 72.7815 246.735 64.3638C233.071 55.9461 182.575 36.7057 149.902 64.3638C146.734 62.1592 134.812 59.0727 119.604 64.3638C100.594 70.9777 83.9139 101.469 81.5841 121.784C77.7227 155.455 68.2176 167.179 65.8413 178.904C64.2519 186.746 62.8715 194.236 69.7027 207.464C75.6434 201.752 79.8019 199.347 83.3657 196.641C82.7717 189.827 82.1776 172.471 84.5538 157.559C87.5242 138.92 100.297 92.3224 124.654 99.8382C127.228 100.74 128.396 102.604 132.673 106.452Z" fill="#DF6E7C"/>
<path d="M73.5642 289.837C71.9008 285.748 72.8711 277.711 73.5642 274.204C80.693 282.141 90.0001 288.734 93.7625 291.039C88.2971 292.001 78.0197 290.638 73.5642 289.837Z" fill="#DF6E7C"/>
<path d="M207.527 108.256C193.744 84.2054 164.556 80.197 151.684 81.1991C221.19 73.9839 227.725 122.085 227.725 140.724C227.725 155.635 225.943 164.173 230.695 172.591C247.923 193.334 241.586 212.675 238.418 220.09C241.388 204.458 235.448 193.034 222.378 178.002C209.309 162.971 224.755 138.319 207.527 108.256Z" fill="#CF5968"/>
<path d="M227.725 271.799C236.28 263.141 238.418 254.964 238.418 251.957C210.853 266.388 216.24 288.835 222.378 298.254C220.596 293.043 219.17 280.457 227.725 271.799Z" fill="#CF5968"/>
<path d="M269.31 172.591C264.082 160.566 265.151 146.336 266.339 140.724C266.339 158.762 277.627 178.002 290.102 200.85C300.082 219.128 285.944 240.533 277.627 248.951C275.844 239.331 283.567 232.116 284.161 214.679C284.755 197.243 275.844 187.622 269.31 172.591Z" fill="#CF5968"/>
<path d="M72.6731 205.059C69.5839 195.198 71.782 181.309 73.2672 175.597C73.2672 185.458 75.0494 197.343 75.9405 202.053L72.6731 205.059Z" fill="#CF5968"/>
<path d="M106.676 225.687C101.145 225.84 95.8425 224.254 91.2754 219.492C88.8858 217.004 86.4626 215.633 83.0338 217.763C74.8248 222.862 72.8921 235.6 75.0987 244.141C77.5212 253.514 84.8192 261.07 93.2297 265.998C115.861 279.259 133.22 276.274 156.379 267.797C174.607 261.127 199.252 247.68 193.005 224.537C185.269 195.884 151.929 209.641 133.117 217.371C125.13 220.656 115.606 225.438 106.676 225.687Z" fill="white"/>
<mask id="mask0_328_4888" style="mask-type:alpha" maskUnits="userSpaceOnUse" x="74" y="207" width="120" height="69">
<path d="M106.676 225.687C101.145 225.84 95.8425 224.254 91.2754 219.492C88.8859 217.004 86.4626 215.633 83.0338 217.763C74.8248 222.862 72.8921 235.6 75.0987 244.141C77.5212 253.514 84.8192 261.07 93.2297 265.998C115.861 279.259 133.22 276.274 156.379 267.797C174.607 261.127 199.252 247.68 193.005 224.537C185.269 195.884 151.929 209.641 133.117 217.371C125.13 220.656 115.606 225.438 106.676 225.687Z" fill="white"/>
</mask>
<g mask="url(#mask0_328_4888)">
<path fill-rule="evenodd" clip-rule="evenodd" d="M182.179 257.514L158.487 197.537L155.189 198.848L178.881 258.825L182.179 257.514ZM133.498 276.893L117.134 213.959L113.701 214.857L130.065 277.791L133.498 276.893ZM84.7933 261.698L93.8228 215.558L90.3419 214.872L81.3124 261.012L84.7933 261.698Z" fill="#D1D3D4"/>
</g>
</svg>
