<svg width="359" height="362" viewBox="0 0 359 362" fill="none" xmlns="http://www.w3.org/2000/svg">
<rect y="1" width="359" height="360" rx="179.5" fill="#F3F4FC"/>
<path d="M203.797 67.3953C203.797 67.3953 281.567 79.5975 275.669 190.723C275.648 191.135 284.661 197.136 285.367 197.777C291.652 203.477 296.925 210.777 299.231 219.317C307.442 249.726 278.086 281.059 254.347 289.376C245.479 292.482 236.107 293.99 226.716 294.264C165.667 296.047 84.8411 257.137 80.69 181.148C80.5413 178.422 80.5046 175.693 80.5745 172.97C80.9425 158.541 84.4152 144.49 89.6489 131.442C89.6465 131.443 123.623 46.9331 203.797 67.3953Z" fill="#FFE4C0"/>
<g style="mix-blend-mode:multiply" opacity="0.5">
<path d="M277.639 191.899C276.796 193.968 275.954 196.613 275.719 198.125C274.715 204.612 276.927 211.309 280.771 216.124C284.422 220.695 289.636 223.659 294.686 224.776C296.391 225.153 298.456 225.346 300.261 225.407C298.368 206.622 283.114 195.355 277.639 191.899Z" fill="#FFE7E2"/>
</g>
<g style="mix-blend-mode:multiply" opacity="0.5">
<path d="M168.009 241.265C182.457 238.146 191.43 222.883 188.051 207.175C184.672 191.467 170.219 181.261 155.771 184.38C141.323 187.499 132.349 202.762 135.729 218.47C139.108 234.179 153.56 244.384 168.009 241.265Z" fill="#FFE7E2"/>
</g>
<path opacity="0.3" d="M238.735 197.325C238.735 197.325 251.071 185.554 260.622 196.621Z" fill="#CBA284"/>
<path d="M123.706 255.967C82.6253 276.612 45.357 224.866 57.305 195.774C64.9265 177.216 87.1366 175.77 100.002 192.717C107.595 202.719 113.738 215.505 117.225 227.736" fill="#FFE4C0"/>
<path opacity="0.3" d="M89.8841 209.791C95.1677 215.18 99.4141 223.175 104.635 227.634C103.671 220.172 102.133 212.202 98.5186 205.478C94.8488 198.648 88.1734 193.022 81.3751 193.487C72.9499 194.064 66.0108 203.902 65.1169 212.821C65.6513 207.484 76.3613 203.87 80.4488 204.375C86.8468 216.468 89.3197 240.306 89.3197 240.306C94.655 226.81 92.4986 216.196 89.8841 209.791Z" fill="#CBA284"/>
<path d="M220.135 178.636C220.121 185.679 216.453 191.396 208.836 190.224C203.352 188.752 199.703 184.875 199.717 177.489C199.732 169.749 204.226 164.727 208.885 164.718C215.113 164.707 220.149 171.593 220.135 178.636Z" fill="#2A1200"/>
<path d="M272.065 178.509C272.055 183.23 269.925 188.3 264.472 187.717C259.897 187.228 258.729 181.203 258.734 178.237C258.744 173.05 261.336 168.149 265.116 168.142C269.182 168.134 272.074 173.788 272.065 178.509Z" fill="#2A1200"/>
<path d="M223.546 145.26C216.201 141.611 207.027 141.951 199.662 146.111C197.287 147.452 195.754 150.658 196.971 153.377C198.094 155.891 201.057 157.469 203.6 156.03C204.362 155.599 205.14 155.207 205.941 154.869C206.19 154.764 206.831 154.638 207.08 154.446C207.196 154.411 207.31 154.377 207.428 154.345C208.153 154.149 208.885 153.991 209.622 153.87C210.045 153.801 210.466 153.747 210.89 153.702C211.023 153.689 211.156 153.678 211.291 153.667C211.638 153.711 212.069 153.649 212.395 153.66C212.818 153.673 213.239 153.7 213.662 153.74C214.398 153.809 215.131 153.916 215.855 154.062C215.957 154.083 216.056 154.105 216.157 154.128C216.535 154.247 216.915 154.356 217.29 154.489C218.088 154.772 218.864 155.11 219.625 155.486C221.998 156.666 225.346 154.999 226.252 152.313C227.245 149.354 226.088 146.524 223.546 145.26Z" fill="#451E00"/>
<path d="M274.735 147.825C270.344 145.434 265.306 144.896 260.771 146.21C259.547 146.564 258.43 147.634 257.907 148.816C257.39 149.981 257.285 151.649 257.794 152.916C258.323 154.231 259.226 155.482 260.499 156.106C261.79 156.739 263.109 156.902 264.439 156.519C264.656 156.455 264.88 156.419 265.101 156.367C265.791 156.288 266.484 156.267 267.184 156.297C268.025 156.424 268.853 156.63 269.67 156.912C269.955 157.043 270.246 157.16 270.525 157.311C271.728 157.965 273.233 158.121 274.464 157.724C275.643 157.343 276.853 156.326 277.328 155.115C277.82 153.86 277.985 152.37 277.44 151.015C276.898 149.664 276.007 148.517 274.735 147.825Z" fill="#451E00"/>
<mask id="mask0_328_4908" style="mask-type:alpha" maskUnits="userSpaceOnUse" x="259" y="110" width="40" height="69">
<path d="M275.516 178.294C275.205 148.753 268.684 126.975 259.662 110.953C270.507 110.953 293.39 116.425 298.162 138.311C302.935 160.196 285.054 174.086 275.516 178.294Z" fill="#C4C4C4"/>
</mask>
<g mask="url(#mask0_328_4908)">
<ellipse cx="264.416" cy="146.477" rx="26.5469" ry="26.7561" fill="#2B1200"/>
</g>
<path d="M201.42 27.0767C214.079 27.0768 224.918 35.1408 229.415 46.5786C233.278 44.7216 237.583 43.6841 242.122 43.6841C258.811 43.6842 272.341 57.6973 272.341 74.9829C272.341 76.2252 272.268 77.4503 272.132 78.6548C284.884 81.1033 294.542 92.683 294.542 106.6C294.542 122.298 282.255 135.025 267.099 135.025C259.641 135.025 252.88 131.943 247.934 126.943C242.932 131.942 236.095 135.025 228.555 135.025C219.055 135.025 210.67 130.135 205.668 122.679C200.091 130.181 191.287 135.025 181.377 135.025C177.012 135.025 172.861 134.083 169.105 132.39C165.627 141.489 158.112 148.51 148.82 151.141C149.737 154.118 150.233 157.286 150.233 160.574C150.233 169.459 146.621 177.478 140.821 183.175C140.315 206.4 129.64 218.447 123.031 221.936C121.44 223.239 114.679 222.837 114.679 222.837C112.651 213.428 105.386 195.89 90.9824 187.214C89.8839 187.337 88.7681 187.402 87.6377 187.402C70.7782 187.402 57.1113 173.389 57.1113 156.103C57.1113 147.166 60.7644 139.105 66.623 133.402C61.8566 127.88 58.9609 120.622 58.9609 112.668C58.961 96.125 71.4801 82.5804 87.335 81.4478C87.624 64.4211 101.04 50.7105 117.548 50.7104C121.978 50.7104 126.186 51.698 129.978 53.4722C134.699 42.4445 145.443 34.7417 157.942 34.7417C164.822 34.7418 171.17 37.077 176.274 41.0142C181.693 32.6118 190.932 27.0767 201.42 27.0767Z" fill="#2B1200"/>
<path d="M256.891 217.865C258.674 218.891 271.138 203.19 279.437 207.967C282.239 209.579 284.376 212.329 285.981 215.301C289.508 221.839 290.715 229.781 289.294 237.108C287.283 247.467 280.315 255.948 272.118 261.57C250.06 276.693 232.562 273.834 209.02 265.08C190.489 258.191 165.241 244.008 170.472 218.42C179.679 173.376 256.868 217.852 256.891 217.865Z" fill="#873C41"/>
<path d="M193.032 214.984C199.027 218.717 206.325 219.102 212.872 217.613C214.123 217.327 215.13 218.382 215.442 219.594C218.638 232.05 236.76 238.552 245.849 230.565C246.554 229.944 247.805 229.798 248.544 230.501C253.449 235.169 261.308 236.435 267.079 233.277C275.229 228.817 275.189 216.288 272.969 207.562C265.786 209.763 258.246 218.644 256.891 217.861C256.873 217.85 209.488 190.556 184.542 200.403C185.071 206.452 187.84 211.751 193.032 214.984Z" fill="white"/>
<path d="M260.997 263.437C248.035 251.507 232.099 244.843 215.94 240.115C202.119 236.07 186.557 233.448 172.567 237.462C179.05 251.419 195.731 260.136 209.019 265.077C229.613 272.735 245.583 275.88 264.022 266.427C263.017 265.427 262.038 264.396 260.997 263.437Z" fill="#EE7E8B"/>
</svg>
