<svg width="359" height="375" viewBox="0 0 359 375" fill="none" xmlns="http://www.w3.org/2000/svg">
<rect width="359" height="359" rx="179.5" transform="matrix(-1 0 0 1 359 16)" fill="#F3F4FC"/>
<path d="M155.014 69.3829C155.014 69.3829 77.2445 81.5512 83.1418 192.368C83.1633 192.779 74.1499 198.763 73.4439 199.402C67.1589 205.087 61.8857 212.367 59.5798 220.882C51.3688 251.207 80.725 282.453 104.465 290.747C113.332 293.844 122.704 295.348 132.095 295.621C193.144 297.399 273.97 258.598 278.121 182.82C278.27 180.101 278.306 177.38 278.237 174.664C277.868 160.276 274.396 146.263 269.162 133.252C269.165 133.253 235.188 48.9776 155.014 69.3829Z" fill="#FFE4C0"/>
<g style="mix-blend-mode:multiply" opacity="0.5">
<path d="M81.175 193.533C82.0163 195.597 82.856 198.234 83.0905 199.742C84.0909 206.211 81.8765 212.892 78.0317 217.696C74.3813 222.257 69.1683 225.216 64.1209 226.332C62.417 226.71 60.3538 226.904 58.5493 226.965C60.4514 208.229 75.7018 196.983 81.175 193.533Z" fill="#FFE7E2"/>
</g>
<g style="mix-blend-mode:multiply" opacity="0.5">
<path d="M190.79 242.782C176.348 239.678 167.386 224.458 170.773 208.786C174.159 193.115 188.611 182.927 203.053 186.031C217.494 189.135 226.456 204.355 223.07 220.026C219.683 235.698 205.231 245.886 190.79 242.782Z" fill="#FFE7E2"/>
</g>
<path opacity="0.3" d="M120.076 198.951C120.076 198.951 107.74 187.214 98.1893 198.249L120.076 198.951Z" fill="#CBA284"/>
<path d="M235.106 257.454C276.151 278.026 313.429 226.399 301.505 197.387C293.899 178.881 271.702 177.449 258.834 194.358C251.239 204.337 245.092 217.092 241.6 229.294" fill="#FFE4C0"/>
<path opacity="0.3" d="M268.934 211.384C263.65 216.762 259.401 224.738 254.18 229.188C255.148 221.744 256.69 213.795 260.307 207.086C263.979 200.272 270.654 194.658 277.448 195.119C285.869 195.69 292.799 205.5 293.687 214.395C293.156 209.072 282.453 205.472 278.368 205.978C271.966 218.043 269.48 241.82 269.48 241.82C264.155 228.361 266.317 217.774 268.934 211.384Z" fill="#CBA284"/>
<path d="M138.676 180.314C138.69 187.338 142.359 193.039 149.976 191.87C155.459 190.402 159.109 186.536 159.095 179.17C159.08 171.452 154.586 166.444 149.926 166.435C143.698 166.423 138.663 173.291 138.676 180.314Z" fill="#2A1200"/>
<path d="M86.7464 180.187C86.7556 184.895 88.8862 189.951 94.3386 189.37C98.9143 188.882 100.082 182.874 100.077 179.917C100.067 174.744 97.4751 169.856 93.6947 169.849C89.6288 169.842 86.7372 175.479 86.7464 180.187Z" fill="#2A1200"/>
<path d="M135.266 147.031C142.61 143.393 151.785 143.731 159.15 147.88C161.525 149.217 163.058 152.414 161.841 155.125C160.717 157.632 157.754 159.206 155.211 157.771C154.449 157.341 153.672 156.951 152.87 156.614C152.621 156.509 151.98 156.383 151.732 156.191C151.615 156.157 151.502 156.123 151.384 156.091C150.659 155.896 149.927 155.738 149.189 155.617C148.767 155.549 148.345 155.494 147.922 155.45C147.788 155.436 147.655 155.425 147.52 155.415C147.174 155.459 146.742 155.397 146.417 155.408C145.993 155.421 145.572 155.448 145.15 155.488C144.413 155.557 143.68 155.663 142.957 155.809C142.855 155.829 142.756 155.852 142.655 155.874C142.277 155.993 141.896 156.102 141.521 156.234C140.724 156.517 139.948 156.854 139.187 157.229C136.814 158.406 133.466 156.743 132.56 154.064C131.566 151.114 132.723 148.291 135.266 147.031Z" fill="#451E00"/>
<path d="M84.0764 149.588C88.468 147.204 93.5058 146.668 98.0404 147.978C99.2641 148.331 100.381 149.398 100.905 150.577C101.421 151.739 101.526 153.402 101.018 154.666C100.488 155.977 99.5853 157.224 98.3122 157.847C97.0216 158.478 95.7022 158.64 94.3727 158.258C94.1551 158.195 93.932 158.158 93.7103 158.106C93.0205 158.028 92.3273 158.007 91.6275 158.037C90.7868 158.164 89.9588 158.369 89.1413 158.65C88.8566 158.781 88.5653 158.898 88.2866 159.048C87.0837 159.7 85.5788 159.856 84.3471 159.46C83.1681 159.08 81.9587 158.066 81.4839 156.858C80.9913 155.607 80.8266 154.121 81.3711 152.769C81.9133 151.422 82.804 150.279 84.0764 149.588Z" fill="#451E00"/>
<path d="M279.003 178.024C279.073 180.779 279.036 183.541 278.887 186.3C256.259 190.181 245.542 214.663 243.012 226.418C243.012 226.418 236.28 226.818 234.695 225.519C226.378 221.122 211.586 203.094 218.953 166.16C222.517 149.371 220.141 136.004 191.031 115.194C161.922 94.3846 115.585 107.4 106.08 115.194C98.4756 121.43 94.8309 123.788 93.9591 124.188C114.256 77.6944 155.331 71.1968 155.331 71.1968C235.797 50.4918 269.898 136.004 269.895 136.004C275.148 149.206 278.633 163.424 279.003 178.024Z" fill="#E2BA87"/>
<path d="M132.673 106.2C141.782 95.0081 164.515 79.3388 182.575 106.2C205.15 139.778 188.516 154.168 195.645 182.948C202.773 211.728 218.219 221.322 214.655 240.509C211.09 259.696 183.763 292.074 195.645 312.46C195.645 312.46 215.087 309.763 238.121 304.597C246.586 302.698 246.566 294.182 247.563 290.773L248.517 289.375C250.683 288.855 249.598 301.882 251.785 301.321C273.846 295.661 296.356 287.922 306.736 278.283C304.558 273.486 302.221 259.936 310.3 244.106C320.399 224.32 315.647 207.531 306.736 196.139C297.825 184.747 299.607 170.357 303.171 152.969C306.736 135.58 303.171 109.798 285.943 99.6049C268.716 89.4119 260.399 72.6234 246.735 64.2291C233.071 55.8348 182.575 36.6478 149.902 64.2291C146.734 62.0306 134.812 58.9527 119.604 64.2291C100.594 70.8246 83.9139 101.231 81.5841 121.49C77.7227 155.067 68.2176 166.759 65.8413 178.451C64.2519 186.272 62.8715 193.741 69.7027 206.932C75.6434 201.236 79.8019 198.837 83.3657 196.139C82.7717 189.344 82.1776 172.036 84.5538 157.166C87.5242 138.578 100.297 92.1101 124.654 99.605C127.228 100.504 128.396 102.363 132.673 106.2Z" fill="#E2BA87"/>
<path d="M73.5642 289.076C71.9008 284.998 72.8711 276.984 73.5642 273.486C80.693 281.401 90.0001 287.976 93.7625 290.275C88.2971 291.234 78.0197 289.875 73.5642 289.076Z" fill="#E2BA87"/>
<path d="M207.527 107.999C193.744 84.0156 164.556 80.0183 151.684 81.0176C221.19 73.8225 227.725 121.79 227.725 140.377C227.725 155.247 225.943 163.761 230.695 172.155C247.923 192.841 241.586 212.128 238.418 219.523C241.388 203.934 235.448 192.542 222.378 177.552C209.309 162.562 224.755 137.979 207.527 107.999Z" fill="#D9AC74"/>
<path d="M227.725 271.088C236.28 262.454 238.418 254.299 238.418 251.301C210.853 265.692 216.24 288.076 222.378 297.47C220.596 292.273 219.17 279.722 227.725 271.088Z" fill="#D9AC74"/>
<path d="M269.31 172.155C264.082 160.164 265.151 145.973 266.339 140.377C266.339 158.365 277.627 177.552 290.102 200.336C300.082 218.564 285.944 239.909 277.627 248.303C275.844 238.71 283.567 231.515 284.161 214.127C284.755 196.739 275.844 187.145 269.31 172.155Z" fill="#D9AC74"/>
<path d="M72.6731 204.533C69.5839 194.7 71.782 180.85 73.2672 175.153C73.2672 184.987 75.0494 196.839 75.9405 201.535L72.6731 204.533Z" fill="#D9AC74"/>
<path d="M106.676 225.104C101.145 225.257 95.8425 223.675 91.2754 218.927C88.8859 216.445 86.4626 215.079 83.0338 217.202C74.8248 222.287 72.8921 234.99 75.0987 243.508C77.5212 252.854 84.8192 260.389 93.2297 265.303C115.861 278.527 133.22 275.551 156.379 267.098C174.607 260.446 199.252 247.036 193.005 223.958C185.269 195.384 151.929 209.104 133.117 216.812C125.129 220.088 115.606 224.856 106.676 225.104Z" fill="white"/>
<mask id="mask0_328_4863" style="mask-type:alpha" maskUnits="userSpaceOnUse" x="74" y="206" width="120" height="69">
<path d="M106.676 225.104C101.145 225.257 95.8425 223.675 91.2754 218.927C88.8859 216.445 86.4626 215.079 83.0338 217.202C74.8248 222.287 72.8921 234.99 75.0987 243.508C77.5212 252.854 84.8192 260.389 93.2297 265.303C115.861 278.527 133.22 275.551 156.379 267.098C174.607 260.446 199.252 247.036 193.005 223.958C185.269 195.384 151.929 209.104 133.117 216.812C125.13 220.088 115.606 224.856 106.676 225.104Z" fill="white"/>
</mask>
<g mask="url(#mask0_328_4863)">
<path fill-rule="evenodd" clip-rule="evenodd" d="M182.179 256.843L158.488 197.033L155.19 198.34L178.881 258.15L182.179 256.843ZM133.498 276.168L117.134 213.409L113.702 214.305L130.066 277.064L133.498 276.168ZM84.7938 261.015L93.8233 215.003L90.3424 214.32L81.3129 260.332L84.7938 261.015Z" fill="#D1D3D4"/>
</g>
</svg>
