<svg width="359" height="361" viewBox="0 0 359 361" fill="none" xmlns="http://www.w3.org/2000/svg">
<rect y="1" width="359" height="359" rx="179.5" fill="#F3F4FC"/>
<path d="M203.696 54.5716C203.696 54.5716 281.674 66.7399 275.761 177.557C275.739 177.967 284.777 183.952 285.485 184.591C291.787 190.275 297.074 197.555 299.386 206.071C307.619 236.396 278.184 267.642 254.381 275.936C245.49 279.033 236.092 280.537 226.676 280.81C165.464 282.588 84.4215 243.786 80.2592 168.009C80.1101 165.29 80.0733 162.568 80.1435 159.853C80.5125 145.464 83.9944 131.452 89.2421 118.441C89.2398 118.441 123.307 34.1663 203.696 54.5716Z" fill="#E2BA87"/>
<g style="mix-blend-mode:multiply" opacity="0.5">
<path d="M277.73 178.715C276.888 180.778 276.047 183.415 275.813 184.924C274.814 191.393 277.036 198.076 280.892 202.883C284.552 207.446 289.777 210.408 294.836 211.527C296.543 211.906 298.611 212.1 300.419 212.162C298.504 193.423 283.216 182.168 277.73 178.715Z" fill="#FCC3B8"/>
</g>
<g style="mix-blend-mode:multiply" opacity="0.5">
<path d="M167.837 227.982C182.31 224.884 191.285 209.664 187.883 193.986C184.481 178.309 169.99 168.111 155.517 171.208C141.043 174.306 132.068 189.526 135.47 205.204C138.872 220.881 153.363 231.08 167.837 227.982Z" fill="#FCC3B8"/>
</g>
<path opacity="0.3" d="M238.727 184.14C238.727 184.14 251.097 172.402 260.673 183.438Z" fill="#8B5E3C"/>
<path d="M123.409 242.001C81.2839 262.992 44.1744 212.095 56.7885 183.077C64.8349 164.567 87.4571 162.86 100.282 179.521C107.851 189.355 113.901 201.968 117.257 214.064" fill="#E2BA87"/>
<path opacity="0.3" d="M89.6651 196.545C94.9495 201.826 99.1391 209.702 104.374 214.06C103.512 206.671 102.074 198.787 98.5065 192.163C94.8846 185.434 88.1896 179.937 81.2743 180.481C72.7041 181.156 65.4989 190.998 64.4507 199.853C65.0774 194.554 76.0169 190.839 80.1625 191.29C86.4742 203.204 88.6133 226.813 88.6133 226.813C94.2463 213.364 92.2214 202.865 89.6651 196.545Z" fill="#8B5E3C"/>
<path d="M220.135 178.142C220.121 185.166 216.453 190.867 208.835 189.698C203.352 188.23 199.702 184.364 199.717 176.998C199.732 169.28 204.225 164.272 208.885 164.263C215.113 164.252 220.149 171.119 220.135 178.142Z" fill="#2A1200"/>
<path d="M272.065 178.015C272.055 182.723 269.925 187.779 264.472 187.198C259.897 186.711 258.729 180.703 258.734 177.745C258.744 172.572 261.336 167.685 265.116 167.677C269.182 167.67 272.074 173.308 272.065 178.015Z" fill="#2A1200"/>
<path d="M223.546 144.859C216.201 141.221 207.027 141.559 199.661 145.708C197.286 147.045 195.753 150.242 196.97 152.953C198.094 155.46 201.057 157.034 203.6 155.599C204.362 155.169 205.14 154.779 205.941 154.442C206.19 154.336 206.831 154.211 207.08 154.019C207.196 153.985 207.31 153.951 207.427 153.919C208.153 153.724 208.885 153.566 209.622 153.445C210.044 153.377 210.466 153.322 210.889 153.278C211.023 153.264 211.156 153.253 211.291 153.243C211.637 153.287 212.069 153.225 212.394 153.235C212.818 153.249 213.239 153.276 213.662 153.315C214.398 153.385 215.131 153.491 215.855 153.637C215.956 153.657 216.055 153.679 216.156 153.702C216.535 153.821 216.915 153.93 217.29 154.062C218.087 154.344 218.863 154.682 219.624 155.057C221.997 156.234 225.345 154.571 226.251 151.892C227.245 148.942 226.088 146.119 223.546 144.859Z" fill="#451E00"/>
<path d="M274.735 147.416C270.343 145.032 265.305 144.496 260.771 145.805C259.547 146.159 258.43 147.226 257.906 148.405C257.39 149.567 257.285 151.23 257.793 152.494C258.323 153.805 259.226 155.052 260.499 155.675C261.789 156.306 263.109 156.468 264.438 156.086C264.656 156.023 264.879 155.986 265.101 155.934C265.791 155.856 266.484 155.835 267.184 155.865C268.024 155.992 268.852 156.197 269.67 156.478C269.954 156.609 270.246 156.725 270.524 156.876C271.727 157.528 273.232 157.684 274.464 157.288C275.643 156.908 276.852 155.894 277.327 154.686C277.82 153.435 277.984 151.948 277.44 150.597C276.898 149.25 276.007 148.107 274.735 147.416Z" fill="#451E00"/>
<path d="M283.837 97.8788C283.317 87.545 279.542 71.9832 267.531 75.5855C265.425 76.2162 263.575 77.6027 262.156 79.4025C261.605 77.3363 260.804 75.2755 259.8 73.2419C257.019 67.6006 249.433 65.3604 244.47 68.854C243.325 69.6614 242.379 70.6483 241.58 71.7249C229.703 62.5357 216.96 54.6189 203.074 49.9998C182.82 43.2602 160.78 43.8392 140.418 50.1847C138.234 50.8643 136.068 51.612 133.92 52.4194C113.63 60.0481 93.1113 72.9239 79.7409 91.4327C66.6221 109.591 59.8298 132.096 57.579 154.895C56.9292 161.469 56.593 168.084 56.603 174.696C56.603 175.334 56.603 171.577 56.8022 179.19C62.5684 165.999 85.2376 168.697 85.2376 168.697L98.362 183.687C101.532 187.74 104.966 212.749 109.012 209.769L110.801 208.869C113.587 206.817 112.069 190.643 111.987 186.976C111.454 162.858 121.321 137.68 137.328 122.994C153.599 108.066 177.215 102.318 198.814 100.967C216.945 99.8335 234.601 104.417 250.272 114.487C255.299 117.717 260.082 121.434 264.476 125.623C264.792 125.925 269.115 130.767 269.301 130.669C279.918 125.177 284.031 111.962 283.899 99.8933C283.892 99.249 283.872 98.5748 283.837 97.8788Z" fill="#EDCDA6"/>
<path d="M203.074 50.0027C216.96 54.6218 229.703 62.5386 241.58 71.7278C242.195 70.8959 242.932 70.151 243.748 69.4768C242.125 71.3336 240.848 73.7424 239.772 76.037C234.979 71.9644 228.944 69.7242 222.888 71.5892C217.095 73.3754 213.004 78.3044 210.544 84.0843C196.725 75.7352 181.936 72.5516 164.963 75.7651C144.641 79.6121 126.881 93.7982 115.087 112C99.2064 136.509 99.0266 182.903 110.985 208.609C110.696 208.883 110.985 208.609 109.021 210.158C104.975 213.138 99.7648 191.781 88.1319 185.785C82.9618 182.887 69.8775 180.329 58.9006 192.081C56.603 181.588 56.603 176.791 56.603 171.395C56.5932 164.869 56.9205 161.559 57.5538 155.153L57.579 154.898C59.8298 132.099 66.6221 109.594 79.741 91.4357C93.1113 72.9268 113.63 60.051 133.92 52.4224C136.068 51.6149 138.234 50.8673 140.418 50.1876C160.78 43.8422 182.82 43.2631 203.074 50.0027Z" fill="#E0BA89"/>
<path d="M256.891 217.263C258.673 218.286 271.138 202.629 279.437 207.392C282.238 209 284.376 211.742 285.981 214.707C289.508 221.225 290.715 229.146 289.294 236.452C287.283 246.783 280.315 255.241 272.118 260.847C250.06 275.928 232.562 273.077 209.02 264.347C190.489 257.477 165.241 243.333 170.472 217.816C179.679 172.898 256.868 217.25 256.891 217.263Z" fill="#873C41"/>
<path d="M193.032 214.391C199.026 218.113 206.325 218.497 212.871 217.012C214.123 216.727 215.129 217.779 215.441 218.987C218.638 231.409 236.76 237.893 245.848 229.928C246.554 229.309 247.805 229.163 248.544 229.864C253.449 234.519 261.307 235.781 267.079 232.632C275.229 228.185 275.189 215.69 272.969 206.989C265.786 209.183 258.245 218.04 256.891 217.259C256.873 217.248 209.488 190.03 184.541 199.849C185.07 205.882 187.839 211.166 193.032 214.391Z" fill="white"/>
<path d="M260.997 262.709C248.036 250.811 232.099 244.166 215.941 239.451C202.119 235.417 186.557 232.803 172.568 236.806C179.051 250.724 195.732 259.416 209.02 264.344C229.613 271.98 245.583 275.117 264.022 265.69C263.017 264.693 262.038 263.665 260.997 262.709Z" fill="#EE7E8B"/>
</svg>
