<svg width="365" height="368" viewBox="0 0 365 368" fill="none" xmlns="http://www.w3.org/2000/svg">
<rect width="365" height="360" rx="180" transform="matrix(-1 0 0 1 365 7)" fill="#F3F4FC"/>
<path d="M157.797 73.3953C157.797 73.3953 78.7277 85.5975 84.7236 196.723C84.7455 197.135 75.5814 203.136 74.8636 203.777C68.4736 209.477 63.1122 216.777 60.7678 225.317C52.4196 255.726 82.2664 287.059 106.403 295.376C115.418 298.482 124.947 299.99 134.495 300.264C196.565 302.047 278.741 263.137 282.962 187.148C283.113 184.422 283.15 181.693 283.079 178.97C282.705 164.541 279.174 150.49 273.853 137.442C273.855 137.443 239.311 52.9331 157.797 73.3953Z" fill="#FFE4C0"/>
<g style="mix-blend-mode:multiply" opacity="0.5">
<path d="M82.7408 197.855C83.588 199.924 84.4322 202.568 84.6658 204.081C85.6627 210.57 83.4006 217.28 79.4909 222.111C75.7788 226.698 70.4873 229.68 65.3684 230.814C63.6403 231.197 61.5486 231.397 59.7195 231.462C61.697 212.656 77.1841 201.331 82.7408 197.855Z" fill="#FFE7E2"/>
</g>
<g style="mix-blend-mode:multiply" opacity="0.5">
<path d="M194.107 247.336C179.459 244.256 170.405 228.993 173.883 213.246C177.361 197.498 192.055 187.229 206.702 190.309C221.35 193.389 230.405 208.652 226.927 224.4C223.448 240.147 208.755 250.416 194.107 247.336Z" fill="#FFE7E2"/>
</g>
<path opacity="0.3" d="M122.276 203.325C122.276 203.325 109.733 191.554 100.023 202.621L122.276 203.325Z" fill="#CBA284"/>
<path d="M239.231 262.102C280.782 282.659 318.733 230.76 306.732 201.668C299.077 183.112 276.578 181.723 263.479 198.723C255.749 208.756 249.479 221.571 245.901 233.825" fill="#FFE4C0"/>
<path opacity="0.3" d="M273.657 215.797C268.282 221.207 263.949 229.223 258.641 233.702C259.645 226.227 261.233 218.244 264.921 211.502C268.666 204.654 275.452 199.003 282.341 199.451C290.879 200.006 297.876 209.837 298.75 218.765C298.228 213.422 287.385 209.833 283.24 210.349C276.711 222.474 274.118 246.347 274.118 246.347C268.759 232.849 270.984 222.217 273.657 215.797Z" fill="#CBA284"/>
<path d="M141.186 184.636C141.2 191.679 144.929 197.395 152.674 196.224C158.249 194.751 161.96 190.874 161.945 183.488C161.93 175.749 157.361 170.727 152.624 170.718C146.291 170.706 141.172 177.592 141.186 184.636Z" fill="#2A1200"/>
<path d="M88.3877 184.509C88.397 189.23 90.5633 194.3 96.1068 193.717C100.759 193.228 101.947 187.203 101.941 184.237C101.931 179.05 99.2957 174.149 95.4521 174.142C91.3183 174.134 88.3784 179.788 88.3877 184.509Z" fill="#2A1200"/>
<path d="M137.718 151.26C145.185 147.611 154.513 147.951 162.001 152.111C164.416 153.452 165.975 156.658 164.737 159.377C163.595 161.891 160.582 163.469 157.997 162.03C157.222 161.599 156.431 161.207 155.617 160.869C155.363 160.764 154.712 160.638 154.459 160.446C154.341 160.411 154.225 160.377 154.106 160.345C153.368 160.149 152.624 159.991 151.874 159.87C151.445 159.801 151.016 159.747 150.586 159.702C150.45 159.689 150.315 159.678 150.177 159.667C149.825 159.711 149.386 159.649 149.056 159.66C148.625 159.673 148.197 159.7 147.767 159.74C147.018 159.809 146.273 159.916 145.537 160.062C145.434 160.083 145.333 160.105 145.231 160.128C144.846 160.247 144.459 160.356 144.078 160.489C143.267 160.772 142.478 161.11 141.705 161.486C139.292 162.666 135.888 160.999 134.967 158.313C133.957 155.354 135.133 152.524 137.718 151.26Z" fill="#451E00"/>
<path d="M85.6734 153.824C90.1383 151.433 95.2603 150.895 99.8707 152.209C101.115 152.564 102.25 153.633 102.783 154.816C103.308 155.981 103.415 157.649 102.898 158.916C102.36 160.231 101.441 161.482 100.147 162.106C98.8349 162.739 97.4934 162.902 96.1417 162.518C95.9204 162.455 95.6936 162.418 95.4682 162.366C94.7668 162.287 94.0621 162.267 93.3506 162.297C92.4959 162.424 91.654 162.629 90.8229 162.911C90.5334 163.043 90.2373 163.159 89.9539 163.31C88.7309 163.964 87.2008 164.12 85.9486 163.723C84.7498 163.343 83.5202 162.325 83.0374 161.114C82.5366 159.86 82.3692 158.369 82.9228 157.014C83.4741 155.663 84.3797 154.517 85.6734 153.824Z" fill="#451E00"/>
<path d="M76.4192 104.149C76.9483 93.7861 80.7859 78.1809 92.9976 81.7932C95.1392 82.4257 97.0201 83.8161 98.463 85.6209C99.0225 83.5489 99.8376 81.4824 100.858 79.4432C103.685 73.7861 111.399 71.5397 116.444 75.043C117.608 75.8527 118.57 76.8423 119.383 77.9219C131.458 68.7071 144.414 60.7682 158.531 56.1363C179.125 49.3778 201.533 49.9585 222.235 56.3217C224.455 57.0032 226.658 57.7529 228.842 58.5627C249.471 66.2126 270.332 79.1242 283.926 97.6846C297.264 115.893 304.17 138.461 306.459 161.324C307.119 167.916 307.461 174.549 307.451 181.179C307.451 181.82 307.451 178.052 307.248 185.686C301.386 172.458 278.338 175.164 278.338 175.164L264.994 190.196C261.772 194.26 258.28 219.338 254.166 216.35L252.347 215.448C249.514 213.39 251.058 197.172 251.142 193.494C251.683 169.309 241.651 144.061 225.377 129.334C208.834 114.364 184.823 108.601 162.863 107.246C144.429 106.109 126.478 110.705 110.546 120.803C105.435 124.042 100.572 127.769 96.1037 131.97C95.7822 132.273 91.3876 137.128 91.1978 137.03C80.4037 131.523 76.2218 118.271 76.3559 106.169C76.3635 105.523 76.3838 104.847 76.4192 104.149Z" fill="#795E3C"/>
<path d="M158.531 56.1392C144.414 60.7711 131.458 68.71 119.383 77.9248C118.758 77.0906 118.008 76.3436 117.178 75.6675C118.828 77.5295 120.127 79.945 121.221 82.246C126.094 78.162 132.23 75.9156 138.386 77.7858C144.277 79.5769 148.436 84.5197 150.937 90.3157C164.987 81.9433 180.023 78.7509 197.28 81.9733C217.942 85.831 235.999 100.057 247.99 118.309C264.136 142.886 264.318 189.41 252.16 215.187C252.453 215.462 252.16 215.187 254.157 216.741C258.271 219.729 263.568 198.313 275.395 192.3C280.652 189.394 293.955 186.828 305.115 198.613C307.451 188.091 307.451 183.281 307.451 177.87C307.461 171.326 307.128 168.006 306.484 161.583L306.459 161.327C304.17 138.464 297.264 115.896 283.926 97.6875C270.332 79.1271 249.471 66.2155 228.842 58.5656C226.658 57.7559 224.455 57.0062 222.235 56.3246C201.533 49.9615 179.125 49.3808 158.531 56.1392Z" fill="#725837"/>
<path d="M108.459 225.578C102.836 225.731 97.4446 224.145 92.8012 219.383C90.3717 216.895 87.9079 215.524 84.4218 217.654C76.0756 222.753 74.1106 235.491 76.3541 244.033C78.8171 253.405 86.2371 260.961 94.7881 265.889C117.798 279.15 135.447 276.166 158.992 267.688C177.526 261.018 202.582 247.571 196.231 224.429C188.366 195.775 154.468 209.533 135.342 217.262C127.221 220.547 117.539 225.329 108.459 225.578Z" fill="white"/>
<mask id="mask0_328_4898" style="mask-type:alpha" maskUnits="userSpaceOnUse" x="75" y="207" width="123" height="68">
<path d="M108.458 225.578C102.836 225.731 97.4441 224.145 92.8007 219.383C90.3712 216.895 87.9074 215.524 84.4213 217.654C76.0751 222.753 74.1101 235.491 76.3536 244.033C78.8166 253.405 86.2366 260.961 94.7876 265.889C117.797 279.15 135.446 276.166 158.992 267.688C177.525 261.018 202.582 247.571 196.23 224.429C188.365 195.775 154.468 209.533 135.342 217.262C127.221 220.547 117.538 225.329 108.458 225.578Z" fill="white"/>
</mask>
<g mask="url(#mask0_328_4898)">
<path fill-rule="evenodd" clip-rule="evenodd" d="M185.224 257.405L161.136 197.428L157.783 198.739L181.871 258.716L185.224 257.405ZM135.729 276.784L119.091 213.85L115.602 214.748L132.239 277.682L135.729 276.784ZM86.2106 261.589L95.391 215.449L91.8519 214.763L82.6715 260.903L86.2106 261.589Z" fill="#D1D3D4"/>
</g>
</svg>
