<svg width="359" height="376" viewBox="0 0 359 376" fill="none" xmlns="http://www.w3.org/2000/svg">
<rect width="359" height="359" rx="179.5" transform="matrix(-1 0 0 1 359 17)" fill="#F3F4FC"/>
<path d="M155.014 70.3829C155.014 70.3829 77.2445 82.5512 83.1418 193.368C83.1633 193.779 74.1499 199.763 73.4439 200.402C67.1589 206.087 61.8857 213.367 59.5798 221.882C51.3688 252.207 80.725 283.453 104.465 291.747C113.332 294.844 122.704 296.348 132.095 296.621C193.144 298.399 273.97 259.598 278.121 183.82C278.27 181.101 278.306 178.38 278.237 175.664C277.868 161.276 274.396 147.263 269.162 134.252C269.165 134.253 235.188 49.9776 155.014 70.3829Z" fill="#FFE4C0"/>
<g style="mix-blend-mode:multiply" opacity="0.5">
<path d="M81.175 194.533C82.0163 196.597 82.856 199.234 83.0905 200.742C84.0909 207.211 81.8765 213.892 78.0317 218.696C74.3813 223.257 69.1683 226.216 64.1209 227.332C62.417 227.71 60.3538 227.904 58.5493 227.965C60.4514 209.229 75.7018 197.983 81.175 194.533Z" fill="#FFE7E2"/>
</g>
<g style="mix-blend-mode:multiply" opacity="0.5">
<path d="M190.79 243.782C176.348 240.678 167.386 225.458 170.773 209.786C174.159 194.115 188.611 183.927 203.053 187.031C217.494 190.135 226.456 205.355 223.07 221.026C219.683 236.698 205.231 246.886 190.79 243.782Z" fill="#FFE7E2"/>
</g>
<path opacity="0.3" d="M120.076 199.951C120.076 199.951 107.74 188.214 98.1893 199.249L120.076 199.951Z" fill="#CBA284"/>
<path d="M235.106 258.454C276.151 279.026 313.429 227.399 301.505 198.387C293.899 179.881 271.702 178.449 258.834 195.358C251.239 205.337 245.092 218.092 241.6 230.294" fill="#FFE4C0"/>
<path opacity="0.3" d="M268.934 212.384C263.65 217.762 259.401 225.738 254.18 230.188C255.148 222.744 256.69 214.795 260.307 208.086C263.979 201.272 270.654 195.658 277.448 196.119C285.869 196.69 292.799 206.5 293.687 215.395C293.156 210.072 282.453 206.472 278.368 206.978C271.966 219.043 269.48 242.82 269.48 242.82C264.155 229.361 266.317 218.774 268.934 212.384Z" fill="#CBA284"/>
<path d="M138.676 181.314C138.69 188.338 142.359 194.039 149.976 192.87C155.459 191.402 159.109 187.536 159.095 180.17C159.08 172.452 154.586 167.444 149.926 167.435C143.698 167.423 138.663 174.291 138.676 181.314Z" fill="#2A1200"/>
<path d="M86.7464 181.187C86.7556 185.895 88.8862 190.951 94.3386 190.37C98.9143 189.882 100.082 183.874 100.077 180.917C100.067 175.744 97.4751 170.856 93.6947 170.849C89.6288 170.842 86.7372 176.479 86.7464 181.187Z" fill="#2A1200"/>
<path d="M135.266 148.031C142.61 144.393 151.785 144.731 159.15 148.88C161.525 150.217 163.058 153.414 161.841 156.125C160.717 158.632 157.754 160.206 155.211 158.771C154.449 158.341 153.672 157.951 152.87 157.614C152.621 157.509 151.98 157.383 151.732 157.191C151.615 157.157 151.502 157.123 151.384 157.091C150.659 156.896 149.927 156.738 149.189 156.617C148.767 156.549 148.345 156.494 147.922 156.45C147.788 156.436 147.655 156.425 147.52 156.415C147.174 156.459 146.742 156.397 146.417 156.408C145.993 156.421 145.572 156.448 145.15 156.488C144.413 156.557 143.68 156.663 142.957 156.809C142.855 156.829 142.756 156.852 142.655 156.874C142.277 156.993 141.896 157.102 141.521 157.234C140.724 157.517 139.948 157.854 139.187 158.229C136.814 159.406 133.466 157.743 132.56 155.064C131.566 152.114 132.723 149.291 135.266 148.031Z" fill="#2D2C2C"/>
<path d="M84.0769 150.588C88.4684 148.204 93.5063 147.668 98.0409 148.978C99.2646 149.331 100.382 150.398 100.905 151.577C101.422 152.739 101.527 154.402 101.018 155.666C100.489 156.977 99.5858 158.224 98.3127 158.847C97.0221 159.478 95.7027 159.64 94.3732 159.258C94.1555 159.195 93.9325 159.158 93.7108 159.106C93.021 159.028 92.3278 159.007 91.628 159.037C90.7873 159.164 89.9592 159.369 89.1418 159.65C88.8571 159.781 88.5658 159.898 88.2871 160.048C87.0842 160.7 85.5793 160.856 84.3476 160.46C83.1686 160.08 81.9592 159.066 81.4844 157.858C80.9918 156.607 80.8271 155.121 81.3716 153.769C81.9138 152.422 82.8045 151.279 84.0769 150.588Z" fill="#2D2C2C"/>
<path d="M126.335 100.531C145.643 127.512 189.306 182.974 249.307 202.761C253.367 195.766 260.595 188.431 273.664 188.671C290.001 188.97 295.942 200.962 295.942 200.962C295.942 200.962 314.952 233.04 270.991 253.426C258.812 255.825 254.951 255.825 245.149 251.628C238.515 256.824 217.465 274.532 210.099 277.41C211.98 287.503 215.302 312.666 210.787 324.178C219.401 324.978 240.396 329.395 257.03 320.281C258.705 310.014 260.178 296.57 257.556 291.443C260.686 296.606 266.332 308.39 266.332 315.184C275.837 311.887 296.986 302.713 305.54 292.4C318.808 229.443 323.566 76.8469 189.306 63.9556C177.524 62.5566 147.484 63.7758 127.523 77.4464C102.573 94.5348 90.097 117.319 85.3445 140.104C95.5427 135.307 118.018 120.677 126.335 100.531Z" fill="#272523"/>
<path d="M77.3246 315.184C81.3643 309.428 79.0078 283.306 77.3246 274.412C93.9587 288.502 103.761 295.398 137.92 296.297C131.979 305.291 108.81 308.589 106.137 309.788L101.384 306.49V311.287C94.9685 313.445 82.6713 314.785 77.3246 315.184Z" fill="#272523"/>
<mask id="mask0_328_4853" style="mask-type:alpha" maskUnits="userSpaceOnUse" x="85" y="63" width="105" height="78">
<path d="M129.008 76.847C148.969 63.1763 177.524 62.5567 189.306 63.9558C186.053 81.7436 176.016 119.598 148.316 128.712C140.194 118.088 130.499 108.2 126.335 100.531C118.018 120.677 95.5425 135.307 85.3443 140.104C90.0968 117.319 104.057 93.9353 129.008 76.847Z" fill="#E2BA87"/>
</mask>
<g mask="url(#mask0_328_4853)">
<path d="M133.504 97.4212C133.504 97.4212 138.421 91.54 149.146 92.5224C149.146 92.5224 141.548 88.3584 136.634 88.8483C136.634 88.8483 150.039 78.803 169.702 85.1741C169.702 85.1741 155.85 75.3738 144.899 76.5985C144.899 76.5985 156.517 71.4548 163.892 72.6795C163.892 72.6795 158.081 65.3286 150.486 65.5735C150.486 65.5735 156.52 54.7934 165.904 51.3643C165.904 51.3643 147.135 56.7556 142.221 60.6747C131.273 65.3286 121.218 79.0506 121.218 79.0506C124.569 77.091 129.932 77.5809 129.932 77.5809C121.218 82.9723 114.514 93.0149 114.514 93.0149C118.758 90.0756 123.898 91.0554 123.898 91.0554C115.631 99.386 112.95 110.166 112.95 110.166C114.067 106.737 122.111 102.57 122.111 102.57C118.984 108.207 118.314 117.269 118.314 117.269L125.018 108.449C125.018 108.449 138.647 119.964 142.223 121.433C142.223 121.433 131.945 110.653 131.275 105.755C131.275 105.755 146.693 109.919 158.982 111.636C158.977 111.63 141.772 98.401 133.504 97.4212Z" fill="#181818"/>
</g>
<path d="M167.92 126.913C176.237 137.505 203.327 163.248 245.149 181.475C231.881 173.081 197.861 150.416 167.92 126.913Z" fill="#181818"/>
<path d="M278.417 181.475C254.179 129.671 204.95 100.331 183.366 92.1362C238.971 101.73 276.041 157.092 287.625 183.574C285.486 182.615 280.595 181.775 278.417 181.475Z" fill="#181818"/>
<path d="M290.892 244.133C289.704 245.632 286.258 247.97 284.357 248.929C285.124 262.075 286.285 287.588 285.689 298.904C285.532 300.502 285.383 301.947 285.249 303.192C285.448 302.217 285.592 300.749 285.689 298.904C286.807 287.549 288.339 268.435 287.922 257.923C290.1 265.918 293.803 268.596 291.189 301.693C293.962 280.308 298.259 257.084 290.892 244.133Z" fill="#181818"/>
<path d="M92.1764 286.104C90.513 285.384 87.7209 283.406 86.5328 282.506C88.6714 286.104 87.8199 304.192 87.1268 312.786C88.5526 311.587 89.5031 307.09 89.8002 304.991C90.7507 308.109 92.5725 308.289 92.1764 312.786C94.7903 306.79 92.4735 295.697 92.1764 286.104Z" fill="#181818"/>
<path d="M225.842 281.307C228.693 307.449 227.327 314.584 224.951 325.677H230.891H236.832C241.109 304.571 230.198 294.498 225.842 281.307Z" fill="#181818"/>
<path d="M102.109 227.791C100.326 228.815 87.8619 213.158 79.5629 217.921C76.7613 219.529 74.6238 222.271 73.0188 225.235C69.4919 231.754 68.285 239.674 69.7057 246.981C71.7166 257.312 78.6852 265.769 86.8822 271.375C108.94 286.457 126.438 283.606 149.98 274.876C168.511 268.005 193.759 253.862 188.528 228.345C179.321 183.427 102.132 227.778 102.109 227.791Z" fill="#873C41"/>
<path d="M165.968 224.92C159.973 228.642 152.675 229.026 146.128 227.541C144.877 227.256 143.87 228.308 143.558 229.516C140.362 241.938 122.24 248.422 113.151 240.457C112.446 239.838 111.195 239.692 110.456 240.393C105.551 245.048 97.6925 246.31 91.9208 243.161C83.7712 238.714 83.8111 226.219 86.031 217.518C93.2139 219.712 100.754 228.569 102.109 227.788C102.127 227.777 149.512 200.559 174.458 210.378C173.929 216.411 171.16 221.695 165.968 224.92Z" fill="white"/>
<path d="M98.0025 273.238C110.964 261.341 126.901 254.695 143.059 249.98C156.881 245.946 172.442 243.332 186.432 247.335C179.949 261.253 163.268 269.945 149.98 274.873C129.386 282.509 113.417 285.646 94.9779 276.219C95.9824 275.222 96.9618 274.194 98.0025 273.238Z" fill="#EE7E8B"/>
</svg>
