<svg width="360" height="375" viewBox="0 0 360 375" fill="none" xmlns="http://www.w3.org/2000/svg">
<rect y="16" width="360" height="359" rx="179.5" fill="#F3F4FC"/>
<path d="M204.554 69.3829C204.554 69.3829 282.54 81.5512 276.626 192.368C276.605 192.779 285.643 198.763 286.351 199.402C292.654 205.087 297.942 212.367 300.254 220.882C308.488 251.207 279.05 282.453 255.244 290.747C246.352 293.844 236.954 295.348 227.536 295.621C166.317 297.399 85.2667 258.598 81.104 182.82C80.9549 180.101 80.9181 177.38 80.9882 174.664C81.3573 160.276 84.8396 146.263 90.0878 133.252C90.0855 133.253 124.157 48.9776 204.554 69.3829Z" fill="#FFE4C0"/>
<g style="mix-blend-mode:multiply" opacity="0.5">
<path d="M278.595 193.526C277.753 195.589 276.913 198.226 276.679 199.735C275.679 206.204 277.902 212.887 281.758 217.694C285.418 222.257 290.644 225.219 295.703 226.339C297.411 226.717 299.479 226.912 301.287 226.974C299.371 208.234 284.082 196.979 278.595 193.526Z" fill="#FFE7E2"/>
</g>
<g style="mix-blend-mode:multiply" opacity="0.5">
<path d="M168.691 242.794C183.166 239.696 192.141 224.476 188.739 208.798C185.336 193.12 170.844 182.922 156.369 186.019C141.894 189.116 132.919 204.337 136.321 220.015C139.724 235.692 154.216 245.891 168.691 242.794Z" fill="#FFE7E2"/>
</g>
<path opacity="0.3" d="M239.589 198.951C239.589 198.951 251.96 187.214 261.537 198.249Z" fill="#CBA284"/>
<path d="M124.239 257.476C83.1152 278.034 45.7233 226.381 57.656 197.369C65.2678 178.864 87.5128 177.441 100.42 194.359C108.038 204.343 114.206 217.103 117.713 229.308" fill="#FFE4C0"/>
<path opacity="0.3" d="M90.3097 211.385C95.609 216.767 99.8724 224.746 105.108 229.199C104.134 221.754 102.583 213.802 98.9541 207.09C95.2696 200.273 88.5758 194.655 81.7661 195.112C73.3269 195.68 66.3875 205.489 65.5027 214.386C66.0316 209.062 76.756 205.466 80.8513 205.973C87.2751 218.044 89.7809 241.827 89.7809 241.827C95.1094 228.368 92.9364 217.777 90.3097 211.385Z" fill="#CBA284"/>
<path d="M220.937 180.314C220.923 187.338 217.245 193.039 209.606 191.87C204.108 190.402 200.448 186.536 200.462 179.17C200.477 171.452 204.983 166.444 209.656 166.435C215.901 166.423 220.951 173.291 220.937 180.314Z" fill="#2A1200"/>
<path d="M273.012 180.187C273.003 184.895 270.866 189.951 265.399 189.37C260.81 188.882 259.639 182.874 259.644 179.917C259.655 174.744 262.253 169.856 266.044 169.849C270.121 169.842 273.021 175.479 273.012 180.187Z" fill="#2A1200"/>
<path d="M224.358 147.031C216.992 143.393 207.792 143.731 200.407 147.88C198.025 149.217 196.488 152.414 197.708 155.125C198.835 157.632 201.806 159.206 204.356 157.771C205.12 157.341 205.9 156.951 206.704 156.614C206.954 156.509 207.596 156.383 207.846 156.191C207.962 156.157 208.076 156.123 208.194 156.091C208.922 155.896 209.656 155.738 210.395 155.617C210.819 155.549 211.241 155.494 211.666 155.45C211.8 155.436 211.933 155.425 212.069 155.415C212.416 155.459 212.849 155.397 213.175 155.408C213.6 155.421 214.022 155.448 214.446 155.488C215.185 155.557 215.919 155.663 216.645 155.809C216.747 155.829 216.846 155.852 216.948 155.874C217.327 155.993 217.708 156.102 218.085 156.234C218.884 156.517 219.662 156.854 220.425 157.229C222.805 158.406 226.162 156.743 227.071 154.064C228.067 151.114 226.907 148.291 224.358 147.031Z" fill="#C25563"/>
<path d="M275.689 149.588C271.285 147.204 266.233 146.668 261.686 147.978C260.459 148.331 259.339 149.398 258.814 150.577C258.296 151.739 258.19 153.402 258.701 154.666C259.231 155.977 260.137 157.224 261.414 157.847C262.708 158.478 264.031 158.64 265.364 158.258C265.582 158.195 265.806 158.158 266.028 158.106C266.72 158.028 267.415 158.007 268.117 158.037C268.96 158.164 269.79 158.369 270.61 158.65C270.896 158.781 271.188 158.898 271.467 159.048C272.673 159.7 274.182 159.856 275.418 159.46C276.6 159.08 277.813 158.066 278.289 156.858C278.783 155.607 278.948 154.121 278.402 152.769C277.858 151.422 276.965 150.279 275.689 149.588Z" fill="#C25563"/>
<path d="M80.22 178.024C80.1497 180.779 80.1866 183.541 80.3362 186.3C103.027 190.181 113.774 214.663 116.311 226.418C116.311 226.418 123.062 226.818 124.651 225.519C132.991 221.122 147.824 203.094 140.437 166.16C136.863 149.371 139.246 136.004 168.436 115.194C197.627 94.3846 244.093 107.4 253.625 115.194C261.25 121.43 264.905 123.788 265.779 124.188C245.426 77.6944 204.237 71.1968 204.237 71.1968C123.546 50.4918 89.3505 136.004 89.3528 136.004C84.0854 149.206 80.5904 163.424 80.22 178.024Z" fill="#DF6E7C"/>
<path d="M226.957 106.2C217.822 95.0081 195.026 79.3388 176.916 106.2C154.279 139.778 170.959 154.168 163.81 182.948C156.662 211.728 141.173 221.322 144.747 240.509C148.321 259.696 175.725 292.074 163.81 312.46C163.81 312.46 144.313 309.763 121.215 304.597C112.727 302.698 112.747 294.182 111.747 290.773L110.79 289.375C108.619 288.855 109.707 301.882 107.514 301.321C85.391 295.661 62.8187 287.922 52.4096 278.283C54.5939 273.486 56.9371 259.936 48.8352 244.106C38.7079 224.32 43.4737 207.531 52.4096 196.139C61.3454 184.747 59.5582 170.357 55.9838 152.969C52.4095 135.58 55.9838 109.798 73.2598 99.6049C90.5358 89.4119 98.8759 72.6234 112.577 64.2291C126.279 55.8348 176.916 36.6478 209.68 64.2291C212.857 62.0306 224.812 58.9527 240.063 64.2291C259.126 70.8246 275.852 101.231 278.188 121.49C282.061 155.067 291.592 166.759 293.975 178.451C295.569 186.272 296.953 193.741 290.103 206.932C284.146 201.236 279.976 198.837 276.402 196.139C276.998 189.344 277.593 172.036 275.21 157.166C272.232 138.578 259.423 92.1101 234.999 99.605C232.417 100.504 231.246 102.363 226.957 106.2Z" fill="#DF6E7C"/>
<path d="M286.231 289.076C287.899 284.998 286.926 276.984 286.231 273.486C279.082 281.401 269.749 287.976 265.976 290.275C271.457 291.234 281.763 289.875 286.231 289.076Z" fill="#DF6E7C"/>
<path d="M151.895 107.999C165.716 84.0156 194.986 80.0183 207.893 81.0176C138.194 73.8225 131.641 121.79 131.641 140.377C131.641 155.247 133.428 163.761 128.662 172.155C111.386 192.841 117.74 212.128 120.918 219.523C117.939 203.934 123.896 192.542 137.002 177.552C150.108 162.562 134.619 137.979 151.895 107.999Z" fill="#CF5968"/>
<path d="M131.641 271.088C123.062 262.454 120.918 254.299 120.918 251.301C148.559 265.692 143.158 288.076 137.002 297.47C138.789 292.273 140.219 279.722 131.641 271.088Z" fill="#CF5968"/>
<path d="M89.94 172.155C95.1824 160.164 94.1101 145.973 92.9186 140.377C92.9186 158.365 81.5999 177.552 69.0897 200.336C59.0816 218.564 73.2598 239.909 81.5999 248.303C83.3871 238.71 75.6427 231.515 75.0469 214.127C74.4512 196.739 83.3871 187.145 89.94 172.155Z" fill="#CF5968"/>
<path d="M287.124 204.533C290.222 194.7 288.018 180.85 286.529 175.153C286.529 184.987 284.741 196.839 283.848 201.535L287.124 204.533Z" fill="#CF5968"/>
<path d="M253.027 225.104C258.573 225.257 263.891 223.675 268.471 218.927C270.867 216.445 273.297 215.079 276.735 217.202C284.967 222.287 286.905 234.99 284.693 243.508C282.263 252.854 274.945 260.389 266.511 265.303C243.817 278.527 226.409 275.551 203.186 267.098C184.907 260.446 160.193 247.036 166.458 223.958C174.215 195.384 207.649 209.104 226.513 216.812C234.522 220.088 244.072 224.856 253.027 225.104Z" fill="white"/>
<mask id="mask0_328_4868" style="mask-type:alpha" maskUnits="userSpaceOnUse" x="165" y="206" width="121" height="69">
<path d="M253.027 225.104C258.573 225.257 263.891 223.675 268.471 218.927C270.867 216.445 273.297 215.079 276.735 217.202C284.967 222.287 286.905 234.99 284.693 243.508C282.263 252.854 274.945 260.389 266.511 265.303C243.817 278.527 226.409 275.551 203.186 267.098C184.907 260.446 160.193 247.036 166.458 223.958C174.215 195.384 207.649 209.104 226.513 216.812C234.522 220.088 244.072 224.856 253.027 225.104Z" fill="white"/>
</mask>
<g mask="url(#mask0_328_4868)">
<path fill-rule="evenodd" clip-rule="evenodd" d="M177.314 256.843L201.071 197.033L204.378 198.34L180.621 258.15L177.314 256.843ZM226.13 276.168L242.54 213.409L245.982 214.305L229.572 277.064L226.13 276.168ZM274.97 261.015L265.916 215.003L269.406 214.32L278.461 260.332L274.97 261.015Z" fill="#D1D3D4"/>
</g>
</svg>
