<svg width="1200" height="393" viewBox="0 0 1200 393" fill="none" xmlns="http://www.w3.org/2000/svg">
<g clip-path="url(#clip0_346_10063)">
<path d="M0 -0.000244141H1200V400H0V-0.000244141Z" fill="url(#paint0_linear_346_10063)"/>
<path d="M1199.5 0.499756V399.5H0.5V0.499756H1199.5Z" stroke="white" stroke-opacity="0.14"/>
<path d="M59.2411 119.673L46.8377 122.115C46.2267 122.235 45.623 121.947 45.3342 121.397C45.0446 120.848 45.1377 120.162 45.5673 119.692C46.6073 118.546 47.0817 117.114 46.8655 115.764C46.4415 113.117 43.5714 111.46 40.4688 112.071C37.3661 112.682 35.1863 115.334 35.6102 117.981C35.8264 119.33 36.7157 120.494 38.0507 121.173C38.5981 121.45 38.8978 122.059 38.7962 122.687C38.696 123.311 38.2185 123.813 37.6081 123.933L25.2035 126.376C24.4203 126.53 23.6797 126.009 23.5524 125.214L21.9703 115.337C21.8823 114.788 22.1149 114.217 22.5638 113.881C23.0068 113.552 23.6219 113.501 24.091 113.754C24.7138 114.088 25.321 114.2 25.8943 114.087C28.2 113.633 29.6009 109.835 28.9536 105.794C28.3062 101.753 25.8119 98.7212 23.5057 99.1753C22.9666 99.2815 22.4618 99.5856 22.004 100.08C21.7813 100.387 21.4528 100.6 21.0863 100.673C20.3031 100.827 19.5625 100.305 19.4353 99.5112L17.7399 88.9268C17.6126 88.1326 18.1466 87.3607 18.9293 87.2066L27.4059 85.5373C26.9213 84.8424 26.6041 84.0627 26.4701 83.2264C25.8515 79.3649 29.427 75.4208 34.4401 74.4336C39.4532 73.4464 44.0349 75.7847 44.6534 79.6456C44.7874 80.482 44.7308 81.3352 44.4926 82.1725L52.9677 80.5036C53.7508 80.3494 54.4917 80.8708 54.6188 81.6645L56.1271 91.081C56.7942 90.61 57.5277 90.2902 58.3028 90.1376C62.1072 89.3884 65.8649 92.9182 66.6798 98.0057C67.4947 103.093 65.0623 107.841 61.2585 108.59C60.4835 108.743 59.6955 108.723 58.9229 108.535L60.4313 117.952C60.5576 118.747 60.025 119.518 59.2411 119.673ZM47.5719 120.077L58.559 117.913L56.5296 105.243L58.2249 106.233C59.1144 106.752 60.0609 106.932 60.9644 106.754C63.7712 106.201 65.5241 102.437 64.8714 98.3619C64.2186 94.2866 61.403 91.4203 58.5968 91.9729C57.6934 92.1508 56.8599 92.6817 56.1862 93.5086L54.9011 95.085L52.8718 82.4157L41.0664 84.7405L42.1757 82.9425C42.7669 81.984 42.9976 80.967 42.8429 80.0015C42.3866 77.1527 38.7489 75.4782 34.7335 76.269C30.7177 77.0598 27.8223 80.0207 28.2786 82.8696C28.4332 83.8351 28.9657 84.7018 29.8191 85.3758L31.4189 86.6403L19.6117 88.9654L21.1223 98.396C21.7527 97.8431 22.4532 97.4894 23.2117 97.34C26.6112 96.6706 29.9281 100.227 30.7628 105.438C31.5974 110.649 29.588 115.254 26.1885 115.924C25.4294 116.073 24.6617 116.008 23.8988 115.73L25.2977 124.463L36.285 122.299C34.943 121.33 34.0557 119.93 33.8003 118.336C33.2142 114.677 36.0731 111.042 40.174 110.235C44.2747 109.427 48.0877 111.747 48.6739 115.407C48.9293 117.001 48.5309 118.654 47.5719 120.077Z" fill="#BEC3F0" fill-opacity="0.862745"/>
<path d="M193.573 76.8152L181.168 81.4523C180.557 81.6807 179.885 81.4857 179.496 80.967C179.105 80.4492 179.087 79.7249 179.453 79.1657C180.337 77.8051 180.589 76.2449 180.142 74.8879C179.264 72.2261 176.024 71.0037 172.921 72.1636C169.818 73.3236 168.007 76.4341 168.884 79.0957C169.332 80.4528 170.444 81.5033 171.935 81.9771C172.547 82.1698 172.957 82.7474 172.957 83.4138C172.957 84.0754 172.547 84.6753 171.937 84.9036L159.53 89.5411C158.746 89.8339 157.895 89.4219 157.631 88.6226L154.357 78.6904C154.175 78.1381 154.32 77.5086 154.728 77.0854C155.131 76.6702 155.758 76.5122 156.284 76.6933C156.983 76.9324 157.629 76.9448 158.202 76.7305C160.508 75.8685 161.325 71.7069 159.985 67.6433C158.645 63.5789 155.565 60.873 153.259 61.7352C152.719 61.9368 152.249 62.3369 151.858 62.9257C151.679 63.2803 151.375 63.5571 151.008 63.6942C150.225 63.987 149.373 63.5746 149.11 62.776L145.601 52.1325C145.338 51.3339 145.761 50.4455 146.544 50.1529L155.022 46.9839C154.406 46.3487 153.949 45.5975 153.672 44.7564C152.391 40.8734 155.429 36.1902 160.443 34.316C165.457 32.4418 170.578 34.076 171.858 37.9585C172.136 38.7995 172.219 39.6904 172.112 40.5959L180.588 37.4274C181.372 37.1346 182.224 37.5469 182.487 38.345L185.609 47.8141C186.219 47.2139 186.924 46.7585 187.699 46.4688C191.504 45.0465 195.972 48.0518 197.658 53.1678C199.345 58.2832 197.621 63.602 193.816 65.0241C193.041 65.3139 192.224 65.4277 191.395 65.3656L194.517 74.8351C194.779 75.6349 194.357 76.5221 193.573 76.8152ZM181.588 79.2218L192.577 75.1142L188.376 62.3736L190.292 63.1063C191.297 63.4915 192.304 63.5158 193.208 63.1781C196.015 62.1287 197.201 57.9419 195.849 53.8439C194.498 49.7459 191.114 47.2652 188.307 48.3144C187.404 48.6521 186.631 49.3426 186.073 50.3115L185.007 52.1588L180.807 39.4187L168.999 43.8322L169.847 41.7861C170.298 40.6953 170.367 39.6055 170.047 38.6347C169.103 35.7699 165.067 34.6604 161.051 36.1617C157.035 37.663 154.536 41.2148 155.48 44.0797C155.8 45.0505 156.494 45.855 157.488 46.4057L159.35 47.439L147.541 51.8533L150.667 61.3366C151.227 60.658 151.891 60.1732 152.65 59.8896C156.05 58.6187 160.067 61.7271 161.794 66.9669C163.522 72.2068 162.211 77.3063 158.811 78.5773C158.052 78.8611 157.248 78.9239 156.414 78.7672L159.309 87.5491L170.299 83.4414C168.752 82.669 167.602 81.3744 167.074 79.7711C165.861 76.0919 168.21 71.8501 172.312 70.317C176.413 68.7839 180.737 70.5306 181.95 74.2105C182.479 75.8132 182.342 77.5892 181.588 79.2218Z" fill="#BEC3F0" fill-opacity="0.862745"/>
<path d="M1170.52 245.192L1158.11 249.829C1157.5 250.058 1156.83 249.863 1156.44 249.344C1156.05 248.826 1156.03 248.102 1156.39 247.543C1157.28 246.182 1157.53 244.622 1157.08 243.265C1156.21 240.603 1152.97 239.381 1149.86 240.541C1146.76 241.701 1144.95 244.811 1145.83 247.473C1146.27 248.83 1147.39 249.88 1148.88 250.354C1149.49 250.547 1149.9 251.124 1149.9 251.791C1149.9 252.452 1149.49 253.052 1148.88 253.281L1136.47 257.918C1135.69 258.211 1134.84 257.799 1134.57 257L1131.3 247.067C1131.12 246.515 1131.26 245.886 1131.67 245.462C1132.07 245.047 1132.7 244.889 1133.23 245.07C1133.92 245.309 1134.57 245.322 1135.14 245.107C1137.45 244.245 1138.27 240.084 1136.93 236.02C1135.59 231.956 1132.51 229.25 1130.2 230.112C1129.66 230.314 1129.19 230.714 1128.8 231.303C1128.62 231.657 1128.32 231.934 1127.95 232.071C1127.17 232.364 1126.32 231.952 1126.05 231.153L1122.54 220.509C1122.28 219.711 1122.7 218.823 1123.49 218.53L1131.96 215.361C1131.35 214.726 1130.89 213.974 1130.61 213.133C1129.33 209.25 1132.37 204.567 1137.39 202.693C1142.4 200.819 1147.52 202.453 1148.8 206.335C1149.08 207.176 1149.16 208.067 1149.05 208.973L1157.53 205.804C1158.31 205.512 1159.17 205.924 1159.43 206.722L1162.55 216.191C1163.16 215.591 1163.87 215.135 1164.64 214.846C1168.45 213.423 1172.91 216.429 1174.6 221.545C1176.29 226.66 1174.56 231.979 1170.76 233.401C1169.98 233.691 1169.17 233.805 1168.34 233.743L1171.46 243.212C1171.72 244.012 1171.3 244.899 1170.52 245.192ZM1158.53 247.599L1169.52 243.491L1165.32 230.751L1167.23 231.483C1168.24 231.868 1169.25 231.893 1170.15 231.555C1172.96 230.506 1174.14 226.319 1172.79 222.221C1171.44 218.123 1168.06 215.642 1165.25 216.691C1164.35 217.029 1163.57 217.72 1163.01 218.688L1161.95 220.536L1157.75 207.796L1145.94 212.209L1146.79 210.163C1147.24 209.072 1147.31 207.982 1146.99 207.012C1146.04 204.147 1142.01 203.037 1137.99 204.539C1133.98 206.04 1131.48 209.592 1132.42 212.457C1132.74 213.427 1133.44 214.232 1134.43 214.783L1136.29 215.816L1124.48 220.23L1127.61 229.714C1128.17 229.035 1128.83 228.55 1129.59 228.267C1132.99 226.996 1137.01 230.104 1138.74 235.344C1140.46 240.584 1139.15 245.683 1135.75 246.954C1134.99 247.238 1134.19 247.301 1133.36 247.144L1136.25 255.926L1147.24 251.818C1145.69 251.046 1144.54 249.751 1144.02 248.148C1142.8 244.469 1145.15 240.227 1149.25 238.694C1153.35 237.161 1157.68 238.908 1158.89 242.587C1159.42 244.19 1159.28 245.966 1158.53 247.599Z" fill="#BEC3F0"/>
<path d="M297.163 78.6537L288.944 88.5773C288.539 89.0662 287.883 89.2287 287.31 88.9827C286.737 88.7377 286.379 88.1382 286.421 87.491C286.519 85.919 285.992 84.4865 284.974 83.5647C282.976 81.7565 279.677 82.305 277.621 84.7873C275.565 87.2697 275.518 90.7616 277.515 92.5697C278.533 93.4916 279.964 93.8331 281.441 93.5058C282.046 93.3704 282.664 93.6557 282.979 94.2155C283.293 94.7709 283.233 95.4738 282.828 95.9622L274.608 105.887C274.089 106.513 273.179 106.581 272.579 106.038L265.126 99.2912C264.712 98.916 264.535 98.3168 264.678 97.7633C264.819 97.2188 265.271 96.7814 265.798 96.6776C266.498 96.5386 267.046 96.2351 267.426 95.7764C268.954 93.9317 267.668 90.041 264.619 87.2805C261.569 84.5195 257.702 83.7447 256.174 85.5899C255.816 86.0212 255.611 86.586 255.561 87.2703C255.579 87.6551 255.455 88.0352 255.212 88.3284C254.693 88.9551 253.783 89.0228 253.184 88.4803L245.196 81.25C244.597 80.7074 244.532 79.7559 245.051 79.1296L250.668 72.3477C249.85 72.1139 249.11 71.7054 248.479 71.134C245.565 68.4962 245.898 63.0875 249.22 59.0767C252.542 55.0658 257.615 53.9487 260.528 56.5861C261.16 57.1574 261.651 57.865 261.99 58.6772L267.607 51.8965C268.125 51.2699 269.036 51.202 269.635 51.7442L276.741 58.1767C276.969 57.3759 277.345 56.6511 277.859 56.031C280.38 52.9872 285.554 53.3388 289.393 56.8141C293.232 60.2891 294.304 65.5926 291.783 68.636C291.269 69.256 290.637 69.7489 289.912 70.0997L297.018 76.5326C297.617 77.0764 297.683 78.0266 297.163 78.6537ZM288.24 86.5005L295.521 77.7101L285.96 69.0552L287.915 68.7393C288.941 68.5741 289.799 68.1048 290.398 67.3819C292.258 65.1363 291.27 61.0449 288.195 58.261C285.119 55.4772 281.103 55.0396 279.244 57.2847C278.645 58.0075 278.323 58.9628 278.313 60.0478L278.294 62.1167L268.733 53.4621L260.91 62.9073L260.652 60.7776C260.515 59.6423 260.057 58.6936 259.328 58.0341C257.179 56.088 253.265 57.1181 250.604 60.3308C247.943 63.5437 247.527 67.7405 249.677 69.6866C250.406 70.3462 251.369 70.6842 252.464 70.6637L254.517 70.626L246.693 80.0726L253.809 86.5148C253.957 85.6732 254.286 84.943 254.789 84.3361C257.041 81.6163 261.886 82.2735 265.818 85.833C269.75 89.3925 271.065 94.3111 268.812 97.031C268.309 97.6383 267.664 98.0819 266.89 98.3557L273.48 104.321L280.761 95.5308C279.096 95.6344 277.518 95.106 276.315 94.0168C273.554 91.5174 273.517 86.8142 276.235 83.5332C278.952 80.2524 283.41 79.6171 286.171 82.1169C287.374 83.2056 288.1 84.7632 288.24 86.5005Z" fill="#BEC3F0" fill-opacity="0.862745"/>
<path d="M69.7541 287.765L57.4839 284.119C56.8795 283.94 56.4692 283.396 56.4619 282.766C56.4536 282.136 56.8519 281.563 57.4541 281.343C58.9145 280.803 59.9982 279.739 60.4231 278.424C61.2566 275.845 59.437 273.003 56.3678 272.091C53.2984 271.179 50.1222 272.536 49.2888 275.115C48.8638 276.43 49.1292 277.895 50.0176 279.134C50.3826 279.641 50.3727 280.329 49.993 280.846C49.6166 281.36 48.9571 281.586 48.3532 281.407L36.0819 277.761C35.3071 277.531 34.8806 276.713 35.1308 275.939L38.2409 266.315C38.4138 265.78 38.8849 265.376 39.4425 265.286C39.9916 265.199 40.5681 265.443 40.8738 265.891C41.2802 266.485 41.7746 266.871 42.3417 267.04C44.6226 267.718 47.6246 264.963 48.897 261.026C50.1697 257.088 49.3186 253.188 47.0371 252.511C46.5038 252.352 45.9106 252.388 45.2721 252.617C44.9313 252.787 44.5379 252.825 44.1753 252.717C43.4005 252.487 42.9741 251.669 43.2241 250.896L46.5569 240.583C46.807 239.809 47.6411 239.367 48.4154 239.597L56.8009 242.088C56.6842 241.235 56.7568 240.385 57.0202 239.57C58.236 235.808 63.2598 233.946 68.219 235.42C73.1782 236.894 76.2238 241.153 75.0081 244.915C74.7447 245.73 74.3024 246.47 73.704 247.111L82.088 249.602C82.8627 249.832 83.2895 250.65 83.0395 251.423L80.0745 260.598C80.8902 260.489 81.6963 260.547 82.4631 260.774C86.2266 261.893 87.9847 266.835 86.3827 271.792C84.781 276.749 80.4158 279.871 76.6529 278.753C75.8862 278.525 75.1869 278.136 74.5786 277.604L71.6135 286.779C71.3621 287.553 70.5295 287.996 69.7541 287.765ZM59.0792 282.633L69.9482 285.862L73.9377 273.518L75.0077 275.205C75.5688 276.091 76.3372 276.699 77.2309 276.964C80.0076 277.789 83.3105 275.231 84.5937 271.261C85.8769 267.29 84.6612 263.387 81.8852 262.563C80.9915 262.297 79.9987 262.382 79.0136 262.808L77.1352 263.62L81.1244 251.275L69.4459 247.805L71.268 246.712C72.2393 246.129 72.9133 245.323 73.2173 244.382C74.1144 241.607 71.6129 238.388 67.6405 237.208C63.6679 236.028 59.7066 237.325 58.8095 240.101C58.5055 241.042 58.5864 242.072 59.0443 243.08L59.9021 244.97L48.2217 241.499L45.2523 250.688C46.0727 250.487 46.8647 250.499 47.615 250.722C50.978 251.722 52.3275 256.481 50.6867 261.558C49.046 266.635 45.1264 269.828 41.7634 268.829C41.0125 268.606 40.3526 268.185 39.7942 267.577L37.0444 276.085L47.9137 279.315C47.1521 277.812 46.9968 276.136 47.4988 274.582C48.6509 271.017 52.8886 269.096 56.9455 270.302C61.0021 271.507 63.3649 275.389 62.2126 278.954C61.7108 280.507 60.5939 281.806 59.0792 282.633Z" fill="#BEC3F0" fill-opacity="0.862745"/>
<path d="M1139.85 182.765L1127.58 179.119C1126.98 178.94 1126.57 178.396 1126.56 177.766C1126.55 177.136 1126.95 176.563 1127.55 176.343C1129.01 175.803 1130.09 174.739 1130.52 173.424C1131.35 170.845 1129.53 168.003 1126.46 167.091C1123.39 166.179 1120.22 167.536 1119.38 170.115C1118.96 171.43 1119.23 172.895 1120.11 174.134C1120.48 174.641 1120.47 175.329 1120.09 175.846C1119.71 176.36 1119.05 176.586 1118.45 176.407L1106.18 172.761C1105.4 172.531 1104.98 171.713 1105.23 170.939L1108.34 161.315C1108.51 160.78 1108.98 160.376 1109.54 160.286C1110.09 160.199 1110.66 160.443 1110.97 160.891C1111.38 161.485 1111.87 161.871 1112.44 162.04C1114.72 162.718 1117.72 159.963 1118.99 156.026C1120.27 152.088 1119.41 148.188 1117.13 147.511C1116.6 147.352 1116.01 147.388 1115.37 147.617C1115.03 147.787 1114.63 147.825 1114.27 147.717C1113.5 147.487 1113.07 146.669 1113.32 145.896L1116.65 135.583C1116.9 134.809 1117.74 134.367 1118.51 134.597L1126.9 137.088C1126.78 136.235 1126.85 135.385 1127.12 134.57C1128.33 130.808 1133.36 128.946 1138.31 130.42C1143.27 131.894 1146.32 136.153 1145.1 139.915C1144.84 140.73 1144.4 141.47 1143.8 142.111L1152.18 144.602C1152.96 144.832 1153.39 145.65 1153.14 146.423L1150.17 155.598C1150.99 155.489 1151.79 155.547 1152.56 155.774C1156.32 156.893 1158.08 161.835 1156.48 166.792C1154.88 171.749 1150.51 174.871 1146.75 173.753C1145.98 173.525 1145.28 173.136 1144.67 172.604L1141.71 181.779C1141.46 182.553 1140.63 182.996 1139.85 182.765ZM1129.18 177.633L1140.04 180.862L1144.03 168.518L1145.1 170.205C1145.66 171.091 1146.43 171.699 1147.33 171.964C1150.1 172.789 1153.41 170.231 1154.69 166.261C1155.97 162.29 1154.76 158.387 1151.98 157.563C1151.09 157.297 1150.09 157.382 1149.11 157.808L1147.23 158.62L1151.22 146.275L1139.54 142.805L1141.36 141.712C1142.34 141.129 1143.01 140.323 1143.31 139.382C1144.21 136.607 1141.71 133.388 1137.74 132.208C1133.76 131.028 1129.8 132.325 1128.91 135.101C1128.6 136.042 1128.68 137.072 1129.14 138.08L1130 139.97L1118.32 136.499L1115.35 145.688C1116.17 145.487 1116.96 145.499 1117.71 145.722C1121.07 146.722 1122.42 151.481 1120.78 156.558C1119.14 161.635 1115.22 164.828 1111.86 163.829C1111.11 163.606 1110.45 163.185 1109.89 162.577L1107.14 171.085L1118.01 174.315C1117.25 172.812 1117.09 171.136 1117.59 169.582C1118.75 166.017 1122.98 164.096 1127.04 165.302C1131.1 166.507 1133.46 170.389 1132.31 173.954C1131.81 175.507 1130.69 176.806 1129.18 177.633Z" fill="#BEC3F0"/>
<path d="M406.077 364.765L393.807 361.12C393.203 360.94 392.792 360.396 392.785 359.766C392.777 359.136 393.175 358.563 393.777 358.343C395.238 357.803 396.321 356.739 396.746 355.424C397.58 352.845 395.76 350.004 392.691 349.092C389.622 348.18 386.445 349.537 385.612 352.116C385.187 353.43 385.452 354.895 386.341 356.134C386.706 356.641 386.696 357.329 386.316 357.847C385.94 358.36 385.28 358.587 384.676 358.407L372.405 354.761C371.63 354.531 371.204 353.714 371.454 352.939L374.564 343.316C374.737 342.78 375.208 342.377 375.766 342.286C376.315 342.199 376.891 342.443 377.197 342.891C377.603 343.485 378.098 343.872 378.665 344.04C380.946 344.718 383.948 341.964 385.22 338.026C386.493 334.088 385.642 330.189 383.36 329.511C382.827 329.352 382.234 329.388 381.595 329.617C381.255 329.788 380.861 329.825 380.499 329.717C379.724 329.487 379.297 328.67 379.547 327.896L382.88 317.583C383.13 316.809 383.964 316.367 384.739 316.597L393.124 319.089C393.007 318.236 393.08 317.385 393.343 316.571C394.559 312.808 399.583 310.947 404.542 312.42C409.501 313.894 412.547 318.153 411.331 321.915C411.068 322.73 410.626 323.471 410.027 324.111L418.411 326.602C419.186 326.832 419.613 327.65 419.363 328.423L416.398 337.598C417.213 337.489 418.02 337.547 418.786 337.775C422.55 338.893 424.308 343.835 422.706 348.792C421.104 353.749 416.739 356.871 412.976 355.753C412.209 355.526 411.51 355.137 410.902 354.604L407.937 363.779C407.685 364.553 406.853 364.996 406.077 364.765ZM395.402 359.633L406.271 362.863L410.261 350.518L411.331 352.206C411.892 353.092 412.66 353.699 413.554 353.965C416.331 354.79 419.634 352.232 420.917 348.261C422.2 344.29 420.984 340.388 418.208 339.563C417.315 339.297 416.322 339.382 415.337 339.808L413.458 340.62L417.448 328.276L405.769 324.806L407.591 323.712C408.563 323.129 409.237 322.323 409.541 321.383C410.438 318.607 407.936 315.389 403.964 314.208C399.991 313.028 396.03 314.326 395.133 317.102C394.829 318.042 394.91 319.072 395.368 320.08L396.225 321.97L384.545 318.499L381.576 327.688C382.396 327.488 383.188 327.5 383.938 327.723C387.301 328.722 388.651 333.481 387.01 338.558C385.369 343.635 381.45 346.829 378.087 345.829C377.336 345.606 376.676 345.186 376.117 344.577L373.368 353.086L384.237 356.315C383.475 354.812 383.32 353.136 383.822 351.582C384.974 348.017 389.212 346.097 393.269 347.302C397.325 348.507 399.688 352.389 398.536 355.954C398.034 357.507 396.917 358.806 395.402 359.633Z" fill="#BEC3F0"/>
<path d="M334.144 306.814L329.785 318.992C329.57 319.592 329.009 319.973 328.388 319.941C327.767 319.91 327.227 319.471 327.048 318.849C326.607 317.338 325.627 316.176 324.358 315.664C321.869 314.66 318.956 316.322 317.866 319.369C316.776 322.415 317.914 325.712 320.402 326.715C321.671 327.227 323.131 327.051 324.407 326.23C324.929 325.892 325.607 325.945 326.092 326.362C326.575 326.774 326.757 327.455 326.542 328.055L322.183 340.234C321.907 341.003 321.076 341.384 320.328 341.082L311.042 337.336C310.526 337.127 310.158 336.626 310.104 336.057C310.052 335.496 310.328 334.928 310.789 334.647C311.399 334.273 311.811 333.798 312.012 333.235C312.823 330.971 310.297 327.763 306.498 326.231C302.698 324.698 298.803 325.314 297.993 327.579C297.803 328.108 297.801 328.71 297.987 329.37C298.134 329.725 298.146 330.125 298.017 330.485C297.742 331.254 296.91 331.634 296.163 331.333L286.212 327.318C285.465 327.017 285.082 326.146 285.357 325.378L288.336 317.055C287.488 317.119 286.655 316.993 285.869 316.676C282.238 315.211 280.719 310.015 282.48 305.093C284.242 300.171 288.629 297.358 292.259 298.822C293.045 299.139 293.747 299.633 294.34 300.278L297.319 291.957C297.594 291.188 298.426 290.807 299.172 291.108L308.026 294.68C307.969 293.848 308.076 293.037 308.349 292.276C309.686 288.54 314.665 287.072 319.448 289.002C324.231 290.931 327.034 295.54 325.697 299.275C325.425 300.036 324.998 300.718 324.435 301.3L333.289 304.872C334.036 305.175 334.419 306.044 334.144 306.814ZM328.42 317.286L332.282 306.498L320.37 301.693L322.099 300.716C323.007 300.205 323.654 299.466 323.971 298.579C324.958 295.823 322.644 292.323 318.813 290.777C314.981 289.232 311.061 290.217 310.074 292.972C309.757 293.859 309.778 294.868 310.136 295.891L310.819 297.841L298.907 293.035L294.759 304.627L293.795 302.716C293.281 301.697 292.53 300.966 291.622 300.599C288.944 299.519 285.617 301.847 284.206 305.789C282.794 309.732 283.825 313.819 286.504 314.9C287.412 315.266 288.431 315.248 289.453 314.848L291.368 314.099L287.219 325.692L296.085 329.269C295.939 328.427 296.001 327.627 296.267 326.882C297.462 323.545 302.235 322.478 307.134 324.454C312.033 326.431 314.934 330.593 313.739 333.931C313.472 334.677 313.017 335.318 312.382 335.844L320.593 339.157L324.454 328.368C322.925 329.044 321.264 329.097 319.765 328.492C316.325 327.104 314.698 322.699 316.139 318.673C317.58 314.646 321.552 312.5 324.992 313.888C326.491 314.493 327.701 315.703 328.42 317.286Z" fill="#BEC3F0" fill-opacity="0.862745"/>
<path d="M42.2758 363.622L30.9855 357.54C30.4293 357.24 30.1359 356.624 30.2545 356.005C30.3719 355.387 30.8762 354.907 31.5099 354.814C33.0479 354.584 34.3214 353.764 34.9997 352.563C36.3302 350.208 35.1148 347.053 32.2906 345.532C29.4663 344.01 26.085 344.689 24.7546 347.044C24.0763 348.245 24.044 349.734 24.6671 351.13C24.9235 351.701 24.7766 352.373 24.3016 352.801C23.8306 353.227 23.1395 353.314 22.5838 353.015L11.2925 346.933C10.5796 346.549 10.3248 345.661 10.7243 344.954L15.6891 336.165C15.9652 335.676 16.5071 335.377 17.0711 335.403C17.6263 335.43 18.1424 335.786 18.3524 336.288C18.6321 336.953 19.0391 337.433 19.5609 337.714C21.6596 338.844 25.1489 336.761 27.1802 333.165C29.2118 329.569 29.1558 325.576 27.0566 324.445C26.5658 324.181 25.9777 324.094 25.3068 324.188C24.9389 324.285 24.5462 324.241 24.2125 324.061C23.4996 323.677 23.245 322.789 23.6442 322.083L28.9645 312.665C29.3637 311.958 30.2689 311.695 30.9814 312.079L38.6972 316.236C38.7529 315.376 38.9936 314.559 39.414 313.814C41.3549 310.378 46.6463 309.583 51.2095 312.041C55.7727 314.499 57.9061 319.295 55.9654 322.73C55.5449 323.474 54.9641 324.109 54.2504 324.614L61.9648 328.769C62.6777 329.153 62.9326 330.041 62.5336 330.747L57.8003 339.126C58.621 339.186 59.399 339.408 60.1045 339.788C63.5675 341.654 64.3038 346.854 61.7465 351.381C59.1895 355.907 54.2917 358.072 50.8293 356.207C50.1239 355.827 49.5165 355.303 49.0269 354.657L44.2934 363.036C43.8929 363.743 42.9892 364.006 42.2758 363.622ZM32.8443 356.411L42.8453 361.798L49.2139 350.524L49.9254 352.396C50.2982 353.378 50.9297 354.131 51.7521 354.574C54.307 355.95 58.0518 354.12 60.1003 350.494C62.1488 346.868 61.7363 342.797 59.1819 341.421C58.3596 340.978 57.3704 340.858 56.3207 341.074L54.3191 341.484L60.6874 330.211L49.9416 324.423L51.9442 323.724C53.0117 323.352 53.8325 322.701 54.3178 321.842C55.7498 319.307 53.9415 315.643 50.2864 313.674C46.6311 311.705 42.4926 312.166 41.0605 314.701C40.5752 315.56 40.4492 316.585 40.6966 317.666L41.1599 319.692L30.4123 313.903L25.672 322.294C26.5154 322.266 27.2887 322.44 27.9791 322.812C31.0735 324.479 31.4462 329.416 28.827 334.053C26.2077 338.689 21.7322 341.015 18.6378 339.348C17.9468 338.976 17.3844 338.429 16.959 337.718L12.5692 345.489L22.5704 350.876C22.1243 349.248 22.3064 347.575 23.1079 346.156C24.947 342.9 29.4804 341.886 33.2133 343.897C36.9459 345.908 38.486 350.193 36.6466 353.449C35.8455 354.867 34.4926 355.911 32.8443 356.411Z" fill="#BEC3F0" fill-opacity="0.862745"/>
<path d="M1124.18 363.859L1119.18 351.934C1118.93 351.347 1119.09 350.681 1119.57 350.275C1120.04 349.869 1120.73 349.818 1121.28 350.15C1122.62 350.952 1124.12 351.126 1125.39 350.626C1127.89 349.644 1128.9 346.417 1127.65 343.434C1126.4 340.451 1123.36 338.823 1120.86 339.805C1119.59 340.306 1118.64 341.442 1118.25 342.924C1118.1 343.531 1117.57 343.96 1116.93 343.99C1116.3 344.021 1115.71 343.648 1115.46 343.061L1110.47 331.135C1110.15 330.382 1110.5 329.53 1111.25 329.235L1120.57 325.57C1121.09 325.366 1121.7 325.48 1122.12 325.859C1122.53 326.234 1122.71 326.84 1122.56 327.364C1122.37 328.059 1122.39 328.691 1122.62 329.242C1123.55 331.459 1127.55 332.065 1131.36 330.565C1135.18 329.066 1137.61 325.927 1136.69 323.709C1136.47 323.191 1136.07 322.749 1135.49 322.394C1135.14 322.235 1134.86 321.951 1134.71 321.598C1134.4 320.845 1134.75 319.993 1135.5 319.698L1145.49 315.771C1146.24 315.476 1147.1 315.849 1147.42 316.602L1150.83 324.751C1151.41 324.119 1152.1 323.637 1152.89 323.327C1156.54 321.894 1161.14 324.649 1163.16 329.469C1165.18 334.289 1163.86 339.375 1160.22 340.808C1159.43 341.118 1158.58 341.241 1157.71 341.178L1161.13 349.326C1161.44 350.079 1161.09 350.932 1160.34 351.226L1151.46 354.72C1152.06 355.29 1152.53 355.958 1152.84 356.703C1154.37 360.361 1151.71 364.872 1146.91 366.76C1142.11 368.647 1136.96 367.207 1135.43 363.55C1135.12 362.805 1134.97 362.01 1134.99 361.196L1126.11 364.69C1125.36 364.984 1124.49 364.612 1124.18 363.859ZM1121.33 352.241L1125.75 362.804L1137.71 358.103L1137.1 360.012C1136.77 361.013 1136.8 362 1137.16 362.869C1138.29 365.567 1142.34 366.533 1146.18 365.021C1150.03 363.509 1152.24 360.082 1151.11 357.384C1150.74 356.516 1150.05 355.792 1149.1 355.29L1147.29 354.333L1159.24 349.632L1154.48 338.283L1156.47 339.017C1157.54 339.408 1158.58 339.425 1159.49 339.067C1162.18 338.01 1163.05 334.01 1161.43 330.149C1159.81 326.289 1156.31 324.008 1153.62 325.065C1152.71 325.423 1151.98 326.14 1151.5 327.137L1150.6 329.008L1145.84 317.656L1136.95 321.155C1137.62 321.671 1138.11 322.299 1138.42 323.028C1139.79 326.297 1137.01 330.371 1132.09 332.305C1127.18 334.238 1122.26 333.192 1120.89 329.924C1120.58 329.194 1120.48 328.41 1120.59 327.587L1112.35 330.827L1116.78 341.39C1117.45 339.841 1118.63 338.656 1120.13 338.065C1123.58 336.707 1127.74 338.809 1129.39 342.752C1131.04 346.694 1129.57 351.006 1126.12 352.364C1124.62 352.955 1122.92 352.904 1121.33 352.241Z" fill="#BEC3F0" fill-opacity="0.862745"/>
<path d="M920.283 124.118L915.287 112.193C915.041 111.606 915.196 110.94 915.672 110.534C916.148 110.128 916.838 110.077 917.388 110.409C918.726 111.211 920.225 111.386 921.498 110.885C923.995 109.903 925.011 106.676 923.761 103.693C922.511 100.71 919.461 99.082 916.965 100.064C915.691 100.565 914.741 101.702 914.359 103.183C914.203 103.79 913.672 104.219 913.036 104.249C912.406 104.28 911.815 103.907 911.569 103.32L906.572 91.3943C906.257 90.6413 906.61 89.7891 907.36 89.4942L916.678 85.8294C917.196 85.6256 917.803 85.7387 918.225 86.1183C918.639 86.4933 918.819 87.0994 918.671 87.6229C918.475 88.3179 918.493 88.9504 918.724 89.5015C919.653 91.7182 923.659 92.324 927.471 90.8246C931.284 89.3249 933.721 86.1858 932.792 83.9686C932.575 83.4503 932.172 83.0081 931.592 82.6531C931.246 82.4942 930.968 82.2098 930.82 81.8574C930.505 81.1044 930.858 80.252 931.607 79.9573L941.592 76.0302C942.342 75.7355 943.208 76.1085 943.524 76.861L946.938 85.0103C947.515 84.3782 948.21 83.896 948.999 83.5857C952.642 82.1528 957.248 84.9086 959.267 89.7282C961.287 94.5478 959.966 99.6344 956.324 101.067C955.535 101.377 954.689 101.5 953.821 101.437L957.235 109.585C957.55 110.338 957.197 111.191 956.448 111.485L947.564 114.979C948.165 115.549 948.632 116.217 948.944 116.963C950.477 120.62 947.818 125.131 943.019 127.019C938.22 128.906 933.069 127.466 931.537 123.809C931.224 123.064 931.078 122.269 931.099 121.455L922.215 124.949C921.465 125.243 920.599 124.871 920.283 124.118ZM917.433 112.501L921.859 123.064L933.811 118.363L933.202 120.271C932.881 121.272 932.905 122.259 933.268 123.128C934.399 125.826 938.446 126.792 942.29 125.28C946.135 123.768 948.343 120.341 947.213 117.643C946.849 116.775 946.155 116.051 945.205 115.549L943.394 114.592L955.346 109.891L950.591 98.5418L952.581 99.2759C953.642 99.6671 954.684 99.6845 955.595 99.3263C958.283 98.2693 959.153 94.269 957.536 90.4086C955.918 86.5478 952.416 84.2672 949.728 85.3242C948.817 85.6825 948.083 86.3988 947.604 87.3964L946.705 89.2668L941.949 77.9154L933.052 81.4145C933.725 81.9304 934.218 82.5584 934.523 83.2877C935.893 86.5559 933.115 90.6305 928.2 92.5639C923.284 94.4973 918.361 93.4512 916.992 90.1829C916.686 89.4531 916.589 88.6694 916.7 87.846L908.461 91.0863L912.887 101.649C913.552 100.1 914.733 98.9153 916.237 98.3238C919.688 96.9662 923.841 99.0683 925.493 103.011C927.145 106.953 925.68 111.265 922.228 112.623C920.724 113.215 919.025 113.163 917.433 112.501Z" fill="#BEC3F0" fill-opacity="0.862745"/>
<path d="M497.283 357.118L492.287 345.193C492.041 344.606 492.196 343.94 492.672 343.534C493.148 343.128 493.838 343.077 494.388 343.409C495.726 344.211 497.225 344.386 498.498 343.885C500.995 342.903 502.011 339.676 500.761 336.693C499.511 333.71 496.461 332.082 493.965 333.064C492.691 333.565 491.741 334.702 491.359 336.183C491.203 336.79 490.672 337.219 490.036 337.249C489.406 337.28 488.815 336.907 488.569 336.32L483.572 324.394C483.257 323.641 483.61 322.789 484.36 322.494L493.678 318.829C494.196 318.626 494.803 318.739 495.225 319.118C495.639 319.493 495.819 320.099 495.671 320.623C495.475 321.318 495.493 321.95 495.724 322.502C496.653 324.718 500.659 325.324 504.471 323.825C508.284 322.325 510.721 319.186 509.792 316.969C509.575 316.45 509.172 316.008 508.592 315.653C508.246 315.494 507.968 315.21 507.82 314.857C507.505 314.104 507.858 313.252 508.607 312.957L518.592 309.03C519.342 308.735 520.208 309.108 520.524 309.861L523.938 318.01C524.515 317.378 525.21 316.896 525.999 316.586C529.642 315.153 534.248 317.909 536.267 322.728C538.287 327.548 536.966 332.634 533.324 334.067C532.535 334.377 531.689 334.5 530.821 334.437L534.235 342.585C534.55 343.338 534.197 344.191 533.448 344.485L524.564 347.979C525.165 348.549 525.632 349.217 525.944 349.963C527.477 353.62 524.818 358.131 520.019 360.019C515.22 361.906 510.069 360.466 508.537 356.809C508.224 356.064 508.078 355.269 508.099 354.455L499.215 357.949C498.465 358.243 497.599 357.871 497.283 357.118ZM494.433 345.501L498.859 356.064L510.811 351.363L510.202 353.271C509.881 354.272 509.905 355.259 510.268 356.128C511.399 358.826 515.446 359.792 519.29 358.28C523.135 356.768 525.343 353.341 524.213 350.643C523.849 349.775 523.155 349.051 522.205 348.549L520.394 347.592L532.346 342.891L527.591 331.542L529.581 332.276C530.642 332.667 531.684 332.685 532.595 332.326C535.283 331.269 536.153 327.269 534.536 323.409C532.918 319.548 529.416 317.267 526.728 318.324C525.817 318.682 525.083 319.399 524.604 320.396L523.705 322.267L518.949 310.915L510.052 314.414C510.725 314.93 511.218 315.558 511.523 316.288C512.893 319.556 510.115 323.631 505.2 325.564C500.284 327.497 495.361 326.451 493.992 323.183C493.686 322.453 493.589 321.669 493.7 320.846L485.461 324.086L489.887 334.649C490.552 333.1 491.733 331.915 493.237 331.324C496.688 329.966 500.841 332.068 502.493 336.011C504.145 339.953 502.68 344.265 499.228 345.623C497.724 346.215 496.025 346.163 494.433 345.501Z" fill="#BEC3F0" fill-opacity="0.862745"/>
<path d="M1051.38 51.8138L1047.02 63.9923C1046.8 64.5922 1046.24 64.973 1045.62 64.941C1045 64.91 1044.46 64.4714 1044.28 63.8488C1043.84 62.3384 1042.86 61.1762 1041.59 60.6643C1039.1 59.6603 1036.19 61.3224 1035.1 64.3687C1034.01 67.4152 1035.15 70.7115 1037.64 71.7154C1038.9 72.2273 1040.36 72.0506 1041.64 71.2298C1042.16 70.8924 1042.84 70.9454 1043.33 71.3617C1043.81 71.7744 1043.99 72.4555 1043.78 73.0548L1039.42 85.2344C1039.14 86.0035 1038.31 86.3836 1037.56 86.0821L1028.28 82.3358C1027.76 82.1275 1027.39 81.6259 1027.34 81.0565C1027.29 80.4958 1027.56 79.9281 1028.02 79.6471C1028.63 79.2732 1029.04 78.7976 1029.25 78.2347C1030.06 75.9709 1027.53 72.7633 1023.73 71.2306C1019.93 69.6975 1016.04 70.3142 1015.23 72.5786C1015.04 73.108 1015.03 73.7101 1015.22 74.3699C1015.37 74.7252 1015.38 75.1253 1015.25 75.4852C1014.98 76.2542 1014.14 76.6342 1013.4 76.333L1003.45 72.3184C1002.7 72.0171 1002.31 71.1461 1002.59 70.3775L1005.57 62.0547C1004.72 62.1194 1003.89 61.9928 1003.1 61.6755C999.471 60.211 997.952 55.015 999.714 50.0928C1001.48 45.1706 1005.86 42.3576 1009.49 43.8221C1010.28 44.1393 1010.98 44.6329 1011.57 45.2779L1014.55 36.9565C1014.83 36.1876 1015.66 35.8073 1016.41 36.1083L1025.26 39.68C1025.2 38.8484 1025.31 38.0369 1025.58 37.2759C1026.92 33.5405 1031.9 32.0719 1036.68 34.0016C1041.46 35.9311 1044.27 40.54 1042.93 44.2748C1042.66 45.0357 1042.23 45.7185 1041.67 46.3002L1050.52 49.8721C1051.27 50.1747 1051.65 51.0442 1051.38 51.8138ZM1045.65 62.2863L1049.51 51.4985L1037.6 46.6929L1039.33 45.7164C1040.24 45.2045 1040.89 44.4656 1041.2 43.5785C1042.19 40.8226 1039.88 37.3231 1036.05 35.7773C1032.21 34.2316 1028.29 35.2167 1027.31 37.972C1026.99 38.859 1027.01 39.8682 1027.37 40.8908L1028.05 42.8409L1016.14 38.0354L1011.99 49.6267L1011.03 47.716C1010.51 46.6975 1009.76 45.9656 1008.86 45.5994C1006.18 44.5188 1002.85 46.8469 1001.44 50.7895C1000.03 54.7324 1001.06 58.819 1003.74 59.8995C1004.64 60.2658 1005.66 60.2483 1006.69 59.8484L1008.6 59.0992L1004.45 70.6923L1013.32 74.2693C1013.17 73.4273 1013.23 72.6273 1013.5 71.8825C1014.69 68.5446 1019.47 67.4778 1024.37 69.4542C1029.27 71.4307 1032.17 75.5934 1030.97 78.9313C1030.71 79.6767 1030.25 80.3175 1029.62 80.844L1037.83 84.1565L1041.69 73.3684C1040.16 74.0445 1038.5 74.0967 1037 73.4919C1033.56 72.1041 1031.93 67.6993 1033.37 63.6727C1034.81 59.6464 1038.78 57.5001 1042.23 58.8881C1043.72 59.4925 1044.93 60.7031 1045.65 62.2863Z" fill="#BEC3F0"/>
<path d="M688.144 38.814L683.785 50.9925C683.57 51.5924 683.009 51.9732 682.388 51.9412C681.767 51.9103 681.227 51.4717 681.048 50.8491C680.607 49.3386 679.627 48.1764 678.358 47.6645C675.869 46.6606 672.956 48.3226 671.866 51.369C670.776 54.4154 671.914 57.7118 674.402 58.7157C675.671 59.2276 677.131 59.0508 678.407 58.23C678.929 57.8927 679.607 57.9457 680.092 58.3619C680.575 58.7747 680.757 59.4557 680.542 60.0551L676.183 72.2347C675.907 73.0037 675.076 73.3839 674.328 73.0824L665.042 69.336C664.526 69.1277 664.158 68.6261 664.104 68.0568C664.052 67.4961 664.328 66.9284 664.789 66.6473C665.399 66.2735 665.811 65.7979 666.012 65.235C666.823 62.9711 664.297 59.7636 660.498 58.2308C656.698 56.6978 652.803 57.3145 651.993 59.5789C651.803 60.1082 651.801 60.7103 651.987 61.3701C652.134 61.7254 652.146 62.1255 652.017 62.4854C651.742 63.2544 650.91 63.6345 650.163 63.3332L640.212 59.3186C639.465 59.0174 639.082 58.1463 639.357 57.3778L642.336 49.0549C641.488 49.1196 640.655 48.993 639.869 48.6758C636.238 47.2112 634.719 42.0152 636.48 37.0931C638.242 32.1709 642.629 29.3579 646.259 30.8223C647.045 31.1395 647.747 31.6331 648.34 32.2781L651.319 23.9568C651.594 23.1878 652.426 22.8075 653.172 23.1086L662.026 26.6802C661.969 25.8486 662.076 25.0371 662.349 24.2761C663.686 20.5407 668.665 19.0722 673.448 21.0019C678.231 22.9314 681.034 27.5402 679.697 31.2751C679.425 32.036 678.998 32.7187 678.435 33.3005L687.289 36.8723C688.036 37.1749 688.419 38.0444 688.144 38.814ZM682.42 49.2865L686.282 38.4987L674.37 33.6931L676.099 32.7167C677.007 32.2048 677.654 31.4658 677.971 30.5787C678.958 27.8229 676.644 24.3233 672.813 22.7775C668.981 21.2318 665.061 22.217 664.074 24.9723C663.757 25.8593 663.778 26.8684 664.136 27.8911L664.819 29.8411L652.907 25.0357L648.759 36.627L647.795 34.7162C647.281 33.6977 646.53 32.9658 645.622 32.5996C642.944 31.519 639.617 33.8471 638.206 37.7897C636.794 41.7327 637.825 45.8192 640.504 46.8998C641.412 47.266 642.431 47.2486 643.453 46.8487L645.368 46.0995L641.219 57.6926L650.085 61.2696C649.939 60.4275 650.001 59.6275 650.267 58.8827C651.462 55.5449 656.235 54.4781 661.134 56.4545C666.033 58.4309 668.934 62.5937 667.739 65.9316C667.472 66.6769 667.017 67.3178 666.382 67.8443L674.593 71.1568L678.454 60.3687C676.925 61.0447 675.264 61.0969 673.765 60.4922C670.325 59.1044 668.698 54.6995 670.139 50.6729C671.58 46.6467 675.552 44.5003 678.992 45.8883C680.491 46.4928 681.701 47.7034 682.42 49.2865Z" fill="#BEC3F0"/>
<path d="M886.144 327.814L881.785 339.993C881.57 340.592 881.009 340.973 880.388 340.941C879.767 340.91 879.227 340.472 879.048 339.849C878.607 338.339 877.627 337.176 876.358 336.665C873.869 335.661 870.956 337.323 869.866 340.369C868.776 343.415 869.914 346.712 872.402 347.716C873.671 348.228 875.131 348.051 876.407 347.23C876.929 346.893 877.607 346.946 878.092 347.362C878.575 347.775 878.757 348.456 878.542 349.055L874.183 361.235C873.907 362.004 873.076 362.384 872.328 362.082L863.042 358.336C862.526 358.128 862.158 357.626 862.104 357.057C862.052 356.496 862.328 355.928 862.789 355.647C863.399 355.273 863.811 354.798 864.012 354.235C864.823 351.971 862.297 348.764 858.498 347.231C854.698 345.698 850.803 346.314 849.993 348.579C849.803 349.108 849.801 349.71 849.987 350.37C850.134 350.725 850.146 351.126 850.017 351.485C849.742 352.254 848.91 352.634 848.163 352.333L838.212 348.319C837.465 348.017 837.082 347.146 837.357 346.378L840.336 338.055C839.488 338.12 838.655 337.993 837.869 337.676C834.238 336.211 832.719 331.015 834.48 326.093C836.242 321.171 840.629 318.358 844.259 319.822C845.045 320.14 845.747 320.633 846.34 321.278L849.319 312.957C849.594 312.188 850.426 311.808 851.172 312.109L860.026 315.68C859.969 314.849 860.076 314.037 860.349 313.276C861.686 309.541 866.665 308.072 871.448 310.002C876.231 311.931 879.034 316.54 877.697 320.275C877.425 321.036 876.998 321.719 876.435 322.3L885.289 325.872C886.036 326.175 886.419 327.044 886.144 327.814ZM880.42 338.287L884.282 327.499L872.37 322.693L874.099 321.717C875.007 321.205 875.654 320.466 875.971 319.579C876.958 316.823 874.644 313.323 870.813 311.778C866.981 310.232 863.061 311.217 862.074 313.972C861.757 314.859 861.778 315.868 862.136 316.891L862.819 318.841L850.907 314.036L846.759 325.627L845.795 323.716C845.281 322.698 844.53 321.966 843.622 321.6C840.944 320.519 837.617 322.847 836.206 326.79C834.794 330.733 835.825 334.819 838.504 335.9C839.412 336.266 840.431 336.249 841.453 335.849L843.368 335.099L839.219 346.693L848.085 350.27C847.939 349.428 848.001 348.627 848.267 347.883C849.462 344.545 854.235 343.478 859.134 345.454C864.033 347.431 866.934 351.594 865.739 354.932C865.472 355.677 865.017 356.318 864.382 356.844L872.593 360.157L876.454 349.369C874.925 350.045 873.264 350.097 871.765 349.492C868.325 348.104 866.698 343.699 868.139 339.673C869.58 335.647 873.552 333.5 876.992 334.888C878.491 335.493 879.701 336.703 880.42 338.287Z" fill="#BEC3F0"/>
<path d="M994.144 314.814L989.785 326.993C989.57 327.592 989.009 327.973 988.388 327.941C987.767 327.91 987.227 327.472 987.048 326.849C986.607 325.339 985.627 324.176 984.358 323.665C981.869 322.661 978.956 324.323 977.866 327.369C976.776 330.415 977.914 333.712 980.402 334.716C981.671 335.228 983.131 335.051 984.407 334.23C984.929 333.893 985.607 333.946 986.092 334.362C986.575 334.775 986.757 335.456 986.542 336.055L982.183 348.235C981.907 349.004 981.076 349.384 980.328 349.082L971.042 345.336C970.526 345.128 970.158 344.626 970.104 344.057C970.052 343.496 970.328 342.928 970.789 342.647C971.399 342.273 971.811 341.798 972.012 341.235C972.823 338.971 970.297 335.764 966.498 334.231C962.698 332.698 958.803 333.314 957.993 335.579C957.803 336.108 957.801 336.71 957.987 337.37C958.134 337.725 958.146 338.126 958.017 338.485C957.742 339.254 956.91 339.634 956.163 339.333L946.212 335.319C945.465 335.017 945.082 334.146 945.357 333.378L948.336 325.055C947.488 325.12 946.655 324.993 945.869 324.676C942.238 323.211 940.719 318.015 942.48 313.093C944.242 308.171 948.629 305.358 952.259 306.822C953.045 307.14 953.747 307.633 954.34 308.278L957.319 299.957C957.594 299.188 958.426 298.808 959.172 299.109L968.026 302.68C967.969 301.849 968.076 301.037 968.349 300.276C969.686 296.541 974.665 295.072 979.448 297.002C984.231 298.931 987.034 303.54 985.697 307.275C985.425 308.036 984.998 308.719 984.435 309.3L993.289 312.872C994.036 313.175 994.419 314.044 994.144 314.814ZM988.42 325.287L992.282 314.499L980.37 309.693L982.099 308.717C983.007 308.205 983.654 307.466 983.971 306.579C984.958 303.823 982.644 300.323 978.813 298.778C974.981 297.232 971.061 298.217 970.074 300.972C969.757 301.859 969.778 302.868 970.136 303.891L970.819 305.841L958.907 301.036L954.759 312.627L953.795 310.716C953.281 309.698 952.53 308.966 951.622 308.6C948.944 307.519 945.617 309.847 944.206 313.79C942.794 317.733 943.825 321.819 946.504 322.9C947.412 323.266 948.431 323.249 949.453 322.849L951.368 322.099L947.219 333.693L956.085 337.27C955.939 336.428 956.001 335.627 956.267 334.883C957.462 331.545 962.235 330.478 967.134 332.454C972.033 334.431 974.934 338.594 973.739 341.932C973.472 342.677 973.017 343.318 972.382 343.844L980.593 347.157L984.454 336.369C982.925 337.045 981.264 337.097 979.765 336.492C976.325 335.104 974.698 330.699 976.139 326.673C977.58 322.647 981.552 320.5 984.992 321.888C986.491 322.493 987.701 323.703 988.42 325.287Z" fill="#BEC3F0"/>
<path d="M1099.01 33.5052C1101.58 31.7981 1105.08 32.5909 1106.82 35.2758C1107.62 36.5135 1107.91 37.9855 1107.65 39.4067L1128.39 25.6311C1128.79 25.3655 1129.33 25.4783 1129.59 25.8834L1129.92 26.4045C1130.1 26.6712 1130.11 27.0123 1129.97 27.294C1129.29 28.5898 1129.35 30.1397 1130.13 31.3428C1131.32 33.1829 1133.77 33.6988 1135.59 32.4922C1137.41 31.2856 1137.92 28.8071 1136.72 26.9649C1135.97 25.8046 1134.69 25.1357 1133.3 25.1783C1133 25.1888 1132.71 25.0374 1132.55 24.7829L1132.16 24.1763C1131.9 23.7712 1132.01 23.2286 1132.41 22.963L1140.45 17.6228C1140.85 17.3572 1141.38 17.4701 1141.64 17.8751L1170.63 62.6587C1170.89 63.0637 1170.78 63.6064 1170.38 63.872L1163.64 68.3486C1165.07 68.6689 1166.35 69.5396 1167.15 70.7874C1168.9 73.4805 1168.22 76.9515 1165.6 78.688C1162.94 80.4538 1159.38 79.7356 1157.67 77.0873C1156.85 75.8231 1156.58 74.2979 1156.87 72.8466L1137.52 85.6999C1138.95 86.0202 1140.23 86.8909 1141.03 88.1387C1142.78 90.8318 1142.09 94.3028 1139.48 96.0393C1136.82 97.8051 1133.26 97.0869 1131.55 94.4386C1130.73 93.1744 1130.46 91.6492 1130.75 90.1965L1118.14 98.5745C1117.74 98.8402 1117.2 98.7273 1116.94 98.3222L1110.35 88.1441C1110.09 87.7391 1110.2 87.1964 1110.6 86.9308L1111.08 86.6105C1111.35 86.4343 1111.69 86.4194 1111.96 86.5707C1113.2 87.2331 1114.67 87.1366 1115.92 86.3104C1117.75 85.0958 1118.26 82.6112 1117.07 80.771C1115.88 78.9308 1113.42 78.419 1111.6 79.6335C1110.5 80.3583 1109.84 81.7271 1109.87 83.2025C1109.87 83.5022 1109.73 83.786 1109.48 83.9515L1108.91 84.3252C1108.51 84.5908 1107.98 84.478 1107.72 84.0729L1096.82 67.2404C1096.49 68.6185 1095.63 69.8662 1094.38 70.6964C1091.75 72.4409 1088.22 71.704 1086.5 69.0556C1084.79 66.4073 1085.53 62.8328 1088.16 61.0883C1089.37 60.2848 1090.88 60.0279 1092.35 60.3295L1087.95 53.5387C1087.69 53.1336 1087.8 52.591 1088.2 52.3254L1100.76 43.9874C1099.37 43.658 1098.13 42.8093 1097.34 41.5757C1095.63 38.9355 1096.39 35.2417 1099.01 33.5052ZM1114.55 36.9202L1107.24 41.7786C1106.84 42.0442 1106.3 41.9314 1106.04 41.5263L1105.68 40.9767C1105.52 40.7222 1105.5 40.3993 1105.62 40.1222C1106.22 38.846 1106.12 37.3951 1105.37 36.2348C1104.16 34.36 1101.73 33.7936 1099.96 34.9709C1098.13 36.1868 1097.59 38.7704 1098.78 40.6127C1099.56 41.8137 1100.93 42.488 1102.37 42.3729C1102.68 42.3456 1102.99 42.4965 1103.16 42.7631L1103.47 43.2334C1103.73 43.6385 1103.62 44.1811 1103.22 44.4467L1089.88 53.3092L1094.67 60.7188C1094.94 61.1239 1094.82 61.6665 1094.42 61.9321L1093.84 62.3192C1093.59 62.4861 1093.27 62.5086 1093 62.3788C1091.7 61.7564 1090.2 61.8252 1089.11 62.5539C1087.28 63.7685 1086.76 66.2511 1087.95 68.0933C1089.15 69.9355 1091.6 70.4454 1093.43 69.2308C1094.67 68.4046 1095.35 67.0703 1095.24 65.6625C1095.21 65.3457 1095.36 65.0342 1095.63 64.8594L1096.11 64.5391C1096.51 64.2735 1097.04 64.3863 1097.31 64.7914L1103.42 74.2366L1128.09 57.8464L1122.94 49.8891C1122.61 51.2753 1121.76 52.5069 1120.49 53.3491C1117.87 55.0909 1114.34 54.354 1112.62 51.7057C1110.91 49.0573 1111.65 45.4842 1114.27 43.741C1115.48 42.9362 1117 42.6738 1118.47 42.9701L1114.55 36.9202ZM1127.88 28.0657L1115.99 35.9606L1120.79 43.3702C1121.05 43.7753 1120.94 44.3179 1120.54 44.5835L1119.97 44.9639C1119.72 45.1308 1119.4 45.1533 1119.13 45.0236C1117.82 44.4025 1116.32 44.4739 1115.22 45.208C1113.39 46.4199 1112.88 48.9025 1114.07 50.7447C1115.26 52.5869 1117.72 53.0967 1119.54 51.8848C1120.78 51.0626 1121.46 49.7271 1121.35 48.3112C1121.33 47.995 1121.48 47.687 1121.74 47.5121L1122.23 47.1878C1122.63 46.9222 1123.16 47.035 1123.43 47.4401L1129.54 56.8854L1142.88 48.0229C1143.28 47.7573 1143.82 47.8701 1144.08 48.2752L1144.42 48.7963C1144.59 49.063 1144.61 49.404 1144.46 49.6858C1143.78 50.9815 1143.85 52.5335 1144.62 53.7345C1145.82 55.5747 1148.26 56.0906 1150.08 54.884C1151.9 53.6774 1152.41 51.1968 1151.22 49.3567C1150.46 48.1964 1149.18 47.5275 1147.79 47.5721C1147.49 47.5826 1147.21 47.4312 1147.04 47.1767L1146.65 46.5681C1146.39 46.163 1146.5 45.6204 1146.9 45.3548L1154.21 40.4951L1140.67 19.569L1134.67 23.5584C1136.1 23.874 1137.35 24.7357 1138.17 26.0039C1139.89 28.6543 1139.15 32.2214 1136.54 33.9579C1133.92 35.6943 1130.4 34.9521 1128.69 32.3037C1127.87 31.0424 1127.6 29.5165 1127.88 28.0657ZM1129.04 59.312L1104.37 75.7023L1108.28 81.7542C1108.61 80.268 1109.45 78.9668 1110.65 78.1699C1113.27 76.4255 1116.81 77.1624 1118.52 79.8107C1120.23 82.4591 1119.49 86.0336 1116.87 87.778C1115.62 88.6082 1114.14 88.9135 1112.76 88.6753L1117.91 96.6284L1131.25 87.7659C1131.65 87.5003 1132.19 87.6131 1132.45 88.0182L1132.79 88.5475C1132.97 88.8142 1132.98 89.1566 1132.83 89.4396C1132.15 90.73 1132.22 92.2765 1133 93.4776C1134.17 95.2872 1136.7 95.7896 1138.53 94.5736C1140.33 93.3764 1140.8 90.9704 1139.59 89.0997C1138.84 87.9414 1137.56 87.2733 1136.17 87.3138C1135.87 87.3243 1135.58 87.1749 1135.42 86.9205L1135.02 86.3098C1134.76 85.9047 1134.87 85.3621 1135.27 85.0965L1142.59 80.2381L1137.44 72.2809C1137.1 73.6603 1136.24 74.9047 1134.99 75.7348C1132.36 77.4793 1128.83 76.7424 1127.12 74.0941C1125.4 71.4457 1126.14 67.8712 1128.77 66.1267C1129.98 65.3246 1131.5 65.0643 1132.96 65.3679L1129.04 59.312ZM1142.37 50.4575L1130.49 58.3523L1135.28 65.762C1135.54 66.1671 1135.43 66.7097 1135.03 66.9753L1134.45 67.3624C1134.2 67.5292 1133.88 67.5517 1133.61 67.424C1132.3 66.8029 1130.81 66.8683 1129.72 67.5971C1127.89 68.8117 1127.37 71.2963 1128.56 73.1364C1129.75 74.9766 1132.21 75.4858 1134.04 74.2712C1135.28 73.4451 1135.96 72.1108 1135.85 70.7023C1135.83 70.3841 1135.98 70.0747 1136.24 69.8999L1136.72 69.5795C1137.12 69.3139 1137.66 69.4268 1137.92 69.8319L1144.03 79.2771L1157.37 70.4146C1157.77 70.149 1158.31 70.2619 1158.57 70.6669L1158.91 71.1962C1159.09 71.4629 1159.1 71.8039 1158.95 72.087C1158.28 73.3774 1158.34 74.9253 1159.12 76.1263C1160.29 77.9359 1162.82 78.437 1164.65 77.2224C1166.46 76.0251 1166.92 73.6191 1165.71 71.7484C1164.97 70.6064 1163.66 69.9225 1162.29 69.9639C1161.99 69.973 1161.7 69.8236 1161.54 69.5692L1161.14 68.9585C1160.88 68.5534 1160.99 68.0108 1161.39 67.7452L1168.71 62.8868L1155.16 41.9607L1149.16 45.9502C1150.59 46.2637 1151.84 47.1254 1152.66 48.3957C1154.38 51.044 1153.64 54.6132 1151.03 56.3496C1148.42 58.0861 1144.89 57.3438 1143.18 54.6955C1142.36 53.4321 1142.09 51.9082 1142.37 50.4575Z" fill="#BEC3F0"/>
<path d="M488.835 33.5055C491.405 31.7984 494.909 32.5911 496.647 35.2761C497.448 36.5137 497.734 37.9857 497.479 39.4069L518.217 25.6313C518.617 25.3657 519.152 25.4786 519.414 25.8837L519.752 26.4048C519.924 26.6715 519.941 27.0125 519.793 27.2943C519.117 28.59 519.181 30.14 519.96 31.343C521.151 33.1832 523.599 33.6991 525.416 32.4925C527.232 31.2859 527.743 28.8074 526.55 26.9651C525.799 25.8048 524.519 25.136 523.127 25.1785C522.826 25.189 522.542 25.0376 522.377 24.7832L521.984 24.1766C521.722 23.7715 521.834 23.2289 522.233 22.9632L530.273 17.6231C530.673 17.3574 531.208 17.4703 531.47 17.8754L560.455 62.6589C560.717 63.064 560.605 63.6066 560.206 63.8722L553.466 68.3489C554.895 68.6691 556.174 69.5398 556.981 70.7877C558.724 73.4808 558.043 76.9518 555.429 78.6882C552.771 80.4541 549.211 79.7358 547.497 77.0875C546.679 75.8234 546.407 74.2982 546.695 72.8468L527.345 85.7001C528.774 86.0204 530.053 86.8911 530.86 88.1389C532.603 90.8321 531.922 94.3031 529.308 96.0395C526.649 97.8054 523.09 97.0871 521.376 94.4388C520.558 93.1747 520.286 91.6495 520.576 90.1968L507.963 98.5748C507.564 98.8404 507.028 98.7276 506.766 98.3225L500.178 88.1444C499.916 87.7393 500.028 87.1967 500.428 86.9311L500.91 86.6107C501.175 86.4346 501.513 86.4196 501.789 86.571C503.022 87.2334 504.5 87.1368 505.744 86.3106C507.572 85.096 508.087 82.6115 506.896 80.7713C505.705 78.9311 503.251 78.4192 501.422 79.6338C500.331 80.3585 499.668 81.7273 499.695 83.2027C499.7 83.5025 499.553 83.7863 499.304 83.9518L498.741 84.3255C498.341 84.5911 497.806 84.4783 497.544 84.0732L486.649 67.2407C486.314 68.6187 485.453 69.8665 484.203 70.6967C481.577 72.4411 478.046 71.7042 476.332 69.0559C474.618 66.4075 475.358 62.833 477.984 61.0885C479.194 60.2851 480.711 60.0281 482.177 60.3298L477.781 53.5389C477.519 53.1339 477.631 52.5912 478.031 52.3256L490.583 43.9877C489.194 43.6582 487.961 42.8095 487.163 41.5759C485.454 38.9357 486.221 35.2419 488.835 33.5055ZM504.377 36.9205L497.063 41.7788C496.663 42.0445 496.127 41.9316 495.865 41.5265L495.51 40.9769C495.345 40.7224 495.323 40.3996 495.451 40.1224C496.044 38.8463 495.95 37.3953 495.199 36.235C493.985 34.3602 491.556 33.7939 489.784 34.9711C487.953 36.187 487.416 38.7707 488.608 40.6129C489.386 41.8139 490.759 42.4882 492.198 42.3731C492.511 42.3458 492.818 42.4967 492.991 42.7634L493.295 43.2336C493.558 43.6387 493.446 44.1813 493.046 44.4469L479.705 53.3094L484.5 60.7191C484.762 61.1242 484.651 61.6668 484.251 61.9324L483.668 62.3195C483.417 62.4863 483.098 62.5088 482.825 62.3791C481.523 61.7567 480.03 61.8254 478.933 62.5542C477.105 63.7688 476.588 66.2513 477.78 68.0935C478.973 69.9358 481.426 70.4456 483.254 69.231C484.498 68.4048 485.175 67.0706 485.068 65.6628C485.041 65.3459 485.19 65.0345 485.453 64.8596L485.935 64.5393C486.335 64.2737 486.871 64.3865 487.133 64.7916L493.246 74.2369L517.92 57.8466L512.77 49.8894C512.441 51.2756 511.586 52.5072 510.318 53.3494C507.696 55.0912 504.165 54.3543 502.451 51.7059C500.737 49.0576 501.475 45.4844 504.099 43.7413C505.311 42.9364 506.828 42.6741 508.292 42.9703L504.377 36.9205ZM517.707 28.066L505.822 35.9608L510.617 43.3705C510.879 43.7755 510.768 44.3182 510.368 44.5838L509.795 44.9642C509.544 45.131 509.226 45.1535 508.952 45.0238C507.648 44.4027 506.151 44.4742 505.046 45.2082C503.222 46.4202 502.705 48.9027 503.897 50.7449C505.09 52.5872 507.543 53.097 509.367 51.8851C510.605 51.0629 511.284 49.7273 511.18 48.3114C511.157 47.9953 511.305 47.6872 511.568 47.5124L512.056 47.188C512.456 46.9224 512.992 47.0353 513.254 47.4404L519.367 56.8856L532.709 48.0231C533.109 47.7575 533.644 47.8703 533.907 48.2754L534.244 48.7965C534.416 49.0632 534.433 49.4043 534.285 49.686C533.61 50.9818 533.675 52.5337 534.452 53.7348C535.643 55.575 538.091 56.0908 539.908 54.8842C541.724 53.6777 542.233 51.1971 541.042 49.3569C540.291 48.1966 539.011 47.5277 537.62 47.5723C537.32 47.5828 537.035 47.4314 536.87 47.177L536.476 46.5683C536.214 46.1632 536.326 45.6206 536.726 45.355L544.041 40.4953L530.498 19.5692L524.492 23.5587C525.923 23.8742 527.176 24.736 527.997 26.0041C529.712 28.6545 528.978 32.2217 526.364 33.9581C523.75 35.6946 520.227 34.9523 518.513 32.304C517.699 31.0426 517.424 29.5167 517.707 28.066ZM518.869 59.3122L494.195 75.7025L498.111 81.7544C498.434 80.2682 499.275 78.967 500.475 78.1702C503.101 76.4257 506.632 77.1626 508.346 79.811C510.06 82.4593 509.32 86.0338 506.693 87.7783C505.444 88.6085 503.972 88.9137 502.591 88.6755L507.738 96.6286L521.08 87.7661C521.48 87.5005 522.015 87.6134 522.278 88.0185L522.62 88.5477C522.793 88.8144 522.808 89.1568 522.657 89.4399C521.981 90.7302 522.046 92.2768 522.823 93.4778C523.994 95.2875 526.529 95.7898 528.359 94.5739C530.162 93.3767 530.624 90.9707 529.413 89.0999C528.664 87.9417 527.387 87.2735 525.994 87.314C525.693 87.3245 525.41 87.1752 525.245 86.9207L524.85 86.31C524.587 85.9049 524.699 85.3623 525.099 85.0967L532.413 80.2384L527.263 72.2811C526.926 73.6605 526.065 74.9049 524.815 75.7351C522.189 77.4796 518.657 76.7426 516.943 74.0943C515.229 71.446 515.97 67.8715 518.596 66.127C519.804 65.3248 521.322 65.0645 522.788 65.3682L518.869 59.3122ZM532.199 50.4577L520.314 58.3526L525.109 65.7622C525.371 66.1673 525.26 66.7099 524.86 66.9755L524.277 67.3626C524.026 67.5294 523.708 67.552 523.435 67.4243C522.131 66.8032 520.639 66.8686 519.542 67.5973C517.714 68.8119 517.198 71.2965 518.389 73.1367C519.58 74.9769 522.039 75.4861 523.867 74.2715C525.111 73.4453 525.788 72.1111 525.678 70.7025C525.653 70.3844 525.803 70.075 526.066 69.9001L526.549 69.5798C526.948 69.3142 527.484 69.427 527.746 69.8321L533.859 79.2774L547.201 70.4149C547.601 70.1493 548.137 70.2621 548.399 70.6672L548.741 71.1964C548.914 71.4631 548.931 71.8042 548.781 72.0873C548.104 73.3776 548.167 74.9255 548.944 76.1265C550.115 77.9362 552.652 78.4372 554.48 77.2226C556.283 76.0254 556.745 73.6194 555.534 71.7487C554.795 70.6067 553.485 69.9227 552.113 69.9641C551.814 69.9733 551.531 69.8239 551.366 69.5694L550.971 68.9588C550.708 68.5537 550.82 68.011 551.22 67.7454L558.534 62.8871L544.99 41.961L538.984 45.9504C540.414 46.264 541.667 47.1257 542.489 48.3959C544.203 51.0442 543.47 54.6134 540.856 56.3499C538.242 58.0863 534.719 57.3441 533.005 54.6958C532.19 53.4323 531.917 51.9085 532.199 50.4577Z" fill="#BEC3F0"/>
<path d="M95.4177 316.505C97.9876 314.798 101.492 315.591 103.229 318.276C104.03 319.513 104.317 320.985 104.061 322.407L124.799 308.631C125.199 308.365 125.735 308.478 125.997 308.883L126.334 309.404C126.507 309.671 126.524 310.012 126.375 310.294C125.7 311.59 125.764 313.14 126.542 314.343C127.733 316.183 130.182 316.699 131.998 315.492C133.815 314.286 134.325 311.807 133.133 309.965C132.382 308.804 131.101 308.136 129.71 308.178C129.409 308.189 129.124 308.037 128.959 307.783L128.567 307.176C128.305 306.771 128.416 306.228 128.816 305.963L136.855 300.623C137.255 300.357 137.791 300.47 138.053 300.875L167.037 345.659C167.299 346.064 167.188 346.606 166.788 346.872L160.049 351.348C161.477 351.669 162.756 352.539 163.564 353.787C165.307 356.48 164.625 359.951 162.011 361.688C159.353 363.454 155.794 362.735 154.08 360.087C153.262 358.823 152.99 357.298 153.277 355.846L133.928 368.7C135.356 369.02 136.635 369.891 137.443 371.139C139.186 373.832 138.504 377.303 135.89 379.039C133.232 380.805 129.673 380.087 127.959 377.438C127.141 376.174 126.869 374.649 127.158 373.196L114.546 381.574C114.146 381.84 113.61 381.727 113.348 381.322L106.761 371.144C106.499 370.739 106.61 370.196 107.01 369.931L107.492 369.61C107.757 369.434 108.095 369.419 108.372 369.571C109.605 370.233 111.082 370.136 112.326 369.31C114.154 368.096 114.67 365.611 113.479 363.771C112.288 361.931 109.833 361.419 108.005 362.633C106.914 363.358 106.251 364.727 106.278 366.202C106.282 366.502 106.135 366.786 105.886 366.951L105.324 367.325C104.924 367.591 104.388 367.478 104.126 367.073L93.2319 350.24C92.8969 351.618 92.0352 352.866 90.7854 353.696C88.1592 355.441 84.6281 354.704 82.9141 352.056C81.2001 349.407 81.9408 345.833 84.567 344.088C85.7766 343.285 87.2939 343.028 88.7591 343.329L84.364 336.539C84.1018 336.133 84.2132 335.591 84.6131 335.325L97.1652 326.987C95.7769 326.658 94.5438 325.809 93.7454 324.576C92.0367 321.935 92.8036 318.242 95.4177 316.505ZM110.959 319.92L103.645 324.778C103.246 325.044 102.71 324.931 102.448 324.526L102.092 323.977C101.927 323.722 101.905 323.399 102.033 323.122C102.627 321.846 102.532 320.395 101.781 319.235C100.568 317.36 98.1385 316.794 96.3663 317.971C94.5358 319.187 93.9985 321.77 95.1908 323.613C95.9681 324.814 97.3412 325.488 98.7808 325.373C99.0936 325.345 99.401 325.496 99.5736 325.763L99.8779 326.233C100.14 326.638 100.029 327.181 99.6288 327.447L86.287 336.309L91.0826 343.719C91.3448 344.124 91.2334 344.666 90.8335 344.932L90.2508 345.319C89.9997 345.486 89.681 345.508 89.4074 345.379C88.1052 344.756 86.6126 344.825 85.5155 345.554C83.6871 346.768 83.1705 349.251 84.3628 351.093C85.5551 352.935 88.0084 353.445 89.8368 352.231C91.0806 351.404 91.7571 350.07 91.6504 348.662C91.6235 348.346 91.7724 348.034 92.0357 347.859L92.5179 347.539C92.9177 347.273 93.4534 347.386 93.7155 347.791L99.8286 357.237L124.503 340.846L119.353 332.889C119.023 334.275 118.168 335.507 116.9 336.349C114.278 338.091 110.747 337.354 109.033 334.706C107.319 332.057 108.058 328.484 110.682 326.741C111.894 325.936 113.41 325.674 114.875 325.97L110.959 319.92ZM124.289 311.066L112.404 318.96L117.2 326.37C117.462 326.775 117.35 327.318 116.951 327.583L116.378 327.964C116.127 328.131 115.808 328.153 115.534 328.023C114.23 327.402 112.734 327.474 111.629 328.208C109.804 329.42 109.288 331.902 110.48 333.745C111.672 335.587 114.125 336.097 115.95 334.885C117.188 334.063 117.866 332.727 117.763 331.311C117.739 330.995 117.887 330.687 118.151 330.512L118.639 330.188C119.039 329.922 119.574 330.035 119.837 330.44L125.95 339.885L139.291 331.023C139.691 330.757 140.227 330.87 140.489 331.275L140.826 331.796C140.999 332.063 141.016 332.404 140.868 332.686C140.192 333.981 140.257 335.533 141.034 336.734C142.225 338.575 144.674 339.09 146.49 337.884C148.307 336.677 148.816 334.197 147.625 332.357C146.874 331.196 145.593 330.527 144.203 330.572C143.902 330.582 143.618 330.431 143.453 330.177L143.059 329.568C142.797 329.163 142.908 328.62 143.308 328.355L150.624 323.495L137.08 302.569L131.075 306.558C132.506 306.874 133.759 307.736 134.579 309.004C136.295 311.654 135.561 315.221 132.947 316.958C130.333 318.694 126.81 317.952 125.095 315.304C124.282 314.042 124.007 312.516 124.289 311.066ZM125.451 342.312L100.777 358.702L104.694 364.754C105.016 363.268 105.858 361.967 107.057 361.17C109.684 359.425 113.215 360.162 114.929 362.811C116.643 365.459 115.902 369.033 113.276 370.778C112.026 371.608 110.554 371.913 109.173 371.675L114.321 379.628L127.663 370.766C128.062 370.5 128.598 370.613 128.86 371.018L129.203 371.547C129.375 371.814 129.39 372.156 129.24 372.44C128.564 373.73 128.628 375.276 129.405 376.477C130.577 378.287 133.111 378.789 134.942 377.574C136.744 376.376 137.207 373.97 135.996 372.1C135.246 370.941 133.969 370.273 132.576 370.314C132.275 370.324 131.992 370.175 131.827 369.92L131.432 369.31C131.17 368.905 131.281 368.362 131.681 368.096L138.995 363.238L133.845 355.281C133.508 356.66 132.647 357.905 131.397 358.735C128.771 360.479 125.24 359.742 123.526 357.094C121.812 354.446 122.553 350.871 125.179 349.127C126.386 348.324 127.904 348.064 129.371 348.368L125.451 342.312ZM138.781 333.457L126.896 341.352L131.692 348.762C131.954 349.167 131.843 349.71 131.443 349.975L130.86 350.362C130.609 350.529 130.29 350.552 130.018 350.424C128.714 349.803 127.222 349.868 126.125 350.597C124.296 351.812 123.781 354.296 124.972 356.136C126.163 357.977 128.622 358.486 130.45 357.271C131.694 356.445 132.37 355.111 132.26 353.702C132.235 353.384 132.386 353.075 132.649 352.9L133.131 352.579C133.531 352.314 134.067 352.427 134.329 352.832L140.442 362.277L153.784 353.414C154.183 353.149 154.719 353.262 154.981 353.667L155.324 354.196C155.496 354.463 155.513 354.804 155.363 355.087C154.687 356.377 154.749 357.925 155.526 359.126C156.698 360.936 159.234 361.437 161.063 360.222C162.865 359.025 163.328 356.619 162.117 354.748C161.378 353.606 160.068 352.922 158.695 352.964C158.396 352.973 158.113 352.824 157.948 352.569L157.553 351.958C157.291 351.553 157.402 351.011 157.802 350.745L165.116 345.887L151.573 324.961L145.567 328.95C146.996 329.264 148.249 330.125 149.072 331.396C150.786 334.044 150.053 337.613 147.439 339.35C144.825 341.086 141.302 340.344 139.588 337.695C138.773 336.432 138.499 334.908 138.781 333.457Z" fill="#BEC3F0"/>
<path d="M1015.86 144.077L1019.51 131.807C1019.69 131.202 1020.23 130.792 1020.86 130.785C1021.49 130.776 1022.07 131.175 1022.29 131.777C1022.83 133.237 1023.89 134.321 1025.21 134.746C1027.78 135.579 1030.63 133.76 1031.54 130.691C1032.45 127.621 1031.09 124.445 1028.51 123.612C1027.2 123.187 1025.73 123.452 1024.5 124.34C1023.99 124.705 1023.3 124.696 1022.78 124.316C1022.27 123.939 1022.04 123.28 1022.22 122.676L1025.87 110.405C1026.1 109.63 1026.92 109.203 1027.69 109.454L1037.31 112.564C1037.85 112.737 1038.25 113.208 1038.34 113.765C1038.43 114.314 1038.19 114.891 1037.74 115.197C1037.14 115.603 1036.76 116.097 1036.59 116.664C1035.91 118.945 1038.67 121.947 1042.6 123.22C1046.54 124.492 1050.44 123.641 1051.12 121.36C1051.28 120.827 1051.24 120.233 1051.01 119.595C1050.84 119.254 1050.8 118.861 1050.91 118.498C1051.14 117.723 1051.96 117.297 1052.73 117.547L1063.05 120.88C1063.82 121.13 1064.26 121.964 1064.03 122.738L1061.54 131.124C1062.39 131.007 1063.24 131.08 1064.06 131.343C1067.82 132.559 1069.68 137.583 1068.21 142.542C1066.74 147.501 1062.48 150.547 1058.71 149.331C1057.9 149.067 1057.16 148.625 1056.52 148.027L1054.03 156.411C1053.8 157.185 1052.98 157.612 1052.21 157.362L1043.03 154.397C1043.14 155.213 1043.08 156.019 1042.86 156.786C1041.74 160.549 1036.79 162.307 1031.84 160.705C1026.88 159.104 1023.76 154.739 1024.88 150.976C1025.1 150.209 1025.49 149.51 1026.03 148.901L1016.85 145.936C1016.08 145.685 1015.63 144.852 1015.86 144.077ZM1021 133.402L1017.77 144.271L1030.11 148.26L1028.42 149.33C1027.54 149.892 1026.93 150.66 1026.67 151.554C1025.84 154.33 1028.4 157.633 1032.37 158.916C1036.34 160.2 1040.24 158.984 1041.07 156.208C1041.33 155.314 1041.25 154.321 1040.82 153.336L1040.01 151.458L1052.35 155.447L1055.82 143.769L1056.92 145.591C1057.5 146.562 1058.31 147.236 1059.25 147.54C1062.02 148.437 1065.24 145.936 1066.42 141.963C1067.6 137.991 1066.3 134.029 1063.53 133.132C1062.59 132.828 1061.56 132.909 1060.55 133.367L1058.66 134.225L1062.13 122.544L1052.94 119.575C1053.14 120.395 1053.13 121.187 1052.91 121.938C1051.91 125.301 1047.15 126.65 1042.07 125.009C1036.99 123.369 1033.8 119.449 1034.8 116.086C1035.02 115.335 1035.44 114.675 1036.05 114.117L1027.54 111.367L1024.31 122.236C1025.82 121.475 1027.49 121.32 1029.05 121.822C1032.61 122.974 1034.53 127.211 1033.33 131.268C1032.12 135.325 1028.24 137.688 1024.68 136.535C1023.12 136.034 1021.82 134.917 1021 133.402Z" fill="#BEC3F0" fill-opacity="0.862745"/>
<path d="M600.109 323.077L603.755 310.807C603.935 310.202 604.478 309.792 605.108 309.785C605.738 309.777 606.311 310.175 606.532 310.777C607.072 312.238 608.136 313.321 609.451 313.746C612.03 314.58 614.871 312.76 615.783 309.691C616.695 306.621 615.338 303.445 612.759 302.612C611.444 302.187 609.979 302.452 608.74 303.341C608.233 303.706 607.545 303.696 607.028 303.316C606.514 302.94 606.288 302.28 606.467 301.676L610.114 289.405C610.344 288.63 611.161 288.204 611.935 288.454L621.559 291.564C622.094 291.737 622.498 292.208 622.588 292.765C622.675 293.315 622.432 293.891 621.984 294.197C621.39 294.603 621.003 295.098 620.834 295.665C620.157 297.946 622.911 300.948 626.848 302.22C630.786 303.493 634.686 302.642 635.364 300.36C635.522 299.827 635.486 299.234 635.258 298.595C635.087 298.254 635.049 297.861 635.157 297.498C635.387 296.723 636.205 296.297 636.979 296.547L647.291 299.88C648.065 300.13 648.508 300.964 648.278 301.738L645.786 310.124C646.639 310.007 647.489 310.08 648.304 310.343C652.066 311.559 653.928 316.583 652.454 321.542C650.981 326.501 646.721 329.547 642.959 328.331C642.144 328.068 641.404 327.625 640.764 327.027L638.272 335.411C638.042 336.186 637.225 336.612 636.451 336.363L627.276 333.397C627.386 334.213 627.328 335.019 627.1 335.786C625.982 339.55 621.039 341.308 616.082 339.706C611.126 338.104 608.003 333.739 609.121 329.976C609.349 329.209 609.738 328.51 610.27 327.902L601.095 324.936C600.321 324.685 599.879 323.852 600.109 323.077ZM605.241 312.402L602.012 323.271L614.356 327.261L612.669 328.331C611.783 328.892 611.175 329.66 610.91 330.554C610.085 333.331 612.643 336.633 616.614 337.917C620.584 339.2 624.487 337.984 625.312 335.208C625.577 334.314 625.492 333.322 625.066 332.337L624.255 330.458L636.599 334.447L640.069 322.769L641.163 324.591C641.746 325.562 642.551 326.236 643.492 326.54C646.268 327.437 649.486 324.936 650.666 320.964C651.847 316.991 650.549 313.03 647.773 312.133C646.832 311.829 645.802 311.909 644.795 312.367L642.905 313.225L646.375 301.545L637.187 298.575C637.387 299.396 637.375 300.188 637.152 300.938C636.153 304.301 631.393 305.65 626.316 304.01C621.239 302.369 618.046 298.449 619.045 295.086C619.268 294.335 619.689 293.676 620.298 293.117L611.789 290.367L608.559 301.237C610.062 300.475 611.739 300.32 613.292 300.822C616.857 301.974 618.778 306.212 617.573 310.268C616.367 314.325 612.486 316.688 608.92 315.536C607.367 315.034 606.068 313.917 605.241 312.402Z" fill="#BEC3F0" fill-opacity="0.862745"/>
<path d="M728.109 92.0771L731.755 79.8069C731.935 79.2025 732.478 78.7922 733.108 78.7849C733.738 78.7766 734.311 79.1749 734.532 79.7771C735.072 81.2375 736.136 82.3212 737.451 82.7461C740.03 83.5796 742.871 81.76 743.783 78.6908C744.695 75.6214 743.338 72.4452 740.759 71.6118C739.444 71.1868 737.979 71.4522 736.74 72.3406C736.233 72.7056 735.545 72.6957 735.028 72.316C734.514 71.9396 734.288 71.2801 734.467 70.6762L738.114 58.4049C738.344 57.6301 739.161 57.2036 739.935 57.4538L749.559 60.5639C750.094 60.7368 750.498 61.2079 750.588 61.7655C750.675 62.3146 750.432 62.8911 749.984 63.1968C749.39 63.6032 749.003 64.0976 748.834 64.6647C748.157 66.9456 750.911 69.9476 754.848 71.22C758.786 72.4927 762.686 71.6416 763.364 69.3601C763.522 68.8268 763.486 68.2336 763.258 67.5951C763.087 67.2543 763.049 66.8609 763.157 66.4983C763.387 65.7235 764.205 65.2971 764.979 65.5471L775.291 68.8799C776.065 69.13 776.508 69.9641 776.278 70.7384L773.786 79.1239C774.639 79.0072 775.489 79.0798 776.304 79.3432C780.066 80.559 781.928 85.5828 780.454 90.542C778.981 95.5012 774.721 98.5468 770.959 97.3311C770.144 97.0677 769.404 96.6254 768.764 96.027L766.272 104.411C766.042 105.186 765.225 105.612 764.451 105.363L755.276 102.397C755.386 103.213 755.328 104.019 755.1 104.786C753.982 108.55 749.039 110.308 744.082 108.706C739.126 107.104 736.003 102.739 737.121 98.9759C737.349 98.2092 737.738 97.5099 738.27 96.9016L729.095 93.9365C728.321 93.6851 727.879 92.8525 728.109 92.0771ZM733.241 81.4022L730.012 92.2712L742.356 96.2607L740.669 97.3307C739.783 97.8918 739.175 98.6602 738.91 99.5539C738.085 102.331 740.643 105.633 744.614 106.917C748.584 108.2 752.487 106.984 753.312 104.208C753.577 103.314 753.492 102.322 753.066 101.337L752.255 99.4582L764.599 103.447L768.069 91.7689L769.163 93.591C769.746 94.5623 770.551 95.2363 771.492 95.5403C774.268 96.4374 777.486 93.9359 778.666 89.9635C779.847 85.9909 778.549 82.0296 775.773 81.1325C774.832 80.8285 773.802 80.9094 772.795 81.3673L770.905 82.2251L774.375 70.5447L765.187 67.5753C765.387 68.3957 765.375 69.1877 765.152 69.938C764.153 73.301 759.393 74.6505 754.316 73.0097C749.239 71.369 746.046 67.4494 747.045 64.0864C747.268 63.3355 747.689 62.6756 748.298 62.1172L739.789 59.3674L736.559 70.2367C738.062 69.4751 739.739 69.3198 741.292 69.8218C744.857 70.9739 746.778 75.2116 745.573 79.2685C744.367 83.3251 740.486 85.6879 736.92 84.5356C735.367 84.0338 734.068 82.9169 733.241 81.4022Z" fill="#BEC3F0" fill-opacity="0.862745"/>
<path d="M216.109 358.077L219.755 345.807C219.935 345.202 220.478 344.792 221.108 344.785C221.738 344.776 222.311 345.175 222.532 345.777C223.072 347.237 224.136 348.321 225.451 348.746C228.03 349.579 230.871 347.76 231.783 344.691C232.695 341.621 231.338 338.445 228.759 337.612C227.444 337.187 225.979 337.452 224.74 338.34C224.233 338.705 223.545 338.696 223.028 338.316C222.514 337.939 222.288 337.28 222.467 336.676L226.114 324.405C226.344 323.63 227.161 323.203 227.935 323.454L237.559 326.564C238.094 326.737 238.498 327.208 238.588 327.765C238.675 328.314 238.432 328.891 237.984 329.197C237.39 329.603 237.003 330.097 236.834 330.664C236.157 332.945 238.911 335.947 242.848 337.22C246.786 338.492 250.686 337.641 251.364 335.36C251.522 334.827 251.486 334.233 251.258 333.595C251.087 333.254 251.049 332.861 251.157 332.498C251.387 331.723 252.205 331.297 252.979 331.547L263.291 334.88C264.065 335.13 264.508 335.964 264.278 336.738L261.786 345.124C262.639 345.007 263.489 345.08 264.304 345.343C268.066 346.559 269.928 351.583 268.454 356.542C266.981 361.501 262.721 364.547 258.959 363.331C258.144 363.067 257.404 362.625 256.764 362.027L254.272 370.411C254.042 371.185 253.225 371.612 252.451 371.362L243.276 368.397C243.386 369.213 243.328 370.019 243.1 370.786C241.982 374.549 237.039 376.307 232.082 374.705C227.126 373.104 224.003 368.739 225.121 364.976C225.349 364.209 225.738 363.51 226.27 362.901L217.095 359.936C216.321 359.685 215.879 358.852 216.109 358.077ZM221.241 347.402L218.012 358.271L230.356 362.26L228.669 363.33C227.783 363.892 227.175 364.66 226.91 365.554C226.085 368.33 228.643 371.633 232.614 372.916C236.584 374.2 240.487 372.984 241.312 370.208C241.577 369.314 241.492 368.321 241.066 367.336L240.255 365.458L252.599 369.447L256.069 357.769L257.163 359.591C257.746 360.562 258.551 361.236 259.492 361.54C262.268 362.437 265.486 359.936 266.666 355.963C267.847 351.991 266.549 348.029 263.773 347.132C262.832 346.828 261.802 346.909 260.795 347.367L258.905 348.225L262.375 336.544L253.187 333.575C253.387 334.395 253.375 335.187 253.152 335.938C252.153 339.301 247.393 340.65 242.316 339.009C237.239 337.369 234.046 333.449 235.045 330.086C235.268 329.335 235.689 328.675 236.298 328.117L227.789 325.367L224.559 336.236C226.062 335.475 227.739 335.32 229.292 335.822C232.857 336.974 234.778 341.211 233.573 345.268C232.367 349.325 228.486 351.688 224.92 350.535C223.367 350.034 222.068 348.917 221.241 347.402Z" fill="#BEC3F0"/>
<path d="M986.815 256.968L974.637 252.609C974.037 252.394 973.656 251.833 973.688 251.212C973.719 250.59 974.157 250.051 974.78 249.871C976.291 249.431 977.453 248.45 977.965 247.182C978.969 244.693 977.307 241.78 974.26 240.69C971.214 239.599 967.917 240.738 966.913 243.226C966.402 244.495 966.578 245.955 967.399 247.231C967.736 247.753 967.683 248.43 967.267 248.916C966.854 249.399 966.173 249.58 965.574 249.366L953.394 245.006C952.625 244.731 952.245 243.899 952.547 243.152L956.293 233.866C956.501 233.35 957.003 232.981 957.572 232.927C958.133 232.876 958.701 233.152 958.982 233.612C959.356 234.223 959.831 234.635 960.394 234.836C962.658 235.646 965.866 233.121 967.398 229.322C968.931 225.522 968.315 221.627 966.05 220.816C965.521 220.627 964.919 220.625 964.259 220.811C963.904 220.957 963.504 220.97 963.144 220.841C962.375 220.566 961.995 219.734 962.296 218.987L966.311 209.036C966.612 208.289 967.483 207.905 968.251 208.18L976.574 211.159C976.51 210.312 976.636 209.479 976.953 208.692C978.418 205.062 983.614 203.542 988.536 205.304C993.458 207.066 996.271 211.453 994.807 215.083C994.49 215.869 993.996 216.571 993.351 217.164L1001.67 220.143C1002.44 220.418 1002.82 221.25 1002.52 221.996L998.949 230.849C999.781 230.793 1000.59 230.9 1001.35 231.173C1005.09 232.51 1006.56 237.489 1004.63 242.272C1002.7 247.054 998.089 249.858 994.354 248.521C993.593 248.249 992.91 247.822 992.329 247.259L988.757 256.113C988.454 256.86 987.585 257.243 986.815 256.968ZM976.343 251.244L987.13 255.105L991.936 243.194L992.912 244.923C993.424 245.831 994.163 246.477 995.05 246.795C997.806 247.781 1001.31 245.468 1002.85 241.636C1004.4 237.805 1003.41 233.884 1000.66 232.898C999.77 232.581 998.761 232.602 997.738 232.96L995.788 233.642L1000.59 221.731L989.002 217.582L990.913 216.619C991.931 216.105 992.663 215.354 993.03 214.446C994.11 211.767 991.782 208.441 987.839 207.029C983.896 205.618 979.81 206.649 978.729 209.328C978.363 210.235 978.381 211.255 978.78 212.276L979.53 214.192L967.937 210.042L964.36 218.909C965.202 218.763 966.002 218.824 966.746 219.091C970.084 220.286 971.151 225.059 969.175 229.957C967.198 234.856 963.035 237.758 959.698 236.563C958.952 236.296 958.311 235.84 957.785 235.206L954.472 243.416L965.26 247.278C964.584 245.749 964.532 244.088 965.137 242.589C966.525 239.149 970.93 237.522 974.956 238.963C978.983 240.404 981.129 244.376 979.741 247.816C979.136 249.315 977.926 250.524 976.343 251.244Z" fill="#BEC3F0" fill-opacity="0.862745"/>
<path d="M741.815 365.144L729.636 360.785C729.036 360.57 728.656 360.009 728.688 359.388C728.719 358.767 729.157 358.227 729.78 358.048C731.29 357.607 732.453 356.627 732.964 355.358C733.968 352.869 732.306 349.956 729.26 348.866C726.213 347.776 722.917 348.914 721.913 351.402C721.401 352.671 721.578 354.131 722.399 355.407C722.736 355.929 722.683 356.607 722.267 357.092C721.854 357.575 721.173 357.757 720.574 357.542L708.394 353.183C707.625 352.907 707.245 352.076 707.547 351.328L711.293 342.042C711.501 341.526 712.003 341.158 712.572 341.104C713.133 341.052 713.701 341.328 713.982 341.789C714.355 342.399 714.831 342.811 715.394 343.012C717.658 343.823 720.865 341.297 722.398 337.498C723.931 333.698 723.314 329.803 721.05 328.993C720.521 328.803 719.919 328.801 719.259 328.987C718.903 329.134 718.503 329.146 718.143 329.017C717.374 328.742 716.994 327.91 717.296 327.163L721.31 317.212C721.612 316.465 722.483 316.082 723.251 316.357L731.574 319.336C731.509 318.488 731.636 317.655 731.953 316.869C733.418 313.238 738.614 311.719 743.536 313.48C748.458 315.242 751.271 319.629 749.807 323.259C749.489 324.045 748.996 324.747 748.351 325.34L756.672 328.319C757.441 328.594 757.821 329.426 757.52 330.172L753.949 339.026C754.78 338.969 755.592 339.076 756.353 339.349C760.088 340.686 761.557 345.665 759.627 350.448C757.698 355.231 753.089 358.034 749.354 356.697C748.593 356.425 747.91 355.998 747.328 355.435L743.757 364.289C743.454 365.036 742.584 365.419 741.815 365.144ZM731.342 359.42L742.13 363.282L746.936 351.37L747.912 353.099C748.424 354.007 749.163 354.654 750.05 354.971C752.806 355.958 756.306 353.644 757.851 349.813C759.397 345.981 758.412 342.061 755.657 341.074C754.77 340.757 753.76 340.778 752.738 341.136L750.788 341.819L755.593 329.907L744.002 325.759L745.913 324.795C746.931 324.281 747.663 323.53 748.029 322.622C749.11 319.944 746.782 316.617 742.839 315.206C738.896 313.794 734.81 314.825 733.729 317.504C733.363 318.412 733.38 319.431 733.78 320.453L734.529 322.368L722.936 318.219L719.359 327.085C720.201 326.939 721.001 327.001 721.746 327.267C725.084 328.462 726.151 333.235 724.174 338.134C722.198 343.033 718.035 345.934 714.697 344.739C713.952 344.472 713.311 344.017 712.785 343.382L709.472 351.593L720.26 355.454C719.584 353.925 719.532 352.264 720.137 350.765C721.525 347.325 725.929 345.698 729.956 347.139C733.982 348.58 736.129 352.552 734.741 355.992C734.136 357.491 732.926 358.701 731.342 359.42Z" fill="#BEC3F0" fill-opacity="0.862745"/>
<path d="M853.815 83.144L841.636 78.7851C841.036 78.5704 840.656 78.0092 840.688 77.3878C840.719 76.7667 841.157 76.2274 841.78 76.0477C843.29 75.6071 844.453 74.6266 844.964 73.3578C845.968 70.8693 844.306 67.9564 841.26 66.866C838.213 65.7756 834.917 66.9139 833.913 69.4024C833.401 70.6711 833.578 72.131 834.399 73.4072C834.736 73.9292 834.683 74.6066 834.267 75.0923C833.854 75.5748 833.173 75.7566 832.574 75.542L820.394 71.1827C819.625 70.9075 819.245 70.0757 819.547 69.3285L823.293 60.0423C823.501 59.5259 824.003 59.1576 824.572 59.1036C825.133 59.0522 825.701 59.3281 825.982 59.7886C826.355 60.399 826.831 60.811 827.394 61.0125C829.658 61.8227 832.865 59.2972 834.398 55.498C835.931 51.698 835.314 47.8031 833.05 46.9926C832.521 46.8032 831.919 46.8012 831.259 46.9868C830.903 47.1336 830.503 47.1459 830.143 47.0171C829.374 46.7419 828.994 45.9098 829.296 45.1631L833.31 35.212C833.612 34.4653 834.483 34.0817 835.251 34.3567L843.574 37.3357C843.509 36.4881 843.636 35.6551 843.953 34.8688C845.418 31.2382 850.614 29.7187 855.536 31.4804C860.458 33.2422 863.271 37.629 861.807 41.2589C861.489 42.0452 860.996 42.7469 860.351 43.3404L868.672 46.3188C869.441 46.594 869.821 47.4262 869.52 48.1724L865.949 57.0256C866.78 56.9689 867.592 57.0765 868.353 57.3488C872.088 58.6858 873.557 63.6649 871.627 68.4481C869.698 73.2307 865.089 76.034 861.354 74.6972C860.593 74.4248 859.91 73.9979 859.328 73.4353L855.757 82.2888C855.454 83.0358 854.584 83.4195 853.815 83.144ZM843.342 77.4205L854.13 81.2817L858.936 69.3699L859.912 71.0993C860.424 72.0072 861.163 72.6537 862.05 72.9712C864.806 73.9576 868.306 71.644 869.851 67.8126C871.397 63.9811 870.412 60.0605 867.657 59.0744C866.77 58.7569 865.76 58.7783 864.738 59.1363L862.788 59.8186L867.593 47.9073L856.002 43.7586L857.913 42.795C858.931 42.2812 859.663 41.5298 860.029 40.6221C861.11 37.9437 858.782 34.6168 854.839 33.2056C850.896 31.7944 846.81 32.8253 845.729 35.5038C845.363 36.4115 845.38 37.4311 845.78 38.4526L846.529 40.3682L834.936 36.2187L831.359 45.0851C832.201 44.9393 833.001 45.0005 833.746 45.2671C837.084 46.4618 838.151 51.2348 836.174 56.1338C834.198 61.0327 830.035 63.9338 826.697 62.7391C825.952 62.4723 825.311 62.0166 824.785 61.3819L821.472 69.5925L832.26 73.4538C831.584 71.9253 831.532 70.2642 832.137 68.7652C833.525 65.3253 837.929 63.6979 841.956 65.1391C845.982 66.5802 848.129 70.5518 846.741 73.9923C846.136 75.4908 844.926 76.7005 843.342 77.4205Z" fill="#BEC3F0" fill-opacity="0.862745"/>
<path d="M376.031 71.8349C377.738 74.4048 376.946 77.9089 374.261 79.6466C373.023 80.4476 371.551 80.7337 370.13 80.4784L383.905 101.217C384.171 101.616 384.058 102.152 383.653 102.414L383.132 102.751C382.865 102.924 382.524 102.941 382.242 102.793C380.947 102.117 379.397 102.181 378.194 102.959C376.353 104.15 375.838 106.599 377.044 108.415C378.251 110.232 380.729 110.742 382.571 109.55C383.732 108.799 384.401 107.519 384.358 106.127C384.348 105.826 384.499 105.541 384.753 105.377L385.36 104.984C385.765 104.722 386.308 104.833 386.573 105.233L391.914 113.272C392.179 113.672 392.066 114.208 391.661 114.47L346.878 143.454C346.473 143.717 345.93 143.605 345.664 143.205L341.188 136.466C340.867 137.894 339.997 139.173 338.749 139.981C336.056 141.724 332.585 141.043 330.848 138.429C329.083 135.77 329.801 132.211 332.449 130.497C333.713 129.679 335.238 129.407 336.69 129.695L323.836 110.345C323.516 111.773 322.646 113.052 321.398 113.86C318.705 115.603 315.234 114.922 313.497 112.308C311.731 109.649 312.449 106.09 315.098 104.376C316.362 103.558 317.887 103.286 319.34 103.576L310.962 90.9632C310.696 90.5633 310.809 90.0277 311.214 89.7655L321.392 83.1782C321.797 82.916 322.34 83.0274 322.606 83.4273L322.926 83.9095C323.102 84.1747 323.117 84.5127 322.966 84.7888C322.303 86.022 322.4 87.4995 323.226 88.7433C324.441 90.5717 326.925 91.087 328.765 89.896C330.606 88.705 331.117 86.2504 329.903 84.422C329.178 83.3309 327.809 82.6682 326.334 82.695C326.034 82.6994 325.75 82.5527 325.585 82.3035L325.211 81.7409C324.946 81.3411 325.058 80.8054 325.463 80.5433L342.296 69.6491C340.918 69.3142 339.67 68.4524 338.84 67.2026C337.095 64.5765 337.832 61.0454 340.481 59.3313C343.129 57.6173 346.704 58.358 348.448 60.9842C349.252 62.1938 349.509 63.7112 349.207 65.1763L355.998 60.7813C356.403 60.5191 356.945 60.6305 357.211 61.0303L365.549 73.5825C365.878 72.1942 366.727 70.961 367.961 70.1627C370.601 68.4539 374.295 69.2208 376.031 71.8349ZM372.616 87.3766L367.758 80.0627C367.492 79.6628 367.605 79.1272 368.01 78.8651L368.56 78.5093C368.814 78.3447 369.137 78.3224 369.414 78.4505C370.69 79.0439 372.141 78.9495 373.302 78.1986C375.176 76.9852 375.743 74.5557 374.566 72.7835C373.35 70.953 370.766 70.4157 368.924 71.608C367.723 72.3853 367.048 73.7584 367.164 75.1981C367.191 75.5108 367.04 75.8182 366.773 75.9908L366.303 76.2951C365.898 76.5573 365.355 76.4459 365.09 76.0461L356.227 62.7043L348.818 67.4998C348.412 67.762 347.87 67.6506 347.604 67.2508L347.217 66.6681C347.05 66.4169 347.028 66.0982 347.158 65.8246C347.78 64.5225 347.711 63.0299 346.982 61.9328C345.768 60.1043 343.285 59.5878 341.443 60.7801C339.601 61.9724 339.091 64.4256 340.306 66.2541C341.132 67.4978 342.466 68.1743 343.874 68.0676C344.191 68.0407 344.502 68.1897 344.677 68.4529L344.997 68.9351C345.263 69.335 345.15 69.8706 344.745 70.1328L335.3 76.2458L351.69 100.92L359.647 95.7702C358.261 95.4405 357.029 94.5855 356.187 93.3177C354.445 90.6955 355.182 87.1644 357.831 85.4504C360.479 83.7364 364.052 84.475 365.795 87.0992C366.6 88.3108 366.863 89.8276 366.566 91.2921L372.616 87.3766ZM381.471 100.706L373.576 88.8213L366.166 93.6169C365.761 93.879 365.218 93.7677 364.953 93.3678L364.572 92.7951C364.406 92.544 364.383 92.2253 364.513 91.9517C365.134 90.6475 365.062 89.1509 364.328 88.0458C363.116 86.2213 360.634 85.7048 358.792 86.8971C356.949 88.0894 356.44 90.5426 357.652 92.3671C358.474 93.6048 359.809 94.2833 361.225 94.18C361.541 94.1564 361.849 94.3047 362.024 94.5679L362.349 95.0562C362.614 95.456 362.501 95.9916 362.096 96.2538L352.651 102.367L361.514 115.709C361.779 116.109 361.666 116.644 361.261 116.906L360.74 117.244C360.473 117.416 360.132 117.433 359.851 117.285C358.555 116.609 357.003 116.674 355.802 117.452C353.962 118.643 353.446 121.091 354.652 122.907C355.859 124.724 358.34 125.233 360.18 124.042C361.34 123.291 362.009 122.011 361.964 120.62C361.954 120.32 362.105 120.035 362.36 119.87L362.968 119.476C363.373 119.214 363.916 119.325 364.182 119.725L369.041 127.041L389.967 113.498L385.978 107.492C385.662 108.923 384.801 110.176 383.532 110.997C380.882 112.712 377.315 111.978 375.579 109.364C373.842 106.75 374.584 103.227 377.233 101.513C378.494 100.699 380.02 100.424 381.471 100.706ZM350.224 101.869L333.834 77.1944L327.782 81.1112C329.268 81.4336 330.57 82.2751 331.366 83.4747C333.111 86.1009 332.374 89.632 329.726 91.346C327.077 93.06 323.503 92.3193 321.758 89.6932C320.928 88.4434 320.623 86.9716 320.861 85.5906L312.908 90.738L321.77 104.08C322.036 104.48 321.923 105.015 321.518 105.277L320.989 105.62C320.722 105.793 320.38 105.807 320.097 105.657C318.806 104.981 317.26 105.045 316.059 105.823C314.249 106.994 313.747 109.528 314.963 111.359C316.16 113.161 318.566 113.624 320.437 112.413C321.595 111.664 322.263 110.386 322.223 108.993C322.212 108.693 322.361 108.409 322.616 108.245L323.227 107.849C323.632 107.587 324.174 107.699 324.44 108.098L329.298 115.412L337.255 110.262C335.876 109.925 334.632 109.064 333.802 107.815C332.057 105.188 332.794 101.657 335.442 99.9432C338.091 98.2292 341.665 98.9699 343.41 101.596C344.212 102.804 344.472 104.322 344.168 105.788L350.224 101.869ZM359.079 115.198L351.184 103.313L343.774 108.109C343.369 108.371 342.827 108.26 342.561 107.86L342.174 107.277C342.007 107.026 341.985 106.707 342.112 106.435C342.733 105.131 342.668 103.639 341.939 102.542C340.725 100.713 338.24 100.198 336.4 101.389C334.56 102.58 334.051 105.039 335.265 106.867C336.091 108.111 337.426 108.787 338.834 108.677C339.152 108.653 339.462 108.803 339.637 109.066L339.957 109.548C340.222 109.948 340.11 110.484 339.705 110.746L330.259 116.859L339.122 130.201C339.387 130.601 339.275 131.136 338.869 131.398L338.34 131.741C338.074 131.914 337.732 131.93 337.449 131.78C336.159 131.104 334.611 131.166 333.41 131.944C331.6 133.115 331.099 135.652 332.314 137.48C333.511 139.282 335.917 139.745 337.788 138.534C338.93 137.795 339.614 136.485 339.573 135.112C339.563 134.814 339.713 134.53 339.967 134.366L340.578 133.97C340.983 133.708 341.526 133.82 341.791 134.219L346.65 141.533L367.576 127.99L363.586 121.984C363.273 123.414 362.411 124.667 361.141 125.489C358.492 127.203 354.923 126.47 353.187 123.856C351.45 121.242 352.193 117.719 354.841 116.005C356.104 115.19 357.628 114.916 359.079 115.198Z" fill="#BEC3F0"/>
</g>
<defs>
<linearGradient id="paint0_linear_346_10063" x1="1198.94" y1="-0.000235765" x2="754.999" y2="813.122" gradientUnits="userSpaceOnUse">
<stop stop-color="#A2AAF3"/>
<stop offset="0.35" stop-color="#939DF2"/>
<stop offset="0.5" stop-color="#929BE6"/>
<stop offset="0.65" stop-color="#939DF2"/>
<stop offset="1" stop-color="#A2AAF3"/>
</linearGradient>
<clipPath id="clip0_346_10063">
<rect width="1200" height="393" fill="white"/>
</clipPath>
</defs>
</svg>
