<svg width="2329" height="862" viewBox="0 0 2329 862" fill="none" xmlns="http://www.w3.org/2000/svg">
<g clip-path="url(#clip0_336_5414)">
<rect x="1" y="-1" width="2328" height="863" rx="15" fill="#E7E9FA"/>
<path d="M1816.93 752.851L1836.6 660.293L1767.56 645.617C1764.84 658.401 1780.73 696.788 1734.7 687.004C1688.67 677.22 1718.81 648.617 1721.53 635.833L1652.48 621.157L1632.81 713.715C1620.09 711.012 1591.69 680.791 1581.86 727.07C1572.02 773.349 1610.25 757.291 1622.97 759.994L1603.3 852.552L1672.34 867.228C1675.06 854.443 1659.16 816.057 1705.19 825.841C1751.22 835.625 1721.09 864.227 1718.37 877.012L1787.42 891.688L1807.09 799.13C1819.81 801.832 1848.2 832.053 1858.04 785.774C1867.88 739.495 1829.64 755.553 1816.93 752.851Z" stroke="#656EC5" stroke-opacity="0.14" stroke-width="3"/>
<path d="M1574.65 -80.0367L1540.52 -150.024L1488.31 -124.56C1493.02 -114.893 1522.78 -98.0546 1487.97 -81.0788C1453.17 -64.1029 1458.22 -97.9176 1453.5 -107.585L1401.29 -82.1208L1435.43 -12.1334C1425.81 -7.44379 1392.09 -12.6544 1409.16 22.3393C1426.22 57.3331 1442.88 27.5499 1452.5 22.8604L1486.63 92.8479L1538.84 67.3841C1534.12 57.7171 1504.37 40.8783 1539.17 23.9025C1573.98 6.92664 1568.93 40.7413 1573.65 50.4083L1625.85 24.9446L1591.72 -45.0429C1601.33 -49.7325 1635.06 -44.5219 1617.99 -79.5156C1600.92 -114.509 1584.27 -84.7262 1574.65 -80.0367Z" stroke="#656EC5" stroke-opacity="0.14" stroke-width="3"/>
<path d="M345.617 214.744L386.152 135.19L326.807 104.953C321.208 115.941 326.322 154.809 286.758 134.65C247.195 114.492 281.645 95.7828 287.244 84.7944L227.9 54.5568L187.365 134.111C176.436 128.542 157.936 94.0638 137.668 133.841C117.401 173.618 156.168 168.319 167.098 173.888L126.563 253.441L185.908 283.679C191.506 272.691 186.393 233.823 225.956 253.981C265.52 274.14 231.069 292.849 225.471 303.837L284.815 334.075L325.35 254.521C336.279 260.09 354.779 294.568 375.047 254.791C395.314 215.014 356.547 220.313 345.617 214.744Z" stroke="#656EC5" stroke-opacity="0.14" stroke-width="3"/>
<path d="M1095.81 583.428C1104.65 572.51 1120.99 571.034 1132.25 580.152C1137.44 584.355 1140.71 590.282 1141.56 596.746L1212.9 508.642C1214.28 506.943 1216.77 506.682 1218.46 508.058L1220.65 509.827C1221.77 510.733 1222.31 512.175 1222.05 513.593C1220.89 520.103 1223.3 526.675 1228.35 530.761C1236.06 537.01 1247.44 535.815 1253.68 528.098C1259.93 520.381 1258.75 509.017 1251.02 502.761C1246.16 498.821 1239.66 497.731 1233.66 499.854C1232.36 500.318 1230.92 500.064 1229.85 499.2L1227.31 497.14C1225.61 495.764 1225.35 493.277 1226.72 491.578L1254.38 457.424C1255.75 455.725 1258.24 455.464 1259.94 456.839L1447.74 608.917C1449.44 610.293 1449.7 612.78 1448.32 614.479L1425.14 643.11C1431.8 642.496 1438.57 644.456 1443.8 648.693C1455.09 657.838 1456.9 673.705 1447.91 684.811C1438.76 696.105 1422.28 697.978 1411.17 688.985C1405.87 684.692 1402.59 678.516 1401.84 671.877L1335.28 754.083C1341.94 753.469 1348.7 755.428 1353.93 759.666C1365.23 768.811 1367.04 784.678 1358.04 795.784C1348.9 807.078 1332.41 808.951 1321.31 799.958C1316.01 795.665 1312.72 789.488 1311.99 782.842L1268.6 836.425C1267.22 838.123 1264.73 838.385 1263.04 837.009L1220.35 802.446C1218.65 801.07 1218.39 798.583 1219.77 796.884L1221.43 794.836C1222.34 793.709 1223.79 793.174 1225.2 793.439C1231.48 794.568 1237.78 792.094 1242.06 786.81C1248.35 779.042 1247.18 767.645 1239.46 761.396C1231.74 755.147 1220.35 756.368 1214.06 764.136C1210.31 768.771 1209.31 775.578 1211.45 781.881C1211.88 783.163 1211.63 784.588 1210.78 785.646L1208.84 788.036C1207.47 789.735 1204.98 789.996 1203.28 788.621L1132.69 731.46C1133.13 737.85 1131.09 744.413 1126.79 749.723C1117.76 760.88 1101.37 762.633 1090.27 753.64C1079.16 744.647 1077.47 728.252 1086.5 717.095C1090.66 711.956 1096.92 708.737 1103.71 707.992L1075.23 684.931C1073.54 683.556 1073.27 681.069 1074.65 679.37L1117.83 626.043C1111.34 626.562 1104.8 624.633 1099.63 620.444C1088.55 611.478 1086.81 594.534 1095.81 583.428ZM1168.17 576.447L1143.01 607.519C1141.63 609.218 1139.15 609.48 1137.45 608.104L1135.14 606.238C1134.08 605.374 1133.54 604.017 1133.71 602.647C1134.54 596.336 1132.13 590.231 1127.27 586.291C1119.41 579.925 1108.05 580.876 1101.95 588.405C1095.65 596.182 1096.87 608.035 1104.59 614.291C1109.63 618.369 1116.54 619.354 1122.65 616.853C1123.97 616.3 1125.52 616.52 1126.64 617.425L1128.61 619.022C1130.31 620.398 1130.57 622.885 1129.19 624.584L1083.29 681.265L1114.36 706.427C1116.06 707.803 1116.32 710.29 1114.95 711.989L1112.94 714.464C1112.08 715.531 1110.72 716.072 1109.35 715.896C1102.83 715.036 1096.42 717.411 1092.65 722.072C1086.36 729.84 1087.52 741.229 1095.25 747.485C1102.98 753.741 1114.36 752.514 1120.65 744.746C1124.93 739.462 1126.04 732.785 1123.64 726.883C1123.08 725.559 1123.3 724.013 1124.21 722.894L1125.87 720.846C1127.24 719.147 1129.73 718.885 1131.43 720.261L1171.04 752.336L1255.93 647.509L1222.56 620.487C1223.03 626.904 1221 633.389 1216.64 638.775C1207.62 649.915 1191.23 651.669 1180.12 642.676C1169.02 633.682 1167.32 617.296 1176.35 606.148C1180.51 601 1186.76 597.759 1193.54 596.991L1168.17 576.447ZM1214.03 519.817L1173.14 570.309L1204.21 595.471C1205.91 596.847 1206.17 599.334 1204.8 601.033L1202.83 603.466C1201.96 604.533 1200.61 605.074 1199.24 604.898C1192.71 604.046 1186.29 606.438 1182.49 611.133C1176.21 618.884 1177.37 630.274 1185.1 636.53C1192.83 642.785 1204.21 641.558 1210.49 633.807C1214.74 628.548 1215.86 621.863 1213.46 615.922C1212.93 614.596 1213.15 613.065 1214.05 611.947L1215.73 609.873C1217.11 608.174 1219.6 607.912 1221.29 609.288L1260.9 641.363L1306.8 584.681C1308.18 582.982 1310.67 582.721 1312.36 584.097L1314.55 585.866C1315.67 586.772 1316.21 588.214 1315.95 589.631C1314.79 596.142 1317.21 602.721 1322.25 606.8C1329.96 613.049 1341.34 611.854 1347.58 604.137C1353.83 596.42 1352.64 585.049 1344.92 578.8C1340.06 574.86 1333.56 573.77 1327.57 575.899C1326.27 576.363 1324.83 576.109 1323.76 575.245L1321.21 573.179C1319.51 571.803 1319.25 569.316 1320.62 567.617L1345.79 536.536L1258.04 465.474L1237.37 490.989C1244.04 490.351 1250.68 492.309 1256 496.615C1267.11 505.615 1268.82 521.969 1259.83 533.075C1250.84 544.181 1234.48 545.9 1223.37 536.907C1218.09 532.619 1214.8 526.445 1214.03 519.817ZM1262.07 652.486L1177.19 757.313L1202.56 777.864C1201.92 771.027 1203.8 764.262 1207.92 759.166C1216.96 748.009 1233.35 746.255 1244.45 755.249C1255.56 764.242 1257.25 780.637 1248.22 791.794C1243.92 797.103 1237.93 800.466 1231.59 801.367L1264.94 828.374L1310.84 771.693C1312.21 769.994 1314.7 769.733 1316.4 771.108L1318.62 772.906C1319.74 773.811 1320.27 775.262 1320.01 776.688C1318.84 783.176 1321.25 789.733 1326.28 793.811C1333.87 799.957 1345.6 798.584 1351.9 790.807C1358.1 783.15 1356.8 772.165 1348.96 765.812C1344.1 761.879 1337.62 760.787 1331.61 762.903C1330.32 763.367 1328.88 763.12 1327.81 762.256L1325.25 760.182C1323.55 758.806 1323.29 756.319 1324.66 754.62L1349.83 723.548L1316.46 696.526C1316.89 702.924 1314.85 709.472 1310.55 714.782C1301.52 725.939 1285.13 727.692 1274.02 718.699C1262.92 709.706 1261.22 693.311 1270.26 682.154C1274.41 677.024 1280.66 673.789 1287.47 673.051L1262.07 652.486ZM1307.93 595.856L1267.04 646.348L1298.11 671.51C1299.81 672.886 1300.07 675.373 1298.7 677.072L1296.69 679.547C1295.83 680.614 1294.47 681.155 1293.11 680.986C1286.58 680.134 1280.17 682.494 1276.4 687.155C1270.11 694.923 1271.28 706.319 1279 712.568C1286.72 718.817 1298.12 717.58 1304.41 709.811C1308.69 704.527 1309.8 697.851 1307.39 691.95C1306.84 690.618 1307.07 689.078 1307.97 687.96L1309.63 685.911C1311.01 684.213 1313.5 683.951 1315.19 685.327L1354.8 717.401L1400.7 660.72C1402.08 659.021 1404.57 658.76 1406.26 660.135L1408.48 661.933C1409.6 662.838 1410.14 664.281 1409.88 665.706C1408.71 672.194 1411.11 678.76 1416.15 682.838C1423.74 688.984 1435.47 687.602 1441.76 679.834C1447.96 672.177 1446.67 661.192 1438.82 654.839C1434.03 650.961 1427.39 649.848 1421.47 651.938C1420.18 652.394 1418.74 652.147 1417.67 651.283L1415.11 649.209C1413.41 647.833 1413.15 645.346 1414.53 643.647L1439.69 612.575L1351.94 541.513L1331.27 567.028C1337.93 566.383 1344.57 568.341 1349.9 572.654C1361 581.647 1362.72 598.008 1353.73 609.114C1344.74 620.22 1328.38 621.939 1317.27 612.946C1311.99 608.651 1308.7 602.484 1307.93 595.856Z" fill="#656EC5" fill-opacity="0.14"/>
<path d="M257.515 782.438L230.805 727.674L189.953 747.599C193.643 755.163 216.926 768.339 189.691 781.622C162.456 794.906 166.408 768.446 162.719 760.882L121.867 780.807L148.577 835.571C141.053 839.24 114.664 835.163 128.019 862.545C141.375 889.927 154.408 866.622 161.932 862.953L188.642 917.717L229.494 897.792C225.804 890.228 202.521 877.051 229.756 863.768C256.991 850.485 253.039 876.944 256.729 884.509L297.581 864.584L270.87 809.82C278.394 806.15 304.783 810.228 291.428 782.846C278.073 755.464 265.039 778.768 257.515 782.438Z" stroke="#656EC5" stroke-opacity="0.14" stroke-width="3"/>
<path d="M2346.11 710.561L2282.5 734.415C2279.37 735.59 2275.91 734.452 2273.89 731.585C2271.86 728.722 2271.74 724.777 2273.6 721.773C2278.09 714.465 2279.33 705.999 2276.98 698.561C2272.37 683.971 2255.66 676.952 2239.75 682.919C2223.84 688.886 2214.64 705.618 2219.26 720.207C2221.61 727.645 2227.36 733.489 2235.05 736.236C2238.2 737.354 2240.34 740.544 2240.36 744.173C2240.38 747.775 2238.3 750.995 2235.17 752.169L2171.55 776.025C2167.53 777.532 2163.14 775.193 2161.76 770.812L2144.54 716.37C2143.59 713.343 2144.31 709.932 2146.39 707.674C2148.45 705.459 2151.66 704.669 2154.38 705.714C2157.98 707.094 2161.3 707.234 2164.24 706.131C2176.07 701.697 2180.11 679.131 2173.06 656.858C2166.02 634.58 2150.08 619.502 2138.25 623.938C2135.49 624.974 2133.08 627.1 2131.1 630.262C2130.19 632.172 2128.64 633.645 2126.76 634.35C2122.74 635.857 2118.35 633.516 2116.96 629.138L2098.52 570.798C2097.13 566.421 2099.28 561.632 2103.29 560.127L2146.76 543.825C2143.57 540.297 2141.19 536.156 2139.74 531.546C2133.01 510.262 2148.45 485.106 2174.16 475.465C2199.87 465.824 2226.26 475.295 2232.99 496.576C2234.45 501.186 2234.91 506.046 2234.39 510.964L2277.86 494.664C2281.88 493.158 2286.27 495.498 2287.65 499.873L2304.06 551.776C2307.18 548.577 2310.79 546.177 2314.76 544.686C2334.27 537.37 2357.36 554.233 2366.22 582.275C2375.09 610.314 2366.43 639.078 2346.92 646.394C2342.94 647.884 2338.75 648.412 2334.48 647.981L2350.89 699.886C2352.27 704.27 2350.13 709.053 2346.11 710.561ZM2284.58 722.318L2340.93 701.188L2318.85 631.353L2328.72 635.557C2333.9 637.767 2339.09 638.012 2343.72 636.275C2358.11 630.877 2364.05 608.216 2356.95 585.753C2349.85 563.291 2332.35 549.406 2317.96 554.802C2313.33 556.54 2309.38 560.212 2306.55 565.425L2301.14 575.362L2279.06 505.53L2218.51 528.234L2222.79 517.189C2225.07 511.301 2225.39 505.376 2223.71 500.055C2218.74 484.352 2197.95 477.859 2177.36 485.581C2156.76 493.305 2144.05 512.362 2149.01 528.065C2150.69 533.386 2154.29 537.844 2159.42 540.954L2169.04 546.788L2108.48 569.496L2124.92 621.477C2127.77 617.845 2131.17 615.28 2135.06 613.821C2152.49 607.284 2173.26 624.657 2182.34 653.378C2191.42 682.099 2184.88 709.716 2167.44 716.254C2163.55 717.714 2159.42 717.966 2155.12 717.019L2170.34 765.156L2226.69 744.025C2218.71 739.646 2212.75 732.469 2209.97 723.681C2203.6 703.514 2215.51 680.684 2236.55 672.797C2257.58 664.911 2279.88 674.905 2286.25 695.076C2289.03 703.861 2288.39 713.515 2284.58 722.318Z" fill="#656EC5" fill-opacity="0.14"/>
</g>
<defs>
<clipPath id="clip0_336_5414">
<rect width="2329" height="862" fill="white"/>
</clipPath>
</defs>
</svg>
