<svg width="49" height="49" viewBox="0 0 49 49" fill="none" xmlns="http://www.w3.org/2000/svg">
<g clip-path="url(#clip0_104_40756)">
<path d="M46.0161 26.9414C47.7518 24.1908 48.6666 21.0243 48.6666 17.7499C48.6666 8.23831 40.9283 0.5 31.4167 0.5C28.2307 0.5 25.1179 1.37572 22.4149 3.03247C21.9734 3.30303 21.8348 3.88016 22.1055 4.32162C22.3759 4.763 22.9531 4.90166 23.3946 4.631C25.8027 3.15509 28.5768 2.375 31.4168 2.375C39.8945 2.375 46.7917 9.27209 46.7917 17.7499C46.7917 20.8246 45.8873 23.7919 44.1761 26.3309C43.9491 26.6677 43.9685 27.1031 44.2021 27.4157L45.2294 31.2497L41.1059 30.1448C40.8358 30.0724 40.5475 30.1242 40.3197 30.2864C37.7099 32.1434 34.6313 33.1249 31.4168 33.1249C29.5856 33.1249 27.7945 32.805 26.0911 32.1757C24.8919 27.7596 21.4075 24.2751 16.9914 23.076C16.362 21.3726 16.0419 19.5818 16.0419 17.75C16.0419 14.8784 16.8383 12.078 18.3451 9.6515C18.6182 9.21163 18.483 8.63366 18.0431 8.36047C17.6034 8.08738 17.0253 8.22247 16.7521 8.66244C15.0607 11.3863 14.1668 14.5287 14.1668 17.75C14.1668 19.4363 14.4089 21.0921 14.8861 22.6887C14.4643 22.6471 14.0368 22.6253 13.6043 22.6253C6.4706 22.6253 0.666916 28.4291 0.666916 35.5627C0.666916 38.1229 1.40717 40.5806 2.81173 42.6991L1.80842 46.444C1.7217 46.7675 1.81423 47.1127 2.05104 47.3496C2.28785 47.5864 2.63295 47.6788 2.95657 47.5922L6.79423 46.5639C8.83798 47.8317 11.1832 48.5 13.6043 48.5C16.0685 48.5 18.4654 47.8044 20.5359 46.4883C20.9729 46.2105 21.1019 45.6312 20.8242 45.1942C20.5464 44.7572 19.9669 44.6282 19.5301 44.9059C17.7606 46.0306 15.7117 46.625 13.6043 46.625C11.4106 46.625 9.29023 45.9839 7.4727 44.771C7.24835 44.6213 6.97038 44.5753 6.70967 44.6453L4.03967 45.3607L4.73473 42.7667C4.8072 42.4963 4.75498 42.2075 4.59232 41.9796C3.25085 40.0993 2.54182 37.8804 2.54182 35.5625C2.54182 29.4627 7.50448 24.5001 13.6042 24.5001C19.704 24.5001 24.6667 29.4627 24.6667 35.5626C24.6667 36.8652 24.4428 38.1402 24.001 39.352C23.8236 39.8383 24.0742 40.3765 24.5607 40.5538C25.0471 40.7311 25.5853 40.4806 25.7626 39.9942C26.2796 38.576 26.5417 37.085 26.5417 35.5626C26.5417 35.1301 26.52 34.7027 26.4784 34.281C28.0751 34.7581 29.7311 34.9998 31.4168 34.9998C34.8739 34.9998 38.1912 33.9877 41.0399 32.0682L46.3126 33.481C46.6363 33.5677 46.9813 33.4752 47.2182 33.2383C47.455 33.0015 47.5475 32.6563 47.4608 32.3327L46.0161 26.9414Z" fill="#6E76C1"/>
<path d="M36.2492 19.7466H26.7005C26.1827 19.7466 25.763 20.1663 25.763 20.6841C25.763 23.8336 28.3254 26.396 31.4749 26.396C34.6245 26.396 37.1868 23.8336 37.1868 20.6841C37.1868 20.1663 36.7669 19.7466 36.2492 19.7466ZM31.4749 24.5209C29.6826 24.5209 28.1733 23.2855 27.7539 21.6215H35.1961C34.7764 23.2855 33.2672 24.5209 31.4749 24.5209Z" fill="#6E76C1"/>
<path d="M38.7744 14.5457C38.5027 14.1048 37.9251 13.9678 37.4845 14.2393L37.3622 14.3147C36.9218 14.5869 36.7853 15.1646 37.0575 15.605C37.2348 15.8921 37.5418 16.05 37.8559 16.05C38.024 16.05 38.1943 16.0048 38.3478 15.9098L38.4679 15.8357C38.9087 15.5641 39.046 14.9866 38.7744 14.5457Z" fill="#6E76C1"/>
<path d="M25.8933 14.5457C25.6216 14.1048 25.044 13.9678 24.6034 14.2393L24.4812 14.3147C24.0406 14.5869 23.9042 15.1646 24.1765 15.605C24.3538 15.892 24.6607 16.0499 24.9749 16.0499C25.143 16.0499 25.3132 16.0047 25.4668 15.9097L25.5869 15.8356C26.0277 15.564 26.1649 14.9865 25.8933 14.5457Z" fill="#6E76C1"/>
<path d="M9.10999 34.8997C8.93561 34.7253 8.69374 34.625 8.44717 34.625C8.20061 34.625 7.95883 34.7253 7.78436 34.8997C7.60999 35.0741 7.50967 35.3159 7.50967 35.5625C7.50967 35.8091 7.60999 36.0509 7.78436 36.2253C7.95874 36.3997 8.20061 36.5 8.44717 36.5C8.69374 36.5 8.93561 36.3997 9.10999 36.2253C9.28436 36.0509 9.38467 35.8091 9.38467 35.5625C9.38467 35.3159 9.28436 35.0741 9.10999 34.8997Z" fill="#6E76C1"/>
<path d="M14.2662 34.8997C14.0919 34.7253 13.85 34.625 13.6034 34.625C13.3569 34.625 13.1151 34.7253 12.9406 34.8997C12.7662 35.0741 12.6659 35.3159 12.6659 35.5625C12.6659 35.8091 12.7662 36.0509 12.9406 36.2253C13.115 36.3997 13.3569 36.5 13.6034 36.5C13.85 36.5 14.0919 36.3997 14.2662 36.2253C14.4406 36.0509 14.5409 35.8091 14.5409 35.5625C14.5409 35.3159 14.4406 35.0741 14.2662 34.8997Z" fill="#6E76C1"/>
<path d="M19.4233 34.8997C19.2489 34.7253 19.007 34.625 18.7604 34.625C18.5139 34.625 18.2721 34.7253 18.0976 34.8997C17.9232 35.0741 17.8229 35.3159 17.8229 35.5625C17.8229 35.8091 17.9232 36.0509 18.0976 36.2253C18.272 36.3997 18.5139 36.5 18.7604 36.5C19.007 36.5 19.2489 36.3997 19.4233 36.2253C19.5976 36.0509 19.6979 35.8091 19.6979 35.5625C19.6979 35.3159 19.5976 35.0741 19.4233 34.8997Z" fill="#6E76C1"/>
<path d="M23.6197 42.418C23.4453 42.2436 23.2035 42.1433 22.9569 42.1433C22.7094 42.1433 22.4685 42.2436 22.2941 42.418C22.1197 42.5924 22.0194 42.8342 22.0194 43.0808C22.0194 43.3274 22.1197 43.5692 22.2941 43.7436C22.4685 43.918 22.7094 44.0183 22.9569 44.0183C23.2035 44.0183 23.4453 43.918 23.6197 43.7436C23.7941 43.5692 23.8944 43.3274 23.8944 43.0808C23.8944 42.8342 23.7941 42.5924 23.6197 42.418Z" fill="#6E76C1"/>
<path d="M20.5767 5.5218C20.4023 5.34742 20.1604 5.24805 19.9138 5.24805C19.6663 5.24805 19.4254 5.34742 19.251 5.5218C19.0757 5.69711 18.9763 5.93805 18.9763 6.18555C18.9763 6.43211 19.0757 6.67398 19.251 6.84836C19.4254 7.02273 19.6663 7.12211 19.9138 7.12211C20.1604 7.12211 20.4023 7.02273 20.5767 6.84836C20.751 6.67398 20.8513 6.43211 20.8513 6.18555C20.8513 5.93805 20.751 5.69711 20.5767 5.5218Z" fill="#6E76C1"/>
</g>
<defs>
<clipPath id="clip0_104_40756">
<rect width="48" height="48" fill="white" transform="translate(0.666687 0.5)"/>
</clipPath>
</defs>
</svg>
