<svg width="49" height="49" viewBox="0 0 49 49" fill="none" xmlns="http://www.w3.org/2000/svg">
<g clip-path="url(#clip0_104_40784)">
<path d="M44.4644 18.2122C44.2901 18.0378 44.049 17.9375 43.8016 17.9375C43.5551 17.9375 43.3132 18.0378 43.1388 18.2122C42.9645 18.3866 42.8641 18.6284 42.8641 18.875C42.8641 19.1216 42.9644 19.3634 43.1388 19.5378C43.3133 19.7122 43.5551 19.8125 43.8016 19.8125C44.0491 19.8125 44.2901 19.7122 44.4644 19.5378C44.6387 19.3634 44.7391 19.1216 44.7391 18.875C44.7391 18.6284 44.6388 18.3866 44.4644 18.2122Z" fill="#6E76C1"/>
<path d="M43.6145 7.4375H42.5409C42.7068 7.26837 42.8095 7.03691 42.8095 6.78125V5.5625C42.8095 3.80488 41.3796 2.375 39.622 2.375C37.8644 2.375 36.4345 3.80488 36.4345 5.5625V7.4375H27.7403C27.9062 7.26837 28.0089 7.03691 28.0089 6.78125V5.5625C28.0089 3.80488 26.579 2.375 24.8214 2.375C23.0638 2.375 21.6339 3.80488 21.6339 5.5625V7.4375H12.9397C13.1057 7.26837 13.2083 7.03691 13.2083 6.78125V5.5625C13.2083 3.80488 11.7784 2.375 10.0208 2.375C8.26319 2.375 6.83331 3.80488 6.83331 5.5625V7.4375H6.05209C3.17444 7.4375 0.833313 9.77863 0.833313 12.6563V43.8125C0.833313 45.3633 2.095 46.625 3.64581 46.625H19.8333C20.351 46.625 20.7708 46.2053 20.7708 45.6875C20.7708 45.1697 20.351 44.75 19.8333 44.75H3.64581C3.12888 44.75 2.70831 44.3294 2.70831 43.8125V19.8125H39.2089C39.7266 19.8125 40.1464 19.3928 40.1464 18.875C40.1464 18.3572 39.7266 17.9375 39.2089 17.9375H2.70831V12.6563C2.70831 10.8125 4.20831 9.3125 6.05209 9.3125H6.83331V11.5782C6.83331 13.3359 8.26319 14.7657 10.0208 14.7657C11.7784 14.7657 13.2083 13.3359 13.2083 11.5782C13.2083 11.0605 12.7885 10.6407 12.2708 10.6407C11.7531 10.6407 11.3333 11.0605 11.3333 11.5782C11.3333 12.302 10.7446 12.8907 10.0208 12.8907C9.29706 12.8907 8.70831 12.302 8.70831 11.5782V9.3125H21.6339V11.5782C21.6339 13.3359 23.0638 14.7657 24.8214 14.7657C26.579 14.7657 28.0089 13.3359 28.0089 11.5782C28.0089 11.0605 27.5891 10.6407 27.0714 10.6407C26.5537 10.6407 26.1339 11.0605 26.1339 11.5782C26.1339 12.302 25.5452 12.8907 24.8214 12.8907C24.0977 12.8907 23.5089 12.302 23.5089 11.5782V9.3125H36.4345V11.5782C36.4345 13.3359 37.8644 14.7657 39.622 14.7657C41.3796 14.7657 42.8095 13.3359 42.8095 11.5782C42.8095 11.0605 42.3897 10.6407 41.872 10.6407C41.3543 10.6407 40.9345 11.0605 40.9345 11.5782C40.9345 12.302 40.3457 12.8907 39.622 12.8907C38.8983 12.8907 38.3095 12.302 38.3095 11.5782V9.3125H43.6145C45.4583 9.3125 46.9583 10.8125 46.9583 12.6563V43.8125C46.9583 44.3294 46.5378 44.75 46.0208 44.75H29.8333C29.3156 44.75 28.8958 45.1697 28.8958 45.6875C28.8958 46.2053 29.3156 46.625 29.8333 46.625H46.0208C47.5716 46.625 48.8333 45.3633 48.8333 43.8125V12.6563C48.8333 9.77863 46.4922 7.4375 43.6145 7.4375ZM8.70831 7.4375V5.5625C8.70831 4.83875 9.29706 4.25 10.0208 4.25C10.7446 4.25 11.3333 4.83875 11.3333 5.5625V6.78125C11.3333 7.03691 11.436 7.26837 11.6019 7.4375H8.70831ZM23.5089 7.4375V5.5625C23.5089 4.83875 24.0977 4.25 24.8214 4.25C25.5452 4.25 26.1339 4.83875 26.1339 5.5625V6.78125C26.1339 7.03691 26.2366 7.26837 26.4025 7.4375H23.5089ZM38.3095 7.4375V5.5625C38.3095 4.83875 38.8983 4.25 39.622 4.25C40.3457 4.25 40.9345 4.83875 40.9345 5.5625V6.78125C40.9345 7.03691 41.0372 7.26837 41.2031 7.4375H38.3095Z" fill="#6E76C1"/>
<path d="M9.83331 22.8125C7.66216 22.8125 5.89581 24.5788 5.89581 26.75C5.89581 28.9212 7.66216 30.6875 9.83331 30.6875C12.0045 30.6875 13.7708 28.9212 13.7708 26.75C13.7708 24.5788 12.0045 22.8125 9.83331 22.8125ZM9.83331 28.8125C8.69603 28.8125 7.77081 27.8873 7.77081 26.75C7.77081 25.6127 8.69603 24.6875 9.83331 24.6875C10.9706 24.6875 11.8958 25.6127 11.8958 26.75C11.8958 27.8873 10.9706 28.8125 9.83331 28.8125Z" fill="#6E76C1"/>
<path d="M39.8333 22.8125C37.6622 22.8125 35.8958 24.5788 35.8958 26.75C35.8958 28.9212 37.6622 30.6875 39.8333 30.6875C42.0045 30.6875 43.7708 28.9212 43.7708 26.75C43.7708 24.5788 42.0045 22.8125 39.8333 22.8125ZM39.8333 28.8125C38.696 28.8125 37.7708 27.8873 37.7708 26.75C37.7708 25.6127 38.696 24.6875 39.8333 24.6875C40.9706 24.6875 41.8958 25.6127 41.8958 26.75C41.8958 27.8873 40.9706 28.8125 39.8333 28.8125Z" fill="#6E76C1"/>
<path d="M29.8342 22.8125C27.663 22.8125 25.8967 24.5788 25.8967 26.75C25.8967 28.9212 27.663 30.6875 29.8342 30.6875C32.0053 30.6875 33.7717 28.9212 33.7717 26.75C33.7717 24.5788 32.0053 22.8125 29.8342 22.8125ZM29.8342 28.8125C28.6969 28.8125 27.7717 27.8873 27.7717 26.75C27.7717 25.6127 28.6969 24.6875 29.8342 24.6875C30.9714 24.6875 31.8967 25.6127 31.8967 26.75C31.8967 27.8873 30.9714 28.8125 29.8342 28.8125Z" fill="#6E76C1"/>
<path d="M19.8325 22.8125C17.6613 22.8125 15.895 24.5788 15.895 26.75C15.895 28.9212 17.6613 30.6875 19.8325 30.6875C22.0036 30.6875 23.77 28.9212 23.77 26.75C23.77 24.5788 22.0036 22.8125 19.8325 22.8125ZM19.8325 28.8125C18.6952 28.8125 17.77 27.8873 17.77 26.75C17.77 25.6127 18.6952 24.6875 19.8325 24.6875C20.9697 24.6875 21.895 25.6127 21.895 26.75C21.895 27.8873 20.9697 28.8125 19.8325 28.8125Z" fill="#6E76C1"/>
<path d="M9.83331 34.25C7.66216 34.25 5.89581 36.0163 5.89581 38.1875C5.89581 40.3587 7.66216 42.125 9.83331 42.125C12.0045 42.125 13.7708 40.3587 13.7708 38.1875C13.7708 36.0163 12.0045 34.25 9.83331 34.25ZM9.83331 40.25C8.69603 40.25 7.77081 39.3248 7.77081 38.1875C7.77081 37.0502 8.69603 36.125 9.83331 36.125C10.9706 36.125 11.8958 37.0502 11.8958 38.1875C11.8958 39.3248 10.9706 40.25 9.83331 40.25Z" fill="#6E76C1"/>
<path d="M29.8342 34.25C27.663 34.25 25.8967 36.0163 25.8967 38.1875C25.8967 40.3587 27.663 42.125 29.8342 42.125C32.0053 42.125 33.7717 40.3587 33.7717 38.1875C33.7717 36.0163 32.0053 34.25 29.8342 34.25ZM29.8342 40.25C28.6969 40.25 27.7717 39.3248 27.7717 38.1875C27.7717 37.0502 28.6969 36.125 29.8342 36.125C30.9714 36.125 31.8967 37.0502 31.8967 38.1875C31.8967 39.3248 30.9714 40.25 29.8342 40.25Z" fill="#6E76C1"/>
<path d="M39.8333 34.25C37.6622 34.25 35.8958 36.0163 35.8958 38.1875C35.8958 40.3587 37.6622 42.125 39.8333 42.125C42.0045 42.125 43.7708 40.3587 43.7708 38.1875C43.7708 36.0163 42.0045 34.25 39.8333 34.25ZM39.8333 40.25C38.696 40.25 37.7708 39.3248 37.7708 38.1875C37.7708 37.0502 38.696 36.125 39.8333 36.125C40.9706 36.125 41.8958 37.0502 41.8958 38.1875C41.8958 39.3248 40.9706 40.25 39.8333 40.25Z" fill="#6E76C1"/>
<path d="M19.8325 34.25C17.6613 34.25 15.895 36.0163 15.895 38.1875C15.895 40.3587 17.6613 42.125 19.8325 42.125C22.0036 42.125 23.77 40.3587 23.77 38.1875C23.77 36.0163 22.0036 34.25 19.8325 34.25ZM19.8325 40.25C18.6952 40.25 17.77 39.3248 17.77 38.1875C17.77 37.0502 18.6952 36.125 19.8325 36.125C20.9697 36.125 21.895 37.0502 21.895 38.1875C21.895 39.3248 20.9697 40.25 19.8325 40.25Z" fill="#6E76C1"/>
<path d="M25.496 45.0247C25.3218 44.8503 25.0799 44.75 24.8333 44.75C24.5857 44.75 24.3449 44.8503 24.1705 45.0247C23.9952 45.1991 23.8958 45.4409 23.8958 45.6875C23.8958 45.9341 23.9952 46.1759 24.1705 46.3503C24.3449 46.5247 24.5858 46.625 24.8333 46.625C25.0799 46.625 25.3218 46.5247 25.496 46.3503C25.6704 46.1759 25.7708 45.9341 25.7708 45.6875C25.7708 45.4409 25.6705 45.1991 25.496 45.0247Z" fill="#6E76C1"/>
</g>
<defs>
<clipPath id="clip0_104_40784">
<rect width="48" height="48" fill="white" transform="translate(0.833313 0.5)"/>
</clipPath>
</defs>
</svg>
