<svg width="1440" height="350" viewBox="0 0 1440 350" fill="none" xmlns="http://www.w3.org/2000/svg">
<rect width="1440" height="350" rx="5" fill="#8992E4" fill-opacity="0.1"/>
<rect x="0.5" y="0.5" width="1439" height="349" rx="4.5" stroke="#8992E4" stroke-opacity="0.2"/>
<mask id="path-3-inside-1_70_10037" fill="white">
<path d="M1352.35 146.838C1348.7 145.436 1346.91 141.234 1348.35 137.468C1349.02 135.732 1350.3 134.356 1351.94 133.576L1322.51 122.264C1321.94 122.046 1321.66 121.41 1321.88 120.842L1322.16 120.111C1322.3 119.737 1322.64 119.469 1323.03 119.415C1324.86 119.162 1326.39 117.958 1327.03 116.271C1328.02 113.69 1326.73 110.782 1324.15 109.791C1321.58 108.8 1318.67 110.092 1317.68 112.676C1317.06 114.303 1317.33 116.117 1318.4 117.524C1318.64 117.827 1318.7 118.232 1318.56 118.589L1318.23 119.44C1318.01 120.008 1317.38 120.291 1316.81 120.073L1305.4 115.688C1304.84 115.47 1304.55 114.834 1304.77 114.265L1328.85 51.4491C1329.07 50.8809 1329.7 50.5976 1330.27 50.8157L1339.83 54.4919C1339.1 52.7811 1339.04 50.8207 1339.71 49.0705C1341.16 45.2929 1345.2 43.4488 1348.91 44.8748C1352.68 46.3249 1354.59 50.529 1353.17 54.2438C1352.49 56.0169 1351.13 57.4172 1349.44 58.1855L1376.9 68.7404C1376.17 67.0297 1376.1 65.0693 1376.77 63.319C1378.22 59.5415 1382.26 57.6974 1385.97 59.1233C1389.74 60.5734 1391.66 64.7776 1390.23 68.4923C1389.55 70.2655 1388.2 71.6658 1386.51 72.433L1404.4 79.3129C1404.97 79.531 1405.25 80.1671 1405.04 80.7353L1399.56 95.0118C1399.35 95.58 1398.71 95.8632 1398.14 95.6451L1397.46 95.3821C1397.08 95.2374 1396.82 94.8992 1396.77 94.5029C1396.52 92.7426 1395.33 91.2871 1393.56 90.6087C1390.97 89.6113 1388.06 90.9028 1387.07 93.484C1386.08 96.0652 1387.38 98.9766 1389.97 99.974C1391.52 100.569 1393.41 100.249 1394.89 99.1384C1395.19 98.9138 1395.59 98.8571 1395.94 98.993L1396.74 99.2999C1397.31 99.518 1397.59 100.154 1397.37 100.722L1388.32 124.333C1389.98 123.667 1391.89 123.642 1393.66 124.323C1397.39 125.756 1399.26 129.945 1397.83 133.659C1396.41 137.374 1392.22 139.233 1388.49 137.8C1386.78 137.14 1385.39 135.762 1384.61 134.026L1380.96 143.552C1380.74 144.12 1380.1 144.403 1379.54 144.185L1361.72 137.338C1362.42 139.014 1362.47 140.911 1361.81 142.641C1360.39 146.345 1356.06 148.264 1352.35 146.838ZM1344.28 128.275L1354.66 132.265C1355.23 132.483 1355.51 133.119 1355.3 133.687L1355 134.458C1354.86 134.815 1354.55 135.075 1354.17 135.146C1352.43 135.47 1351.03 136.633 1350.4 138.26C1349.39 140.89 1350.62 143.815 1353.14 144.782C1355.73 145.781 1358.76 144.439 1359.75 141.855C1360.4 140.17 1360.07 138.257 1358.88 136.854C1358.62 136.551 1358.55 136.123 1358.69 135.749L1358.94 135.089C1359.16 134.521 1359.8 134.238 1360.36 134.456L1379.3 141.734L1383.28 131.34C1383.5 130.772 1384.13 130.489 1384.7 130.707L1385.53 131.025C1385.88 131.162 1386.14 131.475 1386.21 131.852C1386.55 133.655 1387.73 135.146 1389.28 135.744C1391.88 136.742 1394.79 135.453 1395.78 132.869C1396.77 130.285 1395.47 127.377 1392.87 126.379C1391.11 125.701 1389.25 125.981 1387.89 127.125C1387.59 127.385 1387.16 127.46 1386.79 127.316L1386.1 127.053C1385.54 126.835 1385.25 126.199 1385.47 125.631L1390.55 112.382L1355.54 98.9229L1351.26 110.084C1352.91 109.407 1354.8 109.386 1356.6 110.078C1360.32 111.508 1362.2 115.697 1360.77 119.412C1359.35 123.127 1355.16 124.986 1351.44 123.555C1349.72 122.894 1348.32 121.52 1347.54 119.789L1344.28 128.275ZM1325.37 121.004L1342.23 127.487L1346.22 117.094C1346.44 116.526 1347.07 116.242 1347.64 116.461L1348.45 116.773C1348.81 116.91 1349.07 117.223 1349.14 117.601C1349.48 119.404 1350.66 120.897 1352.23 121.5C1354.82 122.496 1357.73 121.207 1358.72 118.623C1359.71 116.039 1358.41 113.13 1355.82 112.135C1354.06 111.46 1352.2 111.739 1350.83 112.885C1350.53 113.142 1350.1 113.215 1349.73 113.071L1349.04 112.805C1348.47 112.587 1348.19 111.95 1348.41 111.382L1353.48 98.1337L1334.55 90.856C1333.98 90.6379 1333.7 90.0017 1333.92 89.4335L1334.2 88.7026C1334.34 88.3285 1334.68 88.0608 1335.07 88.007C1336.9 87.7537 1338.43 86.5474 1339.07 84.8628C1340.06 82.2816 1338.77 79.3734 1336.19 78.3826C1333.61 77.3918 1330.71 78.6866 1329.72 81.2678C1329.1 82.8953 1329.37 84.7091 1330.44 86.1128C1330.68 86.4157 1330.74 86.821 1330.6 87.1779L1330.27 88.0317C1330.05 88.5999 1329.42 88.8831 1328.85 88.665L1318.47 84.6743L1307.22 114.027L1315.74 117.303C1315 115.593 1314.95 113.666 1315.63 111.887C1317.05 108.169 1321.23 106.309 1324.94 107.735C1328.65 109.161 1330.51 113.345 1329.09 117.06C1328.41 118.826 1327.06 120.231 1325.37 121.004ZM1356.32 96.8671L1391.34 110.326L1394.59 101.838C1392.84 102.596 1390.89 102.681 1389.19 102.027C1385.46 100.594 1383.59 96.4056 1385.01 92.6909C1386.44 88.9762 1390.63 87.1175 1394.35 88.55C1396.13 89.2318 1397.53 90.5281 1398.31 92.1297L1402.59 80.9741L1383.66 73.6964C1383.09 73.4782 1382.81 72.8421 1383.02 72.2739L1383.31 71.5315C1383.45 71.1575 1383.79 70.8909 1384.19 70.8381C1386.01 70.5895 1387.53 69.3878 1388.18 67.7032C1389.15 65.1648 1387.78 62.1777 1385.18 61.1792C1382.63 60.196 1379.83 61.4842 1378.83 64.1082C1378.2 65.7328 1378.47 67.5427 1379.55 68.9521C1379.78 69.255 1379.84 69.6574 1379.7 70.0144L1379.37 70.8709C1379.16 71.4391 1378.52 71.7224 1377.95 71.5043L1367.58 67.5147L1363.3 78.676C1364.95 78.0116 1366.86 77.9877 1368.63 78.6694C1372.36 80.102 1374.23 84.2908 1372.81 88.0055C1371.38 91.7203 1367.19 93.5789 1363.47 92.1464C1361.75 91.4877 1360.36 90.1105 1359.58 88.3726L1356.32 96.8671ZM1337.41 89.5959L1354.27 96.079L1358.26 85.6857C1358.48 85.1175 1359.11 84.8343 1359.68 85.0524L1360.51 85.3703C1360.86 85.5073 1361.12 85.82 1361.19 86.195C1361.53 87.9982 1362.7 89.4915 1364.26 90.0899C1366.86 91.0873 1369.77 89.7958 1370.76 87.2146C1371.75 84.6334 1370.44 81.7198 1367.85 80.7224C1366.08 80.0439 1364.22 80.3245 1362.87 81.472C1362.56 81.7313 1362.13 81.8032 1361.76 81.6596L1361.08 81.3965C1360.51 81.1784 1360.23 80.5423 1360.44 79.9741L1365.52 66.7255L1346.59 59.4478C1346.02 59.2297 1345.74 58.5935 1345.96 58.0253L1346.24 57.2829C1346.39 56.9089 1346.72 56.6412 1347.12 56.5885C1348.94 56.3398 1350.47 55.1392 1351.11 53.4546C1352.09 50.9163 1350.71 47.928 1348.12 46.9306C1345.56 45.9474 1342.77 47.2356 1341.76 49.8596C1341.15 51.4614 1341.42 53.3172 1342.48 54.7047C1342.72 55.0064 1342.77 55.4089 1342.64 55.7658L1342.31 56.6224C1342.09 57.1906 1341.46 57.4738 1340.89 57.2557L1330.51 53.2661L1319.26 82.6185L1327.78 85.8946C1327.04 84.1874 1326.99 82.2603 1327.67 80.4786C1329.09 76.7639 1333.27 74.9009 1336.98 76.3268C1340.69 77.7528 1342.55 81.9372 1341.13 85.652C1340.44 87.4211 1339.1 88.8225 1337.41 89.5959Z"/>
</mask>
<path d="M1352.35 146.838C1348.7 145.436 1346.91 141.234 1348.35 137.468C1349.02 135.732 1350.3 134.356 1351.94 133.576L1322.51 122.264C1321.94 122.046 1321.66 121.41 1321.88 120.842L1322.16 120.111C1322.3 119.737 1322.64 119.469 1323.03 119.415C1324.86 119.162 1326.39 117.958 1327.03 116.271C1328.02 113.69 1326.73 110.782 1324.15 109.791C1321.58 108.8 1318.67 110.092 1317.68 112.676C1317.06 114.303 1317.33 116.117 1318.4 117.524C1318.64 117.827 1318.7 118.232 1318.56 118.589L1318.23 119.44C1318.01 120.008 1317.38 120.291 1316.81 120.073L1305.4 115.688C1304.84 115.47 1304.55 114.834 1304.77 114.265L1328.85 51.4491C1329.07 50.8809 1329.7 50.5976 1330.27 50.8157L1339.83 54.4919C1339.1 52.7811 1339.04 50.8207 1339.71 49.0705C1341.16 45.2929 1345.2 43.4488 1348.91 44.8748C1352.68 46.3249 1354.59 50.529 1353.17 54.2438C1352.49 56.0169 1351.13 57.4172 1349.44 58.1855L1376.9 68.7404C1376.17 67.0297 1376.1 65.0693 1376.77 63.319C1378.22 59.5415 1382.26 57.6974 1385.97 59.1233C1389.74 60.5734 1391.66 64.7776 1390.23 68.4923C1389.55 70.2655 1388.2 71.6658 1386.51 72.433L1404.4 79.3129C1404.97 79.531 1405.25 80.1671 1405.04 80.7353L1399.56 95.0118C1399.35 95.58 1398.71 95.8632 1398.14 95.6451L1397.46 95.3821C1397.08 95.2374 1396.82 94.8992 1396.77 94.5029C1396.52 92.7426 1395.33 91.2871 1393.56 90.6087C1390.97 89.6113 1388.06 90.9028 1387.07 93.484C1386.08 96.0652 1387.38 98.9766 1389.97 99.974C1391.52 100.569 1393.41 100.249 1394.89 99.1384C1395.19 98.9138 1395.59 98.8571 1395.94 98.993L1396.74 99.2999C1397.31 99.518 1397.59 100.154 1397.37 100.722L1388.32 124.333C1389.98 123.667 1391.89 123.642 1393.66 124.323C1397.39 125.756 1399.26 129.945 1397.83 133.659C1396.41 137.374 1392.22 139.233 1388.49 137.8C1386.78 137.14 1385.39 135.762 1384.61 134.026L1380.96 143.552C1380.74 144.12 1380.1 144.403 1379.54 144.185L1361.72 137.338C1362.42 139.014 1362.47 140.911 1361.81 142.641C1360.39 146.345 1356.06 148.264 1352.35 146.838ZM1344.28 128.275L1354.66 132.265C1355.23 132.483 1355.51 133.119 1355.3 133.687L1355 134.458C1354.86 134.815 1354.55 135.075 1354.17 135.146C1352.43 135.47 1351.03 136.633 1350.4 138.26C1349.39 140.89 1350.62 143.815 1353.14 144.782C1355.73 145.781 1358.76 144.439 1359.75 141.855C1360.4 140.17 1360.07 138.257 1358.88 136.854C1358.62 136.551 1358.55 136.123 1358.69 135.749L1358.94 135.089C1359.16 134.521 1359.8 134.238 1360.36 134.456L1379.3 141.734L1383.28 131.34C1383.5 130.772 1384.13 130.489 1384.7 130.707L1385.53 131.025C1385.88 131.162 1386.14 131.475 1386.21 131.852C1386.55 133.655 1387.73 135.146 1389.28 135.744C1391.88 136.742 1394.79 135.453 1395.78 132.869C1396.77 130.285 1395.47 127.377 1392.87 126.379C1391.11 125.701 1389.25 125.981 1387.89 127.125C1387.59 127.385 1387.16 127.46 1386.79 127.316L1386.1 127.053C1385.54 126.835 1385.25 126.199 1385.47 125.631L1390.55 112.382L1355.54 98.9229L1351.26 110.084C1352.91 109.407 1354.8 109.386 1356.6 110.078C1360.32 111.508 1362.2 115.697 1360.77 119.412C1359.35 123.127 1355.16 124.986 1351.44 123.555C1349.72 122.894 1348.32 121.52 1347.54 119.789L1344.28 128.275ZM1325.37 121.004L1342.23 127.487L1346.22 117.094C1346.44 116.526 1347.07 116.242 1347.64 116.461L1348.45 116.773C1348.81 116.91 1349.07 117.223 1349.14 117.601C1349.48 119.404 1350.66 120.897 1352.23 121.5C1354.82 122.496 1357.73 121.207 1358.72 118.623C1359.71 116.039 1358.41 113.13 1355.82 112.135C1354.06 111.46 1352.2 111.739 1350.83 112.885C1350.53 113.142 1350.1 113.215 1349.73 113.071L1349.04 112.805C1348.47 112.587 1348.19 111.95 1348.41 111.382L1353.48 98.1337L1334.55 90.856C1333.98 90.6379 1333.7 90.0017 1333.92 89.4335L1334.2 88.7026C1334.34 88.3285 1334.68 88.0608 1335.07 88.007C1336.9 87.7537 1338.43 86.5474 1339.07 84.8628C1340.06 82.2816 1338.77 79.3734 1336.19 78.3826C1333.61 77.3918 1330.71 78.6866 1329.72 81.2678C1329.1 82.8953 1329.37 84.7091 1330.44 86.1128C1330.68 86.4157 1330.74 86.821 1330.6 87.1779L1330.27 88.0317C1330.05 88.5999 1329.42 88.8831 1328.85 88.665L1318.47 84.6743L1307.22 114.027L1315.74 117.303C1315 115.593 1314.95 113.666 1315.63 111.887C1317.05 108.169 1321.23 106.309 1324.94 107.735C1328.65 109.161 1330.51 113.345 1329.09 117.06C1328.41 118.826 1327.06 120.231 1325.37 121.004ZM1356.32 96.8671L1391.34 110.326L1394.59 101.838C1392.84 102.596 1390.89 102.681 1389.19 102.027C1385.46 100.594 1383.59 96.4056 1385.01 92.6909C1386.44 88.9762 1390.63 87.1175 1394.35 88.55C1396.13 89.2318 1397.53 90.5281 1398.31 92.1297L1402.59 80.9741L1383.66 73.6964C1383.09 73.4782 1382.81 72.8421 1383.02 72.2739L1383.31 71.5315C1383.45 71.1575 1383.79 70.8909 1384.19 70.8381C1386.01 70.5895 1387.53 69.3878 1388.18 67.7032C1389.15 65.1648 1387.78 62.1777 1385.18 61.1792C1382.63 60.196 1379.83 61.4842 1378.83 64.1082C1378.2 65.7328 1378.47 67.5427 1379.55 68.9521C1379.78 69.255 1379.84 69.6574 1379.7 70.0144L1379.37 70.8709C1379.16 71.4391 1378.52 71.7224 1377.95 71.5043L1367.58 67.5147L1363.3 78.676C1364.95 78.0116 1366.86 77.9877 1368.63 78.6694C1372.36 80.102 1374.23 84.2908 1372.81 88.0055C1371.38 91.7203 1367.19 93.5789 1363.47 92.1464C1361.75 91.4877 1360.36 90.1105 1359.58 88.3726L1356.32 96.8671ZM1337.41 89.5959L1354.27 96.079L1358.26 85.6857C1358.48 85.1175 1359.11 84.8343 1359.68 85.0524L1360.51 85.3703C1360.86 85.5073 1361.12 85.82 1361.19 86.195C1361.53 87.9982 1362.7 89.4915 1364.26 90.0899C1366.86 91.0873 1369.77 89.7958 1370.76 87.2146C1371.75 84.6334 1370.44 81.7198 1367.85 80.7224C1366.08 80.0439 1364.22 80.3245 1362.87 81.472C1362.56 81.7313 1362.13 81.8032 1361.76 81.6596L1361.08 81.3965C1360.51 81.1784 1360.23 80.5423 1360.44 79.9741L1365.52 66.7255L1346.59 59.4478C1346.02 59.2297 1345.74 58.5935 1345.96 58.0253L1346.24 57.2829C1346.39 56.9089 1346.72 56.6412 1347.12 56.5885C1348.94 56.3398 1350.47 55.1392 1351.11 53.4546C1352.09 50.9163 1350.71 47.928 1348.12 46.9306C1345.56 45.9474 1342.77 47.2356 1341.76 49.8596C1341.15 51.4614 1341.42 53.3172 1342.48 54.7047C1342.72 55.0064 1342.77 55.4089 1342.64 55.7658L1342.31 56.6224C1342.09 57.1906 1341.46 57.4738 1340.89 57.2557L1330.51 53.2661L1319.26 82.6185L1327.78 85.8946C1327.04 84.1874 1326.99 82.2603 1327.67 80.4786C1329.09 76.7639 1333.27 74.9009 1336.98 76.3268C1340.69 77.7528 1342.55 81.9372 1341.13 85.652C1340.44 87.4211 1339.1 88.8225 1337.41 89.5959Z" fill="#8992E4" fill-opacity="0.4" stroke="#8992E4" stroke-opacity="0.4" stroke-width="2" mask="url(#path-3-inside-1_70_10037)"/>
<mask id="path-4-inside-2_70_10037" fill="white">
<path d="M165.172 170.922C167.683 173.915 167.218 178.461 164.131 181.056C162.708 182.253 160.916 182.833 159.106 182.722L179.372 206.873C179.762 207.339 179.702 208.033 179.236 208.424L178.637 208.928C178.33 209.186 177.907 209.258 177.534 209.113C175.818 208.452 173.896 208.763 172.513 209.926C170.397 211.705 170.119 214.876 171.894 216.991C173.669 219.106 176.835 219.382 178.953 217.601C180.287 216.48 180.929 214.762 180.669 213.01C180.611 212.632 180.757 212.25 181.05 212.004L181.747 211.417C182.213 211.026 182.906 211.085 183.297 211.551L191.152 220.913C191.543 221.379 191.482 222.073 191.017 222.464L139.523 265.756C139.058 266.147 138.365 266.087 137.974 265.622L131.388 257.773C131.202 259.626 130.308 261.371 128.873 262.578C125.777 265.181 121.349 264.837 118.794 261.793C116.196 258.697 116.56 254.093 119.606 251.533C121.059 250.311 122.92 249.74 124.772 249.887L105.863 227.353C105.677 229.206 104.783 230.951 103.348 232.158C100.251 234.761 95.8233 234.417 93.2688 231.373C90.6711 228.277 91.0351 223.673 94.0802 221.113C95.5337 219.891 97.3942 219.32 99.2481 219.47L86.9232 204.782C86.5325 204.316 86.5932 203.622 87.059 203.231L98.762 193.392C99.2278 193 99.9207 193.06 100.311 193.526L100.783 194.087C101.042 194.396 101.111 194.821 100.964 195.193C100.322 196.849 100.663 198.702 101.878 200.15C103.665 202.28 106.839 202.561 108.955 200.782C111.07 199.003 111.342 195.825 109.555 193.696C108.489 192.425 106.684 191.792 104.849 192.045C104.476 192.096 104.101 191.952 103.857 191.662L103.307 191.007C102.917 190.541 102.977 189.848 103.443 189.456L122.798 173.185C121.03 172.967 119.346 172.064 118.125 170.608C115.559 167.55 115.95 162.979 118.995 160.418C122.04 157.858 126.606 158.262 129.173 161.32C130.355 162.729 130.901 164.608 130.744 166.504L138.552 159.939C139.018 159.548 139.711 159.608 140.102 160.073L152.368 174.691C152.571 172.888 153.445 171.204 154.863 170.011C157.899 167.459 162.618 167.878 165.172 170.922ZM163.235 191.068L156.088 182.55C155.697 182.085 155.758 181.391 156.224 180.999L156.856 180.468C157.148 180.222 157.547 180.146 157.912 180.267C159.591 180.826 161.385 180.491 162.72 179.369C164.875 177.557 165.219 174.403 163.487 172.339C161.698 170.207 158.398 169.913 156.279 171.694C154.898 172.855 154.263 174.69 154.621 176.492C154.702 176.883 154.56 177.294 154.253 177.552L153.712 178.007C153.247 178.398 152.554 178.338 152.163 177.873L139.125 162.335L130.605 169.498C130.14 169.889 129.447 169.829 129.056 169.364L128.487 168.685C128.241 168.393 128.166 167.993 128.286 167.628C128.868 165.89 128.559 164.015 127.487 162.737C125.7 160.608 122.529 160.325 120.411 162.106C118.293 163.886 118.023 167.062 119.81 169.191C121.026 170.64 122.789 171.296 124.528 170.951C124.919 170.87 125.33 171.012 125.587 171.319L126.058 171.88C126.449 172.346 126.388 173.039 125.922 173.431L115.062 182.562L139.174 211.297L148.323 203.605C146.546 203.395 144.883 202.498 143.644 201.021C141.082 197.967 141.474 193.396 144.519 190.836C147.564 188.276 152.128 188.677 154.692 191.733C155.876 193.144 156.429 195.022 156.279 196.916L163.235 191.068ZM176.261 206.591L164.647 192.75L156.127 199.913C155.661 200.305 154.968 200.245 154.577 199.779L154.018 199.112C153.772 198.82 153.697 198.42 153.818 198.055C154.397 196.315 154.085 194.435 153.005 193.148C151.222 191.023 148.051 190.74 145.932 192.521C143.814 194.302 143.545 197.477 145.328 199.602C146.537 201.043 148.303 201.702 150.052 201.36C150.443 201.284 150.849 201.425 151.106 201.732L151.583 202.3C151.974 202.766 151.913 203.459 151.448 203.851L140.587 212.982L153.625 228.519C154.016 228.985 153.955 229.678 153.489 230.07L152.89 230.574C152.583 230.831 152.161 230.903 151.787 230.758C150.072 230.098 148.147 230.411 146.766 231.572C144.65 233.351 144.372 236.521 146.147 238.637C147.922 240.752 151.09 241.026 153.206 239.247C154.54 238.125 155.183 236.408 154.92 234.658C154.862 234.279 155.008 233.897 155.301 233.651L156 233.063C156.466 232.671 157.159 232.731 157.55 233.197L164.699 241.717L188.76 221.488L182.891 214.494C182.712 216.349 181.825 218.06 180.366 219.286C177.319 221.848 172.763 221.452 170.209 218.408C167.654 215.363 168.054 210.802 171.099 208.241C172.55 207.026 174.41 206.451 176.261 206.591ZM137.488 212.714L113.377 183.978L106.418 189.829C108.319 190.015 110.066 190.884 111.238 192.281C113.805 195.339 113.413 199.911 110.368 202.471C107.323 205.031 102.757 204.627 100.191 201.569C98.9693 200.114 98.3692 198.299 98.46 196.519L89.3153 204.207L102.353 219.745C102.744 220.21 102.683 220.904 102.217 221.296L101.609 221.807C101.302 222.065 100.877 222.135 100.502 221.987C98.7929 221.325 96.8749 221.637 95.4939 222.798C93.4131 224.547 93.1653 227.824 94.954 229.956C96.7152 232.055 99.7832 232.281 101.934 230.473C103.266 229.353 103.908 227.64 103.65 225.886C103.592 225.507 103.736 225.127 104.028 224.881L104.73 224.291C105.196 223.899 105.889 223.959 106.28 224.425L113.427 232.942L122.576 225.25C120.807 225.03 119.127 224.127 117.906 222.672C115.34 219.613 115.731 215.042 118.776 212.482C121.821 209.922 126.387 210.326 128.954 213.384C130.134 214.79 130.685 216.67 130.525 218.568L137.488 212.714ZM150.514 228.237L138.9 214.396L130.38 221.559C129.915 221.95 129.222 221.89 128.831 221.425L128.261 220.746C128.016 220.454 127.94 220.054 128.059 219.691C128.638 217.951 128.334 216.076 127.262 214.798C125.475 212.669 122.302 212.388 120.186 214.167C118.07 215.945 117.802 219.128 119.589 221.257C120.804 222.705 122.568 223.362 124.307 223.013C124.7 222.934 125.108 223.078 125.366 223.384L125.837 223.946C126.228 224.411 126.167 225.105 125.701 225.497L114.841 234.627L127.878 250.165C128.269 250.63 128.208 251.324 127.743 251.716L127.134 252.227C126.827 252.485 126.405 252.557 126.03 252.409C124.32 251.747 122.4 252.057 121.019 253.218C118.939 254.967 118.693 258.246 120.479 260.376C122.241 262.475 125.309 262.701 127.46 260.893C128.773 259.789 129.43 258.031 129.173 256.303C129.117 255.927 129.261 255.547 129.554 255.301L130.256 254.711C130.722 254.319 131.415 254.379 131.805 254.845L138.952 263.362L163.014 243.134L157.145 236.139C156.967 237.992 156.08 239.704 154.62 240.932C151.575 243.492 147.017 243.098 144.462 240.053C141.908 237.009 142.307 232.447 145.352 229.887C146.805 228.669 148.664 228.097 150.514 228.237Z"/>
</mask>
<path d="M165.172 170.922C167.683 173.915 167.218 178.461 164.131 181.056C162.708 182.253 160.916 182.833 159.106 182.722L179.372 206.873C179.762 207.339 179.702 208.033 179.236 208.424L178.637 208.928C178.33 209.186 177.907 209.258 177.534 209.113C175.818 208.452 173.896 208.763 172.513 209.926C170.397 211.705 170.119 214.876 171.894 216.991C173.669 219.106 176.835 219.382 178.953 217.601C180.287 216.48 180.929 214.762 180.669 213.01C180.611 212.632 180.757 212.25 181.05 212.004L181.747 211.417C182.213 211.026 182.906 211.085 183.297 211.551L191.152 220.913C191.543 221.379 191.482 222.073 191.017 222.464L139.523 265.756C139.058 266.147 138.365 266.087 137.974 265.622L131.388 257.773C131.202 259.626 130.308 261.371 128.873 262.578C125.777 265.181 121.349 264.837 118.794 261.793C116.196 258.697 116.56 254.093 119.606 251.533C121.059 250.311 122.92 249.74 124.772 249.887L105.863 227.353C105.677 229.206 104.783 230.951 103.348 232.158C100.251 234.761 95.8233 234.417 93.2688 231.373C90.6711 228.277 91.0351 223.673 94.0802 221.113C95.5337 219.891 97.3942 219.32 99.2481 219.47L86.9232 204.782C86.5325 204.316 86.5932 203.622 87.059 203.231L98.762 193.392C99.2278 193 99.9207 193.06 100.311 193.526L100.783 194.087C101.042 194.396 101.111 194.821 100.964 195.193C100.322 196.849 100.663 198.702 101.878 200.15C103.665 202.28 106.839 202.561 108.955 200.782C111.07 199.003 111.342 195.825 109.555 193.696C108.489 192.425 106.684 191.792 104.849 192.045C104.476 192.096 104.101 191.952 103.857 191.662L103.307 191.007C102.917 190.541 102.977 189.848 103.443 189.456L122.798 173.185C121.03 172.967 119.346 172.064 118.125 170.608C115.559 167.55 115.95 162.979 118.995 160.418C122.04 157.858 126.606 158.262 129.173 161.32C130.355 162.729 130.901 164.608 130.744 166.504L138.552 159.939C139.018 159.548 139.711 159.608 140.102 160.073L152.368 174.691C152.571 172.888 153.445 171.204 154.863 170.011C157.899 167.459 162.618 167.878 165.172 170.922ZM163.235 191.068L156.088 182.55C155.697 182.085 155.758 181.391 156.224 180.999L156.856 180.468C157.148 180.222 157.547 180.146 157.912 180.267C159.591 180.826 161.385 180.491 162.72 179.369C164.875 177.557 165.219 174.403 163.487 172.339C161.698 170.207 158.398 169.913 156.279 171.694C154.898 172.855 154.263 174.69 154.621 176.492C154.702 176.883 154.56 177.294 154.253 177.552L153.712 178.007C153.247 178.398 152.554 178.338 152.163 177.873L139.125 162.335L130.605 169.498C130.14 169.889 129.447 169.829 129.056 169.364L128.487 168.685C128.241 168.393 128.166 167.993 128.286 167.628C128.868 165.89 128.559 164.015 127.487 162.737C125.7 160.608 122.529 160.325 120.411 162.106C118.293 163.886 118.023 167.062 119.81 169.191C121.026 170.64 122.789 171.296 124.528 170.951C124.919 170.87 125.33 171.012 125.587 171.319L126.058 171.88C126.449 172.346 126.388 173.039 125.922 173.431L115.062 182.562L139.174 211.297L148.323 203.605C146.546 203.395 144.883 202.498 143.644 201.021C141.082 197.967 141.474 193.396 144.519 190.836C147.564 188.276 152.128 188.677 154.692 191.733C155.876 193.144 156.429 195.022 156.279 196.916L163.235 191.068ZM176.261 206.591L164.647 192.75L156.127 199.913C155.661 200.305 154.968 200.245 154.577 199.779L154.018 199.112C153.772 198.82 153.697 198.42 153.818 198.055C154.397 196.315 154.085 194.435 153.005 193.148C151.222 191.023 148.051 190.74 145.932 192.521C143.814 194.302 143.545 197.477 145.328 199.602C146.537 201.043 148.303 201.702 150.052 201.36C150.443 201.284 150.849 201.425 151.106 201.732L151.583 202.3C151.974 202.766 151.913 203.459 151.448 203.851L140.587 212.982L153.625 228.519C154.016 228.985 153.955 229.678 153.489 230.07L152.89 230.574C152.583 230.831 152.161 230.903 151.787 230.758C150.072 230.098 148.147 230.411 146.766 231.572C144.65 233.351 144.372 236.521 146.147 238.637C147.922 240.752 151.09 241.026 153.206 239.247C154.54 238.125 155.183 236.408 154.92 234.658C154.862 234.279 155.008 233.897 155.301 233.651L156 233.063C156.466 232.671 157.159 232.731 157.55 233.197L164.699 241.717L188.76 221.488L182.891 214.494C182.712 216.349 181.825 218.06 180.366 219.286C177.319 221.848 172.763 221.452 170.209 218.408C167.654 215.363 168.054 210.802 171.099 208.241C172.55 207.026 174.41 206.451 176.261 206.591ZM137.488 212.714L113.377 183.978L106.418 189.829C108.319 190.015 110.066 190.884 111.238 192.281C113.805 195.339 113.413 199.911 110.368 202.471C107.323 205.031 102.757 204.627 100.191 201.569C98.9693 200.114 98.3692 198.299 98.46 196.519L89.3153 204.207L102.353 219.745C102.744 220.21 102.683 220.904 102.217 221.296L101.609 221.807C101.302 222.065 100.877 222.135 100.502 221.987C98.7929 221.325 96.8749 221.637 95.4939 222.798C93.4131 224.547 93.1653 227.824 94.954 229.956C96.7152 232.055 99.7832 232.281 101.934 230.473C103.266 229.353 103.908 227.64 103.65 225.886C103.592 225.507 103.736 225.127 104.028 224.881L104.73 224.291C105.196 223.899 105.889 223.959 106.28 224.425L113.427 232.942L122.576 225.25C120.807 225.03 119.127 224.127 117.906 222.672C115.34 219.613 115.731 215.042 118.776 212.482C121.821 209.922 126.387 210.326 128.954 213.384C130.134 214.79 130.685 216.67 130.525 218.568L137.488 212.714ZM150.514 228.237L138.9 214.396L130.38 221.559C129.915 221.95 129.222 221.89 128.831 221.425L128.261 220.746C128.016 220.454 127.94 220.054 128.059 219.691C128.638 217.951 128.334 216.076 127.262 214.798C125.475 212.669 122.302 212.388 120.186 214.167C118.07 215.945 117.802 219.128 119.589 221.257C120.804 222.705 122.568 223.362 124.307 223.013C124.7 222.934 125.108 223.078 125.366 223.384L125.837 223.946C126.228 224.411 126.167 225.105 125.701 225.497L114.841 234.627L127.878 250.165C128.269 250.63 128.208 251.324 127.743 251.716L127.134 252.227C126.827 252.485 126.405 252.557 126.03 252.409C124.32 251.747 122.4 252.057 121.019 253.218C118.939 254.967 118.693 258.246 120.479 260.376C122.241 262.475 125.309 262.701 127.46 260.893C128.773 259.789 129.43 258.031 129.173 256.303C129.117 255.927 129.261 255.547 129.554 255.301L130.256 254.711C130.722 254.319 131.415 254.379 131.805 254.845L138.952 263.362L163.014 243.134L157.145 236.139C156.967 237.992 156.08 239.704 154.62 240.932C151.575 243.492 147.017 243.098 144.462 240.053C141.908 237.009 142.307 232.447 145.352 229.887C146.805 228.669 148.664 228.097 150.514 228.237Z" fill="#8992E4" fill-opacity="0.4" stroke="#8992E4" stroke-opacity="0.4" stroke-width="2" mask="url(#path-4-inside-2_70_10037)"/>
<path d="M1331.05 235.079L1336.21 210.821L1318.11 206.975C1317.4 210.325 1321.57 220.386 1309.5 217.822C1297.44 215.258 1305.34 207.761 1306.05 204.411L1287.95 200.564L1282.8 224.822C1279.47 224.114 1272.02 216.194 1269.45 228.323C1266.87 240.452 1276.89 236.243 1280.22 236.951L1275.06 261.209L1293.16 265.056C1293.87 261.705 1289.71 251.645 1301.77 254.209C1313.83 256.773 1305.94 264.269 1305.22 267.62L1323.32 271.466L1328.48 247.208C1331.81 247.917 1339.25 255.837 1341.83 243.708C1344.41 231.579 1334.39 235.788 1331.05 235.079Z" fill="#8992E4" fill-opacity="0.4" stroke="#8992E4" stroke-opacity="0.4" stroke-width="3"/>
<path d="M101.531 57.0348L85.924 37.7616L71.5468 49.404C73.7025 52.0662 84.1428 55.1598 74.558 62.9215C64.9732 70.6831 64.1177 59.8278 61.962 57.1657L47.5848 68.8081L63.1919 88.0813C60.5441 90.2254 49.7054 91.0246 57.5089 100.661C65.3125 110.298 68.3477 99.8621 70.9955 97.7179L86.6027 116.991L100.98 105.349C98.8241 102.687 88.3839 99.5929 97.9687 91.8313C107.553 84.0697 108.409 94.925 110.565 97.5871L124.942 85.9447L109.335 66.6714C111.983 64.5273 122.821 63.7281 115.018 54.0915C107.214 44.4549 104.179 54.8907 101.531 57.0348Z" fill="#8992E4" fill-opacity="0.4" stroke="#8992E4" stroke-opacity="0.4" stroke-width="3"/>
</svg>
