<svg width="48" height="49" viewBox="0 0 48 49" fill="none" xmlns="http://www.w3.org/2000/svg">
<g clip-path="url(#clip0_104_40740)">
<path d="M33.2982 37.5002C32.9797 37.1695 32.3919 37.0746 31.9598 37.488C31.9568 37.4909 31.9537 37.4939 31.9506 37.4969C31.5242 37.9163 31.6013 38.5067 31.9222 38.8352C32.0926 39.0098 32.3385 39.1173 32.5961 39.1173C32.8234 39.1173 33.0596 39.0336 33.2608 38.8383C33.6901 38.422 33.6171 37.8309 33.2982 37.5002Z" fill="#6E76C1"/>
<path d="M41.7865 19.4524C41.6065 18.9668 41.0674 18.7192 40.5819 18.8989C40.0964 19.0787 39.8486 19.6179 40.0285 20.1035C40.8377 22.2882 41.248 24.5885 41.248 26.9404C41.248 37.7945 32.4174 46.625 21.5633 46.625C17.5356 46.625 13.6639 45.4173 10.3662 43.1325C9.94086 42.8376 9.3567 42.9435 9.06186 43.3691C8.76692 43.7946 8.87286 44.3786 9.29849 44.6734C12.9112 47.1767 17.1523 48.4997 21.5634 48.4997C27.3222 48.4997 32.7361 46.2572 36.8082 42.185C40.8803 38.113 43.1229 32.699 43.1229 26.9403C43.1227 24.3655 42.673 21.8462 41.7865 19.4524Z" fill="#6E76C1"/>
<path d="M28.8234 6.63377C26.4977 5.80221 24.0553 5.38062 21.5636 5.38062C15.8048 5.38062 10.3909 7.6232 6.31875 11.6951C2.24673 15.7673 0.00414276 21.1814 0.00414276 26.9401C0.00414276 31.4058 1.35752 35.6904 3.9182 39.3305C4.10063 39.59 4.39079 39.7287 4.68573 39.7287C4.87201 39.7287 5.06016 39.6733 5.22413 39.5579C5.6476 39.2599 5.74941 38.6752 5.45157 38.2518C3.11429 34.9292 1.87886 31.0176 1.87886 26.94C1.87886 16.0858 10.7094 7.25533 21.5635 7.25533C23.8396 7.25533 26.0697 7.64008 28.1921 8.39898C28.6795 8.57336 29.2161 8.31948 29.3903 7.83199C29.5647 7.34458 29.3108 6.80814 28.8234 6.63377Z" fill="#6E76C1"/>
<path d="M47.9249 8.27403C47.7798 7.92369 47.438 7.69541 47.0588 7.69541H42.1335L42.6632 7.16572C43.0292 6.79972 43.0292 6.2061 42.6632 5.84C42.2971 5.47401 41.7036 5.47401 41.3375 5.84L40.801 6.37644V1.4377C40.801 1.05867 40.5726 0.716764 40.2224 0.57164C39.8721 0.426515 39.4688 0.506765 39.2009 0.774795L30.9374 9.03828C30.7616 9.21406 30.6628 9.45247 30.6628 9.70109V12.9528C27.959 11.1841 24.8419 10.2556 21.5623 10.2556C12.3622 10.2556 4.87721 17.7406 4.87721 26.9407C4.87721 36.1409 12.3622 43.6259 21.5623 43.6259C24.616 43.6259 27.6034 42.7931 30.2017 41.2177C30.6444 40.9493 30.7855 40.3728 30.5172 39.9302C30.2489 39.4876 29.6724 39.3461 29.2298 39.6146C26.9245 41.0123 24.2732 41.7511 21.5623 41.7511C13.3959 41.7511 6.75193 35.1072 6.75193 26.9407C6.75193 18.7741 13.3959 12.1302 21.5623 12.1302C24.897 12.1302 28.0421 13.2111 30.6628 15.2559V16.5145L28.9546 18.2227C26.9597 16.5285 24.3786 15.5047 21.5623 15.5047C15.2565 15.5047 10.1265 20.6348 10.1265 26.9406C10.1265 33.2464 15.2565 38.3764 21.5623 38.3764C27.8681 38.3764 32.9982 33.2464 32.9982 26.9406C32.9982 24.1244 31.9745 21.5433 30.2802 19.5483L31.9952 17.8333H33.2423C35.263 20.4232 36.3727 23.6449 36.3727 26.9406C36.3727 29.704 35.6068 32.3994 34.158 34.7352C33.8851 35.1751 34.0206 35.7529 34.4606 36.0259C34.6145 36.1213 34.7851 36.1668 34.9537 36.1668C35.2674 36.1668 35.5738 36.0094 35.7513 35.7234C37.3844 33.0906 38.2475 30.0536 38.2475 26.9406C38.2475 23.7027 37.2964 20.5281 35.5429 17.8333H38.7951C39.0438 17.8333 39.2821 17.7345 39.458 17.5587L47.7214 9.29525C47.9898 9.0275 48.0699 8.62428 47.9249 8.27403ZM31.1237 26.9407C31.1237 32.2128 26.8345 36.5019 21.5625 36.5019C16.2905 36.5019 12.0014 32.2128 12.0014 26.9407C12.0014 21.6687 16.2905 17.3796 21.5625 17.3796C23.8617 17.3796 25.9737 18.1955 27.6249 19.5528L25.49 21.6877C24.3943 20.8663 23.0343 20.3792 21.5626 20.3792C17.9445 20.3792 15.0011 23.3228 15.0011 26.9407C15.0011 30.5588 17.9446 33.5023 21.5626 33.5023C25.1807 33.5023 28.1242 30.5587 28.1242 26.9407C28.1242 25.4691 27.637 24.109 26.8157 23.0133L28.9506 20.8784C30.3078 22.5295 31.1237 24.6415 31.1237 26.9407ZM20.8997 27.6036C21.0828 27.7867 21.3226 27.8782 21.5625 27.8782C21.8024 27.8782 22.0422 27.7867 22.2253 27.6036L25.4709 24.3581C25.9622 25.0992 26.2494 25.9869 26.2494 26.9407C26.2494 29.5251 24.1468 31.6276 21.5625 31.6276C18.9782 31.6276 16.8757 29.5251 16.8757 26.9407C16.8757 24.3564 18.9782 22.2539 21.5625 22.2539C22.5164 22.2539 23.4041 22.5411 24.1452 23.0324L20.8997 26.2779C20.5336 26.6439 20.5336 27.2375 20.8997 27.6036ZM32.5377 14.6398V10.0894L38.9264 3.70073V8.25116L32.5377 14.6398ZM38.4071 15.9588H33.8702L40.2589 9.57012H44.7958L38.4071 15.9588Z" fill="#6E76C1"/>
<path d="M7.62452 40.8404C7.45024 40.6661 7.20846 40.5657 6.9619 40.5657C6.7143 40.5657 6.47252 40.666 6.29918 40.8404C6.12387 41.0147 6.02449 41.2565 6.02449 41.5031C6.02449 41.7496 6.12387 41.9914 6.29918 42.1658C6.47346 42.3402 6.7144 42.4405 6.9619 42.4405C7.20846 42.4405 7.45024 42.3402 7.62452 42.1658C7.79889 41.9914 7.8993 41.7496 7.8993 41.5031C7.8993 41.2565 7.79899 41.0157 7.62452 40.8404Z" fill="#6E76C1"/>
</g>
<defs>
<clipPath id="clip0_104_40740">
<rect width="48" height="48" fill="white" transform="translate(0 0.5)"/>
</clipPath>
</defs>
</svg>
