<svg width="48" height="49" viewBox="0 0 48 49" fill="none" xmlns="http://www.w3.org/2000/svg">
<path d="M23.9999 38.6715C29.0494 38.6715 33.1428 34.5781 33.1428 29.5286C33.1428 24.4791 29.0494 20.3857 23.9999 20.3857C18.9505 20.3857 14.8571 24.4791 14.8571 29.5286C14.8571 34.5781 18.9505 38.6715 23.9999 38.6715Z" stroke="#6E76C1" stroke-width="2" stroke-miterlimit="10" stroke-linecap="round" stroke-linejoin="round"/>
<path d="M20.4342 29.7571L21.9199 31.2428C22.3542 31.6771 23.0628 31.6771 23.4971 31.2657L27.5656 27.5171" stroke="#6E76C1" stroke-width="2" stroke-linecap="round" stroke-linejoin="round"/>
<path d="M14.8571 47.3571H33.1428C42.3314 47.3571 43.9771 43.6771 44.4571 39.1971L46.1714 20.9114C46.7885 15.3342 45.1885 10.7856 35.4285 10.7856H12.5714C2.81138 10.7856 1.21138 15.3342 1.82852 20.9114L3.54281 39.1971C4.02281 43.6771 5.66852 47.3571 14.8571 47.3571Z" stroke="#6E76C1" stroke-width="2" stroke-miterlimit="10" stroke-linecap="round" stroke-linejoin="round"/>
<path d="M14.8571 10.7857V8.95711C14.8571 4.91139 14.8571 1.64282 22.1713 1.64282H25.8285C33.1428 1.64282 33.1428 4.91139 33.1428 8.95711V10.7857" stroke="#6E76C1" stroke-width="2" stroke-miterlimit="10" stroke-linecap="round" stroke-linejoin="round"/>
<path d="M46.0571 22.2144C42.1028 25.0944 37.7142 27.1058 33.1656 28.2486" stroke="#6E76C1" stroke-width="2" stroke-miterlimit="10" stroke-linecap="round" stroke-linejoin="round"/>
<path d="M2.55994 22.8315C6.37708 25.4373 10.5371 27.2887 14.8571 28.3401" stroke="#6E76C1" stroke-width="2" stroke-miterlimit="10" stroke-linecap="round" stroke-linejoin="round"/>
</svg>
