<svg width="49" height="49" viewBox="0 0 49 49" fill="none" xmlns="http://www.w3.org/2000/svg">
<path d="M41.1562 11.6875H29.625C28.6305 11.6875 27.6496 11.9191 26.76 12.3638C25.8705 12.8086 25.0967 13.4544 24.5 14.25C23.9033 13.4544 23.1295 12.8086 22.24 12.3638C21.3504 11.9191 20.3695 11.6875 19.375 11.6875H7.84375C7.50394 11.6875 7.17805 11.8225 6.93777 12.0628C6.69749 12.3031 6.5625 12.6289 6.5625 12.9688V36.0312C6.5625 36.3711 6.69749 36.697 6.93777 36.9372C7.17805 37.1775 7.50394 37.3125 7.84375 37.3125H19.375C20.3944 37.3125 21.3721 37.7175 22.0929 38.4383C22.8138 39.1592 23.2188 40.1368 23.2188 41.1562C23.2188 41.4961 23.3537 41.822 23.594 42.0622C23.8343 42.3025 24.1602 42.4375 24.5 42.4375C24.8398 42.4375 25.1657 42.3025 25.406 42.0622C25.6463 41.822 25.7812 41.4961 25.7812 41.1562C25.7812 40.1368 26.1862 39.1592 26.9071 38.4383C27.6279 37.7175 28.6056 37.3125 29.625 37.3125H41.1562C41.4961 37.3125 41.8219 37.1775 42.0622 36.9372C42.3025 36.697 42.4375 36.3711 42.4375 36.0312V12.9688C42.4375 12.6289 42.3025 12.3031 42.0622 12.0628C41.8219 11.8225 41.4961 11.6875 41.1562 11.6875ZM19.375 34.75H9.125V14.25H19.375C20.3944 14.25 21.3721 14.655 22.0929 15.3758C22.8138 16.0967 23.2188 17.0743 23.2188 18.0938V36.0312C22.1109 35.1976 20.7615 34.7478 19.375 34.75ZM39.875 34.75H29.625C28.2385 34.7478 26.8891 35.1976 25.7812 36.0312V18.0938C25.7812 17.0743 26.1862 16.0967 26.9071 15.3758C27.6279 14.655 28.6056 14.25 29.625 14.25H39.875V34.75Z" fill="white"/>
</svg>
