<svg width="49" height="49" viewBox="0 0 49 49" fill="none" xmlns="http://www.w3.org/2000/svg">
<path d="M41.5833 7.15385H36.4583V5.57692C36.4583 5.1587 36.2784 4.7576 35.958 4.46187C35.6376 4.16614 35.2031 4 34.75 4C34.2969 4 33.8624 4.16614 33.542 4.46187C33.2216 4.7576 33.0417 5.1587 33.0417 5.57692V7.15385H15.9583V5.57692C15.9583 5.1587 15.7783 4.7576 15.458 4.46187C15.1376 4.16614 14.7031 4 14.25 4C13.7969 4 13.3624 4.16614 13.042 4.46187C12.7217 4.7576 12.5417 5.1587 12.5417 5.57692V7.15385H7.41667C6.51051 7.15385 5.64147 7.48613 5.00072 8.07759C4.35997 8.66905 4 9.47124 4 10.3077V41.8462C4 42.6826 4.35997 43.4848 5.00072 44.0763C5.64147 44.6677 6.51051 45 7.41667 45H41.5833C42.4895 45 43.3585 44.6677 43.9993 44.0763C44.64 43.4848 45 42.6826 45 41.8462V10.3077C45 9.47124 44.64 8.66905 43.9993 8.07759C43.3585 7.48613 42.4895 7.15385 41.5833 7.15385ZM12.5417 10.3077V11.8846C12.5417 12.3028 12.7217 12.7039 13.042 12.9997C13.3624 13.2954 13.7969 13.4615 14.25 13.4615C14.7031 13.4615 15.1376 13.2954 15.458 12.9997C15.7783 12.7039 15.9583 12.3028 15.9583 11.8846V10.3077H33.0417V11.8846C33.0417 12.3028 33.2216 12.7039 33.542 12.9997C33.8624 13.2954 34.2969 13.4615 34.75 13.4615C35.2031 13.4615 35.6376 13.2954 35.958 12.9997C36.2784 12.7039 36.4583 12.3028 36.4583 11.8846V10.3077H41.5833V16.6154H7.41667V10.3077H12.5417ZM41.5833 41.8462H7.41667V19.7692H41.5833V41.8462ZM27.0625 26.8654C27.0625 27.3332 26.9122 27.7905 26.6306 28.1795C26.3491 28.5685 25.9489 28.8717 25.4806 29.0507C25.0124 29.2297 24.4972 29.2766 24.0001 29.1853C23.503 29.0941 23.0464 28.8688 22.688 28.538C22.3297 28.2072 22.0856 27.7857 21.9867 27.3268C21.8879 26.868 21.9386 26.3924 22.1326 25.9602C22.3265 25.528 22.655 25.1586 23.0764 24.8986C23.4978 24.6387 23.9932 24.5 24.5 24.5C25.1796 24.5 25.8314 24.7492 26.312 25.1928C26.7925 25.6364 27.0625 26.238 27.0625 26.8654ZM36.4583 26.8654C36.4583 27.3332 36.308 27.7905 36.0265 28.1795C35.7449 28.5685 35.3447 28.8717 34.8765 29.0507C34.4082 29.2297 33.893 29.2766 33.3959 29.1853C32.8988 29.0941 32.4422 28.8688 32.0839 28.538C31.7255 28.2072 31.4814 27.7857 31.3826 27.3268C31.2837 26.868 31.3344 26.3924 31.5284 25.9602C31.7223 25.528 32.0508 25.1586 32.4722 24.8986C32.8936 24.6387 33.389 24.5 33.8958 24.5C34.5755 24.5 35.2272 24.7492 35.7078 25.1928C36.1884 25.6364 36.4583 26.238 36.4583 26.8654ZM17.6667 34.75C17.6667 35.2178 17.5164 35.6752 17.2348 36.0641C16.9532 36.4531 16.553 36.7563 16.0848 36.9353C15.6166 37.1144 15.1013 37.1612 14.6042 37.0699C14.1072 36.9787 13.6506 36.7534 13.2922 36.4226C12.9338 36.0918 12.6898 35.6703 12.5909 35.2115C12.492 34.7526 12.5428 34.277 12.7367 33.8448C12.9307 33.4126 13.2591 33.0432 13.6805 32.7833C14.1019 32.5233 14.5974 32.3846 15.1042 32.3846C15.7838 32.3846 16.4356 32.6338 16.9161 33.0774C17.3967 33.521 17.6667 34.1227 17.6667 34.75ZM27.0625 34.75C27.0625 35.2178 26.9122 35.6752 26.6306 36.0641C26.3491 36.4531 25.9489 36.7563 25.4806 36.9353C25.0124 37.1144 24.4972 37.1612 24.0001 37.0699C23.503 36.9787 23.0464 36.7534 22.688 36.4226C22.3297 36.0918 22.0856 35.6703 21.9867 35.2115C21.8879 34.7526 21.9386 34.277 22.1326 33.8448C22.3265 33.4126 22.655 33.0432 23.0764 32.7833C23.4978 32.5233 23.9932 32.3846 24.5 32.3846C25.1796 32.3846 25.8314 32.6338 26.312 33.0774C26.7925 33.521 27.0625 34.1227 27.0625 34.75ZM36.4583 34.75C36.4583 35.2178 36.308 35.6752 36.0265 36.0641C35.7449 36.4531 35.3447 36.7563 34.8765 36.9353C34.4082 37.1144 33.893 37.1612 33.3959 37.0699C32.8988 36.9787 32.4422 36.7534 32.0839 36.4226C31.7255 36.0918 31.4814 35.6703 31.3826 35.2115C31.2837 34.7526 31.3344 34.277 31.5284 33.8448C31.7223 33.4126 32.0508 33.0432 32.4722 32.7833C32.8936 32.5233 33.389 32.3846 33.8958 32.3846C34.5755 32.3846 35.2272 32.6338 35.7078 33.0774C36.1884 33.521 36.4583 34.1227 36.4583 34.75Z" fill="white"/>
</svg>
