<svg width="74" height="76" viewBox="0 0 74 76" fill="none" xmlns="http://www.w3.org/2000/svg">
<path d="M21 16.4714C19.9067 16.4714 19 15.3025 19 13.8929V3.57857C19 2.16895 19.9067 1 21 1C22.0933 1 23 2.16895 23 3.57857V13.8929C23 15.3025 22.0933 16.4714 21 16.4714Z" fill="#6E76C1"/>
<path d="M50.4193 16.4714C49.326 16.4714 48.4193 15.3025 48.4193 13.8929V3.57857C48.4193 2.16895 49.326 1 50.4193 1C51.5126 1 52.4193 2.16895 52.4193 3.57857V13.8929C52.4193 15.3025 51.5126 16.4714 50.4193 16.4714Z" fill="#6E76C1"/>
<path d="M23.129 46.5953C22.6509 46.5953 22.1728 46.4922 21.7315 46.3203C21.2535 46.1484 20.8857 45.9076 20.518 45.5982C19.8561 44.945 19.4515 44.0855 19.4515 43.1572C19.4515 42.7102 19.5619 42.2633 19.7457 41.8507C19.9296 41.4381 20.187 41.06 20.518 40.7162C20.8857 40.4067 21.2535 40.166 21.7315 39.9941C23.0554 39.4784 24.7102 39.7535 25.7399 40.7162C26.4019 41.3694 26.8064 42.2633 26.8064 43.1572C26.8064 43.3635 26.7696 43.6042 26.7328 43.8448C26.6961 44.0511 26.6225 44.2574 26.5122 44.4637C26.4386 44.67 26.3283 44.8762 26.1812 45.0825C26.0709 45.2544 25.887 45.4263 25.7399 45.5982C25.0412 46.2171 24.0851 46.5953 23.129 46.5953Z" fill="#6E76C1"/>
<path d="M35.9999 46.5952C35.5219 46.5952 35.0438 46.4921 34.6025 46.3202C34.1244 46.1483 33.7567 45.9076 33.389 45.5982C32.727 44.9449 32.3225 44.0854 32.3225 43.1571C32.3225 42.7102 32.4328 42.2632 32.6167 41.8506C32.8006 41.4381 33.058 41.0599 33.389 40.7161C33.7567 40.4067 34.1244 40.166 34.6025 39.994C35.9264 39.444 37.5812 39.7535 38.6109 40.7161C39.2728 41.3694 39.6774 42.2632 39.6774 43.1571C39.6774 43.3634 39.6406 43.6041 39.6038 43.8448C39.567 44.0511 39.4935 44.2573 39.3832 44.4636C39.3096 44.6699 39.1993 44.8762 39.0522 45.0825C38.9419 45.2544 38.758 45.4263 38.6109 45.5982C37.9122 46.217 36.9561 46.5952 35.9999 46.5952Z" fill="#6E76C1"/>
<path d="M48.8709 46.5952C48.3928 46.5952 47.9148 46.4921 47.4735 46.3202C46.9954 46.1483 46.6277 45.9076 46.2599 45.5982C46.1128 45.4263 45.9657 45.2544 45.8186 45.0825C45.6715 44.8762 45.5612 44.6699 45.4877 44.4636C45.3774 44.2573 45.3038 44.0511 45.267 43.8448C45.2303 43.6041 45.1935 43.3634 45.1935 43.1571C45.1935 42.2632 45.598 41.3694 46.2599 40.7161C46.6277 40.4067 46.9954 40.166 47.4735 39.994C48.8341 39.444 50.4522 39.7535 51.4819 40.7161C52.1438 41.3694 52.5483 42.2632 52.5483 43.1571C52.5483 43.3634 52.5115 43.6041 52.4748 43.8448C52.438 44.0511 52.3644 44.2573 52.2541 44.4636C52.1806 44.6699 52.0703 44.8762 51.9232 45.0825C51.8128 45.2544 51.629 45.4263 51.4819 45.5982C50.7832 46.217 49.827 46.5952 48.8709 46.5952Z" fill="#6E76C1"/>
<path d="M23.129 58.6286C22.6509 58.6286 22.1728 58.5255 21.7315 58.3536C21.2902 58.1817 20.8857 57.9409 20.518 57.6315C19.8561 56.9783 19.4515 56.0844 19.4515 55.1905C19.4515 54.7435 19.5619 54.2966 19.7457 53.884C19.9296 53.4371 20.187 53.0589 20.518 52.7495C21.8786 51.4774 24.3793 51.4774 25.7399 52.7495C26.4019 53.4027 26.8064 54.2966 26.8064 55.1905C26.8064 56.0844 26.4019 56.9783 25.7399 57.6315C25.0412 58.2504 24.0851 58.6286 23.129 58.6286Z" fill="#6E76C1"/>
<path d="M35.9999 58.6286C35.0438 58.6286 34.0877 58.2504 33.389 57.6315C32.727 56.9783 32.3225 56.0844 32.3225 55.1905C32.3225 54.7435 32.4328 54.2966 32.6167 53.884C32.8006 53.4371 33.058 53.0589 33.389 52.7495C34.7496 51.4774 37.2503 51.4774 38.6109 52.7495C38.9419 53.0589 39.1993 53.4371 39.3832 53.884C39.567 54.2966 39.6774 54.7435 39.6774 55.1905C39.6774 56.0844 39.2728 56.9783 38.6109 57.6315C37.9122 58.2504 36.9561 58.6286 35.9999 58.6286Z" fill="#6E76C1"/>
<path d="M48.8709 58.6287C47.9148 58.6287 46.9586 58.2505 46.2599 57.6316C45.929 57.3222 45.6716 56.9441 45.4877 56.4971C45.3038 56.0845 45.1935 55.6376 45.1935 55.1906C45.1935 54.7437 45.3038 54.2967 45.4877 53.8841C45.6716 53.4372 45.929 53.059 46.2599 52.7496C47.1057 51.9588 48.3928 51.5806 49.5696 51.8212C49.827 51.8556 50.0477 51.9244 50.2683 52.0275C50.489 52.0963 50.7096 52.1995 50.9303 52.337C51.1141 52.4402 51.298 52.6121 51.4819 52.7496C52.1438 53.4028 52.5483 54.2967 52.5483 55.1906C52.5483 56.0845 52.1438 56.9784 51.4819 57.6316C50.7832 58.2505 49.827 58.6287 48.8709 58.6287Z" fill="#6E76C1"/>
<path d="M71.0405 29H3.95946C2.34162 29 1 28.0933 1 27C1 25.9067 2.34162 25 3.95946 25H71.0405C72.6584 25 74 25.9067 74 27C74 28.0933 72.6584 29 71.0405 29Z" fill="#6E76C1"/>
<path d="M47.3256 74.9975H26.6744C0 74.9975 0 74.9975 0 51.2077V32.7898C0 9 0 9 26.6744 9H47.3256C74 9 74 9 74 32.7898V51.2077C74 74.9975 74.0405 75.0336 47.3256 74.9975ZM26.6744 11.6424C0 11.6424 2.96271 11.6424 2.96271 32.7898V51.2077C2.96271 72.3551 0 72.3551 26.6744 72.3551H47.3256C74 72.3551 71.0372 72.3551 71.0372 51.2077V32.7898C71.0372 11.6424 74 11.6424 47.3256 11.6424H26.6744Z" fill="#6E76C1"/>
</svg>
