<svg width="78" height="78" viewBox="0 0 78 78" fill="none" xmlns="http://www.w3.org/2000/svg">
<path d="M49.6433 77.0376H28.4348C1.04053 77.0376 1.04053 77.0376 1.04053 49.6433V28.4348C1.04053 1.04047 1.04053 1.04047 28.4348 1.04047H49.6433C77.0376 1.04047 77.0376 1.04047 77.0376 28.4348V49.6433C77.0376 77.0376 77.0792 77.0792 49.6433 77.0376ZM28.4348 4.0832C1.04053 4.0832 4.0832 4.0832 4.0832 28.4348V49.6433C4.0832 73.9949 1.04053 73.9949 28.4348 73.9949H49.6433C77.0376 73.9949 73.9949 73.9949 73.9949 49.6433V28.4348C73.9949 4.0832 77.0376 4.0832 49.6433 4.0832H28.4348Z" fill="#6E76C1"/>
<path d="M51.4107 64.666C46.0379 64.666 41.6902 60.3182 41.6902 54.9454V23.1327C41.6902 17.7599 46.0379 13.4121 51.4107 13.4121C56.7836 13.4121 61.1313 17.7599 61.1313 23.1327V54.9454C61.1313 60.3182 56.7836 64.666 51.4107 64.666ZM51.4107 17.5C48.9718 17.5 45.5 19.561 45.5 22V39.5V54.9454C45.5 57.3844 48.9718 60.5 51.4107 60.5C53.8497 60.5 57 57.3844 57 54.9454V22C57 19.561 53.8497 17.5 51.4107 17.5Z" fill="#6E76C1"/>
<path d="M26.6675 64.666C21.2946 64.666 16.9469 60.3182 16.9469 54.9454V42.5738C16.9469 37.201 21.2946 32.8532 26.6675 32.8532C32.0403 32.8532 36.388 37.201 36.388 42.5738V54.9454C36.388 60.3182 32.0403 64.666 26.6675 64.666ZM26.6675 37C24 37 21 40.061 21 42.5V54.9454C21 57.3844 24.2285 60.5 26.6675 60.5C29.1064 60.5 32.5 57.3844 32.5 54.9454V42.5C32.5 40.061 29 37 26.6675 37Z" fill="#6E76C1"/>
</svg>
