<svg width="49" height="48" viewBox="0 0 49 48" fill="none" xmlns="http://www.w3.org/2000/svg">
<path d="M34.7497 17.0129C34.6985 17.0129 34.6643 17.0129 34.6131 17.0129H34.5276C31.2989 16.9104 28.8901 14.4162 28.8901 11.3412C28.8901 8.19789 31.4526 5.65247 34.5789 5.65247C37.7051 5.65247 40.2676 8.21497 40.2676 11.3412C40.2506 14.4333 37.8418 16.9275 34.7668 17.03C34.7668 17.0129 34.7668 17.0129 34.7497 17.0129ZM34.5789 8.19789C32.8535 8.19789 31.4526 9.59873 31.4526 11.3241C31.4526 13.0154 32.7681 14.3821 34.4593 14.4504C34.4764 14.4333 34.6131 14.4333 34.7668 14.4504C36.4239 14.365 37.7051 12.9983 37.7222 11.3241C37.7222 9.59873 36.3214 8.19789 34.5789 8.19789Z" fill="white"/>
<path d="M34.7672 29.6033C34.1009 29.6033 33.4347 29.5521 32.7684 29.4325C32.068 29.3129 31.6068 28.6467 31.7264 27.9462C31.8459 27.2458 32.5122 26.7846 33.2126 26.9042C35.3139 27.2629 37.5347 26.87 39.0209 25.8792C39.8239 25.3496 40.2509 24.6833 40.2509 24.0171C40.2509 23.3508 39.8068 22.7016 39.0209 22.1721C37.5347 21.1812 35.2797 20.7883 33.1614 21.1642C32.4609 21.3008 31.7947 20.8225 31.6751 20.1221C31.5555 19.4217 32.0168 18.7554 32.7172 18.6358C35.5018 18.1404 38.3889 18.67 40.4389 20.0366C41.9422 21.0446 42.8134 22.4796 42.8134 24.0171C42.8134 25.5375 41.9593 26.9896 40.4389 28.0146C38.8843 29.0396 36.8684 29.6033 34.7672 29.6033Z" fill="white"/>
<path d="M14.1988 17.0129C14.1817 17.0129 14.1647 17.0129 14.1647 17.0129C11.0897 16.9104 8.6809 14.4162 8.66382 11.3412C8.66382 8.19787 11.2263 5.63538 14.3526 5.63538C17.4788 5.63538 20.0413 8.19788 20.0413 11.3241C20.0413 14.4162 17.6326 16.9104 14.5576 17.0129L14.1988 15.7316L14.3184 17.0129C14.2842 17.0129 14.233 17.0129 14.1988 17.0129ZM14.3697 14.4504C14.4722 14.4504 14.5576 14.4504 14.6601 14.4675C16.1805 14.3991 17.513 13.0325 17.513 11.3412C17.513 9.61579 16.1122 8.21495 14.3867 8.21495C12.6613 8.21495 11.2605 9.61579 11.2605 11.3412C11.2605 13.0154 12.5588 14.365 14.2159 14.4675C14.233 14.4504 14.3013 14.4504 14.3697 14.4504Z" fill="white"/>
<path d="M14.1817 29.6033C12.0805 29.6033 10.0647 29.0396 8.51008 28.0146C7.00675 27.0067 6.1355 25.5546 6.1355 24.0171C6.1355 22.4966 7.00675 21.0446 8.51008 20.0366C10.5601 18.67 13.4472 18.1404 16.2317 18.6358C16.9322 18.7554 17.3934 19.4217 17.2738 20.1221C17.1542 20.8225 16.488 21.3008 15.7876 21.1642C13.6693 20.7883 11.4313 21.1812 9.928 22.1721C9.12508 22.7016 8.698 23.3508 8.698 24.0171C8.698 24.6833 9.14217 25.3496 9.928 25.8792C11.4142 26.87 13.6351 27.2629 15.7363 26.9042C16.4367 26.7846 17.103 27.2629 17.2226 27.9462C17.3422 28.6467 16.8809 29.3129 16.1805 29.4325C15.5142 29.5521 14.848 29.6033 14.1817 29.6033Z" fill="white"/>
<path d="M24.4997 29.7741C24.4485 29.7741 24.4143 29.7741 24.3631 29.7741H24.2776C21.0489 29.6716 18.6401 27.1775 18.6401 24.1024C18.6401 20.9591 21.2026 18.4137 24.3289 18.4137C27.4551 18.4137 30.0176 20.9762 30.0176 24.1024C30.0006 27.1945 27.5918 29.6887 24.5168 29.7912C24.5168 29.7741 24.5168 29.7741 24.4997 29.7741ZM24.3289 20.9591C22.6035 20.9591 21.2026 22.36 21.2026 24.0854C21.2026 25.7766 22.5181 27.1433 24.2093 27.2116C24.2264 27.1945 24.3631 27.1945 24.5168 27.2116C26.1739 27.1262 27.4551 25.7595 27.4722 24.0854C27.4722 22.377 26.0714 20.9591 24.3289 20.9591Z" fill="white"/>
<path d="M24.4996 42.3816C22.4496 42.3816 20.3996 41.852 18.8109 40.7758C17.3075 39.7679 16.4363 38.3329 16.4363 36.7954C16.4363 35.275 17.2904 33.8058 18.8109 32.7979C22.0054 30.6795 27.0109 30.6795 30.1884 32.7979C31.6917 33.8058 32.563 35.2408 32.563 36.7783C32.563 38.2987 31.7088 39.7679 30.1884 40.7758C28.5996 41.835 26.5496 42.3816 24.4996 42.3816ZM20.2288 34.9504C19.4259 35.48 18.9988 36.1462 18.9988 36.8125C18.9988 37.4787 19.4429 38.1279 20.2288 38.6575C22.535 40.212 26.4471 40.212 28.7534 38.6575C29.5563 38.1279 29.9834 37.4616 29.9834 36.7954C29.9834 36.1291 29.5392 35.48 28.7534 34.9504C26.4642 33.3958 22.5521 33.4129 20.2288 34.9504Z" fill="white"/>
</svg>
