<svg width="41" height="42" viewBox="0 0 41 42" fill="none" xmlns="http://www.w3.org/2000/svg">
<path d="M4.27075 11.6042C4.27075 7.83026 7.33014 4.77087 11.1041 4.77087C14.878 4.77087 17.9374 7.83026 17.9374 11.6042C17.9374 15.3782 14.878 18.4375 11.1041 18.4375C7.33014 18.4375 4.27075 15.3782 4.27075 11.6042Z" stroke="white" stroke-width="2.7"/>
<path d="M23.0625 30.3958C23.0625 26.6219 26.1219 23.5625 29.8958 23.5625C33.6698 23.5625 36.7292 26.6219 36.7292 30.3958C36.7292 34.1698 33.6698 37.2292 29.8958 37.2292C26.1219 37.2292 23.0625 34.1698 23.0625 30.3958Z" stroke="white" stroke-width="2.7"/>
<path d="M36.7291 11.6042C36.7291 8.38294 36.7291 6.77231 35.7284 5.77159C34.7276 4.77087 33.117 4.77087 29.8958 4.77087C26.6745 4.77087 25.0639 4.77087 24.0631 5.77159C23.0624 6.77231 23.0624 8.38294 23.0624 11.6042C23.0624 14.8255 23.0624 16.4361 24.0631 17.4368C25.0639 18.4375 26.6745 18.4375 29.8958 18.4375C33.117 18.4375 34.7276 18.4375 35.7284 17.4368C36.7291 16.4361 36.7291 14.8255 36.7291 11.6042Z" stroke="white" stroke-width="2.7"/>
<path d="M17.9374 30.3959C17.9374 27.1746 17.9374 25.564 16.9367 24.5633C15.936 23.5625 14.3253 23.5625 11.1041 23.5625C7.88282 23.5625 6.27219 23.5625 5.27147 24.5633C4.27075 25.564 4.27075 27.1746 4.27075 30.3959C4.27075 33.6171 4.27075 35.2278 5.27147 36.2285C6.27219 37.2292 7.88282 37.2292 11.1041 37.2292C14.3253 37.2292 15.936 37.2292 16.9367 36.2285C17.9374 35.2278 17.9374 33.6171 17.9374 30.3959Z" stroke="white" stroke-width="2.7"/>
</svg>
