<svg width="66" height="76" viewBox="0 0 66 76" fill="none" xmlns="http://www.w3.org/2000/svg">
<path d="M56.702 27.1515H49.4091C43.8664 27.1515 40.6364 23.487 40.6364 17.9444L40.6364 10.6515C40.6364 9.15644 41.2625 8.06061 42.7576 8.06061C44.2526 8.06061 44.851 9.15644 44.851 10.6515V17.9444C44.851 20.4605 46.893 22.5025 49.4091 22.5025H56.702C58.197 22.5025 59.303 23.5352 59.303 25.0303C59.303 26.5253 58.197 27.1515 56.702 27.1515Z" fill="#6E76C1"/>
<path d="M25.7068 58.967C25.014 58.967 24.3212 58.7119 23.7742 58.1649L16.4813 50.872C15.4238 49.8145 15.4238 48.064 16.4813 47.0065L23.7742 39.7136C24.8317 38.6561 26.582 38.6561 27.6394 39.7136C28.6969 40.7711 28.6969 42.5216 27.6394 43.579L20.2727 49.2121L27.6394 54.2994C28.6969 55.3569 28.6969 57.1074 27.6394 58.1649C27.0925 58.7119 26.3997 58.967 25.7068 58.967Z" fill="#6E76C1"/>
<path d="M40.2927 58.967C39.5999 58.967 38.907 58.7119 38.3601 58.1649C37.3026 57.1074 37.3026 55.3569 38.3601 54.2994L44.8788 49.2121L38.3601 43.579C37.3026 42.5216 37.3026 40.7711 38.3601 39.7136C39.4175 38.6561 41.1678 38.6561 42.2253 39.7136L49.5182 47.0065C50.5757 48.064 50.5757 49.8145 49.5182 50.872L42.2253 58.1649C41.6783 58.7119 40.9855 58.967 40.2927 58.967Z" fill="#6E76C1"/>
<path d="M41.9979 75.9971H24.0021C0.757568 75.9971 0.757568 75.9971 0.757568 48.6028V27.3943C0.757568 0 0.757568 0 24.0021 0H41.9979C65.2424 -1.37855e-08 65.2424 0 65.2424 27.3943V48.6028C65.2424 75.9971 65.2777 76.0387 41.9979 75.9971ZM24.0021 3.04273C0.757568 3.04273 3.33933 3.04273 3.33933 27.3943V48.6028C3.33933 72.9544 0.757568 72.9544 24.0021 72.9544H41.9979C65.2424 72.9544 62.6605 72.9544 62.6605 48.6028V27.3943C62.6605 3.04273 65.2424 3.04273 41.9979 3.04273H24.0021Z" fill="#6E76C1"/>
</svg>
