<svg width="1440" height="338" viewBox="0 0 1440 338" fill="none" xmlns="http://www.w3.org/2000/svg">
<rect width="1440" height="338" fill="#8C95EC"/>
<path opacity="0.6" d="M1350.39 63.7349L1337.46 68.8222C1336.82 69.0728 1336.13 68.8788 1335.74 68.3397C1335.35 67.8016 1335.35 67.0399 1335.74 66.4454C1336.69 64.9992 1336.99 63.3535 1336.56 61.9334C1335.72 59.1479 1332.41 57.9164 1329.17 59.1889C1325.94 60.4615 1323.99 63.7644 1324.83 66.5497C1325.25 67.9698 1326.38 69.0563 1327.91 69.5297C1328.53 69.7221 1328.94 70.3228 1328.92 71.024C1328.91 71.72 1328.47 72.358 1327.83 72.6084L1314.9 77.6961C1314.08 78.0174 1313.21 77.5982 1312.96 76.7618L1309.82 66.3678C1309.65 65.7898 1309.82 65.1251 1310.25 64.6731C1310.68 64.2295 1311.33 64.0527 1311.87 64.2344C1312.58 64.4742 1313.25 64.4763 1313.85 64.2412C1316.25 63.2955 1317.2 58.9036 1315.92 54.6511C1314.64 50.3978 1311.52 47.6029 1309.12 48.5488C1308.55 48.7699 1308.06 49.1988 1307.64 49.8248C1307.45 50.2008 1307.12 50.4972 1306.74 50.6476C1305.93 50.9688 1305.06 50.5493 1304.8 49.7135L1301.45 38.5752C1301.19 37.7395 1301.65 36.7978 1302.47 36.4768L1311.31 33.0001C1310.69 32.3422 1310.24 31.5596 1309.97 30.6795C1308.75 26.6159 1312 21.6378 1317.23 19.5817C1322.46 17.5256 1327.71 19.1586 1328.93 23.2216C1329.2 24.1017 1329.26 25.0376 1329.13 25.992L1337.97 22.5159C1338.78 22.1947 1339.65 22.6141 1339.91 23.4493L1342.89 33.3587C1343.54 32.7169 1344.28 32.226 1345.09 31.9081C1349.06 30.3478 1353.6 33.4343 1355.21 38.7881C1356.82 44.1413 1354.91 49.766 1350.94 51.3262C1350.13 51.644 1349.29 51.7776 1348.43 51.7261L1351.42 61.6359C1351.67 62.4729 1351.21 63.4134 1350.39 63.7349ZM1337.95 66.4685L1349.41 61.9622L1345.39 48.6293L1347.35 49.3679C1348.38 49.7562 1349.42 49.7648 1350.36 49.3942C1353.29 48.243 1354.62 43.8184 1353.32 39.5299C1352.03 35.2413 1348.6 32.6886 1345.67 33.8395C1344.73 34.21 1343.91 34.9495 1343.31 35.9782L1342.16 37.9396L1338.14 24.6072L1325.83 29.4492L1326.76 27.2823C1327.25 26.1271 1327.35 24.9795 1327.05 23.9635C1326.14 20.9655 1322 19.8662 1317.81 21.5132C1313.62 23.1603 1310.95 26.939 1311.86 29.937C1312.16 30.953 1312.86 31.7877 1313.87 32.3503L1315.77 33.4061L1303.46 38.2488L1306.45 48.173C1307.04 47.4497 1307.74 46.9285 1308.53 46.6174C1312.08 45.2231 1316.15 48.4256 1317.8 53.9091C1319.46 59.3925 1317.98 64.7795 1314.43 66.1738C1313.64 66.4852 1312.81 66.5648 1311.95 66.414L1314.72 75.6042L1326.18 71.0977C1324.6 70.3112 1323.44 68.9685 1322.94 67.2907C1321.78 63.4404 1324.31 58.9384 1328.59 57.2564C1332.86 55.5745 1337.29 57.3394 1338.45 61.1903C1338.95 62.8676 1338.77 64.7383 1337.95 66.4685Z" fill="#7883E3"/>
<path opacity="0.6" d="M60.5905 261.858L47.1489 267.144C46.4868 267.404 45.7759 267.219 45.3784 266.683C44.9802 266.148 44.988 265.383 45.3999 264.781C46.3959 263.316 46.7235 261.659 46.2954 260.239C45.4557 257.453 42.0358 256.262 38.6736 257.585C35.3112 258.907 33.2584 262.25 34.0981 265.036C34.5262 266.456 35.6765 267.531 37.2544 267.986C37.9011 268.17 38.3189 268.768 38.2936 269.472C38.269 270.171 37.8084 270.818 37.1469 271.078L23.7041 276.365C22.8554 276.699 21.96 276.29 21.7078 275.453L18.5744 265.059C18.4001 264.481 18.579 263.812 19.0311 263.352C19.4775 262.901 20.1538 262.714 20.7102 262.889C21.4488 263.12 22.1391 263.113 22.7604 262.869C25.259 261.886 26.2867 257.463 25.0047 253.21C23.7225 248.957 20.5289 246.193 18.0296 247.176C17.4454 247.406 16.9269 247.844 16.4871 248.478C16.2823 248.858 15.9471 249.16 15.5499 249.316C14.7011 249.65 13.8056 249.241 13.5537 248.405L10.1959 237.267C9.9439 236.431 10.4297 235.479 11.2779 235.146L20.4639 231.533C19.8287 230.881 19.3677 230.101 19.1024 229.221C17.8772 225.157 21.3008 220.114 26.7334 217.977C32.1661 215.841 37.5826 217.408 38.8074 221.471C39.0728 222.352 39.1288 223.29 38.9807 224.251L48.1651 220.639C49.0137 220.305 49.9096 220.714 50.1614 221.549L53.1487 231.458C53.8242 230.805 54.5948 230.302 55.4347 229.972C59.5575 228.35 64.2243 231.387 65.8383 236.741C67.4521 242.094 65.4108 247.769 61.2886 249.39C60.4488 249.72 59.5703 249.866 58.6858 249.826L61.6733 259.736C61.9243 260.573 61.4399 261.523 60.5905 261.858ZM47.6809 264.774L59.5875 260.091L55.5681 246.758L57.5896 247.473C58.6502 247.849 59.7271 247.843 60.7062 247.458C63.7479 246.262 65.1714 241.8 63.8785 237.512C62.5856 233.223 59.058 230.707 56.0169 231.903C55.0379 232.288 54.1858 233.042 53.5524 234.083L52.3441 236.068L48.3248 222.736L35.5314 227.767L36.5135 225.579C37.0369 224.412 37.1517 223.258 36.8454 222.242C35.9416 219.244 31.6665 218.198 27.315 219.909C22.9632 221.62 20.1583 225.452 21.0621 228.45C21.3684 229.466 22.0807 230.294 23.1228 230.845L25.0765 231.879L12.281 236.911L15.2728 246.836C15.8963 246.101 16.6254 245.568 17.4474 245.245C21.1314 243.796 25.3122 246.956 26.9653 252.439C28.6183 257.923 27.027 263.352 23.343 264.801C22.5203 265.125 21.6582 265.216 20.7719 265.077L23.5424 274.267L35.4493 269.584C33.8232 268.816 32.6423 267.484 32.1365 265.806C30.9758 261.956 33.6461 257.4 38.0903 255.652C42.5341 253.904 47.094 255.616 48.2549 259.467C48.7607 261.144 48.5483 263.025 47.6809 264.774Z" fill="#7883E3"/>
<path d="M1417.56 167.792L1408.61 149.449L1394.93 156.123C1396.16 158.656 1403.96 163.07 1394.84 167.519C1385.72 171.968 1387.04 163.106 1385.81 160.572L1372.12 167.246L1381.07 185.588C1378.55 186.817 1369.71 185.452 1374.18 194.623C1378.66 203.794 1383.02 195.989 1385.54 194.76L1394.49 213.102L1408.17 206.429C1406.94 203.895 1399.14 199.482 1408.26 195.033C1417.38 190.584 1416.06 199.446 1417.29 201.979L1430.98 195.306L1422.03 176.963C1424.55 175.734 1433.39 177.1 1428.92 167.928C1424.44 158.757 1420.08 166.563 1417.56 167.792Z" stroke="#808AE7" stroke-width="3"/>
<path d="M1269.75 289.408V269H1254.52C1254.52 271.819 1259.6 279.204 1249.45 279.204C1239.3 279.204 1244.37 271.819 1244.37 269H1229.15V289.408C1226.35 289.408 1219 284.306 1219 294.51C1219 304.714 1226.35 299.612 1229.15 299.612V320.02H1244.37C1244.37 317.201 1239.3 309.816 1249.45 309.816C1259.6 309.816 1254.52 317.201 1254.52 320.02H1269.75V299.612C1272.55 299.612 1279.9 304.714 1279.9 294.51C1279.9 284.306 1272.55 289.408 1269.75 289.408Z" stroke="#808AE7" stroke-width="3"/>
<path d="M64.5564 30.7918L55.6101 12.4492L41.9271 19.1228C43.1628 21.6564 50.9613 26.0696 41.8392 30.5187C32.7172 34.9678 34.0408 26.1055 32.8051 23.5719L19.122 30.2456L28.0683 48.5883C25.5484 49.8173 16.7097 48.4517 21.1829 57.623C25.6561 66.7944 30.0215 58.9887 32.5415 57.7596L41.4878 76.1023L55.1709 69.4286C53.9352 66.895 46.1367 62.4818 55.2587 58.0327C64.3807 53.5836 63.0572 62.4459 64.2929 64.9795L77.9759 58.3058L69.0296 39.9632C71.5496 38.7341 80.3882 40.0997 75.9151 30.9284C71.4419 21.757 67.0764 29.5628 64.5564 30.7918Z" stroke="#808AE7" stroke-width="3"/>
<path d="M301.847 257.96V237.552H286.623C286.623 240.371 291.698 247.756 281.549 247.756C271.4 247.756 276.474 240.371 276.474 237.552H261.251V257.96C258.447 257.96 251.101 252.858 251.101 263.062C251.101 273.266 258.447 268.164 261.251 268.164V288.572H276.474C276.474 285.754 271.4 278.368 281.549 278.368C291.698 278.368 286.623 285.754 286.623 288.572H301.847V268.164C304.651 268.164 311.996 273.266 311.996 263.062C311.996 252.858 304.651 257.96 301.847 257.96Z" stroke="#808AE7" stroke-width="3"/>
</svg>
