<svg width="23" height="24" viewBox="0 0 23 24" fill="none" xmlns="http://www.w3.org/2000/svg">
<path d="M9.07534 15.1193C8.89326 15.1193 8.71117 15.0522 8.56742 14.9085C7.78159 14.1227 7.35034 13.0781 7.35034 11.976C7.35034 9.68558 9.20951 7.82642 11.4999 7.82642C12.602 7.82642 13.6466 8.25767 14.4324 9.0435C14.5666 9.17767 14.6433 9.35975 14.6433 9.55142C14.6433 9.74308 14.5666 9.92517 14.4324 10.0593L9.58326 14.9085C9.43951 15.0522 9.25743 15.1193 9.07534 15.1193ZM11.4999 9.26392C10.0049 9.26392 8.78784 10.481 8.78784 11.976C8.78784 12.4552 8.91243 12.9152 9.14243 13.3177L12.8416 9.6185C12.4391 9.3885 11.9791 9.26392 11.4999 9.26392Z" fill="#6F6C90"/>
<path d="M5.36676 18.2147C5.20384 18.2147 5.03134 18.1572 4.89718 18.0422C3.87176 17.1701 2.95176 16.0968 2.16593 14.851C1.15009 13.2697 1.15009 10.6918 2.16593 9.10095C4.50426 5.44012 7.90634 3.33179 11.5001 3.33179C13.6084 3.33179 15.688 4.06012 17.5088 5.43054C17.8251 5.67012 17.8922 6.12054 17.6526 6.43679C17.413 6.75304 16.9626 6.82012 16.6463 6.58054C15.0747 5.3922 13.2922 4.76929 11.5001 4.76929C8.40468 4.76929 5.44343 6.62845 3.37343 9.8772C2.65468 10.9985 2.65468 12.9535 3.37343 14.0747C4.09218 15.196 4.91634 16.1639 5.82676 16.9497C6.12384 17.2085 6.16218 17.6589 5.90343 17.9655C5.76926 18.1285 5.56801 18.2147 5.36676 18.2147Z" fill="#6F6C90"/>
<path d="M11.5 20.6201C10.2254 20.6201 8.97954 20.3613 7.78162 19.8534C7.41746 19.7001 7.24496 19.2784 7.39829 18.9143C7.55162 18.5501 7.97329 18.3776 8.33746 18.5309C9.35329 18.9622 10.417 19.1826 11.4904 19.1826C14.5858 19.1826 17.547 17.3234 19.617 14.0747C20.3358 12.9534 20.3358 10.9984 19.617 9.87718C19.32 9.4076 18.9941 8.95718 18.6491 8.53551C18.4 8.22885 18.4479 7.77843 18.7545 7.51968C19.0612 7.27051 19.5116 7.30885 19.7704 7.6251C20.1441 8.0851 20.5083 8.58343 20.8341 9.10093C21.85 10.6822 21.85 13.2601 20.8341 14.8509C18.4958 18.5118 15.0937 20.6201 11.5 20.6201Z" fill="#6F6C90"/>
<path d="M12.1613 16.068C11.8259 16.068 11.5193 15.8284 11.4522 15.4834C11.3755 15.0905 11.6343 14.7168 12.0272 14.6497C13.0813 14.458 13.963 13.5763 14.1547 12.5222C14.2313 12.1292 14.6051 11.8801 14.998 11.9472C15.3909 12.0238 15.6497 12.3976 15.573 12.7905C15.2663 14.4484 13.9438 15.7613 12.2955 16.068C12.2476 16.0584 12.2093 16.068 12.1613 16.068Z" fill="#6F6C90"/>
<path d="M1.91655 22.2781C1.73447 22.2781 1.55238 22.211 1.40863 22.0672C1.13072 21.7893 1.13072 21.3293 1.40863 21.0514L8.56738 13.8926C8.8453 13.6147 9.3053 13.6147 9.58322 13.8926C9.86113 14.1706 9.86113 14.6306 9.58322 14.9085L2.42447 22.0672C2.28072 22.211 2.09863 22.2781 1.91655 22.2781Z" fill="#6F6C90"/>
<path d="M13.9246 10.2701C13.7425 10.2701 13.5604 10.203 13.4167 10.0593C13.1388 9.78137 13.1388 9.32137 13.4167 9.04346L20.5754 1.88471C20.8534 1.60679 21.3134 1.60679 21.5913 1.88471C21.8692 2.16262 21.8692 2.62262 21.5913 2.90054L14.4325 10.0593C14.2888 10.203 14.1067 10.2701 13.9246 10.2701Z" fill="#6F6C90"/>
</svg>
