<svg width="41" height="41" viewBox="0 0 41 41" fill="none" xmlns="http://www.w3.org/2000/svg">
<g clip-path="url(#clip0_195_4653)">
<path d="M26.1164 1.01074e-06C23.5085 -3.75218e-05 21.4064 -6.85824e-05 19.7532 0.222209C18.0367 0.452985 16.5914 0.946689 15.4436 2.09453C14.4426 3.09556 13.9368 4.3257 13.6713 5.77118C13.4133 7.17579 13.3639 8.89471 13.3524 10.9572C13.3481 11.747 13.9848 12.3909 14.7747 12.3953C15.5646 12.3997 16.2084 11.763 16.2128 10.9731C16.2244 8.8878 16.2786 7.40974 16.4847 6.28796C16.6832 5.20707 17.002 4.58144 17.4663 4.11718C17.994 3.5894 18.735 3.2453 20.1343 3.05717C21.5747 2.8635 23.4838 2.86047 26.2211 2.86047H28.128C30.8653 2.86047 32.7744 2.8635 34.2148 3.05717C35.6141 3.2453 36.3551 3.5894 36.8829 4.11718C37.4106 4.64496 37.7547 5.38596 37.9429 6.78525C38.1365 8.22569 38.1396 10.1348 38.1396 12.8721V28.1279C38.1396 30.8652 38.1365 32.7743 37.9429 34.2147C37.7547 35.614 37.4106 36.355 36.8829 36.8828C36.3551 37.4106 35.6141 37.7547 34.2148 37.9428C32.7744 38.1365 30.8653 38.1395 28.128 38.1395H26.2211C23.4838 38.1395 21.5747 38.1365 20.1343 37.9428C18.735 37.7547 17.994 37.4106 17.4663 36.8828C17.002 36.4186 16.6832 35.7929 16.4847 34.712C16.2786 33.5903 16.2244 32.1122 16.2128 30.0269C16.2084 29.237 15.5646 28.6003 14.7747 28.6047C13.9848 28.6091 13.3481 29.253 13.3524 30.0428C13.3639 32.1053 13.4133 33.8242 13.6713 35.2288C13.9368 36.6743 14.4426 37.9044 15.4436 38.9055C16.5914 40.0533 18.0367 40.547 19.7532 40.7778C21.4064 41.0001 23.5085 41 26.1164 41H28.2327C30.8406 41 32.9427 41.0001 34.596 40.7778C36.3124 40.547 37.7577 40.0533 38.9055 38.9055C40.0533 37.7576 40.547 36.3124 40.7778 34.5959C41.0001 32.9426 41 30.8405 41 28.2325V12.7675C41 10.1595 41.0001 8.05739 40.7778 6.4041C40.547 4.68762 40.0533 3.24237 38.9055 2.09453C37.7577 0.946689 36.3124 0.452985 34.596 0.222209C32.9427 -6.85824e-05 30.8406 -3.75218e-05 28.2327 1.01074e-06H26.1164Z" fill="white"/>
<path d="M26.2207 19.0698C27.0106 19.0698 27.6509 19.7101 27.6509 20.5C27.6509 21.2899 27.0106 21.9302 26.2207 21.9302H5.29647L9.03534 25.135C9.63507 25.6491 9.70452 26.552 9.19047 27.1517C8.67642 27.7514 7.77352 27.8209 7.1738 27.3068L0.499445 21.5859C0.182442 21.3142 0 20.9175 0 20.5C0 20.0825 0.182442 19.6858 0.499445 19.4141L7.1738 13.6932C7.77352 13.1791 8.67642 13.2486 9.19047 13.8483C9.70452 14.448 9.63507 15.3509 9.03534 15.865L5.29647 19.0698H26.2207Z" fill="white"/>
</g>
<defs>
<clipPath id="clip0_195_4653">
<rect width="41" height="41" rx="5" fill="white"/>
</clipPath>
</defs>
</svg>
