<svg width="28" height="28" viewBox="0 0 28 28" fill="none" xmlns="http://www.w3.org/2000/svg">
<path d="M14 19.5417C13.5334 19.5417 13.0667 19.5067 12.6234 19.425C10.15 19.0634 7.89837 17.64 6.47504 15.5284C5.48337 14.035 4.95837 12.2967 4.95837 10.5C4.95837 5.51837 9.01837 1.45837 14 1.45837C18.9817 1.45837 23.0417 5.51837 23.0417 10.5C23.0417 12.2967 22.5167 14.035 21.525 15.5284C20.09 17.6517 17.8384 19.0634 15.3417 19.4367C14.9334 19.5067 14.4667 19.5417 14 19.5417ZM14 3.20837C9.97504 3.20837 6.70837 6.47504 6.70837 10.5C6.70837 11.9584 7.12837 13.3584 7.92171 14.5484C9.07671 16.2517 10.885 17.395 12.8917 17.6867C13.6384 17.815 14.3734 17.815 15.0617 17.6867C17.1034 17.395 18.9117 16.24 20.0667 14.5367C20.86 13.3467 21.28 11.9467 21.28 10.4884C21.2917 6.47503 18.025 3.20837 14 3.20837Z" fill="#6879D0"/>
<path d="M7.54816 26.3549C7.38483 26.3549 7.23316 26.3316 7.06983 26.2966C6.3115 26.1216 5.72816 25.5382 5.55316 24.7799L5.14483 23.0649C5.12149 22.9599 5.03983 22.8782 4.92316 22.8432L2.99816 22.3883C2.27483 22.2133 1.70316 21.6766 1.50483 20.9649C1.30649 20.2533 1.50483 19.4833 2.02983 18.9583L6.57983 14.4083C6.7665 14.2216 7.02316 14.1283 7.27983 14.1516C7.5365 14.1749 7.76983 14.3149 7.9215 14.5366C9.0765 16.2399 10.8848 17.3949 12.9032 17.6866C13.6498 17.8149 14.3848 17.8149 15.0732 17.6866C17.1148 17.3949 18.9232 16.2399 20.0782 14.5366C20.2182 14.3149 20.4632 14.1749 20.7198 14.1516C20.9765 14.1283 21.2332 14.2216 21.4198 14.4083L25.9698 18.9583C26.4948 19.4833 26.6932 20.2533 26.4948 20.9649C26.2965 21.6766 25.7132 22.2249 25.0015 22.3883L23.0765 22.8432C22.9715 22.8666 22.8898 22.9482 22.8548 23.0649L22.4465 24.7799C22.2715 25.5382 21.6882 26.1216 20.9298 26.2966C20.1715 26.4833 19.3898 26.2149 18.8998 25.6199L13.9998 19.9849L9.09983 25.6316C8.70316 26.0983 8.14316 26.3549 7.54816 26.3549ZM7.10483 16.3683L3.26649 20.2066C3.16149 20.3116 3.17316 20.4283 3.19649 20.4983C3.20816 20.5566 3.26649 20.6732 3.40649 20.6966L5.3315 21.1516C6.08983 21.3266 6.67316 21.9099 6.84816 22.6682L7.25649 24.3832C7.29149 24.5349 7.40816 24.5816 7.47816 24.6049C7.54816 24.6166 7.66483 24.6283 7.76983 24.5116L12.2382 19.3666C10.2548 18.9816 8.43483 17.9199 7.10483 16.3683ZM15.7615 19.3549L20.2298 24.4882C20.3348 24.6166 20.4632 24.6166 20.5332 24.5932C20.6032 24.5816 20.7082 24.5233 20.7548 24.3716L21.1632 22.6566C21.3382 21.8983 21.9215 21.3149 22.6798 21.1399L24.6048 20.6849C24.7448 20.6499 24.8032 20.5449 24.8148 20.4866C24.8382 20.4283 24.8498 20.2999 24.7448 20.1949L20.9065 16.3566C19.5648 17.9082 17.7565 18.9699 15.7615 19.3549Z" fill="#6879D0"/>
<path d="M16.2051 15.0384C15.9018 15.0384 15.5401 14.9567 15.1085 14.7L14.0001 14.035L12.8918 14.6884C11.8768 15.295 11.2118 14.945 10.9668 14.77C10.7218 14.595 10.1968 14.07 10.4651 12.915L10.7451 11.7134L9.81179 10.85C9.29846 10.3367 9.11179 9.71838 9.28679 9.15838C9.46179 8.59838 9.97512 8.2017 10.6985 8.08503L11.9468 7.87504L12.5418 6.56838C12.8801 5.90338 13.4051 5.53003 14.0001 5.53003C14.5951 5.53003 15.1318 5.91506 15.4585 6.58006L16.1468 7.95672L17.3018 8.09671C18.0135 8.21338 18.5268 8.61002 18.7135 9.17002C18.8885 9.73002 18.7018 10.3484 18.1885 10.8617L17.2201 11.8301L17.5235 12.915C17.7918 14.07 17.2668 14.595 17.0218 14.77C16.8935 14.875 16.6135 15.0384 16.2051 15.0384ZM11.2118 9.78839L12.0168 10.5934C12.3901 10.9667 12.5768 11.5967 12.4601 12.11L12.2385 13.0434L13.1718 12.495C13.6735 12.2034 14.3501 12.2034 14.8401 12.495L15.7735 13.0434L15.5635 12.11C15.4468 11.585 15.6218 10.9667 15.9951 10.5934L16.8001 9.78839L15.7851 9.61336C15.2951 9.5317 14.8051 9.17005 14.5835 8.72672L14.0001 7.58337L13.4168 8.75004C13.2068 9.18171 12.7168 9.55505 12.2268 9.63672L11.2118 9.78839Z" fill="#6879D0"/>
</svg>
