<svg width="24" height="25" viewBox="0 0 24 25" fill="none" xmlns="http://www.w3.org/2000/svg">
<path fill-rule="evenodd" clip-rule="evenodd" d="M8.5 3.73267C7.67157 3.73267 7 4.40424 7 5.23267V20.3889C7 21.2173 7.67157 21.8889 8.5 21.8889H15.5C16.3284 21.8889 17 21.2173 17 20.3889V5.23267C17 4.40424 16.3284 3.73267 15.5 3.73267H15.4166L15.1731 4.31712C15.0178 4.68973 14.6537 4.93244 14.25 4.93244H9.75C9.34632 4.93244 8.98223 4.68973 8.82695 4.31712L8.58338 3.73267H8.5ZM5 5.23267C5 3.29967 6.567 1.73267 8.5 1.73267H15.5C17.433 1.73267 19 3.29967 19 5.23267V20.3889C19 22.3219 17.433 23.8889 15.5 23.8889H8.5C6.567 23.8889 5 22.3219 5 20.3889V5.23267Z" fill="#6E76C1"/>
</svg>
