<svg width="24" height="25" viewBox="0 0 24 25" fill="none" xmlns="http://www.w3.org/2000/svg">
<path d="M5.41001 22.5368C4.29001 22.5368 3.58001 22.1568 3.13001 21.7068C2.25001 20.8268 1.63001 18.9568 3.61001 14.9868L4.48001 13.2568C4.59001 13.0268 4.59001 12.5468 4.48001 12.3168L3.61001 10.5868C1.62001 6.61677 2.25001 4.73676 3.13001 3.86676C4.00001 2.98676 5.88001 2.35676 9.84001 4.34676L18.4 8.62677C20.53 9.68677 21.7 11.1668 21.7 12.7868C21.7 14.4068 20.53 15.8868 18.41 16.9468L9.85001 21.2268C7.91001 22.1968 6.47001 22.5368 5.41001 22.5368ZM5.41001 4.53676C4.87001 4.53676 4.45001 4.66676 4.19001 4.92676C3.46001 5.64676 3.75001 7.51676 4.95001 9.90676L5.82001 11.6468C6.14001 12.2968 6.14001 13.2768 5.82001 13.9268L4.95001 15.6568C3.75001 18.0568 3.46001 19.9168 4.19001 20.6368C4.91001 21.3668 6.78001 21.0768 9.18001 19.8768L17.74 15.5968C19.31 14.8168 20.2 13.7868 20.2 12.7768C20.2 11.7668 19.3 10.7368 17.73 9.95677L9.17001 5.68677C7.65001 4.92677 6.34001 4.53676 5.41001 4.53676Z" fill="white"/>
<path d="M10.84 13.5366H5.44C5.03 13.5366 4.69 13.1966 4.69 12.7866C4.69 12.3766 5.03 12.0366 5.44 12.0366H10.84C11.25 12.0366 11.59 12.3766 11.59 12.7866C11.59 13.1966 11.25 13.5366 10.84 13.5366Z" fill="white"/>
</svg>
