<svg width="41" height="41" viewBox="0 0 41 41" fill="none" xmlns="http://www.w3.org/2000/svg">
<path d="M20.5 25.625C23.3305 25.625 25.625 23.3305 25.625 20.5C25.625 17.6695 23.3305 15.375 20.5 15.375C17.6695 15.375 15.375 17.6695 15.375 20.5C15.375 23.3305 17.6695 25.625 20.5 25.625Z" stroke="white" stroke-width="2.7" stroke-miterlimit="10" stroke-linecap="round" stroke-linejoin="round"/>
<path d="M3.41675 22.0034V18.9967C3.41675 17.22 4.86883 15.7509 6.66258 15.7509C9.75466 15.7509 11.0188 13.5642 9.46425 10.8821C8.57591 9.34462 9.1055 7.34587 10.6601 6.45753L13.6155 4.76628C14.9651 3.96337 16.7076 4.4417 17.5105 5.79128L17.6984 6.11587C19.2359 8.79795 21.7642 8.79795 23.3188 6.11587L23.5067 5.79128C24.3097 4.4417 26.0522 3.96337 27.4018 4.76628L30.3572 6.45753C31.9117 7.34587 32.4413 9.34462 31.553 10.8821C29.9984 13.5642 31.2626 15.7509 34.3547 15.7509C36.1313 15.7509 37.6005 17.203 37.6005 18.9967V22.0034C37.6005 23.78 36.1484 25.2492 34.3547 25.2492C31.2626 25.2492 29.9984 27.4359 31.553 30.118C32.4413 31.6725 31.9117 33.6542 30.3572 34.5425L27.4018 36.2338C26.0522 37.0367 24.3097 36.5584 23.5067 35.2088L23.3188 34.8842C21.7813 32.2021 19.253 32.2021 17.6984 34.8842L17.5105 35.2088C16.7076 36.5584 14.9651 37.0367 13.6155 36.2338L10.6601 34.5425C9.1055 33.6542 8.57591 31.6555 9.46425 30.118C11.0188 27.4359 9.75466 25.2492 6.66258 25.2492C4.86883 25.2492 3.41675 23.78 3.41675 22.0034Z" stroke="white" stroke-width="2.7" stroke-miterlimit="10" stroke-linecap="round" stroke-linejoin="round"/>
</svg>
