<svg width="23" height="24" viewBox="0 0 23 24" fill="none" xmlns="http://www.w3.org/2000/svg">
<path d="M11.4999 16.1256C9.20951 16.1256 7.35034 14.2664 7.35034 11.976C7.35034 9.68558 9.20951 7.82642 11.4999 7.82642C13.7903 7.82642 15.6495 9.68558 15.6495 11.976C15.6495 14.2664 13.7903 16.1256 11.4999 16.1256ZM11.4999 9.26392C10.0049 9.26392 8.78784 10.481 8.78784 11.976C8.78784 13.471 10.0049 14.6881 11.4999 14.6881C12.9949 14.6881 14.212 13.471 14.212 11.976C14.212 10.481 12.9949 9.26392 11.4999 9.26392Z" fill="#6F6C90"/>
<path d="M11.4999 20.6201C7.89658 20.6201 4.4945 18.5118 2.15616 14.851C1.14033 13.2697 1.14033 10.6918 2.15616 9.10095C4.50408 5.44012 7.90616 3.33179 11.4999 3.33179C15.0937 3.33179 18.4957 5.44012 20.8341 9.10095C21.8499 10.6822 21.8499 13.2601 20.8341 14.851C18.4957 18.5118 15.0937 20.6201 11.4999 20.6201ZM11.4999 4.76929C8.4045 4.76929 5.44325 6.62845 3.37325 9.8772C2.6545 10.9985 2.6545 12.9535 3.37325 14.0747C5.44325 17.3235 8.4045 19.1826 11.4999 19.1826C14.5953 19.1826 17.5566 17.3235 19.6266 14.0747C20.3453 12.9535 20.3453 10.9985 19.6266 9.8772C17.5566 6.62845 14.5953 4.76929 11.4999 4.76929Z" fill="#6F6C90"/>
</svg>
