<svg width="24" height="25" viewBox="0 0 24 25" fill="none" xmlns="http://www.w3.org/2000/svg">
<path d="M12.06 17.7637C11.65 17.7637 11.31 17.4237 11.31 17.0137V12.0137C11.31 11.6037 11.65 11.2637 12.06 11.2637C12.47 11.2637 12.81 11.6037 12.81 12.0137V17.0137C12.81 17.4237 12.47 17.7637 12.06 17.7637Z" fill="#424151"/>
<path d="M14.5 15.2637H9.5C9.09 15.2637 8.75 14.9237 8.75 14.5137C8.75 14.1037 9.09 13.7637 9.5 13.7637H14.5C14.91 13.7637 15.25 14.1037 15.25 14.5137C15.25 14.9237 14.91 15.2637 14.5 15.2637Z" fill="#424151"/>
<path d="M17 23.2637H7C2.59 23.2637 1.25 21.9237 1.25 17.5137V7.51367C1.25 3.10367 2.59 1.76367 7 1.76367H8.5C10.25 1.76367 10.8 2.33367 11.5 3.26367L13 5.26367C13.33 5.70367 13.38 5.76367 14 5.76367H17C21.41 5.76367 22.75 7.10367 22.75 11.5137V17.5137C22.75 21.9237 21.41 23.2637 17 23.2637ZM7 3.26367C3.43 3.26367 2.75 3.94367 2.75 7.51367V17.5137C2.75 21.0837 3.43 21.7637 7 21.7637H17C20.57 21.7637 21.25 21.0837 21.25 17.5137V11.5137C21.25 7.94367 20.57 7.26367 17 7.26367H14C12.72 7.26367 12.3 6.82367 11.8 6.16367L10.3 4.16367C9.78 3.47367 9.63 3.26367 8.5 3.26367H7Z" fill="#424151"/>
</svg>
