<svg width="384" height="238" viewBox="0 0 384 238" fill="none" xmlns="http://www.w3.org/2000/svg">
<rect x="0.5" y="1" width="383" height="236" rx="20" fill="white" fill-opacity="0.8"/>
<rect x="0.5" y="1" width="383" height="236" rx="20" stroke="#7378A2" stroke-dasharray="5 5"/>
<path d="M203.708 48.9077C204.195 48.9077 204.59 49.3028 204.59 49.7896C204.59 50.2764 204.195 50.6714 203.708 50.6714C199.596 50.6715 195.905 53.4222 194.734 57.3589C194.605 57.7929 194.17 58.0545 193.733 57.9751L193.729 57.98L193.637 57.9526C193.171 57.8135 192.904 57.3227 193.043 56.856L193.18 56.4302C194.674 52.0664 198.812 48.9078 203.708 48.9077Z" fill="#5B629D" stroke="#F9FFF9" stroke-width="0.3"/>
<path d="M213.952 85.645H209.562C209.158 85.645 208.83 85.3173 208.83 84.9132C208.83 84.5092 209.158 84.1815 209.562 84.1815H213.952C220.004 84.1815 224.928 79.2574 224.928 73.2055C224.928 67.1536 220.004 62.2296 213.952 62.2296H213.847C213.634 62.2296 213.433 62.1376 213.294 61.9771C213.155 61.8167 213.092 61.604 213.122 61.3938C213.188 60.9381 213.221 60.4802 213.221 60.0344C213.221 54.7895 208.953 50.5219 203.708 50.5219C201.668 50.5219 199.722 51.1595 198.08 52.3663C197.72 52.6313 197.208 52.5137 196.999 52.117C192.351 43.2662 180.211 42.0777 173.917 49.7771C171.265 53.0207 170.224 57.2402 171.058 61.3526C171.15 61.8068 170.803 62.2301 170.341 62.2301H170.048C163.996 62.2301 159.072 67.1542 159.072 73.2061C159.072 79.258 163.996 84.182 170.048 84.182H174.438C174.842 84.182 175.17 84.5098 175.17 84.9138C175.17 85.3178 174.842 85.6455 174.438 85.6455H170.048C163.189 85.6455 157.609 80.065 157.609 73.206C157.609 66.5395 162.88 61.0807 169.474 60.7797C168.854 56.5131 170.039 52.2095 172.784 48.8509C179.522 40.6069 192.437 41.531 197.896 50.7236C199.637 49.6318 201.63 49.059 203.708 49.059C210.062 49.059 215.098 54.4675 214.657 60.7865C221.19 61.1529 226.391 66.5828 226.391 73.2055C226.391 80.065 220.811 85.645 213.952 85.645L213.952 85.645Z" fill="#5B629D"/>
<path d="M191.902 65.9565C202.127 65.9568 210.445 74.2755 210.445 84.5005C210.445 94.7252 202.127 103.043 191.902 103.043C181.678 103.043 173.359 94.7254 173.359 84.5005C173.359 74.2754 181.677 65.9565 191.902 65.9565ZM191.902 67.9204C182.761 67.9204 175.322 75.3588 175.322 84.5005C175.323 93.6421 182.761 101.08 191.902 101.08C201.044 101.079 208.481 93.6418 208.482 84.5005C208.482 75.3588 201.044 67.9207 191.902 67.9204Z" fill="#5B629D" stroke="#F9FFF9" stroke-width="0.5"/>
<path d="M192.237 77.1499C192.67 77.1501 193.022 77.5023 193.022 77.936V91.8638C193.022 92.298 192.67 92.6497 192.237 92.6499C191.803 92.6499 191.451 92.2976 191.451 91.8638V77.936C191.451 77.5022 191.803 77.1499 192.237 77.1499Z" fill="#5B629D" stroke="#5B629D" stroke-width="0.5"/>
<path d="M191.74 77.3279C192.049 77.0756 192.504 77.0938 192.792 77.3816L197.078 81.6667L197.132 81.7263C197.367 82.0144 197.367 82.4304 197.132 82.7185L197.078 82.7781C196.963 82.8937 196.82 82.9652 196.672 82.9939L196.522 83.0085C196.347 83.0085 196.17 82.9492 196.026 82.8318L195.967 82.7781L192.236 79.0476L188.507 82.7781C188.219 83.0661 187.764 83.0836 187.455 82.8318L187.395 82.7781C187.088 82.4711 187.088 81.9737 187.395 81.6667L191.681 77.3816L191.74 77.3279Z" fill="#5B629D" stroke="#5B629D" stroke-width="0.5"/>
<path d="M103.148 130.793C103.041 130.793 102.95 130.756 102.876 130.681C102.801 130.607 102.764 130.516 102.764 130.409V119.993C102.764 119.876 102.801 119.78 102.876 119.705C102.95 119.631 103.041 119.593 103.148 119.593H107.788C108.652 119.593 109.356 119.727 109.9 119.993C110.444 120.249 110.844 120.607 111.1 121.065C111.366 121.524 111.5 122.057 111.5 122.665C111.5 123.071 111.425 123.428 111.276 123.737C111.137 124.036 110.961 124.281 110.748 124.473C110.545 124.665 110.342 124.815 110.14 124.921C110.556 125.113 110.924 125.433 111.244 125.881C111.564 126.329 111.724 126.863 111.724 127.481C111.724 128.121 111.58 128.692 111.292 129.193C111.004 129.695 110.577 130.089 110.012 130.377C109.446 130.655 108.748 130.793 107.916 130.793H103.148ZM104.988 129.097H107.66C108.236 129.097 108.673 128.943 108.972 128.633C109.27 128.313 109.42 127.929 109.42 127.481C109.42 127.012 109.265 126.623 108.956 126.313C108.657 126.004 108.225 125.849 107.66 125.849H104.988V129.097ZM104.988 124.185H107.5C108.065 124.185 108.486 124.052 108.764 123.785C109.052 123.508 109.196 123.151 109.196 122.713C109.196 122.265 109.052 121.919 108.764 121.673C108.486 121.417 108.065 121.289 107.5 121.289H104.988V124.185ZM113.924 130.793C113.818 130.793 113.727 130.756 113.652 130.681C113.578 130.607 113.54 130.516 113.54 130.409V122.857C113.54 122.751 113.578 122.66 113.652 122.585C113.727 122.511 113.818 122.473 113.924 122.473H115.268C115.375 122.473 115.466 122.511 115.54 122.585C115.615 122.66 115.652 122.751 115.652 122.857V125.113H117.204C118.292 125.113 119.108 125.369 119.652 125.881C120.196 126.393 120.468 127.097 120.468 127.993C120.468 128.921 120.175 129.62 119.588 130.089C119.012 130.559 118.175 130.793 117.076 130.793H113.924ZM115.62 129.273H117.028C117.551 129.273 117.935 129.177 118.18 128.985C118.436 128.793 118.564 128.463 118.564 127.993C118.564 127.535 118.442 127.193 118.196 126.969C117.962 126.745 117.572 126.633 117.028 126.633H115.62V129.273ZM121.908 130.793C121.802 130.793 121.711 130.756 121.636 130.681C121.562 130.607 121.524 130.516 121.524 130.409V122.857C121.524 122.751 121.562 122.66 121.636 122.585C121.711 122.511 121.802 122.473 121.908 122.473H123.236C123.354 122.473 123.444 122.511 123.508 122.585C123.583 122.66 123.62 122.751 123.62 122.857V130.409C123.62 130.516 123.583 130.607 123.508 130.681C123.444 130.756 123.354 130.793 123.236 130.793H121.908ZM129.535 130.953C128.649 130.953 127.913 130.799 127.327 130.489C126.751 130.169 126.319 129.705 126.031 129.097C125.743 128.489 125.577 127.748 125.535 126.873C125.535 126.564 125.535 126.244 125.535 125.913C125.535 125.583 125.535 125.263 125.535 124.953C125.556 124.015 125.647 123.236 125.807 122.617C125.977 121.988 126.228 121.471 126.559 121.065C126.889 120.649 127.316 120.308 127.839 120.041C128.361 119.764 128.98 119.524 129.695 119.321C130.409 119.119 131.236 118.905 132.175 118.681C132.281 118.66 132.377 118.676 132.463 118.729C132.559 118.783 132.612 118.868 132.623 118.985L132.831 120.041C132.852 120.148 132.836 120.244 132.783 120.329C132.729 120.404 132.655 120.452 132.559 120.473C131.748 120.655 131.049 120.82 130.463 120.969C129.876 121.108 129.391 121.268 129.007 121.449C128.623 121.631 128.319 121.871 128.095 122.169C127.881 122.457 127.732 122.836 127.647 123.305C127.561 123.775 127.535 124.377 127.567 125.113L127.199 124.809C127.263 124.479 127.428 124.175 127.695 123.897C127.961 123.62 128.287 123.401 128.671 123.241C129.065 123.071 129.481 122.985 129.919 122.985C130.687 122.985 131.332 123.129 131.855 123.417C132.377 123.705 132.777 124.111 133.055 124.633C133.343 125.145 133.503 125.748 133.535 126.441C133.556 126.825 133.556 127.177 133.535 127.497C133.503 128.18 133.332 128.783 133.023 129.305C132.713 129.828 132.271 130.233 131.695 130.521C131.119 130.809 130.399 130.953 129.535 130.953ZM129.535 129.481C130.111 129.481 130.553 129.305 130.863 128.953C131.172 128.601 131.337 128.089 131.359 127.417C131.369 127.3 131.375 127.161 131.375 127.001C131.375 126.831 131.369 126.671 131.359 126.521C131.337 125.849 131.172 125.337 130.863 124.985C130.564 124.633 130.164 124.457 129.663 124.457C129.087 124.457 128.623 124.633 128.271 124.985C127.929 125.337 127.748 125.849 127.727 126.521C127.716 126.671 127.711 126.831 127.711 127.001C127.711 127.161 127.716 127.3 127.727 127.417C127.748 128.089 127.913 128.601 128.223 128.953C128.532 129.305 128.969 129.481 129.535 129.481ZM135.722 133.833C135.615 133.833 135.524 133.796 135.45 133.721C135.375 133.647 135.338 133.556 135.338 133.449V122.857C135.338 122.751 135.375 122.66 135.45 122.585C135.524 122.511 135.615 122.473 135.722 122.473H136.986C137.103 122.473 137.194 122.511 137.258 122.585C137.332 122.66 137.37 122.751 137.37 122.857V123.497C137.626 123.156 137.962 122.873 138.378 122.649C138.794 122.425 139.311 122.313 139.93 122.313C140.495 122.313 140.986 122.404 141.402 122.585C141.818 122.767 142.164 123.028 142.442 123.369C142.719 123.7 142.932 124.095 143.082 124.553C143.231 125.012 143.316 125.519 143.338 126.073C143.348 126.255 143.354 126.441 143.354 126.633C143.354 126.825 143.348 127.017 143.338 127.209C143.327 127.743 143.247 128.239 143.098 128.697C142.948 129.145 142.73 129.54 142.442 129.881C142.164 130.212 141.818 130.473 141.402 130.665C140.986 130.857 140.495 130.953 139.93 130.953C139.354 130.953 138.863 130.852 138.458 130.649C138.052 130.436 137.722 130.159 137.466 129.817V133.449C137.466 133.556 137.428 133.647 137.354 133.721C137.29 133.796 137.199 133.833 137.082 133.833H135.722ZM139.338 129.241C139.796 129.241 140.154 129.145 140.41 128.953C140.666 128.751 140.847 128.489 140.954 128.169C141.071 127.849 141.14 127.497 141.162 127.113C141.183 126.793 141.183 126.473 141.162 126.153C141.14 125.769 141.071 125.417 140.954 125.097C140.847 124.777 140.666 124.521 140.41 124.329C140.154 124.127 139.796 124.025 139.338 124.025C138.9 124.025 138.543 124.127 138.266 124.329C137.999 124.532 137.802 124.793 137.674 125.113C137.556 125.423 137.487 125.743 137.466 126.073C137.455 126.265 137.45 126.468 137.45 126.681C137.45 126.895 137.455 127.103 137.466 127.305C137.476 127.625 137.551 127.935 137.69 128.233C137.828 128.521 138.031 128.761 138.298 128.953C138.564 129.145 138.911 129.241 139.338 129.241ZM147.566 130.953C147.011 130.953 146.51 130.847 146.062 130.633C145.614 130.409 145.256 130.116 144.99 129.753C144.734 129.38 144.606 128.964 144.606 128.505C144.606 127.759 144.904 127.167 145.502 126.729C146.11 126.281 146.91 125.983 147.902 125.833L150.094 125.513V125.177C150.094 124.729 149.982 124.383 149.758 124.137C149.534 123.892 149.15 123.769 148.606 123.769C148.222 123.769 147.907 123.849 147.662 124.009C147.427 124.159 147.251 124.361 147.134 124.617C147.048 124.756 146.926 124.825 146.766 124.825H145.502C145.384 124.825 145.294 124.793 145.23 124.729C145.176 124.665 145.15 124.58 145.15 124.473C145.16 124.303 145.23 124.095 145.358 123.849C145.486 123.604 145.688 123.369 145.966 123.145C146.243 122.911 146.6 122.713 147.038 122.553C147.475 122.393 148.003 122.313 148.622 122.313C149.294 122.313 149.859 122.399 150.318 122.569C150.787 122.729 151.16 122.948 151.438 123.225C151.715 123.503 151.918 123.828 152.046 124.201C152.174 124.575 152.238 124.969 152.238 125.385V130.409C152.238 130.516 152.2 130.607 152.126 130.681C152.051 130.756 151.96 130.793 151.854 130.793H150.558C150.44 130.793 150.344 130.756 150.27 130.681C150.206 130.607 150.174 130.516 150.174 130.409V129.785C150.035 129.988 149.848 130.18 149.614 130.361C149.379 130.532 149.091 130.676 148.75 130.793C148.419 130.9 148.024 130.953 147.566 130.953ZM148.11 129.433C148.483 129.433 148.819 129.353 149.118 129.193C149.427 129.033 149.667 128.788 149.838 128.457C150.019 128.116 150.11 127.689 150.11 127.177V126.841L148.51 127.097C147.88 127.193 147.411 127.348 147.102 127.561C146.792 127.775 146.638 128.036 146.638 128.345C146.638 128.58 146.707 128.783 146.846 128.953C146.995 129.113 147.182 129.236 147.406 129.321C147.63 129.396 147.864 129.433 148.11 129.433ZM156.834 130.793C156.717 130.793 156.621 130.756 156.546 130.681C156.482 130.607 156.45 130.516 156.45 130.409V124.169H153.842C153.725 124.169 153.629 124.132 153.554 124.057C153.49 123.983 153.458 123.892 153.458 123.785V122.857C153.458 122.751 153.49 122.66 153.554 122.585C153.629 122.511 153.725 122.473 153.842 122.473H161.106C161.224 122.473 161.32 122.511 161.394 122.585C161.469 122.66 161.506 122.751 161.506 122.857V123.785C161.506 123.892 161.469 123.983 161.394 124.057C161.32 124.132 161.224 124.169 161.106 124.169H158.514V130.409C158.514 130.516 158.477 130.607 158.402 130.681C158.328 130.756 158.237 130.793 158.13 130.793H156.834ZM163.159 130.793C163.052 130.793 162.961 130.756 162.887 130.681C162.812 130.607 162.775 130.516 162.775 130.409V122.857C162.775 122.751 162.812 122.66 162.887 122.585C162.961 122.511 163.052 122.473 163.159 122.473H164.503C164.609 122.473 164.7 122.511 164.775 122.585C164.849 122.66 164.887 122.751 164.887 122.857V125.113H166.535C167.623 125.113 168.439 125.369 168.983 125.881C169.527 126.393 169.799 127.097 169.799 127.993C169.799 128.921 169.505 129.62 168.919 130.089C168.332 130.559 167.495 130.793 166.407 130.793H163.159ZM164.855 129.273H166.359C166.881 129.273 167.265 129.177 167.511 128.985C167.767 128.793 167.895 128.463 167.895 127.993C167.895 127.535 167.772 127.193 167.527 126.969C167.292 126.745 166.903 126.633 166.359 126.633H164.855V129.273ZM175.283 130.793C175.187 130.793 175.102 130.756 175.027 130.681C174.953 130.607 174.915 130.521 174.915 130.425V122.857C174.915 122.751 174.953 122.66 175.027 122.585C175.102 122.511 175.193 122.473 175.299 122.473H176.627C176.745 122.473 176.835 122.511 176.899 122.585C176.974 122.66 177.011 122.751 177.011 122.857V129.177L176.451 128.777L180.851 122.729C180.905 122.655 180.963 122.596 181.027 122.553C181.091 122.5 181.177 122.473 181.283 122.473H182.499C182.595 122.473 182.681 122.511 182.755 122.585C182.83 122.649 182.867 122.729 182.867 122.825V130.409C182.867 130.516 182.83 130.607 182.755 130.681C182.681 130.756 182.59 130.793 182.483 130.793H181.155C181.038 130.793 180.942 130.756 180.867 130.681C180.803 130.607 180.771 130.516 180.771 130.409V124.377L181.363 124.457L176.931 130.537C176.889 130.601 176.83 130.66 176.755 130.713C176.691 130.767 176.606 130.793 176.499 130.793H175.283ZM188.084 130.953C187.401 130.953 186.825 130.873 186.356 130.713C185.897 130.553 185.529 130.351 185.252 130.105C184.985 129.86 184.788 129.604 184.66 129.337C184.543 129.06 184.473 128.809 184.452 128.585C184.452 128.489 184.484 128.415 184.548 128.361C184.612 128.308 184.681 128.281 184.756 128.281H186.068C186.175 128.281 186.255 128.303 186.308 128.345C186.372 128.388 186.425 128.457 186.468 128.553C186.575 128.873 186.772 129.097 187.06 129.225C187.359 129.353 187.727 129.417 188.164 129.417C188.463 129.417 188.729 129.38 188.964 129.305C189.199 129.22 189.38 129.097 189.508 128.937C189.636 128.767 189.7 128.559 189.7 128.313C189.7 127.961 189.599 127.695 189.396 127.513C189.193 127.321 188.863 127.225 188.404 127.225H187.524C187.417 127.225 187.332 127.193 187.268 127.129C187.204 127.065 187.172 126.98 187.172 126.873V126.201C187.172 126.105 187.204 126.025 187.268 125.961C187.332 125.887 187.417 125.849 187.524 125.849H188.34C188.724 125.849 189.012 125.78 189.204 125.641C189.396 125.492 189.492 125.263 189.492 124.953C189.492 124.772 189.444 124.601 189.348 124.441C189.263 124.271 189.119 124.132 188.916 124.025C188.713 123.919 188.431 123.865 188.068 123.865C187.567 123.865 187.209 123.945 186.996 124.105C186.783 124.265 186.628 124.505 186.532 124.825C186.489 124.921 186.436 124.991 186.372 125.033C186.319 125.076 186.233 125.097 186.116 125.097H184.852C184.767 125.097 184.692 125.071 184.628 125.017C184.575 124.964 184.548 124.889 184.548 124.793C184.569 124.505 184.644 124.217 184.772 123.929C184.911 123.631 185.119 123.359 185.396 123.113C185.684 122.868 186.047 122.676 186.484 122.537C186.921 122.388 187.455 122.313 188.084 122.313C188.937 122.313 189.615 122.431 190.116 122.665C190.617 122.9 190.975 123.199 191.188 123.561C191.412 123.913 191.524 124.281 191.524 124.665C191.524 125.06 191.449 125.401 191.3 125.689C191.161 125.977 190.9 126.212 190.516 126.393C190.996 126.575 191.327 126.852 191.508 127.225C191.689 127.599 191.785 128.009 191.796 128.457C191.796 128.991 191.641 129.444 191.332 129.817C191.023 130.18 190.591 130.463 190.036 130.665C189.481 130.857 188.831 130.953 188.084 130.953ZM197.127 130.953C196.273 130.953 195.553 130.804 194.967 130.505C194.391 130.207 193.948 129.785 193.639 129.241C193.34 128.697 193.169 128.063 193.127 127.337C193.116 127.145 193.111 126.911 193.111 126.633C193.111 126.356 193.116 126.121 193.127 125.929C193.169 125.193 193.345 124.559 193.655 124.025C193.975 123.481 194.423 123.06 194.999 122.761C195.585 122.463 196.295 122.313 197.127 122.313C197.959 122.313 198.663 122.463 199.239 122.761C199.825 123.06 200.273 123.481 200.583 124.025C200.903 124.559 201.084 125.193 201.127 125.929C201.137 126.121 201.143 126.356 201.143 126.633C201.143 126.911 201.137 127.145 201.127 127.337C201.084 128.063 200.908 128.697 200.599 129.241C200.3 129.785 199.857 130.207 199.271 130.505C198.695 130.804 197.98 130.953 197.127 130.953ZM197.127 129.369C197.692 129.369 198.129 129.193 198.439 128.841C198.748 128.479 198.919 127.951 198.951 127.257C198.961 127.097 198.967 126.889 198.967 126.633C198.967 126.377 198.961 126.169 198.951 126.009C198.919 125.327 198.748 124.804 198.439 124.441C198.129 124.079 197.692 123.897 197.127 123.897C196.561 123.897 196.124 124.079 195.815 124.441C195.505 124.804 195.335 125.327 195.303 126.009C195.292 126.169 195.287 126.377 195.287 126.633C195.287 126.889 195.292 127.097 195.303 127.257C195.335 127.951 195.505 128.479 195.815 128.841C196.124 129.193 196.561 129.369 197.127 129.369ZM206.675 130.953C205.79 130.953 205.054 130.799 204.467 130.489C203.891 130.169 203.459 129.705 203.171 129.097C202.883 128.489 202.718 127.748 202.675 126.873C202.675 126.564 202.675 126.244 202.675 125.913C202.675 125.583 202.675 125.263 202.675 124.953C202.697 124.015 202.787 123.236 202.947 122.617C203.118 121.988 203.369 121.471 203.699 121.065C204.03 120.649 204.457 120.308 204.979 120.041C205.502 119.764 206.121 119.524 206.835 119.321C207.55 119.119 208.377 118.905 209.315 118.681C209.422 118.66 209.518 118.676 209.603 118.729C209.699 118.783 209.753 118.868 209.763 118.985L209.971 120.041C209.993 120.148 209.977 120.244 209.923 120.329C209.87 120.404 209.795 120.452 209.699 120.473C208.889 120.655 208.19 120.82 207.603 120.969C207.017 121.108 206.531 121.268 206.147 121.449C205.763 121.631 205.459 121.871 205.235 122.169C205.022 122.457 204.873 122.836 204.787 123.305C204.702 123.775 204.675 124.377 204.707 125.113L204.339 124.809C204.403 124.479 204.569 124.175 204.835 123.897C205.102 123.62 205.427 123.401 205.811 123.241C206.206 123.071 206.622 122.985 207.059 122.985C207.827 122.985 208.473 123.129 208.995 123.417C209.518 123.705 209.918 124.111 210.195 124.633C210.483 125.145 210.643 125.748 210.675 126.441C210.697 126.825 210.697 127.177 210.675 127.497C210.643 128.18 210.473 128.783 210.163 129.305C209.854 129.828 209.411 130.233 208.835 130.521C208.259 130.809 207.539 130.953 206.675 130.953ZM206.675 129.481C207.251 129.481 207.694 129.305 208.003 128.953C208.313 128.601 208.478 128.089 208.499 127.417C208.51 127.3 208.515 127.161 208.515 127.001C208.515 126.831 208.51 126.671 208.499 126.521C208.478 125.849 208.313 125.337 208.003 124.985C207.705 124.633 207.305 124.457 206.803 124.457C206.227 124.457 205.763 124.633 205.411 124.985C205.07 125.337 204.889 125.849 204.867 126.521C204.857 126.671 204.851 126.831 204.851 127.001C204.851 127.161 204.857 127.3 204.867 127.417C204.889 128.089 205.054 128.601 205.363 128.953C205.673 129.305 206.11 129.481 206.675 129.481ZM212.862 133.833C212.756 133.833 212.665 133.796 212.59 133.721C212.516 133.647 212.478 133.556 212.478 133.449V122.857C212.478 122.751 212.516 122.66 212.59 122.585C212.665 122.511 212.756 122.473 212.862 122.473H214.126C214.244 122.473 214.334 122.511 214.398 122.585C214.473 122.66 214.51 122.751 214.51 122.857V123.497C214.766 123.156 215.102 122.873 215.518 122.649C215.934 122.425 216.452 122.313 217.07 122.313C217.636 122.313 218.126 122.404 218.542 122.585C218.958 122.767 219.305 123.028 219.582 123.369C219.86 123.7 220.073 124.095 220.222 124.553C220.372 125.012 220.457 125.519 220.478 126.073C220.489 126.255 220.494 126.441 220.494 126.633C220.494 126.825 220.489 127.017 220.478 127.209C220.468 127.743 220.388 128.239 220.238 128.697C220.089 129.145 219.87 129.54 219.582 129.881C219.305 130.212 218.958 130.473 218.542 130.665C218.126 130.857 217.636 130.953 217.07 130.953C216.494 130.953 216.004 130.852 215.598 130.649C215.193 130.436 214.862 130.159 214.606 129.817V133.449C214.606 133.556 214.569 133.647 214.494 133.721C214.43 133.796 214.34 133.833 214.222 133.833H212.862ZM216.478 129.241C216.937 129.241 217.294 129.145 217.55 128.953C217.806 128.751 217.988 128.489 218.094 128.169C218.212 127.849 218.281 127.497 218.302 127.113C218.324 126.793 218.324 126.473 218.302 126.153C218.281 125.769 218.212 125.417 218.094 125.097C217.988 124.777 217.806 124.521 217.55 124.329C217.294 124.127 216.937 124.025 216.478 124.025C216.041 124.025 215.684 124.127 215.406 124.329C215.14 124.532 214.942 124.793 214.814 125.113C214.697 125.423 214.628 125.743 214.606 126.073C214.596 126.265 214.59 126.468 214.59 126.681C214.59 126.895 214.596 127.103 214.606 127.305C214.617 127.625 214.692 127.935 214.83 128.233C214.969 128.521 215.172 128.761 215.438 128.953C215.705 129.145 216.052 129.241 216.478 129.241ZM224.706 130.953C224.152 130.953 223.65 130.847 223.202 130.633C222.754 130.409 222.397 130.116 222.13 129.753C221.874 129.38 221.746 128.964 221.746 128.505C221.746 127.759 222.045 127.167 222.642 126.729C223.25 126.281 224.05 125.983 225.042 125.833L227.234 125.513V125.177C227.234 124.729 227.122 124.383 226.898 124.137C226.674 123.892 226.29 123.769 225.746 123.769C225.362 123.769 225.048 123.849 224.802 124.009C224.568 124.159 224.392 124.361 224.274 124.617C224.189 124.756 224.066 124.825 223.906 124.825H222.642C222.525 124.825 222.434 124.793 222.37 124.729C222.317 124.665 222.29 124.58 222.29 124.473C222.301 124.303 222.37 124.095 222.498 123.849C222.626 123.604 222.829 123.369 223.106 123.145C223.384 122.911 223.741 122.713 224.178 122.553C224.616 122.393 225.144 122.313 225.762 122.313C226.434 122.313 227 122.399 227.458 122.569C227.928 122.729 228.301 122.948 228.578 123.225C228.856 123.503 229.058 123.828 229.186 124.201C229.314 124.575 229.378 124.969 229.378 125.385V130.409C229.378 130.516 229.341 130.607 229.266 130.681C229.192 130.756 229.101 130.793 228.994 130.793H227.698C227.581 130.793 227.485 130.756 227.41 130.681C227.346 130.607 227.314 130.516 227.314 130.409V129.785C227.176 129.988 226.989 130.18 226.754 130.361C226.52 130.532 226.232 130.676 225.89 130.793C225.56 130.9 225.165 130.953 224.706 130.953ZM225.25 129.433C225.624 129.433 225.96 129.353 226.258 129.193C226.568 129.033 226.808 128.788 226.978 128.457C227.16 128.116 227.25 127.689 227.25 127.177V126.841L225.65 127.097C225.021 127.193 224.552 127.348 224.242 127.561C223.933 127.775 223.778 128.036 223.778 128.345C223.778 128.58 223.848 128.783 223.986 128.953C224.136 129.113 224.322 129.236 224.546 129.321C224.77 129.396 225.005 129.433 225.25 129.433ZM231.047 130.793C230.951 130.793 230.871 130.767 230.807 130.713C230.743 130.66 230.711 130.591 230.711 130.505C230.711 130.441 230.738 130.372 230.791 130.297L233.431 126.473L231.127 122.969C231.106 122.937 231.09 122.905 231.079 122.873C231.068 122.831 231.063 122.793 231.063 122.761C231.063 122.676 231.09 122.607 231.143 122.553C231.207 122.5 231.292 122.473 231.399 122.473H232.823C232.951 122.473 233.047 122.5 233.111 122.553C233.175 122.596 233.228 122.655 233.271 122.729L235.223 125.721H236.199V122.857C236.199 122.751 236.236 122.66 236.311 122.585C236.386 122.511 236.476 122.473 236.583 122.473H237.879C237.996 122.473 238.087 122.511 238.151 122.585C238.226 122.66 238.263 122.751 238.263 122.857V125.721H239.207L241.191 122.729C241.223 122.655 241.271 122.596 241.335 122.553C241.41 122.5 241.506 122.473 241.623 122.473H243.063C243.159 122.473 243.239 122.5 243.303 122.553C243.367 122.607 243.399 122.676 243.399 122.761C243.399 122.793 243.388 122.831 243.367 122.873C243.356 122.905 243.34 122.937 243.319 122.969L241.015 126.473L243.671 130.297C243.714 130.361 243.735 130.431 243.735 130.505C243.735 130.591 243.703 130.66 243.639 130.713C243.586 130.767 243.506 130.793 243.399 130.793H241.799C241.671 130.793 241.57 130.767 241.495 130.713C241.431 130.66 241.383 130.607 241.351 130.553L239.223 127.401H238.263V130.409C238.263 130.516 238.226 130.607 238.151 130.681C238.087 130.756 237.996 130.793 237.879 130.793H236.583C236.476 130.793 236.386 130.756 236.311 130.681C236.236 130.607 236.199 130.516 236.199 130.409V127.401H235.239L233.111 130.553C233.079 130.607 233.026 130.66 232.951 130.713C232.876 130.767 232.78 130.793 232.663 130.793H231.047ZM248.718 130.953C247.534 130.953 246.595 130.612 245.902 129.929C245.209 129.247 244.835 128.276 244.782 127.017C244.771 126.911 244.766 126.777 244.766 126.617C244.766 126.447 244.771 126.313 244.782 126.217C244.825 125.417 245.006 124.724 245.326 124.137C245.657 123.551 246.11 123.103 246.686 122.793C247.262 122.473 247.939 122.313 248.718 122.313C249.582 122.313 250.307 122.495 250.894 122.857C251.481 123.209 251.923 123.705 252.222 124.345C252.521 124.975 252.67 125.705 252.67 126.537V126.873C252.67 126.98 252.633 127.071 252.558 127.145C252.483 127.22 252.387 127.257 252.27 127.257H246.958C246.958 127.257 246.958 127.273 246.958 127.305C246.958 127.337 246.958 127.364 246.958 127.385C246.969 127.759 247.038 128.105 247.166 128.425C247.305 128.735 247.502 128.985 247.758 129.177C248.025 129.369 248.339 129.465 248.702 129.465C249.001 129.465 249.251 129.423 249.454 129.337C249.657 129.241 249.822 129.135 249.95 129.017C250.078 128.9 250.169 128.804 250.222 128.729C250.318 128.601 250.393 128.527 250.446 128.505C250.51 128.473 250.601 128.457 250.718 128.457H252.094C252.201 128.457 252.286 128.489 252.35 128.553C252.425 128.617 252.457 128.697 252.446 128.793C252.435 128.964 252.345 129.172 252.174 129.417C252.014 129.663 251.779 129.903 251.47 130.137C251.161 130.372 250.771 130.569 250.302 130.729C249.843 130.879 249.315 130.953 248.718 130.953ZM246.958 125.913H250.494V125.865C250.494 125.449 250.425 125.087 250.286 124.777C250.147 124.468 249.945 124.223 249.678 124.041C249.411 123.86 249.091 123.769 248.718 123.769C248.345 123.769 248.025 123.86 247.758 124.041C247.491 124.223 247.289 124.468 247.15 124.777C247.022 125.087 246.958 125.449 246.958 125.865V125.913ZM254.753 130.793C254.646 130.793 254.555 130.756 254.481 130.681C254.406 130.607 254.368 130.516 254.368 130.409V122.857C254.368 122.751 254.406 122.66 254.481 122.585C254.555 122.511 254.646 122.473 254.753 122.473H256.081C256.198 122.473 256.289 122.511 256.353 122.585C256.427 122.66 256.465 122.751 256.465 122.857V125.721H260.081V122.857C260.081 122.751 260.118 122.66 260.193 122.585C260.267 122.511 260.358 122.473 260.465 122.473H261.793C261.899 122.473 261.99 122.511 262.065 122.585C262.139 122.66 262.177 122.751 262.177 122.857V130.409C262.177 130.516 262.139 130.607 262.065 130.681C261.99 130.756 261.899 130.793 261.793 130.793H260.465C260.358 130.793 260.267 130.756 260.193 130.681C260.118 130.607 260.081 130.516 260.081 130.409V127.401H256.465V130.409C256.465 130.516 256.427 130.607 256.353 130.681C256.289 130.756 256.198 130.793 256.081 130.793H254.753ZM264.705 130.793C264.609 130.793 264.524 130.756 264.449 130.681C264.375 130.607 264.337 130.521 264.337 130.425V122.857C264.337 122.751 264.375 122.66 264.449 122.585C264.524 122.511 264.615 122.473 264.721 122.473H266.049C266.167 122.473 266.257 122.511 266.321 122.585C266.396 122.66 266.433 122.751 266.433 122.857V129.177L265.873 128.777L270.273 122.729C270.327 122.655 270.385 122.596 270.449 122.553C270.513 122.5 270.599 122.473 270.705 122.473H271.921C272.017 122.473 272.103 122.511 272.177 122.585C272.252 122.649 272.289 122.729 272.289 122.825V130.409C272.289 130.516 272.252 130.607 272.177 130.681C272.103 130.756 272.012 130.793 271.905 130.793H270.577C270.46 130.793 270.364 130.756 270.289 130.681C270.225 130.607 270.193 130.516 270.193 130.409V124.377L270.785 124.457L266.353 130.537C266.311 130.601 266.252 130.66 266.177 130.713C266.113 130.767 266.028 130.793 265.921 130.793H264.705ZM277.89 130.953C276.706 130.953 275.767 130.612 275.074 129.929C274.381 129.247 274.007 128.276 273.954 127.017C273.943 126.911 273.938 126.777 273.938 126.617C273.938 126.447 273.943 126.313 273.954 126.217C273.997 125.417 274.178 124.724 274.498 124.137C274.829 123.551 275.282 123.103 275.858 122.793C276.434 122.473 277.111 122.313 277.89 122.313C278.754 122.313 279.479 122.495 280.066 122.857C280.653 123.209 281.095 123.705 281.394 124.345C281.693 124.975 281.842 125.705 281.842 126.537V126.873C281.842 126.98 281.805 127.071 281.73 127.145C281.655 127.22 281.559 127.257 281.442 127.257H276.13C276.13 127.257 276.13 127.273 276.13 127.305C276.13 127.337 276.13 127.364 276.13 127.385C276.141 127.759 276.21 128.105 276.338 128.425C276.477 128.735 276.674 128.985 276.93 129.177C277.197 129.369 277.511 129.465 277.874 129.465C278.173 129.465 278.423 129.423 278.626 129.337C278.829 129.241 278.994 129.135 279.122 129.017C279.25 128.9 279.341 128.804 279.394 128.729C279.49 128.601 279.565 128.527 279.618 128.505C279.682 128.473 279.773 128.457 279.89 128.457H281.266C281.373 128.457 281.458 128.489 281.522 128.553C281.597 128.617 281.629 128.697 281.618 128.793C281.607 128.964 281.517 129.172 281.346 129.417C281.186 129.663 280.951 129.903 280.642 130.137C280.333 130.372 279.943 130.569 279.474 130.729C279.015 130.879 278.487 130.953 277.89 130.953ZM276.13 125.913H279.666V125.865C279.666 125.449 279.597 125.087 279.458 124.777C279.319 124.468 279.117 124.223 278.85 124.041C278.583 123.86 278.263 123.769 277.89 123.769C277.517 123.769 277.197 123.86 276.93 124.041C276.663 124.223 276.461 124.468 276.322 124.777C276.194 125.087 276.13 125.449 276.13 125.865V125.913Z" fill="#1E212C"/>
<path d="M112.256 166.793C112.168 166.793 112.1 166.769 112.052 166.721C112.004 166.665 111.98 166.597 111.98 166.517V158.681C111.98 158.593 112.004 158.525 112.052 158.477C112.1 158.421 112.168 158.393 112.256 158.393H118.172C118.26 158.393 118.328 158.421 118.376 158.477C118.432 158.525 118.46 158.593 118.46 158.681V166.517C118.46 166.597 118.432 166.665 118.376 166.721C118.328 166.769 118.26 166.793 118.172 166.793H117.56C117.48 166.793 117.412 166.769 117.356 166.721C117.308 166.665 117.284 166.597 117.284 166.517V159.473H113.156V166.517C113.156 166.597 113.128 166.665 113.072 166.721C113.024 166.769 112.956 166.793 112.868 166.793H112.256ZM122.934 166.913C122.326 166.913 121.818 166.797 121.41 166.565C121.002 166.333 120.69 166.013 120.474 165.605C120.258 165.189 120.138 164.717 120.114 164.189C120.106 164.053 120.102 163.881 120.102 163.673C120.102 163.457 120.106 163.285 120.114 163.157C120.138 162.621 120.258 162.149 120.474 161.741C120.698 161.333 121.014 161.013 121.422 160.781C121.83 160.549 122.334 160.433 122.934 160.433C123.534 160.433 124.038 160.549 124.446 160.781C124.854 161.013 125.166 161.333 125.382 161.741C125.606 162.149 125.73 162.621 125.754 163.157C125.762 163.285 125.766 163.457 125.766 163.673C125.766 163.881 125.762 164.053 125.754 164.189C125.73 164.717 125.61 165.189 125.394 165.605C125.178 166.013 124.866 166.333 124.458 166.565C124.05 166.797 123.542 166.913 122.934 166.913ZM122.934 165.989C123.43 165.989 123.826 165.833 124.122 165.521C124.418 165.201 124.578 164.737 124.602 164.129C124.61 164.009 124.614 163.857 124.614 163.673C124.614 163.489 124.61 163.337 124.602 163.217C124.578 162.609 124.418 162.149 124.122 161.837C123.826 161.517 123.43 161.357 122.934 161.357C122.438 161.357 122.038 161.517 121.734 161.837C121.438 162.149 121.282 162.609 121.266 163.217C121.258 163.337 121.254 163.489 121.254 163.673C121.254 163.857 121.258 164.009 121.266 164.129C121.282 164.737 121.438 165.201 121.734 165.521C122.038 165.833 122.438 165.989 122.934 165.989ZM126.909 168.113C126.829 168.113 126.761 168.085 126.705 168.029C126.657 167.981 126.633 167.917 126.633 167.837V166.109C126.633 166.029 126.657 165.965 126.705 165.917C126.761 165.861 126.829 165.833 126.909 165.833H126.969C127.185 165.825 127.369 165.705 127.521 165.473C127.673 165.233 127.789 164.861 127.869 164.357C127.949 163.845 127.989 163.181 127.989 162.365V160.829C127.989 160.749 128.013 160.685 128.061 160.637C128.117 160.581 128.185 160.553 128.265 160.553H132.093C132.173 160.553 132.237 160.581 132.285 160.637C132.341 160.685 132.369 160.749 132.369 160.829V165.809H132.933C133.021 165.809 133.089 165.837 133.137 165.893C133.185 165.941 133.209 166.005 133.209 166.085V167.837C133.209 167.917 133.185 167.981 133.137 168.029C133.089 168.085 133.021 168.113 132.933 168.113H132.369C132.289 168.113 132.221 168.085 132.165 168.029C132.117 167.981 132.093 167.917 132.093 167.837V166.793H127.749V167.837C127.749 167.917 127.721 167.981 127.665 168.029C127.617 168.085 127.553 168.113 127.473 168.113H126.909ZM128.397 165.833L131.253 165.809V161.513H129.081V162.497C129.081 163.345 129.021 164.041 128.901 164.585C128.781 165.121 128.613 165.537 128.397 165.833ZM134.104 168.113C134.024 168.113 133.956 168.085 133.9 168.029C133.852 167.981 133.828 167.917 133.828 167.837V166.109C133.828 166.029 133.852 165.965 133.9 165.917C133.956 165.861 134.024 165.833 134.104 165.833H134.164C134.38 165.825 134.564 165.705 134.716 165.473C134.868 165.233 134.984 164.861 135.064 164.357C135.144 163.845 135.184 163.181 135.184 162.365V160.829C135.184 160.749 135.208 160.685 135.256 160.637C135.312 160.581 135.38 160.553 135.46 160.553H139.288C139.368 160.553 139.432 160.581 139.48 160.637C139.536 160.685 139.564 160.749 139.564 160.829V165.809H140.128C140.216 165.809 140.284 165.837 140.332 165.893C140.38 165.941 140.404 166.005 140.404 166.085V167.837C140.404 167.917 140.38 167.981 140.332 168.029C140.284 168.085 140.216 168.113 140.128 168.113H139.564C139.484 168.113 139.416 168.085 139.36 168.029C139.312 167.981 139.288 167.917 139.288 167.837V166.793H134.944V167.837C134.944 167.917 134.916 167.981 134.86 168.029C134.812 168.085 134.748 168.113 134.668 168.113H134.104ZM135.592 165.833L138.448 165.809V161.513H136.276V162.497C136.276 163.345 136.216 164.041 136.096 164.585C135.976 165.121 135.808 165.537 135.592 165.833ZM144.143 166.913C143.319 166.913 142.663 166.661 142.175 166.157C141.687 165.645 141.419 164.949 141.371 164.069C141.363 163.965 141.359 163.833 141.359 163.673C141.359 163.505 141.363 163.369 141.371 163.265C141.403 162.697 141.535 162.201 141.767 161.777C141.999 161.345 142.315 161.013 142.715 160.781C143.123 160.549 143.599 160.433 144.143 160.433C144.751 160.433 145.259 160.561 145.667 160.817C146.083 161.073 146.399 161.437 146.615 161.909C146.831 162.381 146.939 162.933 146.939 163.565V163.769C146.939 163.857 146.911 163.925 146.855 163.973C146.807 164.021 146.743 164.045 146.663 164.045H142.511C142.511 164.053 142.511 164.069 142.511 164.093C142.511 164.117 142.511 164.137 142.511 164.153C142.527 164.481 142.599 164.789 142.727 165.077C142.855 165.357 143.039 165.585 143.279 165.761C143.519 165.937 143.807 166.025 144.143 166.025C144.431 166.025 144.671 165.981 144.863 165.893C145.055 165.805 145.211 165.709 145.331 165.605C145.451 165.493 145.531 165.409 145.571 165.353C145.643 165.249 145.699 165.189 145.739 165.173C145.779 165.149 145.843 165.137 145.931 165.137H146.507C146.587 165.137 146.651 165.161 146.699 165.209C146.755 165.249 146.779 165.309 146.771 165.389C146.763 165.509 146.699 165.657 146.579 165.833C146.459 166.001 146.287 166.169 146.063 166.337C145.839 166.505 145.567 166.645 145.247 166.757C144.927 166.861 144.559 166.913 144.143 166.913ZM142.511 163.217H145.799V163.181C145.799 162.821 145.731 162.501 145.595 162.221C145.467 161.941 145.279 161.721 145.031 161.561C144.783 161.393 144.487 161.309 144.143 161.309C143.799 161.309 143.503 161.393 143.255 161.561C143.015 161.721 142.831 161.941 142.703 162.221C142.575 162.501 142.511 162.821 142.511 163.181V163.217ZM148.662 169.073C148.582 169.073 148.514 169.045 148.458 168.989C148.41 168.941 148.386 168.877 148.386 168.797V160.829C148.386 160.749 148.41 160.685 148.458 160.637C148.514 160.581 148.582 160.553 148.662 160.553H149.214C149.294 160.553 149.358 160.581 149.406 160.637C149.462 160.685 149.49 160.749 149.49 160.829V161.357C149.682 161.093 149.938 160.873 150.258 160.697C150.578 160.521 150.978 160.433 151.458 160.433C151.906 160.433 152.286 160.509 152.598 160.661C152.918 160.813 153.178 161.021 153.378 161.285C153.586 161.549 153.742 161.849 153.846 162.185C153.95 162.521 154.006 162.881 154.014 163.265C154.022 163.393 154.026 163.529 154.026 163.673C154.026 163.817 154.022 163.953 154.014 164.081C154.006 164.457 153.95 164.817 153.846 165.161C153.742 165.497 153.586 165.797 153.378 166.061C153.178 166.317 152.918 166.525 152.598 166.685C152.286 166.837 151.906 166.913 151.458 166.913C150.994 166.913 150.602 166.829 150.282 166.661C149.97 166.485 149.714 166.269 149.514 166.013V168.797C149.514 168.877 149.49 168.941 149.442 168.989C149.394 169.045 149.326 169.073 149.238 169.073H148.662ZM151.206 165.941C151.622 165.941 151.946 165.853 152.178 165.677C152.418 165.493 152.59 165.257 152.694 164.969C152.798 164.673 152.858 164.357 152.874 164.021C152.882 163.789 152.882 163.557 152.874 163.325C152.858 162.989 152.798 162.677 152.694 162.389C152.59 162.093 152.418 161.857 152.178 161.681C151.946 161.497 151.622 161.405 151.206 161.405C150.814 161.405 150.494 161.497 150.246 161.681C150.006 161.865 149.826 162.101 149.706 162.389C149.594 162.669 149.53 162.957 149.514 163.253C149.506 163.381 149.502 163.533 149.502 163.709C149.502 163.885 149.506 164.041 149.514 164.177C149.522 164.457 149.586 164.733 149.706 165.005C149.834 165.277 150.022 165.501 150.27 165.677C150.518 165.853 150.83 165.941 151.206 165.941ZM155.151 166.793C155.079 166.793 155.019 166.777 154.971 166.745C154.931 166.713 154.911 166.665 154.911 166.601C154.911 166.561 154.931 166.509 154.971 166.445L157.023 163.529L155.211 160.889C155.195 160.865 155.183 160.841 155.175 160.817C155.167 160.785 155.163 160.761 155.163 160.745C155.163 160.681 155.183 160.633 155.223 160.601C155.271 160.569 155.331 160.553 155.403 160.553H156.027C156.107 160.553 156.171 160.569 156.219 160.601C156.267 160.633 156.311 160.677 156.351 160.733L157.971 163.133H158.883V160.829C158.883 160.749 158.907 160.685 158.955 160.637C159.011 160.581 159.079 160.553 159.159 160.553H159.711C159.799 160.553 159.867 160.581 159.915 160.637C159.963 160.685 159.987 160.749 159.987 160.829V163.133H160.863L162.507 160.733C162.539 160.677 162.579 160.633 162.627 160.601C162.683 160.569 162.747 160.553 162.819 160.553H163.455C163.527 160.553 163.583 160.569 163.623 160.601C163.671 160.633 163.695 160.681 163.695 160.745C163.695 160.761 163.687 160.785 163.671 160.817C163.663 160.841 163.651 160.865 163.635 160.889L161.835 163.529L163.887 166.445C163.919 166.493 163.935 166.545 163.935 166.601C163.935 166.665 163.915 166.713 163.875 166.745C163.835 166.777 163.775 166.793 163.695 166.793H162.975C162.895 166.793 162.827 166.777 162.771 166.745C162.723 166.713 162.683 166.669 162.651 166.613L160.899 164.093H159.987V166.517C159.987 166.597 159.963 166.665 159.915 166.721C159.867 166.769 159.799 166.793 159.711 166.793H159.159C159.079 166.793 159.011 166.769 158.955 166.721C158.907 166.665 158.883 166.597 158.883 166.517V164.093H157.971L156.195 166.613C156.171 166.669 156.131 166.713 156.075 166.745C156.027 166.777 155.963 166.793 155.883 166.793H155.151ZM165.361 166.793C165.289 166.793 165.225 166.769 165.169 166.721C165.121 166.665 165.097 166.605 165.097 166.541V160.829C165.097 160.749 165.121 160.685 165.169 160.637C165.225 160.581 165.293 160.553 165.373 160.553H165.949C166.029 160.553 166.093 160.581 166.141 160.637C166.189 160.685 166.213 160.749 166.213 160.829V165.917L165.901 165.593L169.537 160.733C169.577 160.685 169.621 160.645 169.669 160.613C169.717 160.573 169.777 160.553 169.849 160.553H170.401C170.465 160.553 170.521 160.577 170.569 160.625C170.625 160.673 170.653 160.729 170.653 160.793V166.517C170.653 166.597 170.625 166.665 170.569 166.721C170.521 166.769 170.457 166.793 170.377 166.793H169.813C169.725 166.793 169.657 166.769 169.609 166.721C169.561 166.665 169.537 166.597 169.537 166.517V161.729L169.873 161.717L166.213 166.613C166.181 166.653 166.141 166.693 166.093 166.733C166.045 166.773 165.981 166.793 165.901 166.793H165.361ZM172.685 166.793C172.605 166.793 172.537 166.769 172.481 166.721C172.433 166.665 172.409 166.597 172.409 166.517V160.829C172.409 160.749 172.433 160.685 172.481 160.637C172.537 160.581 172.605 160.553 172.685 160.553H175.181C175.933 160.553 176.497 160.705 176.873 161.009C177.257 161.313 177.449 161.721 177.449 162.233C177.449 162.593 177.381 162.865 177.245 163.049C177.109 163.233 176.917 163.389 176.669 163.517C176.973 163.645 177.201 163.853 177.353 164.141C177.513 164.421 177.593 164.713 177.593 165.017C177.593 165.593 177.389 166.033 176.981 166.337C176.573 166.641 176.005 166.793 175.277 166.793H172.685ZM173.513 165.917H175.181C175.565 165.917 175.873 165.845 176.105 165.701C176.345 165.549 176.465 165.321 176.465 165.017C176.465 164.697 176.357 164.465 176.141 164.321C175.925 164.169 175.605 164.093 175.181 164.093H173.513V165.917ZM173.513 163.205H175.109C175.493 163.205 175.797 163.121 176.021 162.953C176.253 162.785 176.369 162.549 176.369 162.245C176.369 161.933 176.253 161.721 176.021 161.609C175.797 161.489 175.493 161.429 175.109 161.429H173.513V163.205ZM180.876 166.913C180.476 166.913 180.112 166.833 179.784 166.673C179.456 166.513 179.192 166.297 178.992 166.025C178.792 165.753 178.692 165.445 178.692 165.101C178.692 164.549 178.916 164.109 179.364 163.781C179.812 163.453 180.396 163.237 181.116 163.133L182.904 162.881V162.533C182.904 162.149 182.792 161.849 182.568 161.633C182.352 161.417 181.996 161.309 181.5 161.309C181.14 161.309 180.848 161.381 180.624 161.525C180.408 161.669 180.256 161.853 180.168 162.077C180.12 162.197 180.036 162.257 179.916 162.257H179.376C179.288 162.257 179.22 162.233 179.172 162.185C179.132 162.129 179.112 162.065 179.112 161.993C179.112 161.873 179.156 161.725 179.244 161.549C179.34 161.373 179.484 161.201 179.676 161.033C179.868 160.865 180.112 160.725 180.408 160.613C180.712 160.493 181.08 160.433 181.512 160.433C181.992 160.433 182.396 160.497 182.724 160.625C183.052 160.745 183.308 160.909 183.492 161.117C183.684 161.325 183.82 161.561 183.9 161.825C183.988 162.089 184.032 162.357 184.032 162.629V166.517C184.032 166.597 184.004 166.665 183.948 166.721C183.9 166.769 183.836 166.793 183.756 166.793H183.204C183.116 166.793 183.048 166.769 183 166.721C182.952 166.665 182.928 166.597 182.928 166.517V166.001C182.824 166.145 182.684 166.289 182.508 166.433C182.332 166.569 182.112 166.685 181.848 166.781C181.584 166.869 181.26 166.913 180.876 166.913ZM181.128 166.013C181.456 166.013 181.756 165.945 182.028 165.809C182.3 165.665 182.512 165.445 182.664 165.149C182.824 164.853 182.904 164.481 182.904 164.033V163.697L181.512 163.901C180.944 163.981 180.516 164.117 180.228 164.309C179.94 164.493 179.796 164.729 179.796 165.017C179.796 165.241 179.86 165.429 179.988 165.581C180.124 165.725 180.292 165.833 180.492 165.905C180.7 165.977 180.912 166.013 181.128 166.013ZM188.241 166.913C187.417 166.913 186.761 166.661 186.273 166.157C185.785 165.645 185.517 164.949 185.469 164.069C185.461 163.965 185.457 163.833 185.457 163.673C185.457 163.505 185.461 163.369 185.469 163.265C185.501 162.697 185.633 162.201 185.865 161.777C186.097 161.345 186.413 161.013 186.813 160.781C187.221 160.549 187.697 160.433 188.241 160.433C188.849 160.433 189.357 160.561 189.765 160.817C190.181 161.073 190.497 161.437 190.713 161.909C190.929 162.381 191.037 162.933 191.037 163.565V163.769C191.037 163.857 191.009 163.925 190.953 163.973C190.905 164.021 190.841 164.045 190.761 164.045H186.609C186.609 164.053 186.609 164.069 186.609 164.093C186.609 164.117 186.609 164.137 186.609 164.153C186.625 164.481 186.697 164.789 186.825 165.077C186.953 165.357 187.137 165.585 187.377 165.761C187.617 165.937 187.905 166.025 188.241 166.025C188.529 166.025 188.769 165.981 188.961 165.893C189.153 165.805 189.309 165.709 189.429 165.605C189.549 165.493 189.629 165.409 189.669 165.353C189.741 165.249 189.797 165.189 189.837 165.173C189.877 165.149 189.941 165.137 190.029 165.137H190.605C190.685 165.137 190.749 165.161 190.797 165.209C190.853 165.249 190.877 165.309 190.869 165.389C190.861 165.509 190.797 165.657 190.677 165.833C190.557 166.001 190.385 166.169 190.161 166.337C189.937 166.505 189.665 166.645 189.345 166.757C189.025 166.861 188.657 166.913 188.241 166.913ZM186.609 163.217H189.897V163.181C189.897 162.821 189.829 162.501 189.693 162.221C189.565 161.941 189.377 161.721 189.129 161.561C188.881 161.393 188.585 161.309 188.241 161.309C187.897 161.309 187.601 161.393 187.353 161.561C187.113 161.721 186.929 161.941 186.801 162.221C186.673 162.501 186.609 162.821 186.609 163.181V163.217ZM192.736 166.793C192.656 166.793 192.592 166.769 192.544 166.721C192.496 166.673 192.472 166.609 192.472 166.529V160.781C192.472 160.717 192.496 160.665 192.544 160.625C192.6 160.577 192.656 160.553 192.712 160.553H193.324C193.452 160.553 193.552 160.617 193.624 160.745L195.664 164.561L197.716 160.745C197.788 160.617 197.888 160.553 198.016 160.553H198.616C198.68 160.553 198.736 160.577 198.784 160.625C198.832 160.665 198.856 160.717 198.856 160.781V166.529C198.856 166.609 198.832 166.673 198.784 166.721C198.736 166.769 198.676 166.793 198.604 166.793H198.016C197.936 166.793 197.872 166.769 197.824 166.721C197.776 166.673 197.752 166.609 197.752 166.529V161.741L198.172 161.789L196.216 165.485C196.176 165.565 196.128 165.637 196.072 165.701C196.016 165.765 195.932 165.797 195.82 165.797H195.508C195.404 165.797 195.324 165.765 195.268 165.701C195.212 165.637 195.16 165.565 195.112 165.485L193.216 161.969L193.588 161.933V166.529C193.588 166.609 193.564 166.673 193.516 166.721C193.468 166.769 193.404 166.793 193.324 166.793H192.736ZM200.928 166.793C200.848 166.793 200.78 166.769 200.724 166.721C200.676 166.665 200.652 166.597 200.652 166.517V160.829C200.652 160.749 200.676 160.685 200.724 160.637C200.78 160.581 200.848 160.553 200.928 160.553H201.504C201.584 160.553 201.648 160.581 201.696 160.637C201.752 160.685 201.78 160.749 201.78 160.829V162.593H203.028C203.844 162.593 204.44 162.785 204.816 163.169C205.192 163.553 205.38 164.073 205.38 164.729C205.38 165.433 205.172 165.953 204.756 166.289C204.34 166.625 203.716 166.793 202.884 166.793H200.928ZM201.768 165.893H202.92C203.408 165.893 203.764 165.809 203.988 165.641C204.212 165.465 204.324 165.161 204.324 164.729C204.324 164.313 204.216 164.005 204 163.805C203.784 163.597 203.424 163.493 202.92 163.493H201.768V165.893ZM206.508 166.793C206.428 166.793 206.36 166.769 206.304 166.721C206.256 166.665 206.232 166.597 206.232 166.517V160.829C206.232 160.749 206.256 160.685 206.304 160.637C206.36 160.581 206.428 160.553 206.508 160.553H207.084C207.164 160.553 207.228 160.581 207.276 160.637C207.332 160.685 207.36 160.749 207.36 160.829V166.517C207.36 166.597 207.332 166.665 207.276 166.721C207.228 166.769 207.164 166.793 207.084 166.793H206.508ZM211.632 166.913C210.808 166.913 210.152 166.661 209.664 166.157C209.176 165.645 208.908 164.949 208.86 164.069C208.852 163.965 208.848 163.833 208.848 163.673C208.848 163.505 208.852 163.369 208.86 163.265C208.892 162.697 209.024 162.201 209.256 161.777C209.488 161.345 209.804 161.013 210.204 160.781C210.612 160.549 211.088 160.433 211.632 160.433C212.24 160.433 212.748 160.561 213.156 160.817C213.572 161.073 213.888 161.437 214.104 161.909C214.32 162.381 214.428 162.933 214.428 163.565V163.769C214.428 163.857 214.4 163.925 214.344 163.973C214.296 164.021 214.232 164.045 214.152 164.045H210C210 164.053 210 164.069 210 164.093C210 164.117 210 164.137 210 164.153C210.016 164.481 210.088 164.789 210.216 165.077C210.344 165.357 210.528 165.585 210.768 165.761C211.008 165.937 211.296 166.025 211.632 166.025C211.92 166.025 212.16 165.981 212.352 165.893C212.544 165.805 212.7 165.709 212.82 165.605C212.94 165.493 213.02 165.409 213.06 165.353C213.132 165.249 213.188 165.189 213.228 165.173C213.268 165.149 213.332 165.137 213.42 165.137H213.996C214.076 165.137 214.14 165.161 214.188 165.209C214.244 165.249 214.268 165.309 214.26 165.389C214.252 165.509 214.188 165.657 214.068 165.833C213.948 166.001 213.776 166.169 213.552 166.337C213.328 166.505 213.056 166.645 212.736 166.757C212.416 166.861 212.048 166.913 211.632 166.913ZM210 163.217H213.288V163.181C213.288 162.821 213.22 162.501 213.084 162.221C212.956 161.941 212.768 161.721 212.52 161.561C212.272 161.393 211.976 161.309 211.632 161.309C211.288 161.309 210.992 161.393 210.744 161.561C210.504 161.721 210.32 161.941 210.192 162.221C210.064 162.501 210 162.821 210 163.181V163.217ZM221.936 169.073C221.856 169.073 221.788 169.045 221.732 168.989C221.684 168.941 221.66 168.877 221.66 168.797V166.793C220.956 166.793 220.376 166.677 219.92 166.445C219.472 166.213 219.136 165.893 218.912 165.485C218.696 165.077 218.572 164.613 218.54 164.093C218.524 163.813 218.524 163.533 218.54 163.253C218.572 162.725 218.7 162.261 218.924 161.861C219.148 161.453 219.484 161.133 219.932 160.901C220.388 160.669 220.964 160.553 221.66 160.553V158.549C221.66 158.469 221.684 158.405 221.732 158.357C221.788 158.301 221.856 158.273 221.936 158.273H222.5C222.58 158.273 222.644 158.301 222.692 158.357C222.748 158.405 222.776 158.469 222.776 158.549V160.553C223.472 160.553 224.044 160.669 224.492 160.901C224.948 161.133 225.288 161.453 225.512 161.861C225.744 162.261 225.872 162.725 225.896 163.253C225.912 163.533 225.912 163.813 225.896 164.093C225.872 164.613 225.748 165.077 225.524 165.485C225.3 165.893 224.964 166.213 224.516 166.445C224.068 166.677 223.488 166.793 222.776 166.793V168.797C222.776 168.877 222.748 168.941 222.692 168.989C222.644 169.045 222.58 169.073 222.5 169.073H221.936ZM221.66 165.869V161.477C221.012 161.477 220.524 161.633 220.196 161.945C219.868 162.257 219.688 162.721 219.656 163.337C219.648 163.457 219.644 163.573 219.644 163.685C219.644 163.789 219.648 163.897 219.656 164.009C219.696 164.625 219.876 165.089 220.196 165.401C220.524 165.713 221.012 165.869 221.66 165.869ZM222.776 165.869C223.432 165.869 223.92 165.713 224.24 165.401C224.568 165.081 224.748 164.617 224.78 164.009C224.788 163.897 224.792 163.789 224.792 163.685C224.792 163.573 224.788 163.457 224.78 163.337C224.756 162.721 224.576 162.257 224.24 161.945C223.912 161.633 223.424 161.477 222.776 161.477V165.869ZM229.962 166.913C229.354 166.913 228.846 166.797 228.438 166.565C228.03 166.333 227.718 166.013 227.502 165.605C227.286 165.189 227.166 164.717 227.142 164.189C227.134 164.053 227.13 163.881 227.13 163.673C227.13 163.457 227.134 163.285 227.142 163.157C227.166 162.621 227.286 162.149 227.502 161.741C227.726 161.333 228.042 161.013 228.45 160.781C228.858 160.549 229.362 160.433 229.962 160.433C230.562 160.433 231.066 160.549 231.474 160.781C231.882 161.013 232.194 161.333 232.41 161.741C232.634 162.149 232.758 162.621 232.782 163.157C232.79 163.285 232.794 163.457 232.794 163.673C232.794 163.881 232.79 164.053 232.782 164.189C232.758 164.717 232.638 165.189 232.422 165.605C232.206 166.013 231.894 166.333 231.486 166.565C231.078 166.797 230.57 166.913 229.962 166.913ZM229.962 165.989C230.458 165.989 230.854 165.833 231.15 165.521C231.446 165.201 231.606 164.737 231.63 164.129C231.638 164.009 231.642 163.857 231.642 163.673C231.642 163.489 231.638 163.337 231.63 163.217C231.606 162.609 231.446 162.149 231.15 161.837C230.854 161.517 230.458 161.357 229.962 161.357C229.466 161.357 229.066 161.517 228.762 161.837C228.466 162.149 228.31 162.609 228.294 163.217C228.286 163.337 228.282 163.489 228.282 163.673C228.282 163.857 228.286 164.009 228.294 164.129C228.31 164.737 228.466 165.201 228.762 165.521C229.066 165.833 229.466 165.989 229.962 165.989ZM234.584 169.073C234.504 169.073 234.436 169.045 234.38 168.989C234.332 168.941 234.308 168.877 234.308 168.797V160.829C234.308 160.749 234.332 160.685 234.38 160.637C234.436 160.581 234.504 160.553 234.584 160.553H235.136C235.216 160.553 235.28 160.581 235.328 160.637C235.384 160.685 235.412 160.749 235.412 160.829V161.357C235.604 161.093 235.86 160.873 236.18 160.697C236.5 160.521 236.9 160.433 237.38 160.433C237.828 160.433 238.208 160.509 238.52 160.661C238.84 160.813 239.1 161.021 239.3 161.285C239.508 161.549 239.664 161.849 239.768 162.185C239.872 162.521 239.928 162.881 239.936 163.265C239.944 163.393 239.948 163.529 239.948 163.673C239.948 163.817 239.944 163.953 239.936 164.081C239.928 164.457 239.872 164.817 239.768 165.161C239.664 165.497 239.508 165.797 239.3 166.061C239.1 166.317 238.84 166.525 238.52 166.685C238.208 166.837 237.828 166.913 237.38 166.913C236.916 166.913 236.524 166.829 236.204 166.661C235.892 166.485 235.636 166.269 235.436 166.013V168.797C235.436 168.877 235.412 168.941 235.364 168.989C235.316 169.045 235.248 169.073 235.16 169.073H234.584ZM237.128 165.941C237.544 165.941 237.868 165.853 238.1 165.677C238.34 165.493 238.512 165.257 238.616 164.969C238.72 164.673 238.78 164.357 238.796 164.021C238.804 163.789 238.804 163.557 238.796 163.325C238.78 162.989 238.72 162.677 238.616 162.389C238.512 162.093 238.34 161.857 238.1 161.681C237.868 161.497 237.544 161.405 237.128 161.405C236.736 161.405 236.416 161.497 236.168 161.681C235.928 161.865 235.748 162.101 235.628 162.389C235.516 162.669 235.452 162.957 235.436 163.253C235.428 163.381 235.424 163.533 235.424 163.709C235.424 163.885 235.428 164.041 235.436 164.177C235.444 164.457 235.508 164.733 235.628 165.005C235.756 165.277 235.944 165.501 236.192 165.677C236.44 165.853 236.752 165.941 237.128 165.941ZM241.709 166.793C241.629 166.793 241.565 166.769 241.517 166.721C241.469 166.673 241.445 166.609 241.445 166.529V160.781C241.445 160.717 241.469 160.665 241.517 160.625C241.573 160.577 241.629 160.553 241.685 160.553H242.297C242.425 160.553 242.525 160.617 242.597 160.745L244.637 164.561L246.689 160.745C246.761 160.617 246.861 160.553 246.989 160.553H247.589C247.653 160.553 247.709 160.577 247.757 160.625C247.805 160.665 247.829 160.717 247.829 160.781V166.529C247.829 166.609 247.805 166.673 247.757 166.721C247.709 166.769 247.649 166.793 247.577 166.793H246.989C246.909 166.793 246.845 166.769 246.797 166.721C246.749 166.673 246.725 166.609 246.725 166.529V161.741L247.145 161.789L245.189 165.485C245.149 165.565 245.101 165.637 245.045 165.701C244.989 165.765 244.905 165.797 244.793 165.797H244.481C244.377 165.797 244.297 165.765 244.241 165.701C244.185 165.637 244.133 165.565 244.085 165.485L242.189 161.969L242.561 161.933V166.529C242.561 166.609 242.537 166.673 242.489 166.721C242.441 166.769 242.377 166.793 242.297 166.793H241.709ZM251.364 166.913C250.964 166.913 250.6 166.833 250.272 166.673C249.944 166.513 249.68 166.297 249.48 166.025C249.28 165.753 249.18 165.445 249.18 165.101C249.18 164.549 249.404 164.109 249.852 163.781C250.3 163.453 250.884 163.237 251.604 163.133L253.392 162.881V162.533C253.392 162.149 253.28 161.849 253.056 161.633C252.84 161.417 252.484 161.309 251.988 161.309C251.628 161.309 251.336 161.381 251.112 161.525C250.896 161.669 250.744 161.853 250.656 162.077C250.608 162.197 250.524 162.257 250.404 162.257H249.864C249.776 162.257 249.708 162.233 249.66 162.185C249.62 162.129 249.6 162.065 249.6 161.993C249.6 161.873 249.644 161.725 249.732 161.549C249.828 161.373 249.972 161.201 250.164 161.033C250.356 160.865 250.6 160.725 250.896 160.613C251.2 160.493 251.568 160.433 252 160.433C252.48 160.433 252.884 160.497 253.212 160.625C253.54 160.745 253.796 160.909 253.98 161.117C254.172 161.325 254.308 161.561 254.388 161.825C254.476 162.089 254.52 162.357 254.52 162.629V166.517C254.52 166.597 254.492 166.665 254.436 166.721C254.388 166.769 254.324 166.793 254.244 166.793H253.692C253.604 166.793 253.536 166.769 253.488 166.721C253.44 166.665 253.416 166.597 253.416 166.517V166.001C253.312 166.145 253.172 166.289 252.996 166.433C252.82 166.569 252.6 166.685 252.336 166.781C252.072 166.869 251.748 166.913 251.364 166.913ZM251.616 166.013C251.944 166.013 252.244 165.945 252.516 165.809C252.788 165.665 253 165.445 253.152 165.149C253.312 164.853 253.392 164.481 253.392 164.033V163.697L252 163.901C251.432 163.981 251.004 164.117 250.716 164.309C250.428 164.493 250.284 164.729 250.284 165.017C250.284 165.241 250.348 165.429 250.476 165.581C250.612 165.725 250.78 165.833 250.98 165.905C251.188 165.977 251.4 166.013 251.616 166.013ZM258.153 166.793C258.073 166.793 258.005 166.769 257.949 166.721C257.901 166.665 257.877 166.597 257.877 166.517V161.513H255.789C255.709 161.513 255.641 161.489 255.585 161.441C255.537 161.385 255.513 161.317 255.513 161.237V160.829C255.513 160.749 255.537 160.685 255.585 160.637C255.641 160.581 255.709 160.553 255.789 160.553H261.069C261.149 160.553 261.213 160.581 261.261 160.637C261.317 160.685 261.345 160.749 261.345 160.829V161.237C261.345 161.317 261.317 161.385 261.261 161.441C261.213 161.489 261.149 161.513 261.069 161.513H258.981V166.517C258.981 166.597 258.957 166.665 258.909 166.721C258.861 166.769 258.793 166.793 258.705 166.793H258.153ZM262.662 166.793C262.582 166.793 262.514 166.769 262.458 166.721C262.41 166.665 262.386 166.597 262.386 166.517V160.829C262.386 160.749 262.41 160.685 262.458 160.637C262.514 160.581 262.582 160.553 262.662 160.553H263.238C263.318 160.553 263.382 160.581 263.43 160.637C263.486 160.685 263.514 160.749 263.514 160.829V162.593H264.762C265.578 162.593 266.174 162.785 266.55 163.169C266.926 163.553 267.114 164.073 267.114 164.729C267.114 165.433 266.906 165.953 266.49 166.289C266.074 166.625 265.45 166.793 264.618 166.793H262.662ZM263.502 165.893H264.654C265.142 165.893 265.498 165.809 265.722 165.641C265.946 165.465 266.058 165.161 266.058 164.729C266.058 164.313 265.95 164.005 265.734 163.805C265.518 163.597 265.158 163.493 264.654 163.493H263.502V165.893ZM268.242 166.793C268.162 166.793 268.094 166.769 268.038 166.721C267.99 166.665 267.966 166.597 267.966 166.517V160.829C267.966 160.749 267.99 160.685 268.038 160.637C268.094 160.581 268.162 160.553 268.242 160.553H268.818C268.898 160.553 268.962 160.581 269.01 160.637C269.066 160.685 269.094 160.749 269.094 160.829V166.517C269.094 166.597 269.066 166.665 269.01 166.721C268.962 166.769 268.898 166.793 268.818 166.793H268.242ZM271.098 162.593C271.018 162.593 270.95 162.569 270.894 162.521C270.846 162.465 270.822 162.397 270.822 162.317V161.477C270.822 161.397 270.846 161.333 270.894 161.285C270.95 161.229 271.018 161.201 271.098 161.201H271.95C272.038 161.201 272.106 161.229 272.154 161.285C272.21 161.333 272.238 161.397 272.238 161.477V162.317C272.238 162.397 272.21 162.465 272.154 162.521C272.106 162.569 272.038 162.593 271.95 162.593H271.098ZM271.098 166.793C271.018 166.793 270.95 166.769 270.894 166.721C270.846 166.665 270.822 166.597 270.822 166.517V165.677C270.822 165.597 270.846 165.533 270.894 165.485C270.95 165.429 271.018 165.401 271.098 165.401H271.95C272.038 165.401 272.106 165.429 272.154 165.485C272.21 165.533 272.238 165.597 272.238 165.677V166.517C272.238 166.597 272.21 166.665 272.154 166.721C272.106 166.769 272.038 166.793 271.95 166.793H271.098ZM150.616 184.913C150.208 184.913 149.82 184.865 149.452 184.769C149.092 184.665 148.768 184.509 148.48 184.301C148.2 184.085 147.976 183.817 147.808 183.497C147.64 183.177 147.548 182.801 147.532 182.369C147.532 182.297 147.556 182.237 147.604 182.189C147.652 182.133 147.716 182.105 147.796 182.105H148.444C148.532 182.105 148.6 182.133 148.648 182.189C148.704 182.237 148.74 182.301 148.756 182.381C148.788 182.741 148.892 183.033 149.068 183.257C149.244 183.473 149.468 183.633 149.74 183.737C150.012 183.841 150.312 183.893 150.64 183.893C151.248 183.893 151.712 183.693 152.032 183.293C152.352 182.893 152.512 182.361 152.512 181.697V177.437H148.252C148.172 177.437 148.104 177.413 148.048 177.365C148 177.309 147.976 177.241 147.976 177.161V176.669C147.976 176.589 148 176.525 148.048 176.477C148.104 176.421 148.172 176.393 148.252 176.393H153.424C153.512 176.393 153.58 176.421 153.628 176.477C153.684 176.525 153.712 176.593 153.712 176.681V181.721C153.712 182.369 153.588 182.933 153.34 183.413C153.092 183.893 152.74 184.265 152.284 184.529C151.828 184.785 151.272 184.913 150.616 184.913ZM156.002 184.793C155.914 184.793 155.846 184.769 155.798 184.721C155.75 184.665 155.726 184.597 155.726 184.517V176.681C155.726 176.593 155.75 176.525 155.798 176.477C155.846 176.421 155.914 176.393 156.002 176.393H159.05C159.642 176.393 160.154 176.489 160.586 176.681C161.026 176.873 161.366 177.161 161.606 177.545C161.846 177.921 161.966 178.393 161.966 178.961C161.966 179.529 161.846 180.001 161.606 180.377C161.366 180.753 161.026 181.037 160.586 181.229C160.154 181.421 159.642 181.517 159.05 181.517H156.926V184.517C156.926 184.597 156.898 184.665 156.842 184.721C156.794 184.769 156.726 184.793 156.638 184.793H156.002ZM156.914 180.509H158.99C159.582 180.509 160.026 180.377 160.322 180.113C160.618 179.849 160.766 179.465 160.766 178.961C160.766 178.465 160.622 178.081 160.334 177.809C160.046 177.537 159.598 177.401 158.99 177.401H156.914V180.509ZM163.701 184.793C163.613 184.793 163.545 184.769 163.497 184.721C163.449 184.665 163.425 184.597 163.425 184.517V176.681C163.425 176.593 163.449 176.525 163.497 176.477C163.545 176.421 163.613 176.393 163.701 176.393H168.657C168.745 176.393 168.813 176.421 168.861 176.477C168.909 176.525 168.933 176.593 168.933 176.681V177.137C168.933 177.225 168.909 177.293 168.861 177.341C168.813 177.389 168.745 177.413 168.657 177.413H164.577V180.041H168.393C168.481 180.041 168.549 180.069 168.597 180.125C168.645 180.173 168.669 180.241 168.669 180.329V180.773C168.669 180.853 168.645 180.921 168.597 180.977C168.549 181.025 168.481 181.049 168.393 181.049H164.577V183.773H168.753C168.841 183.773 168.909 183.797 168.957 183.845C169.005 183.893 169.029 183.961 169.029 184.049V184.517C169.029 184.597 169.005 184.665 168.957 184.721C168.909 184.769 168.841 184.793 168.753 184.793H163.701ZM173.668 184.913C172.964 184.913 172.364 184.781 171.868 184.517C171.38 184.253 171.004 183.881 170.74 183.401C170.484 182.921 170.34 182.357 170.308 181.709C170.3 181.357 170.296 180.985 170.296 180.593C170.296 180.193 170.3 179.813 170.308 179.453C170.34 178.805 170.484 178.245 170.74 177.773C171.004 177.301 171.384 176.933 171.88 176.669C172.376 176.405 172.972 176.273 173.668 176.273C174.236 176.273 174.728 176.353 175.144 176.513C175.56 176.673 175.9 176.877 176.164 177.125C176.436 177.365 176.636 177.617 176.764 177.881C176.9 178.145 176.972 178.377 176.98 178.577C176.988 178.649 176.968 178.709 176.92 178.757C176.872 178.797 176.808 178.817 176.728 178.817H176.02C175.94 178.817 175.88 178.801 175.84 178.769C175.808 178.737 175.776 178.681 175.744 178.601C175.672 178.393 175.552 178.189 175.384 177.989C175.224 177.789 175.004 177.625 174.724 177.497C174.452 177.361 174.1 177.293 173.668 177.293C173.036 177.293 172.524 177.465 172.132 177.809C171.748 178.153 171.54 178.721 171.508 179.513C171.484 180.225 171.484 180.937 171.508 181.649C171.54 182.449 171.752 183.025 172.144 183.377C172.536 183.721 173.048 183.893 173.68 183.893C174.104 183.893 174.48 183.817 174.808 183.665C175.144 183.505 175.408 183.261 175.6 182.933C175.792 182.605 175.888 182.189 175.888 181.685V181.181H174.088C174.008 181.181 173.94 181.157 173.884 181.109C173.836 181.053 173.812 180.981 173.812 180.893V180.509C173.812 180.421 173.836 180.353 173.884 180.305C173.94 180.249 174.008 180.221 174.088 180.221H176.8C176.888 180.221 176.956 180.249 177.004 180.305C177.052 180.353 177.076 180.421 177.076 180.509V181.661C177.076 182.317 176.94 182.889 176.668 183.377C176.404 183.865 176.016 184.245 175.504 184.517C174.992 184.781 174.38 184.913 173.668 184.913ZM178.372 185.693C178.308 185.693 178.256 185.669 178.216 185.621C178.184 185.573 178.172 185.513 178.18 185.441L178.456 183.725C178.472 183.629 178.504 183.549 178.552 183.485C178.608 183.413 178.688 183.377 178.792 183.377H179.596C179.652 183.377 179.696 183.397 179.728 183.437C179.768 183.477 179.788 183.525 179.788 183.581C179.788 183.645 179.772 183.709 179.74 183.773L179.116 185.417C179.084 185.497 179.04 185.561 178.984 185.609C178.936 185.665 178.864 185.693 178.768 185.693H178.372ZM184.818 184.793C184.73 184.793 184.662 184.769 184.614 184.721C184.566 184.665 184.542 184.597 184.542 184.517V176.681C184.542 176.593 184.566 176.525 184.614 176.477C184.662 176.421 184.73 176.393 184.818 176.393H187.866C188.458 176.393 188.97 176.489 189.402 176.681C189.842 176.873 190.182 177.161 190.422 177.545C190.662 177.921 190.782 178.393 190.782 178.961C190.782 179.529 190.662 180.001 190.422 180.377C190.182 180.753 189.842 181.037 189.402 181.229C188.97 181.421 188.458 181.517 187.866 181.517H185.742V184.517C185.742 184.597 185.714 184.665 185.658 184.721C185.61 184.769 185.542 184.793 185.454 184.793H184.818ZM185.73 180.509H187.806C188.398 180.509 188.842 180.377 189.138 180.113C189.434 179.849 189.582 179.465 189.582 178.961C189.582 178.465 189.438 178.081 189.15 177.809C188.862 177.537 188.414 177.401 187.806 177.401H185.73V180.509ZM192.517 184.793C192.429 184.793 192.361 184.769 192.313 184.721C192.265 184.665 192.241 184.597 192.241 184.517V176.681C192.241 176.593 192.265 176.525 192.313 176.477C192.361 176.421 192.429 176.393 192.517 176.393H193.069C193.165 176.393 193.237 176.417 193.285 176.465C193.333 176.505 193.361 176.537 193.369 176.561L197.353 182.681V176.681C197.353 176.593 197.377 176.525 197.425 176.477C197.473 176.421 197.541 176.393 197.629 176.393H198.205C198.293 176.393 198.361 176.421 198.409 176.477C198.465 176.525 198.493 176.593 198.493 176.681V184.505C198.493 184.585 198.465 184.653 198.409 184.709C198.361 184.765 198.297 184.793 198.217 184.793H197.641C197.553 184.793 197.485 184.769 197.437 184.721C197.397 184.673 197.369 184.641 197.353 184.625L193.381 178.565V184.517C193.381 184.597 193.353 184.665 193.297 184.721C193.249 184.769 193.181 184.793 193.093 184.793H192.517ZM203.621 184.913C202.917 184.913 202.317 184.781 201.821 184.517C201.333 184.253 200.957 183.881 200.693 183.401C200.437 182.921 200.293 182.357 200.261 181.709C200.253 181.357 200.249 180.985 200.249 180.593C200.249 180.193 200.253 179.813 200.261 179.453C200.293 178.805 200.437 178.245 200.693 177.773C200.957 177.301 201.337 176.933 201.833 176.669C202.329 176.405 202.925 176.273 203.621 176.273C204.189 176.273 204.681 176.353 205.097 176.513C205.513 176.673 205.853 176.877 206.117 177.125C206.389 177.365 206.589 177.617 206.717 177.881C206.853 178.145 206.925 178.377 206.933 178.577C206.941 178.649 206.921 178.709 206.873 178.757C206.825 178.797 206.761 178.817 206.681 178.817H205.973C205.893 178.817 205.833 178.801 205.793 178.769C205.761 178.737 205.729 178.681 205.697 178.601C205.625 178.393 205.505 178.189 205.337 177.989C205.177 177.789 204.957 177.625 204.677 177.497C204.405 177.361 204.053 177.293 203.621 177.293C202.989 177.293 202.477 177.465 202.085 177.809C201.701 178.153 201.493 178.721 201.461 179.513C201.437 180.225 201.437 180.937 201.461 181.649C201.493 182.449 201.705 183.025 202.097 183.377C202.489 183.721 203.001 183.893 203.633 183.893C204.057 183.893 204.433 183.817 204.761 183.665C205.097 183.505 205.361 183.261 205.553 182.933C205.745 182.605 205.841 182.189 205.841 181.685V181.181H204.041C203.961 181.181 203.893 181.157 203.837 181.109C203.789 181.053 203.765 180.981 203.765 180.893V180.509C203.765 180.421 203.789 180.353 203.837 180.305C203.893 180.249 203.961 180.221 204.041 180.221H206.753C206.841 180.221 206.909 180.249 206.957 180.305C207.005 180.353 207.029 180.421 207.029 180.509V181.661C207.029 182.317 206.893 182.889 206.621 183.377C206.357 183.865 205.969 184.245 205.457 184.517C204.945 184.781 204.333 184.913 203.621 184.913ZM208.325 185.693C208.261 185.693 208.209 185.669 208.169 185.621C208.137 185.573 208.125 185.513 208.133 185.441L208.409 183.725C208.425 183.629 208.457 183.549 208.505 183.485C208.561 183.413 208.641 183.377 208.745 183.377H209.549C209.605 183.377 209.649 183.397 209.681 183.437C209.721 183.477 209.741 183.525 209.741 183.581C209.741 183.645 209.725 183.709 209.693 183.773L209.069 185.417C209.037 185.497 208.993 185.561 208.937 185.609C208.889 185.665 208.817 185.693 208.721 185.693H208.325ZM216.991 184.913C216.583 184.913 216.195 184.865 215.827 184.769C215.467 184.665 215.143 184.509 214.855 184.301C214.575 184.085 214.351 183.817 214.183 183.497C214.015 183.177 213.923 182.801 213.907 182.369C213.907 182.297 213.931 182.237 213.979 182.189C214.027 182.133 214.091 182.105 214.171 182.105H214.819C214.907 182.105 214.975 182.133 215.023 182.189C215.079 182.237 215.115 182.301 215.131 182.381C215.163 182.741 215.267 183.033 215.443 183.257C215.619 183.473 215.843 183.633 216.115 183.737C216.387 183.841 216.687 183.893 217.015 183.893C217.623 183.893 218.087 183.693 218.407 183.293C218.727 182.893 218.887 182.361 218.887 181.697V177.437H214.627C214.547 177.437 214.479 177.413 214.423 177.365C214.375 177.309 214.351 177.241 214.351 177.161V176.669C214.351 176.589 214.375 176.525 214.423 176.477C214.479 176.421 214.547 176.393 214.627 176.393H219.799C219.887 176.393 219.955 176.421 220.003 176.477C220.059 176.525 220.087 176.593 220.087 176.681V181.721C220.087 182.369 219.963 182.933 219.715 183.413C219.467 183.893 219.115 184.265 218.659 184.529C218.203 184.785 217.647 184.913 216.991 184.913ZM222.377 184.793C222.289 184.793 222.221 184.769 222.173 184.721C222.125 184.665 222.101 184.597 222.101 184.517V176.681C222.101 176.593 222.125 176.525 222.173 176.477C222.221 176.421 222.289 176.393 222.377 176.393H225.425C226.017 176.393 226.529 176.489 226.961 176.681C227.401 176.873 227.741 177.161 227.981 177.545C228.221 177.921 228.341 178.393 228.341 178.961C228.341 179.529 228.221 180.001 227.981 180.377C227.741 180.753 227.401 181.037 226.961 181.229C226.529 181.421 226.017 181.517 225.425 181.517H223.301V184.517C223.301 184.597 223.273 184.665 223.217 184.721C223.169 184.769 223.101 184.793 223.013 184.793H222.377ZM223.289 180.509H225.365C225.957 180.509 226.401 180.377 226.697 180.113C226.993 179.849 227.141 179.465 227.141 178.961C227.141 178.465 226.997 178.081 226.709 177.809C226.421 177.537 225.973 177.401 225.365 177.401H223.289V180.509ZM232.848 184.913C232.144 184.913 231.544 184.781 231.048 184.517C230.56 184.253 230.184 183.881 229.92 183.401C229.664 182.921 229.52 182.357 229.488 181.709C229.48 181.357 229.476 180.985 229.476 180.593C229.476 180.193 229.48 179.813 229.488 179.453C229.52 178.805 229.664 178.245 229.92 177.773C230.184 177.301 230.564 176.933 231.06 176.669C231.556 176.405 232.152 176.273 232.848 176.273C233.416 176.273 233.908 176.353 234.324 176.513C234.74 176.673 235.08 176.877 235.344 177.125C235.616 177.365 235.816 177.617 235.944 177.881C236.08 178.145 236.152 178.377 236.16 178.577C236.168 178.649 236.148 178.709 236.1 178.757C236.052 178.797 235.988 178.817 235.908 178.817H235.2C235.12 178.817 235.06 178.801 235.02 178.769C234.988 178.737 234.956 178.681 234.924 178.601C234.852 178.393 234.732 178.189 234.564 177.989C234.404 177.789 234.184 177.625 233.904 177.497C233.632 177.361 233.28 177.293 232.848 177.293C232.216 177.293 231.704 177.465 231.312 177.809C230.928 178.153 230.72 178.721 230.688 179.513C230.664 180.225 230.664 180.937 230.688 181.649C230.72 182.449 230.932 183.025 231.324 183.377C231.716 183.721 232.228 183.893 232.86 183.893C233.284 183.893 233.66 183.817 233.988 183.665C234.324 183.505 234.588 183.261 234.78 182.933C234.972 182.605 235.068 182.189 235.068 181.685V181.181H233.268C233.188 181.181 233.12 181.157 233.064 181.109C233.016 181.053 232.992 180.981 232.992 180.893V180.509C232.992 180.421 233.016 180.353 233.064 180.305C233.12 180.249 233.188 180.221 233.268 180.221H235.98C236.068 180.221 236.136 180.249 236.184 180.305C236.232 180.353 236.256 180.421 236.256 180.509V181.661C236.256 182.317 236.12 182.889 235.848 183.377C235.584 183.865 235.196 184.245 234.684 184.517C234.172 184.781 233.56 184.913 232.848 184.913Z" fill="#9FA1A8"/>
</svg>
