<svg width="39" height="41" viewBox="0 0 39 41" fill="none" xmlns="http://www.w3.org/2000/svg">
<path d="M31.485 28.5661H28.6515C27.5787 28.5661 27.2471 27.6912 25.3199 25.6879C23.6411 24.0207 22.8986 23.7967 22.4863 23.7967C21.9077 23.7967 21.7425 23.966 21.7425 24.7849V27.4097C21.7425 28.1166 21.5228 28.5394 19.7061 28.5394C16.0416 28.2873 12.8921 26.2374 11.0637 23.2498L11.0364 23.2031C8.91417 20.4997 7.3498 17.2414 6.57607 13.6776L6.54746 13.5216C6.54746 13.0988 6.71261 12.7027 7.51105 12.7027H10.3446C11.0598 12.7027 11.3355 13.0414 11.6125 13.831C13.0143 17.9816 15.355 21.6227 16.3186 21.6227C16.6762 21.6227 16.8414 21.4533 16.8414 20.5223V16.229C16.7308 14.2525 15.7126 14.0844 15.7126 13.3789C15.7243 13.0014 16.026 12.7 16.3953 12.7C16.407 12.7 16.4174 12.7 16.4291 12.7013H16.4278H20.8869C21.4928 12.7013 21.7126 13.0401 21.7126 13.7736V19.562C21.7126 20.1822 21.9883 20.409 22.1534 20.409C22.5111 20.409 22.8153 20.1822 23.4746 19.506C24.8453 17.7895 26.0169 15.8263 26.9103 13.7096L26.9701 13.5496C27.1586 13.0654 27.6112 12.7293 28.1404 12.7293C28.1652 12.7293 28.1886 12.7307 28.2133 12.732H28.2094H31.0429C31.896 12.732 32.0897 13.1815 31.896 13.8043C30.7594 16.3718 29.4824 18.5778 28.0026 20.621L28.0702 20.5223C27.7685 21.0305 27.658 21.2559 28.0702 21.8227C28.3719 22.2455 29.3641 23.1205 30.0247 23.9114C30.9805 24.881 31.7815 26.0093 32.3862 27.255L32.4187 27.3284C32.6944 28.1446 32.2809 28.5688 31.4824 28.5688L31.485 28.5661ZM25.4863 0.0268555H13.5137C2.58648 0.0268555 0 2.67965 0 13.887V26.1667C0 37.3741 2.58648 40.0269 13.5137 40.0269H25.4863C36.4135 40.0269 39 37.3741 39 26.1667V13.887C39 2.67965 36.3849 0.0268555 25.4863 0.0268555Z" fill="#6F6C90"/>
</svg>
