<svg width="31" height="31" viewBox="0 0 31 31" fill="none" xmlns="http://www.w3.org/2000/svg">
<path d="M25.0266 22.1179H22.7743C21.9215 22.1179 21.6579 21.4398 20.1261 19.8873C18.7916 18.5952 18.2014 18.4216 17.8738 18.4216C17.4138 18.4216 17.2825 18.5529 17.2825 19.1875V21.2217C17.2825 21.7696 17.1078 22.0972 15.6638 22.0972C12.751 21.9019 10.2475 20.3132 8.79424 17.9978L8.77253 17.9616C7.08562 15.8664 5.84215 13.3412 5.22713 10.5793L5.20439 10.4584C5.20439 10.1307 5.33567 9.82375 5.97032 9.82375H8.22263C8.79114 9.82375 9.01027 10.0863 9.23044 10.6982C10.3447 13.9149 12.2053 16.7368 12.9712 16.7368C13.2554 16.7368 13.3867 16.6055 13.3867 15.884V12.5567C13.2989 11.0248 12.4895 10.8946 12.4895 10.3478C12.4988 10.0553 12.7386 9.82168 13.0322 9.82168C13.0415 9.82168 13.0497 9.82168 13.0591 9.82271H13.058H16.6024C17.0841 9.82271 17.2587 10.0853 17.2587 10.6538V15.1398C17.2587 15.6204 17.4779 15.7961 17.6091 15.7961C17.8934 15.7961 18.1353 15.6204 18.6593 15.0964C19.7488 13.7661 20.6801 12.2445 21.3902 10.6041L21.4378 10.4801C21.5876 10.1049 21.9474 9.84442 22.368 9.84442C22.3877 9.84442 22.4063 9.84545 22.4259 9.84649H22.4228H24.6751C25.3532 9.84649 25.5072 10.1948 25.3532 10.6775C24.4498 12.6673 23.4348 14.3769 22.2585 15.9605L22.3122 15.884C22.0724 16.2778 21.9846 16.4525 22.3122 16.8918C22.552 17.2195 23.3407 17.8975 23.8658 18.5105C24.6255 19.2619 25.2622 20.1364 25.7429 21.1018L25.7687 21.1587C25.9879 21.7913 25.6592 22.12 25.0245 22.12L25.0266 22.1179ZM20.2584 0H10.7416C2.05592 0 0 2.05592 0 10.7416V20.2584C0 28.9441 2.05592 31 10.7416 31H20.2584C28.9441 31 31 28.9441 31 20.2584V10.7416C31 2.05592 28.9213 0 20.2584 0Z" fill="white"/>
</svg>
